<svg width="20" height="20" viewBox="0 0 20 20" fill="none" xmlns="http://www.w3.org/2000/svg">
<path d="M14.5833 9.16667H10.8333V5.41667C10.8333 5.20833 10.625 5 10.4167 5H9.58333C9.34896 5 9.16667 5.20833 9.16667 5.41667V9.16667H5.41667C5.18229 9.16667 5 9.375 5 9.58333V10.4167C5 10.651 5.18229 10.8333 5.41667 10.8333H9.16667V14.5833C9.16667 14.8177 9.34896 15 9.58333 15H10.4167C10.625 15 10.8333 14.8177 10.8333 14.5833V10.8333H14.5833C14.7917 10.8333 15 10.651 15 10.4167V9.58333C15 9.375 14.7917 9.16667 14.5833 9.16667Z" fill="#303360"/>
</svg>
