<svg width="24" height="24" viewBox="0 0 24 24" fill="none" xmlns="http://www.w3.org/2000/svg">
<path d="M14.6875 8.5H18.5V17.5H5.5V8.5H9.28125L10.0312 6.5H13.9375L14.6875 8.5ZM14.125 5H10.0312C9.40625 5 8.84375 5.40625 8.625 6L8.25 7H5.5C4.65625 7 4 7.6875 4 8.5V17.5C4 18.3438 4.65625 19 5.5 19H18.5C19.3125 19 20 18.3438 20 17.5V8.5C20 7.6875 19.3125 7 18.5 7H15.75L15.2812 5.8125C15.0938 5.34375 14.6562 5 14.125 5ZM12 16.75C14.0625 16.75 15.75 15.0938 15.75 13C15.75 10.9375 14.0625 9.25 12 9.25C9.90625 9.25 8.25 10.9375 8.25 13C8.25 15.0938 9.90625 16.75 12 16.75ZM12 10.75C13.2188 10.75 14.25 11.7812 14.25 13C14.25 14.25 13.2188 15.25 12 15.25C10.75 15.25 9.75 14.25 9.75 13C9.75 11.7812 10.75 10.75 12 10.75Z" fill="#13164A"/>
</svg>
