<svg width="14" height="10" viewBox="0 0 14 10" fill="none" xmlns="http://www.w3.org/2000/svg">
<path d="M9.23438 0.609375L8.60938 1.23438C8.48438 1.39062 8.48438 1.60938 8.64062 1.76562L11.1406 4.17188H0.390625C0.171875 4.17188 0.015625 4.35938 0.015625 4.54688V5.42188C0.015625 5.64062 0.171875 5.79688 0.390625 5.79688H11.1406L8.64062 8.23438C8.48438 8.39062 8.48438 8.60938 8.60938 8.76562L9.23438 9.39062C9.39062 9.51562 9.60938 9.51562 9.76562 9.39062L13.8906 5.26562C14.0156 5.10938 14.0156 4.89062 13.8906 4.73438L9.76562 0.609375C9.60938 0.484375 9.39062 0.484375 9.23438 0.609375Z" fill="#333333"/>
</svg>
