<svg width="24" height="24" viewBox="0 0 24 24" fill="none" xmlns="http://www.w3.org/2000/svg">
<path d="M18.5 6.5H15.9062L14.8438 4.75C14.5938 4.3125 14.0938 4 13.5625 4H10.4062C9.875 4 9.375 4.3125 9.125 4.75L8.0625 6.5H5.5C5.21875 6.5 5 6.75 5 7V7.5C5 7.78125 5.21875 8 5.5 8H6L6.65625 18.5938C6.6875 19.4062 7.34375 20 8.15625 20H15.8125C16.625 20 17.2812 19.4062 17.3125 18.5938L18 8H18.5C18.75 8 19 7.78125 19 7.5V7C19 6.75 18.75 6.5 18.5 6.5ZM10.4062 5.5H13.5625L14.1562 6.5H9.8125L10.4062 5.5ZM15.8125 18.5H8.15625L7.5 8H16.4688L15.8125 18.5Z" fill="#13164A"/>
</svg>
