<svg width="280" height="184" viewBox="0 0 280 184" fill="none" xmlns="http://www.w3.org/2000/svg">
<path d="M33.183 19.2237L33.5 18.2282L32.4689 18.2607C31.9859 18.243 31.5207 18.08 31.1296 17.7926H31.2689C31.897 17.7896 32.4718 17.4311 32.7504 16.8681L33.2037 15.8993C32.8482 15.9023 32.4926 15.8815 32.14 15.837C31.8022 15.7571 31.5 15.5733 31.2718 15.3126C30.9637 14.9837 30.537 14.7971 30.0867 14.7941C29.9119 14.7941 29.737 14.8237 29.5681 14.877C29.5918 14.7971 29.6126 14.7171 29.6274 14.6341C29.6985 14.0563 29.5356 13.4726 29.1771 13.0133L28.3948 12.0504L27.9148 13.1763C27.8378 13.3363 27.7222 13.4756 27.5741 13.5763C27.4911 13.1733 27.2956 12.8059 27.0052 12.5156C26.5192 12.0178 25.8526 11.7393 25.1563 11.7452C25.0348 11.7452 24.9133 11.7541 24.7948 11.7719L23.8585 11.9556C23.9385 11.6415 24.0659 11.3422 24.2378 11.0667L24.7533 10.2637L23.4556 10.3852L23.0407 9.49631L22.2408 9.93186L21.5 9.20001L20.7592 9.93186L19.9593 9.51705L19.5444 10.3852L18.2467 10.237L18.7622 11.043C18.9341 11.3185 19.0615 11.6178 19.1415 11.9319L18.2526 11.7571H18.223C18.0985 11.7393 17.9741 11.7304 17.8496 11.7304C17.1534 11.7245 16.4866 12.003 16.0008 12.5007C15.7074 12.7941 15.5059 13.1674 15.4259 13.5763C15.2837 13.4785 15.1681 13.3452 15.0911 13.1882L14.6081 12.0533L13.82 13.0193C13.4674 13.4785 13.3104 14.0593 13.3785 14.6341C13.3933 14.7171 13.4141 14.7971 13.4378 14.877C13.2689 14.8237 13.0941 14.7941 12.9193 14.7941C12.4689 14.7971 12.0422 14.9837 11.7341 15.3126C11.5089 15.5704 11.2096 15.7541 10.8748 15.837C10.5193 15.8904 10.1578 15.9111 9.7963 15.8993L10.2378 16.883C10.5163 17.4459 11.0911 17.8044 11.7193 17.8074H11.8585C11.4733 18.0889 11.0141 18.2519 10.537 18.2726L9.5 18.2282L9.81704 19.2237C10.0541 20.003 10.7267 20.5748 11.5356 20.6786C11.4526 21.203 11.1207 21.6563 10.6467 21.8934L9.85259 22.2163L10.2793 22.96C10.6319 23.5082 11.2393 23.8341 11.8881 23.8281C12.057 23.8281 12.2259 23.8104 12.3918 23.7749C12.4333 23.9556 12.4867 24.1363 12.5459 24.3111C12.6941 24.7022 12.703 25.1289 12.5756 25.526L12.1904 26.3348L13.0526 26.563C13.2452 26.6133 13.4467 26.637 13.6452 26.637C13.7874 26.637 13.9267 26.6222 14.0659 26.5896C14.1667 26.5659 14.2674 26.5363 14.3622 26.4978C14.4719 26.6963 14.6111 26.88 14.7681 27.043C15.3193 27.6089 16.1015 27.8963 17.0941 27.8963H17.8022L16.3415 28.5037L17.4496 29.0519C17.8971 29.2712 18.3534 29.4696 18.8185 29.6445L18.6852 30.0296L19.0674 30.2045C19.7015 30.4533 20.3741 30.5926 21.0556 30.6163H21.9652C22.6437 30.5926 23.3133 30.4504 23.9445 30.2015L24.3148 30.0296L24.1845 29.6445C24.6556 29.4637 25.1178 29.2593 25.5681 29.0311L26.6556 28.5037L25.1978 27.9111H25.9089C26.9015 27.9111 27.6867 27.6149 28.2348 27.0578C28.3948 26.8949 28.5311 26.7111 28.6407 26.5126C28.7356 26.5511 28.8363 26.5808 28.9371 26.6045C29.0763 26.637 29.2156 26.6518 29.3578 26.6518C29.5563 26.6518 29.7578 26.6252 29.9504 26.5778L30.8155 26.3496L30.4393 25.5556C30.297 25.1526 30.303 24.7112 30.4541 24.3111C30.5163 24.1304 30.5667 23.9467 30.6081 23.763C30.7741 23.7986 30.9459 23.8163 31.1148 23.8163C31.7696 23.8223 32.38 23.4845 32.7267 22.9274L33.1474 22.1926L32.3652 21.8726C31.8911 21.6356 31.5592 21.1823 31.4763 20.6578C32.2852 20.5511 32.9578 19.9823 33.1948 19.2L33.183 19.2237Z" fill="white"/>
<path d="M25.0617 22.3704H17.9506V25.037C17.9506 26.1333 18.7417 26.8148 19.912 26.8148C20.8899 26.8148 21.1476 26.8533 21.5091 27.2148C21.7372 26.9689 22.0602 26.8296 22.398 26.8355V26.794L22.6232 26.1007L22.2409 25.6829C22.0869 25.7304 21.9269 25.7481 21.7669 25.7392C21.5269 25.7362 21.2898 25.7125 21.0558 25.6651H20.9817C20.9491 25.6651 20.9491 25.6651 20.9402 25.6829L20.8958 25.757L20.8158 25.8903L20.6617 25.8548L19.9773 25.6948L19.8825 25.8489V25.8666L19.9654 25.9585L19.9299 26.077C19.8676 26.2222 19.7787 26.3526 19.6662 26.4652L19.4943 26.6488L19.3372 26.4533L19.2217 26.3081C19.0972 26.1451 19.0676 25.9318 19.1388 25.7392L18.9462 25.8192L18.8602 25.6296L18.8128 25.4962C18.6913 25.2148 18.7832 24.8889 19.0291 24.7111L19.5802 24.4148L20.1046 24.5185C20.1046 24.4681 20.1373 24.2874 20.1521 24.2429H20.1225L19.8261 24.3555L19.5298 24.154C19.4706 24.0948 19.4676 23.997 19.5298 23.9348L19.8113 23.5081L19.0972 22.6192L20.1669 23.04L20.241 22.9511L20.3891 22.7733L20.558 22.9333C20.6025 22.9777 20.632 23.0311 20.6469 23.0933C20.9432 23.2118 21.4913 23.5585 21.5358 24.1215L21.3669 24.1896C21.3876 24.2192 21.4143 24.2429 21.4469 24.2577L22.2291 24.3348L22.3002 24.3141C22.4335 24.2637 22.5758 24.237 22.718 24.234C22.8602 24.234 22.9995 24.2667 23.1269 24.3289C23.1832 24.3081 23.2454 24.2962 23.3047 24.2933H23.3432C23.761 24.2933 23.9713 24.6074 24.1372 24.8563L24.2232 24.9807C24.3684 25.1881 24.561 25.4904 24.5698 25.5022L24.6558 25.6355L24.5491 25.7599C24.4513 25.8903 24.2973 25.9644 24.1343 25.9644C24.0869 25.9674 24.0395 25.9674 23.992 25.9644C23.9506 25.9555 23.9091 25.9437 23.8676 25.9259C23.8676 25.9674 23.8676 26.0178 23.8439 26.0592L23.7225 26.7585C24.5284 26.5955 25.0972 25.8726 25.0647 25.0489L25.0617 22.3704ZM17.9417 22.1541H23.4795C23.2543 21.9171 23.1772 21.5763 23.278 21.2652C23.2039 21.2296 23.1328 21.1822 23.0706 21.1289C22.8543 21.2889 22.1817 21.7689 22.0217 21.8904L21.9861 21.9141L19.8113 21.5289H19.7669C19.6957 21.5319 19.6246 21.5319 19.5535 21.5289C19.5328 21.6267 19.4469 21.6948 19.3491 21.6948H19.3135C19.198 21.6741 19.118 21.5644 19.1358 21.4489V21.4015C18.8543 21.2 18.721 20.8504 18.795 20.5126V20.4741L18.8276 20.4504C18.8276 20.4504 18.8691 20.4207 18.9254 20.3881L18.7684 20.3644C18.7091 20.3526 18.6706 20.2993 18.6795 20.24C18.6883 20.1807 18.7417 20.1422 18.801 20.1511H18.8039L19.1802 20.2104L19.2157 18.8859L19.7758 18.2933L20.1254 19.0281L19.758 20.3022L20.0898 20.3556C20.1491 20.3674 20.1876 20.4207 20.1787 20.48C20.1699 20.5333 20.1254 20.5689 20.0721 20.5689H20.0543L19.7847 20.5245V20.5452C19.8143 20.5985 19.8588 20.64 19.915 20.6667L21.5713 20.6933L21.995 20.2756C21.6721 20.163 21.441 19.8785 21.4024 19.5378C21.195 19.4578 21.0261 19.3037 20.9313 19.1052C20.8513 18.9185 20.8365 18.7081 20.8928 18.5126C20.632 18.4089 20.395 18.2518 20.2024 18.0504H17.7432C17.8617 18.3408 17.9298 18.6489 17.9417 18.96V22.1541Z" fill="#FCE527"/>
<path d="M20.2139 23.5349C20.1784 23.5349 20.1458 23.5615 20.1428 23.5971V23.6C20.1398 23.6385 20.1695 23.6741 20.208 23.6771H20.2109C20.2524 23.6771 20.282 23.6445 20.282 23.606C20.282 23.5644 20.2524 23.5349 20.2139 23.5349Z" fill="#222220"/>
<path d="M20.2112 23.5319C20.2141 23.5319 20.2141 23.5348 20.2141 23.5348C20.2171 23.5348 20.2171 23.5319 20.22 23.5319H20.2112ZM25.0526 28.3911L24.6437 28.2341L24.7563 27.8104L24.8807 27.3481C24.3207 27.6356 23.7341 27.8666 23.1296 28.0385C22.8333 28.1215 22.62 28.16 22.62 28.16V28.4593C22.2555 28.5185 21.8882 28.5511 21.5178 28.5541H21.4852C21.1148 28.5511 20.7474 28.5185 20.3829 28.4593V28.163C20.3829 28.163 20.1666 28.1215 19.8704 28.0385C19.2659 27.8666 18.6792 27.6356 18.1193 27.3481L18.2408 27.8104L18.3563 28.2341L17.9444 28.3911L17.5 28.56C18.1104 28.877 18.7474 29.1407 19.4052 29.3482L19.2482 29.7748C19.9622 30.0474 20.7267 30.1807 21.4911 30.163H21.5089C22.2733 30.1807 23.0378 30.0474 23.7518 29.7748L23.5977 29.3482C24.2526 29.1407 24.8896 28.877 25.5 28.56L25.0526 28.3911ZM17.9948 28.5866L18.6585 28.3645L18.46 27.7126C18.8955 27.9289 19.3459 28.1096 19.8111 28.2518L19.4852 29.1407C18.9726 29.0044 18.4718 28.8178 17.9948 28.5866ZM21.5178 29.9526L21.503 29.9407C20.8511 29.9378 20.2022 29.8489 19.5741 29.677L19.974 28.5926C20.4719 28.717 20.9844 28.7852 21.5 28.7881H21.5326C22.0481 28.7822 22.5607 28.717 23.0585 28.5926L23.4585 29.677C22.8274 29.8548 22.1726 29.9467 21.5178 29.9526ZM23.5385 29.1585V29.1496L23.2126 28.2607C23.6778 28.1185 24.1281 27.9378 24.5637 27.7215L24.3652 28.3733L25.0377 28.5985C24.5577 28.8326 24.054 29.0222 23.5385 29.1585ZM21.5 11.4785C22.1696 11.4607 22.8274 11.6622 23.3726 12.0504C23.4585 11.6118 23.6215 11.1911 23.8556 10.8089L23.183 10.8859L22.8333 10.1363L22.1548 10.4859L21.5 9.83704L20.8452 10.4859L20.1666 10.1363L19.817 10.8859L19.1444 10.8089C19.3785 11.1911 19.5415 11.6118 19.6274 12.0504C20.1726 11.6622 20.8304 11.4607 21.5 11.4785ZM19.7874 11.1467L19.9741 11.1674L20.0541 10.9985L20.2881 10.4948L20.7237 10.72L20.8926 10.8059L21.0289 10.6815L21.5 10.2044L21.9711 10.6815L22.1074 10.8148L22.2763 10.7289L22.7089 10.5037L22.9459 11.0074L23.0259 11.1763L23.2126 11.1556L23.3904 11.1348C23.3193 11.2978 23.2571 11.4667 23.2067 11.6385C22.137 11.0904 20.8659 11.0904 19.7963 11.6385C19.7459 11.4667 19.6837 11.2978 19.6126 11.1348L19.7874 11.1467ZM30.2882 17.594L30.2082 17.4963C29.6571 16.7941 29.1326 16.1274 28.1964 15.8222C28.2349 15.7896 28.2734 15.76 28.3149 15.7333C28.7593 15.4814 29.0734 15.0489 29.1741 14.5481C29.2245 14.0948 29.0971 13.6415 28.8186 13.28L28.5223 12.9096L28.3356 13.3511C28.3356 13.3778 28.0067 14.0859 27.343 14.0859H27.1475C27.183 13.6207 27.0141 13.1615 26.6852 12.8296C26.2853 12.4207 25.7342 12.1926 25.1623 12.1955C25.0556 12.1955 24.9489 12.2044 24.8453 12.2192L24.3919 12.3081L24.6734 12.6785C24.8927 12.9748 25.0911 13.4874 24.8571 13.7629C24.7445 13.8607 24.6171 13.9378 24.4778 13.9911C24.1815 14.1304 23.7549 14.3289 23.7549 14.8267C23.7549 15.1496 24.0067 15.4874 24.4601 15.7748C25.7964 16.6222 26.623 17.4963 26.9816 18.48C27.5356 19.9792 26.8127 20.8326 26.1104 21.283L25.7964 21.4844L26.0719 21.7363C26.3178 21.9467 26.6201 22.077 26.943 22.1096H27.2126C27.4882 22.1096 27.7608 22.0711 28.0245 21.9911C27.9593 22.1066 27.8793 22.2163 27.7934 22.317C27.3934 22.7822 26.8008 23.037 26.1875 23.0044H25.9238L25.903 23.2681C25.9001 23.6385 26.063 23.9881 26.3445 24.2281C26.4186 24.2933 26.5016 24.3467 26.5904 24.3881C26.1519 24.8148 25.903 25.3985 25.8941 26.0119C25.8941 26.3467 25.8171 26.6785 25.6719 26.9807L25.3756 27.4252H25.903C26.7741 27.4252 27.4408 27.1852 27.903 26.7082C28.143 26.4563 28.3208 26.1511 28.4245 25.8193C28.5963 25.9644 28.7978 26.0652 29.0171 26.1155C29.1208 26.1392 29.2275 26.1511 29.3342 26.1511C29.4941 26.1511 29.6541 26.1304 29.8082 26.0948L30.146 26.0059L29.9978 25.6918C29.8112 25.1911 29.8112 24.637 29.9978 24.1363C30.1074 23.8103 30.1845 23.4726 30.226 23.1289C30.4926 23.2652 30.7889 23.3333 31.0882 23.3303C31.5801 23.3363 32.0393 23.0933 32.306 22.6814L32.4689 22.3852L32.1726 22.2607C31.1801 21.8489 30.9608 20.7407 30.9164 20.1422C31.0142 20.1629 31.1119 20.1748 31.2126 20.1778L31.2956 20.234C32.3741 20.234 32.7356 19.1348 32.7504 19.0874L32.8719 18.6992H32.466C31.6127 18.6696 30.8156 18.2666 30.2882 17.594ZM31.2986 19.9348H31.2571C31.0408 19.9378 30.8274 19.8785 30.6438 19.7659C30.6438 19.7659 30.4867 21.9082 32.0838 22.5718V22.5807C31.8734 22.9007 31.5119 23.0903 31.1297 23.0844C30.6971 23.1111 30.2793 22.9274 30.0067 22.5926C30.0156 23.0963 29.9327 23.6 29.7638 24.074C29.5475 24.6459 29.5475 25.28 29.7638 25.8518C29.6304 25.8844 29.4971 25.9022 29.3608 25.9022C29.2778 25.9022 29.1919 25.8933 29.1119 25.8726C28.7178 25.7777 28.4037 25.4874 28.2764 25.1051C28.2764 25.1051 28.3386 27.1615 25.9415 27.1615H25.9238C26.1045 26.8178 26.1993 26.4355 26.1963 26.0474C26.3001 24.5274 27.3312 24.3111 27.3312 24.3111C27.0467 24.2755 26.7771 24.1748 26.5401 24.0148C26.3238 23.834 26.1993 23.5674 26.1934 23.2859C26.8867 23.3155 27.5564 23.0281 28.0097 22.5007C28.2823 22.1896 28.463 21.8104 28.5401 21.4044C28.1579 21.6919 27.6867 21.837 27.2097 21.8163H26.9667C26.7089 21.7896 26.463 21.6889 26.2645 21.52C27.1771 20.9274 27.8171 19.9141 27.2511 18.3763C26.7949 17.1437 25.7015 16.2222 24.6023 15.5289C24.2378 15.3037 24.0186 15.0489 24.0186 14.8296C24.0186 14.3141 24.7504 14.2993 25.0527 13.9407C25.3993 13.5378 25.183 12.8859 24.8808 12.4948C24.9667 12.48 25.0556 12.4741 25.1415 12.4741C25.6364 12.4681 26.1134 12.6666 26.4571 13.0222C26.8067 13.3541 26.94 13.8548 26.8067 14.317L26.9667 14.3496C27.0645 14.3674 27.1623 14.3763 27.263 14.3792H27.3282C28.1964 14.3792 28.5875 13.4696 28.5875 13.4696C28.5875 13.4696 29.5119 14.6074 28.1519 15.4963C27.9179 15.6474 27.8141 15.7926 27.8556 15.9407L27.8763 16.0385L27.9741 16.0563C28.9608 16.3229 29.4556 17.0044 30.0689 17.7778C30.6497 18.5155 31.5267 18.96 32.466 18.9926H32.4837C32.4837 18.9926 32.1875 19.9348 31.2986 19.9348Z" fill="#222220"/>
<path d="M29.396 15.9556C29.7279 16.1452 30.0153 16.403 30.2405 16.7111C30.4093 16.9719 30.6493 17.1793 30.9338 17.3037C31.0405 17.3393 31.156 17.3571 31.2686 17.3571C31.722 17.3571 32.1367 17.0993 32.3442 16.6963L32.516 16.3112L32.0982 16.2875C31.6479 16.2045 31.242 15.9734 30.9427 15.6267C30.7205 15.3867 30.4093 15.2474 30.0805 15.2445C29.8257 15.2474 29.5797 15.3245 29.3664 15.4608L28.9812 15.7304L29.396 15.9556ZM30.0894 15.5319L30.0805 15.5348C30.3323 15.5348 30.5694 15.6445 30.7383 15.8312C31.0849 16.2282 31.559 16.4919 32.0805 16.5778C31.9205 16.8771 31.6093 17.0637 31.2686 17.0667C31.1857 17.0667 31.1027 17.0519 31.0227 17.0252C30.5427 16.8623 30.3738 16.1363 29.5412 15.6978C29.7042 15.5912 29.8938 15.5348 30.0894 15.5319ZM29.5916 19.7748L29.5857 19.7689C29.3427 17.8133 27.9235 16.4 26.3442 15.5437C26.199 15.4637 26.0628 15.3986 25.9324 15.3363C26.5842 15.4697 27.2628 15.3096 27.7872 14.9007C27.7872 14.9007 26.8716 15.5733 24.999 14.963C25.5175 15.3008 26.5249 15.7748 27.4464 16.5452C29.7457 18.566 28.1013 20.5393 28.1013 20.5393C28.7887 19.8874 29.0287 18.8919 28.7205 17.997C29.2065 18.806 29.4405 19.7423 29.3901 20.6844C29.325 22.2371 28.4628 23.5941 27.5739 24.6756C27.3072 25.0163 27.1235 25.4163 27.0465 25.843C27.1975 25.4193 27.4257 25.0281 27.722 24.6904C28.6849 23.5615 29.4998 22.3911 29.6153 20.7052C29.7161 21.0015 30.1249 21.8637 30.7768 22.1867C30.7768 22.1867 29.959 21.6948 29.5916 19.7748ZM17.325 27.0015C17.1828 26.6993 17.1057 26.3675 17.1027 26.0327C17.0938 25.4193 16.842 24.8356 16.4035 24.4089C16.4923 24.3675 16.5753 24.3141 16.6494 24.249C16.9309 24.009 17.0938 23.6593 17.0909 23.289L17.0731 23.0252H16.8064C16.1961 23.0549 15.6035 22.803 15.2035 22.3379C15.1176 22.2371 15.0405 22.1275 14.9724 22.0119C15.2361 22.0919 15.5086 22.1304 15.7842 22.1304H16.0539C16.3768 22.0979 16.682 21.9675 16.9279 21.7571L17.2035 21.5052L16.8894 21.3038C16.1842 20.8534 15.4642 20.0001 16.0183 18.5008C16.3768 17.526 17.2035 16.646 18.5516 15.7986C19.005 15.5023 19.2538 15.1734 19.2538 14.8505C19.2538 14.3526 18.8361 14.1542 18.5309 14.0149C18.3916 13.9615 18.2642 13.8845 18.1516 13.7867C17.9146 13.5112 18.1131 12.9867 18.3353 12.7023L18.6316 12.3319L18.1753 12.243C18.0716 12.2252 17.965 12.2193 17.8583 12.2193C17.2805 12.2015 16.7235 12.4238 16.3146 12.8297C15.9798 13.1586 15.805 13.6208 15.8376 14.0889H15.6598C14.9931 14.0889 14.679 13.3838 14.6672 13.3541L14.4805 12.9126L14.1842 13.283C13.9087 13.6445 13.7813 14.0978 13.8316 14.5512C13.9324 15.0519 14.2435 15.4845 14.6879 15.7364C14.7294 15.763 14.7709 15.7926 14.8064 15.8252C13.8701 16.1216 13.3457 16.7971 12.7946 17.4993L12.7146 17.6001C12.1872 18.2727 11.3872 18.6756 10.5339 18.7052H10.1279L10.2524 19.0934C10.2524 19.1408 10.6257 20.2401 11.7072 20.2401H11.7605C11.8613 20.2371 11.959 20.2253 12.0568 20.2045C12.0124 20.7971 11.7931 21.9112 10.7976 22.323L10.5013 22.4475L10.6642 22.7438C10.9309 23.1556 11.3901 23.3986 11.882 23.3927C12.1813 23.3956 12.4746 23.3274 12.7413 23.1912C12.7827 23.5349 12.8598 23.8727 12.9694 24.1986C13.1561 24.6993 13.1561 25.2534 12.9694 25.7541L12.8213 26.0682L13.159 26.1571C13.3131 26.1927 13.4731 26.2134 13.6331 26.2134C13.7398 26.2134 13.8464 26.2016 13.9502 26.1779C14.1694 26.1275 14.3709 26.0267 14.5427 25.8815C14.6464 26.2134 14.8242 26.5186 15.0642 26.7704C15.5294 27.2475 16.1961 27.4845 17.0642 27.4875H17.5916L17.325 27.0015ZM17.0701 27.1674C14.6731 27.1674 14.7324 25.1112 14.7324 25.1112C14.605 25.4934 14.2909 25.7838 13.8968 25.8786C13.8168 25.8993 13.7309 25.9082 13.6479 25.9082C13.5116 25.9082 13.3783 25.8905 13.2479 25.8578C13.4642 25.286 13.4642 24.6519 13.2479 24.0801C13.079 23.606 12.999 23.1023 13.0079 22.5986C12.7353 22.9334 12.3176 23.1171 11.885 23.0904H11.8701C11.485 23.0964 11.1235 22.9038 10.9131 22.5837C12.5102 21.9201 12.3531 19.7778 12.3531 19.7778C12.1694 19.8905 11.9561 19.9497 11.7398 19.9467H11.7072C10.8183 19.9467 10.522 19.0045 10.522 19.0045H10.5398C11.479 18.9749 12.359 18.5304 12.9398 17.7927C13.5501 17.0193 14.0479 16.3379 15.0346 16.0712L15.1324 16.0534L15.1531 15.9556C15.1798 15.8045 15.0761 15.6593 14.8568 15.5112C13.4968 14.6223 14.4213 13.4845 14.4213 13.4845C14.4213 13.4845 14.8064 14.3942 15.6805 14.3942H15.722C15.8227 14.3912 15.9205 14.3823 16.0183 14.3645L16.1783 14.3319C16.042 13.8697 16.1783 13.3689 16.5279 13.0371C16.8716 12.6815 17.3487 12.483 17.8435 12.4889C17.9294 12.4889 18.0183 12.4949 18.1042 12.5097C17.8079 12.9038 17.5887 13.5556 17.9353 13.9556C18.2316 14.3023 18.9664 14.3171 18.9664 14.8445C18.9664 15.0638 18.762 15.3186 18.3976 15.5467C17.2953 16.2401 16.202 17.1615 15.7486 18.3941C15.1827 19.9319 15.8227 20.9541 16.7353 21.5378C16.5368 21.7038 16.2909 21.8075 16.0331 21.8342H15.7872C15.3101 21.8549 14.839 21.7097 14.4568 21.4223C14.5339 21.8282 14.7146 22.2075 14.9842 22.5186C15.4376 23.043 16.1101 23.3334 16.8035 23.3037C16.7976 23.5853 16.6731 23.8519 16.4568 24.0327C16.2198 24.1926 15.9501 24.2934 15.6657 24.329C15.6657 24.329 16.6998 24.5393 16.8124 26.0652C16.8094 26.4534 16.9042 26.8356 17.085 27.1793L17.0701 27.1674Z" fill="#222220"/>
<path d="M11.7283 17.3541H11.7313C11.8439 17.3541 11.9594 17.3363 12.0661 17.3008C12.3505 17.1763 12.5905 16.9689 12.7594 16.7082C12.9816 16.4 13.269 16.1422 13.6009 15.9526L14.0157 15.7304L13.6305 15.4608C13.4172 15.3244 13.1713 15.2474 12.9194 15.2445C12.5905 15.2474 12.2794 15.3867 12.0572 15.6297C11.7609 15.9733 11.352 16.2074 10.9046 16.2904L10.4868 16.3111L10.6557 16.6963C10.8631 17.0993 11.275 17.3511 11.7283 17.3541ZM12.2616 15.8311C12.4276 15.6445 12.6646 15.5348 12.9164 15.5348C13.109 15.5378 13.2987 15.5971 13.4616 15.7008C12.6231 16.1482 12.4483 16.8652 11.9802 17.0281C11.9031 17.0548 11.8201 17.0697 11.7372 17.0697C11.3935 17.0697 11.0794 16.88 10.9194 16.5778C11.4409 16.4919 11.915 16.2282 12.2616 15.8311ZM13.6157 20.6963C13.5654 19.7541 13.7965 18.8178 14.2854 18.0089C13.9772 18.9037 14.2172 19.8993 14.9046 20.5511C14.9046 20.5511 13.2572 18.5778 15.5594 16.557C16.4809 15.7867 17.4854 15.3126 18.0039 14.9748C16.1313 15.5852 15.2157 14.9126 15.2157 14.9126C15.7402 15.3215 16.4158 15.4815 17.0676 15.3481C16.9372 15.4104 16.8009 15.4785 16.6558 15.5556C15.0765 16.4148 13.6483 17.8282 13.4143 19.7837V19.7689C13.0468 21.6889 12.2291 22.1808 12.2291 22.1808C12.878 21.8607 13.2898 20.9956 13.3876 20.6992C13.4972 22.3882 14.3209 23.5585 15.2839 24.6844C15.5772 25.0222 15.8083 25.4133 15.9595 25.837C15.8794 25.4133 15.6958 25.0134 15.4261 24.6756C14.5372 23.5941 13.678 22.237 13.6157 20.6963ZM20.9579 17.1289C21.0616 17.0281 21.2068 16.9807 21.352 16.9985V17.5585C21.3491 17.6977 21.3135 17.8311 21.2453 17.9526H21.8053C21.7372 17.8311 21.7016 17.6977 21.6987 17.5585V16.9985C21.8409 16.9807 21.9861 17.0281 22.0898 17.1289V16.7407H20.9579V17.1289ZM20.7239 14.4415H20.7179C20.8039 14.5156 20.9046 14.5748 21.0143 14.6104L21.0854 14.643V14.2756L20.4276 14C20.4602 14.1837 20.5669 14.3437 20.7239 14.4415ZM22.2854 14.4385L22.2824 14.4415C22.4395 14.3437 22.5461 14.1837 22.5787 14L21.9209 14.2756V14.64L21.989 14.6074C22.0987 14.5719 22.1995 14.5126 22.2854 14.4385Z" fill="#222220"/>
<path d="M23.4645 12.9541C23.4645 12.4 22.5311 11.9022 21.503 11.9022C20.4748 11.9022 19.5415 12.4 19.5415 12.9541L19.5622 13.0904L19.9741 15.4607L19.5622 15.7007L18.4867 16.3111C18.4867 16.3111 18.2467 16.4355 18.1341 16.5096C17.7282 16.8059 17.6422 17.2029 17.8763 17.3748C17.9356 16.9718 18.2882 16.6755 18.6971 16.6874C19.0378 16.6963 19.3549 16.8681 19.5475 17.1496C19.6067 17.2208 19.66 17.2978 19.7074 17.3748C19.7696 17.4756 19.8319 17.5644 19.8941 17.6504H17.1504C17.3815 18.0474 17.5148 18.4948 17.5445 18.954V25.0489C17.5445 26.5304 18.6793 27.2267 19.9148 27.2267C20.863 27.2267 20.9904 27.1822 21.5119 27.7037C22.0334 27.1822 22.1608 27.2267 23.1089 27.2267C24.3356 27.2267 25.4793 26.5244 25.4793 25.0489V18.96C25.5089 18.5007 25.6423 18.0533 25.8734 17.6563H23.1C23.1622 17.5704 23.2245 17.4815 23.2867 17.3807C23.3371 17.3037 23.3904 17.2266 23.4467 17.1555C23.6422 16.8741 23.9593 16.7022 24.3 16.6933C24.7089 16.6815 25.0615 16.9778 25.1207 17.3807C25.3578 17.2118 25.2719 16.7882 24.863 16.5156C24.7534 16.4385 24.5134 16.317 24.5134 16.317L23.4467 15.6889L23.0348 15.4489L23.4467 13.0785L23.4645 12.9541ZM19.9385 13.2267L21.3845 13.7156V15.9852L20.3207 15.4222L19.9385 13.2267ZM17.743 18.0504H20.2348C20.4274 18.2519 20.6645 18.4118 20.9252 18.5126C20.8689 18.7082 20.8837 18.9185 20.9638 19.1052C21.0586 19.3037 21.2275 19.4578 21.4348 19.5378C21.4733 19.8785 21.7045 20.163 22.0274 20.2755C21.8497 20.4563 21.6748 20.6252 21.6037 20.6933L19.9474 20.6667C19.8911 20.64 19.8467 20.5985 19.817 20.5452V20.5244L20.0867 20.5689H20.1045C20.1578 20.5689 20.2022 20.5333 20.2111 20.48C20.22 20.4207 20.1815 20.3674 20.1223 20.3556L19.7904 20.3022L20.1578 19.0281L19.8082 18.2933L19.2482 18.8859L19.2126 20.2104L18.8363 20.1511C18.7771 20.1393 18.7237 20.1778 18.7119 20.237V20.24C18.703 20.2992 18.7415 20.3526 18.8008 20.3645L18.9578 20.3882C18.9015 20.4207 18.863 20.4444 18.86 20.4504L18.8275 20.4741V20.5126C18.7534 20.8503 18.8897 21.2 19.1682 21.4015V21.4489C19.1504 21.5645 19.2304 21.6741 19.346 21.6948H19.3815C19.4793 21.6948 19.5652 21.6267 19.586 21.5289C19.6571 21.5318 19.7252 21.5318 19.7963 21.5289H19.8407L22.0126 21.923L22.0482 21.8993C22.22 21.7778 22.8808 21.3066 23.0971 21.1378C23.1593 21.1911 23.2304 21.2385 23.3045 21.2741C23.2037 21.5852 23.2808 21.9259 23.506 22.163H17.9415V18.96C17.9297 18.6489 17.8615 18.3407 17.743 18.0504ZM22.9104 20.9807C22.6852 21.1467 22.1311 21.5496 21.9296 21.6918L19.9593 21.3482V21.2948C19.9919 21.1615 20.0096 21.0252 20.0126 20.8889L21.6719 20.9156L21.7045 20.883C21.7312 20.8563 22.2556 20.3496 22.5223 20.0563C22.5934 20.1452 22.6763 20.2193 22.7711 20.2785C22.7237 20.5215 22.7741 20.7733 22.9104 20.9807ZM19.6186 20.6252V20.634C19.663 20.717 19.7282 20.7881 19.8082 20.8356C19.8052 20.957 19.7933 21.0756 19.7726 21.1941C19.7726 21.2207 19.7726 21.2474 19.7519 21.2741V21.3156C19.6156 21.3156 19.4822 21.2948 19.3519 21.2533C19.1149 21.1259 18.9815 20.8652 19.02 20.5985C19.1267 20.5244 19.2482 20.477 19.3756 20.4593C19.4852 20.4563 19.583 20.5215 19.6186 20.6252ZM19.4141 20.2311L19.4467 18.9778L19.743 18.6815L19.9237 19.0578L19.5712 20.2785L19.4141 20.2311ZM22.8956 26.8326H22.6111L22.8334 26.1066C22.8689 26.0059 22.6852 25.8755 22.6082 25.76C22.7889 25.8696 22.9756 25.9674 23.1682 26.0563C23.1682 26.08 22.8956 26.8326 22.8956 26.8326ZM23.657 26.0207L23.6333 26L23.4793 26.8C23.3815 26.8 23.2778 26.8208 23.183 26.8266L23.3459 26.0563C23.3933 25.8281 22.78 25.76 22.4778 25.3067C22.2793 25.4726 22.0245 25.5496 21.7697 25.523C21.5445 25.52 21.3223 25.4963 21.103 25.4519C21.0645 25.4489 21.026 25.4489 20.9875 25.4519C20.8956 25.4459 20.8067 25.4933 20.7593 25.5733L20.7148 25.6474L19.8704 25.443L19.6689 25.7926C19.6363 25.84 19.6423 25.9052 19.6837 25.9467L19.74 26.0089C19.6837 26.1185 19.6126 26.2193 19.5267 26.3052L19.4023 26.1511C19.3075 25.997 19.3163 25.7985 19.423 25.6533L19.7548 25.0933L20.463 25.2L20.3534 24.9482C20.2052 24.6163 20.4304 24.1926 20.4541 23.9496C20.4541 24.0237 20.3771 24.0385 20.3 24.0385H20.0956C20.0807 24.0356 20.063 24.0356 20.0482 24.0385L19.8556 24.1541L19.7045 24.0148C19.6808 23.9703 19.6897 23.9171 19.7252 23.8844L20.0749 23.4903L19.66 23.0074L20.2526 23.3037L20.4304 23.0904C20.4778 23.1378 20.4571 23.2622 20.4571 23.2622C20.8867 23.3689 21.1859 23.76 21.1741 24.2045V24.2904C21.2333 24.3852 21.3282 24.4503 21.4348 24.477L22.2378 24.557C22.3978 24.5067 22.5608 24.474 22.7267 24.4533C22.8689 24.4533 23.0111 24.4978 23.1296 24.5748C23.186 24.5363 23.2541 24.5126 23.3222 24.5096H23.3489C23.7074 24.5096 23.8585 24.8355 24.0511 25.1022C24.1963 25.3067 24.3919 25.6148 24.3919 25.6148C24.3356 25.6978 24.2437 25.7481 24.143 25.7481C24.1075 25.7511 24.0748 25.7511 24.0393 25.7481C23.6541 25.677 23.5978 24.8829 23.3785 24.8207H23.343C23.3015 24.8207 23.263 24.8444 23.2423 24.8829C23.343 25.1526 23.2837 25.2622 23.3933 25.4756C23.4734 25.6029 23.5741 25.7185 23.6897 25.8163C23.6897 25.8163 23.6749 25.9348 23.657 26.0207ZM19.34 25.2444H19.3341L19.3697 25.3363C19.346 25.4163 19.0733 25.5318 19.0733 25.5318L19.0141 25.4015C18.9371 25.2148 18.9934 25.0015 19.1563 24.88L19.6037 24.6074L20.0807 24.7082C20.0778 24.803 20.1074 24.8948 20.1637 24.9719L19.663 24.8771L19.3667 25.0844C19.3193 25.1259 19.3104 25.1911 19.34 25.2444ZM25.0704 25.0518C25.103 25.8756 24.5311 26.5985 23.7223 26.7585L23.8585 26.0415C23.8585 26 23.8733 25.9496 23.8793 25.9082C23.9207 25.9259 23.9623 25.9378 24.0037 25.9467C24.0511 25.9496 24.0985 25.9496 24.146 25.9467C24.3089 25.9467 24.463 25.8726 24.5608 25.7422L24.6674 25.6178L24.5785 25.4963C24.5785 25.4963 24.38 25.1822 24.2319 24.9748L24.1489 24.8504C23.983 24.6015 23.7726 24.2874 23.3548 24.2874H23.3163C23.2571 24.2904 23.1949 24.3022 23.1385 24.323C23.0111 24.2607 22.8719 24.2282 22.7297 24.2282C22.5874 24.2311 22.4452 24.2578 22.3119 24.3081L22.2407 24.3289L21.4585 24.2519C21.4259 24.237 21.3993 24.2133 21.3785 24.1837L21.5474 24.1155C21.5 23.5496 20.9548 23.2029 20.6585 23.0874C20.6437 23.0252 20.6141 22.9718 20.5697 22.9274L20.4008 22.7674L20.2526 22.9452L20.1785 23.034L19.0822 22.5837L19.7963 23.4726L19.5148 23.8992C19.4556 23.9585 19.4526 24.0563 19.5148 24.1185L19.8112 24.32L20.1074 24.2074H20.1371C20.1371 24.2519 20.1045 24.4326 20.0897 24.483L19.5741 24.3941L19.023 24.6903C18.7682 24.8741 18.6793 25.2119 18.8126 25.4963L18.8749 25.6296L18.9608 25.8192L19.1534 25.7393C19.0822 25.9319 19.1119 26.1452 19.2363 26.3081L19.3519 26.4563L19.5059 26.6519L19.6778 26.4681C19.7904 26.3556 19.8793 26.2252 19.9415 26.08L19.9771 25.9615L19.8941 25.8696V25.8518L19.9889 25.6978L20.6734 25.8578L20.8274 25.8933L20.9104 25.757L20.9548 25.683C20.9548 25.6682 20.9548 25.6652 20.9963 25.6652H21.0704C21.3045 25.7126 21.5415 25.7363 21.7786 25.7393C21.9385 25.7481 22.0985 25.7304 22.2526 25.683L22.6319 26.1156L22.4067 26.8089V26.8503C22.0689 26.8445 21.746 26.9837 21.5178 27.2296C21.1534 26.8682 20.8956 26.8296 19.9208 26.8296C18.7504 26.8296 17.9593 26.1452 17.9593 25.0518V22.3852H25.0704V25.0518ZM25.263 18.0504C25.1415 18.3378 25.0763 18.6459 25.0645 18.96V20.957C24.8067 20.9007 24.6141 20.6815 24.5963 20.4178V20.3259H24.5074C24.3533 20.3141 24.2111 20.243 24.1045 20.1333C23.9741 19.9822 23.903 19.7926 23.9 19.5941C23.7726 19.8015 23.7845 20.0681 23.9326 20.2637C24.0482 20.4089 24.2171 20.5067 24.4007 20.5304C24.4541 20.874 24.7297 21.1407 25.0733 21.1852V22.163H23.8289C23.503 21.9971 23.3667 21.6089 23.5119 21.2741L23.5593 21.1674L23.4497 21.1259C23.0941 21.0015 22.8985 20.6193 23.0111 20.2578L23.0348 20.1689L22.9519 20.1303C22.6408 19.9496 22.4689 19.5971 22.5193 19.2415C22.3563 19.4074 22.3148 19.6593 22.4185 19.8666C22.3593 19.9348 22.2823 20.0148 22.1963 20.1037C21.8852 20.0385 21.66 19.7689 21.6482 19.4519V19.3778L21.58 19.3511C21.3993 19.2978 21.2512 19.1733 21.1652 19.0074C21.1089 18.8711 21.0971 18.717 21.1356 18.5748C21.1948 18.5867 21.2541 18.5955 21.3134 18.6015C21.3726 18.6044 21.4348 18.6044 21.4941 18.6015C21.9741 18.6015 22.4304 18.3941 22.7504 18.0385L25.263 18.0504ZM23.343 16.0296L23.8289 16.3259L23.9504 16.397C23.6986 16.4652 23.4704 16.6015 23.2897 16.7911L23.2689 16.8089C23.2274 16.8533 23.1889 16.8978 23.1504 16.9452L23.1267 16.9748C23.0882 17.0222 23.0526 17.0726 23.02 17.1259L23.0023 17.1526C22.9607 17.2118 22.9222 17.277 22.8838 17.3422C22.6141 17.8785 22.0897 18.237 21.4941 18.2963C20.8985 18.237 20.3741 17.8785 20.1045 17.3422C20.066 17.277 20.0275 17.2148 19.9889 17.1526L19.9652 17.12L19.8704 16.9659L19.8437 16.9333C19.8052 16.8859 19.7667 16.8415 19.7282 16.8L19.7074 16.7793C19.5267 16.5896 19.2985 16.4533 19.0467 16.3852L19.1711 16.314L19.66 16.0178L20.1608 15.7215L21.497 16.4474L22.8334 15.7452L23.343 16.0296ZM22.6852 15.437L21.6215 15.9971V13.7185L23.0645 13.2296L22.6852 15.437ZM21.5 13.4785L19.9178 12.8444C20.0512 12.5244 20.6734 12.2519 21.5 12.2519C22.3267 12.2519 22.9489 12.5244 23.0822 12.8444L21.5 13.4785Z" fill="#222220"/>
<path d="M50.668 26H49.228V15.84H45.66V14.576H54.22V15.84H50.668V26ZM56.2818 22.656C56.2818 22.752 56.2764 22.8907 56.2658 23.072C56.2658 23.2427 56.2604 23.4293 56.2498 23.632C56.2391 23.824 56.2284 24.0107 56.2178 24.192C56.2071 24.3627 56.1964 24.5013 56.1858 24.608L60.7778 17.424H62.5058V26H61.1938V20.944C61.1938 20.7733 61.1938 20.5493 61.1938 20.272C61.2044 19.9947 61.2151 19.7227 61.2258 19.456C61.2364 19.1787 61.2471 18.9707 61.2578 18.832L56.6978 26H54.9538V17.424H56.2818V22.656ZM66.643 17.424V20.992H71.299V17.424H72.707V26H71.299V22.176H66.643V26H65.235V17.424H66.643ZM79.3745 20.944C80.1212 20.944 80.7398 21.0347 81.2305 21.216C81.7212 21.3973 82.0892 21.6693 82.3345 22.032C82.5905 22.384 82.7185 22.832 82.7185 23.376C82.7185 23.9093 82.5958 24.3733 82.3505 24.768C82.1158 25.1627 81.7478 25.4667 81.2465 25.68C80.7452 25.8933 80.0998 26 79.3105 26H75.4225V17.424H76.8305V20.944H79.3745ZM81.3105 23.456C81.3105 22.9333 81.1238 22.5813 80.7505 22.4C80.3878 22.208 79.8758 22.112 79.2145 22.112H76.8305V24.864H79.2465C79.8438 24.864 80.3345 24.7573 80.7185 24.544C81.1132 24.3307 81.3105 23.968 81.3105 23.456ZM89.9945 17.424H91.5305L87.8665 21.552L91.8345 26H90.2025L86.3305 21.648V26H84.9225V17.424H86.3305V21.584L89.9945 17.424ZM100.535 21.696C100.535 22.4107 100.439 23.0453 100.247 23.6C100.065 24.144 99.7988 24.608 99.4468 24.992C99.1054 25.376 98.6841 25.6693 98.1828 25.872C97.6921 26.064 97.1428 26.16 96.5348 26.16C95.9694 26.16 95.4468 26.064 94.9668 25.872C94.4868 25.6693 94.0708 25.376 93.7188 24.992C93.3668 24.608 93.0894 24.144 92.8868 23.6C92.6948 23.0453 92.5988 22.4107 92.5988 21.696C92.5988 20.7467 92.7588 19.9467 93.0788 19.296C93.3988 18.6347 93.8574 18.1333 94.4548 17.792C95.0521 17.44 95.7614 17.264 96.5828 17.264C97.3614 17.264 98.0441 17.44 98.6308 17.792C99.2281 18.1333 99.6921 18.6347 100.023 19.296C100.364 19.9467 100.535 20.7467 100.535 21.696ZM94.0548 21.696C94.0548 22.368 94.1401 22.9547 94.3108 23.456C94.4921 23.9467 94.7694 24.3253 95.1428 24.592C95.5161 24.8587 95.9908 24.992 96.5668 24.992C97.1428 24.992 97.6174 24.8587 97.9908 24.592C98.3641 24.3253 98.6361 23.9467 98.8068 23.456C98.9881 22.9547 99.0788 22.368 99.0788 21.696C99.0788 21.0133 98.9881 20.432 98.8068 19.952C98.6254 19.472 98.3481 19.104 97.9748 18.848C97.6121 18.5813 97.1374 18.448 96.5508 18.448C95.6761 18.448 95.0414 18.736 94.6468 19.312C94.2521 19.888 94.0548 20.6827 94.0548 21.696ZM107.886 17.296C108.74 17.3707 109.481 17.5947 110.11 17.968C110.75 18.3413 111.246 18.8427 111.598 19.472C111.95 20.1013 112.126 20.848 112.126 21.712C112.126 22.576 111.956 23.328 111.614 23.968C111.273 24.5973 110.788 25.0987 110.158 25.472C109.529 25.8347 108.772 26.0533 107.886 26.128V29.84H106.51V26.128C105.668 26.0533 104.926 25.8347 104.286 25.472C103.646 25.0987 103.15 24.5973 102.798 23.968C102.446 23.328 102.27 22.576 102.27 21.712C102.27 20.8373 102.441 20.0853 102.782 19.456C103.124 18.816 103.614 18.3147 104.254 17.952C104.894 17.5787 105.662 17.36 106.558 17.296V13.84H107.886V17.296ZM106.558 18.464C105.908 18.528 105.374 18.6933 104.958 18.96C104.542 19.2267 104.233 19.5893 104.03 20.048C103.838 20.5067 103.742 21.0613 103.742 21.712C103.742 22.352 103.838 22.9067 104.03 23.376C104.233 23.8347 104.542 24.2027 104.958 24.48C105.374 24.7467 105.908 24.912 106.558 24.976V18.464ZM107.886 24.976C108.526 24.9013 109.049 24.7307 109.454 24.464C109.87 24.1973 110.174 23.8347 110.366 23.376C110.569 22.9067 110.67 22.352 110.67 21.712C110.67 21.072 110.569 20.5227 110.366 20.064C110.164 19.6053 109.854 19.2427 109.438 18.976C109.033 18.7093 108.516 18.544 107.886 18.48V24.976ZM119.48 17.296C120.333 17.3707 121.075 17.5947 121.704 17.968C122.344 18.3413 122.84 18.8427 123.192 19.472C123.544 20.1013 123.72 20.848 123.72 21.712C123.72 22.576 123.549 23.328 123.208 23.968C122.867 24.5973 122.381 25.0987 121.752 25.472C121.123 25.8347 120.365 26.0533 119.48 26.128V29.84H118.104V26.128C117.261 26.0533 116.52 25.8347 115.88 25.472C115.24 25.0987 114.744 24.5973 114.392 23.968C114.04 23.328 113.864 22.576 113.864 21.712C113.864 20.8373 114.035 20.0853 114.376 19.456C114.717 18.816 115.208 18.3147 115.848 17.952C116.488 17.5787 117.256 17.36 118.152 17.296V13.84H119.48V17.296ZM118.152 18.464C117.501 18.528 116.968 18.6933 116.552 18.96C116.136 19.2267 115.827 19.5893 115.624 20.048C115.432 20.5067 115.336 21.0613 115.336 21.712C115.336 22.352 115.432 22.9067 115.624 23.376C115.827 23.8347 116.136 24.2027 116.552 24.48C116.968 24.7467 117.501 24.912 118.152 24.976V18.464ZM119.48 24.976C120.12 24.9013 120.643 24.7307 121.048 24.464C121.464 24.1973 121.768 23.8347 121.96 23.376C122.163 22.9067 122.264 22.352 122.264 21.712C122.264 21.072 122.163 20.5227 121.96 20.064C121.757 19.6053 121.448 19.2427 121.032 18.976C120.627 18.7093 120.109 18.544 119.48 18.48V24.976Z" fill="#1E1D24"/>
<path d="M255.917 15.4166H253.755L252.87 13.9583C252.661 13.5937 252.245 13.3333 251.802 13.3333H249.172C248.729 13.3333 248.312 13.5937 248.104 13.9583L247.219 15.4166H245.083C244.849 15.4166 244.667 15.625 244.667 15.8333V16.25C244.667 16.4844 244.849 16.6666 245.083 16.6666H245.5L246.047 25.4948C246.073 26.1719 246.62 26.6666 247.297 26.6666H253.677C254.354 26.6666 254.901 26.1719 254.927 25.4948L255.5 16.6666H255.917C256.125 16.6666 256.333 16.4844 256.333 16.25V15.8333C256.333 15.625 256.125 15.4166 255.917 15.4166ZM249.172 14.5833H251.802L252.297 15.4166H248.677L249.172 14.5833ZM253.677 25.4166H247.297L246.75 16.6666H254.224L253.677 25.4166Z" fill="#1E1D24"/>
<path d="M30.7109 60.6621C31.2733 61.3991 31.7495 62.1998 32.1298 63.0481L21.3437 71.1061L16.8359 68.2424V64.7971L21.3437 67.6609L30.7109 60.6621Z" fill="#21A038"/>
<path d="M12.2356 67.9997C12.2356 67.8451 12.2393 67.6915 12.2467 67.5388L9.51488 67.4031C9.50558 67.601 9.5 67.8008 9.5 68.0025C9.49884 69.5779 9.80461 71.1381 10.3998 72.5934C10.995 74.0489 11.8678 75.3708 12.9683 76.4835L14.906 74.5207C14.0589 73.6656 13.3869 72.6493 12.9286 71.5302C12.4703 70.4112 12.2348 69.2113 12.2356 67.9997Z" fill="url(#paint0_linear_1351_6207)"/>
<path d="M21.3414 58.7722C21.4939 58.7722 21.6454 58.7779 21.796 58.7854L21.9327 56.0159C21.7369 56.0064 21.5397 56.0017 21.3414 56.0017C19.7861 55.9998 18.2459 56.3092 16.809 56.9123C15.372 57.5153 14.0668 58.4001 12.9683 59.5157L14.906 61.4796C15.7497 60.6208 16.7526 59.9395 17.8571 59.4749C18.9615 59.0102 20.1456 58.7714 21.3414 58.7722Z" fill="url(#paint1_linear_1351_6207)"/>
<path d="M21.3413 77.2279C21.1888 77.2279 21.0372 77.2279 20.8857 77.2157L20.749 79.9843C20.9455 79.9943 21.143 79.9994 21.3413 79.9994C22.8959 80.001 24.4355 79.6914 25.8716 79.0882C27.3077 78.485 28.6121 77.6001 29.7098 76.4844L27.7758 74.5215C26.9319 75.3799 25.9291 76.0608 24.8249 76.5252C23.7207 76.9897 22.5368 77.2285 21.3413 77.2279Z" fill="url(#paint2_linear_1351_6207)"/>
<path d="M26.4743 60.3819L28.7766 58.6621C26.6723 56.9353 24.0456 55.9952 21.3379 56V58.7714C23.1714 58.7691 24.9624 59.3307 26.4743 60.3819Z" fill="url(#paint3_linear_1351_6207)"/>
<path d="M33.182 68.0001C33.1835 67.2791 33.1213 66.5594 32.996 65.8497L30.4474 67.7532C30.4474 67.8352 30.4474 67.9172 30.4474 68.0001C30.4481 69.2895 30.1814 70.5646 29.6647 71.7429C29.1479 72.9211 28.3926 73.9761 27.4478 74.8396L29.2861 76.8987C30.5144 75.7748 31.496 74.4019 32.1671 72.869C32.8384 71.336 33.1841 69.6772 33.182 68.0001Z" fill="#21A038"/>
<path d="M21.3414 77.2282C20.0691 77.2286 18.8108 76.9582 17.648 76.4346C16.4853 75.9109 15.4441 75.1455 14.5918 74.1882L12.561 76.0502C13.6698 77.2953 15.0244 78.2903 16.5371 78.9707C18.0497 79.651 19.6865 80.0016 21.3414 79.9996V77.2282Z" fill="url(#paint4_linear_1351_6207)"/>
<path d="M15.2352 61.16L13.3979 59.101C12.1692 60.2246 11.1872 61.5975 10.5157 63.1304C9.84422 64.6634 9.49817 66.3223 9.50001 67.9995H12.2356C12.235 66.7102 12.5017 65.4351 13.0185 64.2568C13.5352 63.0786 14.2904 62.0236 15.2352 61.16Z" fill="url(#paint5_linear_1351_6207)"/>
<path d="M51.948 63.68C51.34 63.68 50.7907 63.7867 50.3 64C49.8093 64.2027 49.3933 64.5067 49.052 64.912C48.7107 65.3067 48.4493 65.792 48.268 66.368C48.0867 66.9333 47.996 67.5733 47.996 68.288C47.996 69.2267 48.14 70.0427 48.428 70.736C48.7267 71.4293 49.164 71.9627 49.74 72.336C50.3267 72.7093 51.0573 72.896 51.932 72.896C52.4333 72.896 52.908 72.8533 53.356 72.768C53.804 72.6827 54.2413 72.576 54.668 72.448V73.696C54.2413 73.856 53.7987 73.9733 53.34 74.048C52.892 74.1227 52.3533 74.16 51.724 74.16C50.5613 74.16 49.5907 73.92 48.812 73.44C48.0333 72.96 47.4467 72.2773 47.052 71.392C46.668 70.5067 46.476 69.4667 46.476 68.272C46.476 67.408 46.5933 66.6187 46.828 65.904C47.0733 65.1893 47.4253 64.5707 47.884 64.048C48.3533 63.5253 48.9293 63.1253 49.612 62.848C50.2947 62.56 51.0787 62.416 51.964 62.416C52.5507 62.416 53.116 62.4747 53.66 62.592C54.204 62.7093 54.6893 62.8747 55.116 63.088L54.54 64.304C54.188 64.144 53.7933 64 53.356 63.872C52.9293 63.744 52.46 63.68 51.948 63.68ZM56.5214 68.848C56.5214 67.6 56.644 66.5387 56.8894 65.664C57.1454 64.7787 57.5347 64.0747 58.0574 63.552C58.5907 63.0187 59.2734 62.6613 60.1054 62.48C60.7987 62.3307 61.476 62.1973 62.1374 62.08C62.7987 61.9627 63.4174 61.856 63.9934 61.76L64.2334 62.992C63.956 63.0347 63.6467 63.088 63.3054 63.152C62.964 63.2053 62.6174 63.264 62.2654 63.328C61.9134 63.3813 61.572 63.44 61.2414 63.504C60.9214 63.5573 60.6387 63.6107 60.3934 63.664C60.0414 63.7387 59.7267 63.8667 59.4494 64.048C59.172 64.2187 58.932 64.4533 58.7294 64.752C58.5374 65.0507 58.3827 65.4187 58.2654 65.856C58.148 66.2933 58.0787 66.8107 58.0574 67.408H58.1534C58.3027 67.2053 58.5054 66.9973 58.7614 66.784C59.028 66.5707 59.3427 66.3893 59.7054 66.24C60.0787 66.0907 60.5 66.016 60.9694 66.016C61.716 66.016 62.3347 66.1813 62.8254 66.512C63.3267 66.832 63.7 67.28 63.9454 67.856C64.2014 68.432 64.3294 69.104 64.3294 69.872C64.3294 70.8213 64.164 71.616 63.8334 72.256C63.5027 72.896 63.044 73.376 62.4574 73.696C61.8707 74.0053 61.188 74.16 60.4094 74.16C59.8227 74.16 59.2894 74.048 58.8094 73.824C58.3294 73.5893 57.9187 73.248 57.5774 72.8C57.236 72.352 56.9747 71.7973 56.7934 71.136C56.612 70.4747 56.5214 69.712 56.5214 68.848ZM60.5214 72.992C60.9907 72.992 61.396 72.896 61.7374 72.704C62.0894 72.512 62.3614 72.1973 62.5534 71.76C62.7454 71.3227 62.8414 70.7413 62.8414 70.016C62.8414 69.1413 62.676 68.4533 62.3454 67.952C62.0254 67.44 61.492 67.184 60.7454 67.184C60.276 67.184 59.8494 67.2907 59.4654 67.504C59.0814 67.7067 58.7614 67.9413 58.5054 68.208C58.2494 68.4747 58.068 68.6987 57.9614 68.88C57.9614 69.4027 57.9987 69.9093 58.0734 70.4C58.148 70.8907 58.276 71.3333 58.4574 71.728C58.6494 72.112 58.9107 72.4213 59.2414 72.656C59.5827 72.88 60.0094 72.992 60.5214 72.992ZM69.8595 65.264C70.5955 65.264 71.2248 65.424 71.7475 65.744C72.2808 66.064 72.6862 66.5173 72.9635 67.104C73.2515 67.68 73.3955 68.3573 73.3955 69.136V69.984H67.5235C67.5448 70.9547 67.7902 71.696 68.2595 72.208C68.7395 72.7093 69.4062 72.96 70.2595 72.96C70.8035 72.96 71.2835 72.912 71.6995 72.816C72.1262 72.7093 72.5635 72.56 73.0115 72.368V73.6C72.5742 73.792 72.1422 73.9307 71.7155 74.016C71.2888 74.112 70.7822 74.16 70.1955 74.16C69.3848 74.16 68.6648 73.9947 68.0355 73.664C67.4168 73.3333 66.9315 72.8427 66.5795 72.192C66.2382 71.5307 66.0675 70.7253 66.0675 69.776C66.0675 68.8373 66.2222 68.032 66.5315 67.36C66.8515 66.688 67.2942 66.1707 67.8595 65.808C68.4355 65.4453 69.1022 65.264 69.8595 65.264ZM69.8435 66.416C69.1715 66.416 68.6382 66.6347 68.2435 67.072C67.8595 67.4987 67.6302 68.096 67.5555 68.864H71.9235C71.9235 68.3733 71.8488 67.9467 71.6995 67.584C71.5502 67.2213 71.3208 66.9387 71.0115 66.736C70.7128 66.5227 70.3235 66.416 69.8435 66.416ZM79.6588 65.264C80.7148 65.264 81.5628 65.632 82.2028 66.368C82.8534 67.104 83.1788 68.2133 83.1788 69.696C83.1788 70.6667 83.0294 71.488 82.7308 72.16C82.4427 72.8213 82.0321 73.3227 81.4988 73.664C80.9761 73.9947 80.3574 74.16 79.6428 74.16C79.2054 74.16 78.8161 74.1013 78.4748 73.984C78.1334 73.8667 77.8401 73.7173 77.5948 73.536C77.3601 73.344 77.1574 73.136 76.9868 72.912H76.8908C76.9121 73.0933 76.9334 73.3227 76.9548 73.6C76.9761 73.8773 76.9868 74.1173 76.9868 74.32V77.84H75.5788V65.424H76.7308L76.9228 66.592H76.9868C77.1574 66.3467 77.3601 66.1227 77.5948 65.92C77.8401 65.7173 78.1281 65.5573 78.4588 65.44C78.8001 65.3227 79.2001 65.264 79.6588 65.264ZM79.4028 66.448C78.8268 66.448 78.3628 66.56 78.0108 66.784C77.6588 66.9973 77.4028 67.3227 77.2428 67.76C77.0828 68.1973 76.9974 68.752 76.9868 69.424V69.696C76.9868 70.4 77.0614 70.9973 77.2108 71.488C77.3601 71.9787 77.6108 72.352 77.9628 72.608C78.3254 72.864 78.8161 72.992 79.4348 72.992C79.9574 72.992 80.3841 72.848 80.7148 72.56C81.0561 72.272 81.3068 71.8827 81.4668 71.392C81.6374 70.8907 81.7228 70.32 81.7228 69.68C81.7228 68.6987 81.5308 67.9147 81.1468 67.328C80.7734 66.7413 80.1921 66.448 79.4028 66.448Z" fill="#1E1D24"/>
<path d="M255.917 63.4166H253.755L252.87 61.9583C252.661 61.5937 252.245 61.3333 251.802 61.3333H249.172C248.729 61.3333 248.312 61.5937 248.104 61.9583L247.219 63.4166H245.083C244.849 63.4166 244.667 63.625 244.667 63.8333V64.25C244.667 64.4844 244.849 64.6666 245.083 64.6666H245.5L246.047 73.4948C246.073 74.1719 246.62 74.6666 247.297 74.6666H253.677C254.354 74.6666 254.901 74.1719 254.927 73.4948L255.5 64.6666H255.917C256.125 64.6666 256.333 64.4844 256.333 64.25V63.8333C256.333 63.625 256.125 63.4166 255.917 63.4166ZM249.172 62.5833H251.802L252.297 63.4166H248.677L249.172 62.5833ZM253.677 73.4166H247.297L246.75 64.6666H254.224L253.677 73.4166Z" fill="#1E1D24"/>
<path d="M21.5 113.031C20.0938 113.031 19 114.375 19 116.031C19 117.719 20.0938 119.062 21.5 119.062C22.875 119.062 24 117.719 24 116.031C24 114.375 22.875 113.031 21.5 113.031ZM30.9062 109.719C29.6875 109.219 28.4688 109 27.25 109C23.4062 109 19.5625 110.969 15.7188 110.969C14.75 110.969 13.7812 110.844 12.8125 110.531C12.7188 110.5 12.5938 110.469 12.5 110.469C11.9688 110.469 11.5 110.906 11.5 111.469V121.406C11.5 121.781 11.7188 122.156 12.0625 122.312C13.2812 122.812 14.5 123 15.7188 123C19.5625 123 23.4062 121.062 27.25 121.062C28.2188 121.062 29.1875 121.188 30.1562 121.5C30.25 121.531 30.375 121.531 30.4688 121.531C31 121.531 31.5 121.125 31.5 120.562V110.625C31.5 110.25 31.25 109.875 30.9062 109.719ZM30 118.094C29.1562 118.188 28.4688 118.812 28.2812 119.625C27.9375 119.594 27.625 119.562 27.25 119.562C25.1562 119.562 23.0938 120.094 21.125 120.594C19.2188 121.062 17.4375 121.5 15.7188 121.5C15.4688 121.5 15.2188 121.5 14.9688 121.5C14.9375 120.406 14.0625 119.562 13 119.562V114.031C13.9688 114.031 14.75 113.344 14.9375 112.406C15.1875 112.438 15.4375 112.469 15.7188 112.469C17.8125 112.469 19.875 111.938 21.8438 111.438C23.75 110.969 25.5312 110.5 27.25 110.5C27.5938 110.5 27.9062 110.531 28.25 110.562C28.2812 111.562 29.0312 112.375 30 112.5V118.094Z" fill="#1E1D24"/>
<path d="M55.788 122H54.348V116.672H48.492V122H47.052V110.576H48.492V115.408H54.348V110.576H55.788V122ZM61.9674 113.28C63.0127 113.28 63.786 113.509 64.2874 113.968C64.7887 114.427 65.0394 115.157 65.0394 116.16V122H64.0154L63.7434 120.784H63.6794C63.434 121.093 63.178 121.355 62.9114 121.568C62.6554 121.771 62.3567 121.92 62.0154 122.016C61.6847 122.112 61.2794 122.16 60.7994 122.16C60.2874 122.16 59.8234 122.069 59.4074 121.888C59.002 121.707 58.682 121.429 58.4474 121.056C58.2127 120.672 58.0954 120.192 58.0954 119.616C58.0954 118.763 58.4314 118.107 59.1034 117.648C59.7754 117.179 60.81 116.923 62.2074 116.88L63.6634 116.832V116.32C63.6634 115.605 63.5087 115.109 63.1994 114.832C62.89 114.555 62.4527 114.416 61.8874 114.416C61.4394 114.416 61.0127 114.485 60.6074 114.624C60.202 114.752 59.8234 114.901 59.4714 115.072L59.0394 114.016C59.4127 113.813 59.8554 113.643 60.3674 113.504C60.8794 113.355 61.4127 113.28 61.9674 113.28ZM62.3834 117.856C61.3167 117.899 60.5754 118.069 60.1594 118.368C59.754 118.667 59.5514 119.088 59.5514 119.632C59.5514 120.112 59.6954 120.464 59.9834 120.688C60.282 120.912 60.6607 121.024 61.1194 121.024C61.8447 121.024 62.4474 120.827 62.9274 120.432C63.4074 120.027 63.6474 119.408 63.6474 118.576V117.808L62.3834 117.856ZM74.2161 122H72.7921V114.592H70.2641C70.1575 115.947 70.0241 117.104 69.8641 118.064C69.7041 119.013 69.5015 119.787 69.2561 120.384C69.0108 120.981 68.7175 121.419 68.3761 121.696C68.0348 121.973 67.6348 122.112 67.1761 122.112C67.0375 122.112 66.8988 122.101 66.7601 122.08C66.6321 122.069 66.5255 122.043 66.4401 122V120.944C66.5041 120.965 66.5735 120.981 66.6481 120.992C66.7228 121.003 66.7975 121.008 66.8721 121.008C67.1068 121.008 67.3201 120.912 67.5121 120.72C67.7041 120.528 67.8748 120.235 68.0241 119.84C68.1841 119.445 68.3281 118.949 68.4561 118.352C68.5841 117.744 68.6961 117.029 68.7921 116.208C68.8881 115.387 68.9735 114.459 69.0481 113.424H74.2161V122ZM78.2661 118.656C78.2661 118.752 78.2608 118.891 78.2501 119.072C78.2501 119.243 78.2448 119.429 78.2341 119.632C78.2235 119.824 78.2128 120.011 78.2021 120.192C78.1915 120.363 78.1808 120.501 78.1701 120.608L82.7621 113.424H84.4901V122H83.1781V116.944C83.1781 116.773 83.1781 116.549 83.1781 116.272C83.1888 115.995 83.1995 115.723 83.2101 115.456C83.2208 115.179 83.2315 114.971 83.2421 114.832L78.6821 122H76.9381V113.424H78.2661V118.656ZM88.4514 116.544C88.4514 117.045 88.59 117.419 88.8674 117.664C89.1554 117.899 89.566 118.016 90.0994 118.016C90.6327 118.016 91.118 117.936 91.5554 117.776C91.9927 117.605 92.4407 117.381 92.8994 117.104V113.424H94.3074V122H92.8994V118.176C92.4194 118.485 91.9447 118.731 91.4754 118.912C91.0167 119.083 90.462 119.168 89.8114 119.168C88.9367 119.168 88.254 118.939 87.7634 118.48C87.2834 118.021 87.0434 117.408 87.0434 116.64V113.424H88.4514V116.544ZM98.4399 113.424V116.992H103.096V113.424H104.504V122H103.096V118.176H98.4399V122H97.0319V113.424H98.4399ZM107.219 122V113.424H108.627V116.944H110.851C111.598 116.944 112.211 117.035 112.691 117.216C113.171 117.397 113.529 117.669 113.763 118.032C113.998 118.384 114.115 118.832 114.115 119.376C114.115 119.909 113.998 120.373 113.763 120.768C113.539 121.163 113.182 121.467 112.691 121.68C112.211 121.893 111.577 122 110.787 122H107.219ZM110.659 120.864C111.267 120.864 111.763 120.763 112.147 120.56C112.531 120.347 112.723 119.979 112.723 119.456C112.723 118.933 112.547 118.581 112.195 118.4C111.843 118.208 111.337 118.112 110.675 118.112H108.627V120.864H110.659ZM115.539 122V113.424H116.947V122H115.539ZM122.985 113.264C123.721 113.264 124.35 113.424 124.873 113.744C125.406 114.064 125.811 114.517 126.089 115.104C126.377 115.68 126.521 116.357 126.521 117.136V117.984H120.649C120.67 118.955 120.915 119.696 121.385 120.208C121.865 120.709 122.531 120.96 123.385 120.96C123.929 120.96 124.409 120.912 124.825 120.816C125.251 120.709 125.689 120.56 126.137 120.368V121.6C125.699 121.792 125.267 121.931 124.841 122.016C124.414 122.112 123.907 122.16 123.321 122.16C122.51 122.16 121.79 121.995 121.161 121.664C120.542 121.333 120.057 120.843 119.705 120.192C119.363 119.531 119.193 118.725 119.193 117.776C119.193 116.837 119.347 116.032 119.657 115.36C119.977 114.688 120.419 114.171 120.985 113.808C121.561 113.445 122.227 113.264 122.985 113.264ZM122.969 114.416C122.297 114.416 121.763 114.635 121.369 115.072C120.985 115.499 120.755 116.096 120.681 116.864H125.049C125.049 116.373 124.974 115.947 124.825 115.584C124.675 115.221 124.446 114.939 124.137 114.736C123.838 114.523 123.449 114.416 122.969 114.416Z" fill="#1E1D24"/>
<path d="M255.917 111.417H253.755L252.87 109.958C252.661 109.594 252.245 109.333 251.802 109.333H249.172C248.729 109.333 248.312 109.594 248.104 109.958L247.219 111.417H245.083C244.849 111.417 244.667 111.625 244.667 111.833V112.25C244.667 112.484 244.849 112.667 245.083 112.667H245.5L246.047 121.495C246.073 122.172 246.62 122.667 247.297 122.667H253.677C254.354 122.667 254.901 122.172 254.927 121.495L255.5 112.667H255.917C256.125 112.667 256.333 112.484 256.333 112.25V111.833C256.333 111.625 256.125 111.417 255.917 111.417ZM249.172 110.583H251.802L252.297 111.417H248.677L249.172 110.583ZM253.677 121.417H247.297L246.75 112.667H254.224L253.677 121.417Z" fill="#1E1D24"/>
<path d="M28.9688 157H14C13.1562 157 12.5 157.688 12.5 158.5V169.5C12.5 170.344 13.1562 171 14 171H28.9688C29.8125 171 30.5 170.344 30.5 169.5V158.5C30.5 157.688 29.8125 157 28.9688 157ZM28.7812 169.5H14.1875C14.0625 169.5 14 169.438 14 169.312V158.688C14 158.594 14.0625 158.5 14.1875 158.5H28.7812C28.9062 158.5 28.9688 158.594 28.9688 158.688V169.312C28.9688 169.438 28.9062 169.5 28.7812 169.5ZM18.5 167.375C18.5 167.188 18.3125 167 18.125 167H15.875C15.6562 167 15.5 167.188 15.5 167.375V167.625C15.5 167.844 15.6562 168 15.875 168H18.125C18.3125 168 18.5 167.844 18.5 167.625V167.375ZM24.5 167.375C24.5 167.188 24.3125 167 24.125 167H19.875C19.6562 167 19.5 167.188 19.5 167.375V167.625C19.5 167.844 19.6562 168 19.875 168H24.125C24.3125 168 24.5 167.844 24.5 167.625V167.375ZM20.625 166C20.8125 166 21 165.844 21 165.625V164.375C21 164.188 20.8125 164 20.625 164H18.875C18.6562 164 18.5 164.188 18.5 164.375V165.625C18.5 165.844 18.6562 166 18.875 166H20.625ZM21.5 165.625C21.5 165.844 21.6562 166 21.875 166H23.625C23.8125 166 24 165.844 24 165.625V164.375C24 164.188 23.8125 164 23.625 164H21.875C21.6562 164 21.5 164.188 21.5 164.375V165.625ZM15.5 165.625C15.5 165.844 15.6562 166 15.875 166H17.625C17.8125 166 18 165.844 18 165.625V164.375C18 164.188 17.8125 164 17.625 164H15.875C15.6562 164 15.5 164.188 15.5 164.375V165.625ZM27.5 164.375C27.5 164.188 27.3125 164 27.125 164H24.875C24.6562 164 24.5 164.188 24.5 164.375V165.625C24.5 165.844 24.6562 166 24.875 166H27.125C27.3125 166 27.5 165.844 27.5 165.625V164.375ZM27.5 160.25C27.5 159.844 27.1562 159.5 26.75 159.5H24.25C23.8125 159.5 23.5 159.844 23.5 160.25V161.75C23.5 162.188 23.8125 162.5 24.25 162.5H26.75C27.1562 162.5 27.5 162.188 27.5 161.75V160.25Z" fill="#1E1D24"/>
<path d="M54.748 158.576V168.72H56.204V173.008H54.828V170H46.972V173.008H45.596V168.72H46.476C46.86 168.059 47.2227 167.317 47.564 166.496C47.916 165.675 48.2253 164.816 48.492 163.92C48.7587 163.013 48.9773 162.107 49.148 161.2C49.3187 160.293 49.4253 159.419 49.468 158.576H54.748ZM50.732 159.872C50.6893 160.491 50.5827 161.189 50.412 161.968C50.252 162.747 50.044 163.547 49.788 164.368C49.5427 165.179 49.2653 165.963 48.956 166.72C48.6573 167.477 48.3373 168.144 47.996 168.72H53.324V159.872H50.732ZM62.0025 161.264C63.0585 161.264 63.9065 161.632 64.5465 162.368C65.1972 163.104 65.5225 164.213 65.5225 165.696C65.5225 166.667 65.3732 167.488 65.0745 168.16C64.7865 168.821 64.3758 169.323 63.8425 169.664C63.3198 169.995 62.7012 170.16 61.9865 170.16C61.5492 170.16 61.1598 170.101 60.8185 169.984C60.4772 169.867 60.1838 169.717 59.9385 169.536C59.7038 169.344 59.5012 169.136 59.3305 168.912H59.2345C59.2558 169.093 59.2772 169.323 59.2985 169.6C59.3198 169.877 59.3305 170.117 59.3305 170.32V173.84H57.9225V161.424H59.0745L59.2665 162.592H59.3305C59.5012 162.347 59.7038 162.123 59.9385 161.92C60.1838 161.717 60.4718 161.557 60.8025 161.44C61.1438 161.323 61.5438 161.264 62.0025 161.264ZM61.7465 162.448C61.1705 162.448 60.7065 162.56 60.3545 162.784C60.0025 162.997 59.7465 163.323 59.5865 163.76C59.4265 164.197 59.3412 164.752 59.3305 165.424V165.696C59.3305 166.4 59.4052 166.997 59.5545 167.488C59.7038 167.979 59.9545 168.352 60.3065 168.608C60.6692 168.864 61.1598 168.992 61.7785 168.992C62.3012 168.992 62.7278 168.848 63.0585 168.56C63.3998 168.272 63.6505 167.883 63.8105 167.392C63.9812 166.891 64.0665 166.32 64.0665 165.68C64.0665 164.699 63.8745 163.915 63.4905 163.328C63.1172 162.741 62.5358 162.448 61.7465 162.448ZM66.266 161.424H67.77L69.626 166.304C69.7327 166.592 69.8287 166.869 69.914 167.136C70.01 167.403 70.0953 167.664 70.17 167.92C70.2447 168.165 70.3033 168.405 70.346 168.64H70.41C70.474 168.373 70.5753 168.027 70.714 167.6C70.8527 167.163 70.9967 166.725 71.146 166.288L72.89 161.424H74.41L70.714 171.184C70.5113 171.717 70.2713 172.181 69.994 172.576C69.7273 172.981 69.3967 173.291 69.002 173.504C68.618 173.728 68.1487 173.84 67.594 173.84C67.338 173.84 67.114 173.824 66.922 173.792C66.73 173.771 66.5647 173.744 66.426 173.712V172.592C66.5433 172.613 66.682 172.635 66.842 172.656C67.0127 172.677 67.1887 172.688 67.37 172.688C67.7007 172.688 67.9833 172.624 68.218 172.496C68.4633 172.379 68.6713 172.203 68.842 171.968C69.0127 171.744 69.1567 171.477 69.274 171.168L69.722 170.032L66.266 161.424ZM80.9983 161.424V162.608H77.1743V170H75.7663V161.424H80.9983ZM89.9879 165.696C89.9879 166.411 89.8919 167.045 89.6999 167.6C89.5185 168.144 89.2519 168.608 88.8999 168.992C88.5585 169.376 88.1372 169.669 87.6359 169.872C87.1452 170.064 86.5959 170.16 85.9879 170.16C85.4225 170.16 84.8999 170.064 84.4199 169.872C83.9399 169.669 83.5239 169.376 83.1719 168.992C82.8199 168.608 82.5425 168.144 82.3399 167.6C82.1479 167.045 82.0519 166.411 82.0519 165.696C82.0519 164.747 82.2119 163.947 82.5319 163.296C82.8519 162.635 83.3105 162.133 83.9079 161.792C84.5052 161.44 85.2145 161.264 86.0359 161.264C86.8145 161.264 87.4972 161.44 88.0839 161.792C88.6812 162.133 89.1452 162.635 89.4759 163.296C89.8172 163.947 89.9879 164.747 89.9879 165.696ZM83.5079 165.696C83.5079 166.368 83.5932 166.955 83.7639 167.456C83.9452 167.947 84.2225 168.325 84.5959 168.592C84.9692 168.859 85.4439 168.992 86.0199 168.992C86.5959 168.992 87.0705 168.859 87.4439 168.592C87.8172 168.325 88.0892 167.947 88.2599 167.456C88.4412 166.955 88.5319 166.368 88.5319 165.696C88.5319 165.013 88.4412 164.432 88.2599 163.952C88.0785 163.472 87.8012 163.104 87.4279 162.848C87.0652 162.581 86.5905 162.448 86.0039 162.448C85.1292 162.448 84.4945 162.736 84.0999 163.312C83.7052 163.888 83.5079 164.683 83.5079 165.696ZM99.1634 157.872C99.1207 158.405 98.9874 158.853 98.7634 159.216C98.55 159.579 98.23 159.851 97.8034 160.032C97.3767 160.213 96.822 160.304 96.1394 160.304C95.446 160.304 94.886 160.213 94.4594 160.032C94.0434 159.851 93.7394 159.584 93.5474 159.232C93.3554 158.869 93.238 158.416 93.1954 157.872H94.5074C94.5607 158.448 94.71 158.837 94.9554 159.04C95.2114 159.232 95.6167 159.328 96.1714 159.328C96.662 159.328 97.046 159.227 97.3234 159.024C97.6114 158.811 97.782 158.427 97.8354 157.872H99.1634ZM93.5474 166.656C93.5474 166.752 93.542 166.891 93.5314 167.072C93.5314 167.243 93.526 167.429 93.5154 167.632C93.5047 167.824 93.494 168.011 93.4834 168.192C93.4727 168.363 93.462 168.501 93.4514 168.608L98.0434 161.424H99.7714V170H98.4594V164.944C98.4594 164.773 98.4594 164.549 98.4594 164.272C98.47 163.995 98.4807 163.723 98.4914 163.456C98.502 163.179 98.5127 162.971 98.5234 162.832L93.9634 170H92.2194V161.424H93.5474V166.656ZM110.097 170.16C109.34 170.16 108.662 170.005 108.065 169.696C107.478 169.387 107.014 168.907 106.673 168.256C106.342 167.605 106.177 166.773 106.177 165.76C106.177 164.704 106.353 163.845 106.705 163.184C107.057 162.523 107.532 162.037 108.129 161.728C108.737 161.419 109.425 161.264 110.193 161.264C110.63 161.264 111.052 161.312 111.457 161.408C111.862 161.493 112.193 161.6 112.449 161.728L112.017 162.896C111.761 162.8 111.462 162.709 111.121 162.624C110.78 162.539 110.46 162.496 110.161 162.496C109.585 162.496 109.11 162.619 108.737 162.864C108.364 163.109 108.086 163.472 107.905 163.952C107.724 164.432 107.633 165.029 107.633 165.744C107.633 166.427 107.724 167.008 107.905 167.488C108.086 167.968 108.358 168.331 108.721 168.576C109.084 168.821 109.537 168.944 110.081 168.944C110.55 168.944 110.961 168.896 111.313 168.8C111.676 168.704 112.006 168.587 112.305 168.448V169.696C112.017 169.845 111.697 169.957 111.345 170.032C111.004 170.117 110.588 170.16 110.097 170.16ZM115.576 164.544C115.576 165.045 115.715 165.419 115.992 165.664C116.28 165.899 116.691 166.016 117.224 166.016C117.758 166.016 118.243 165.936 118.68 165.776C119.118 165.605 119.566 165.381 120.024 165.104V161.424H121.432V170H120.024V166.176C119.544 166.485 119.07 166.731 118.6 166.912C118.142 167.083 117.587 167.168 116.936 167.168C116.062 167.168 115.379 166.939 114.888 166.48C114.408 166.021 114.168 165.408 114.168 164.64V161.424H115.576V164.544ZM127.469 161.264C128.205 161.264 128.834 161.424 129.357 161.744C129.89 162.064 130.296 162.517 130.573 163.104C130.861 163.68 131.005 164.357 131.005 165.136V165.984H125.133C125.154 166.955 125.4 167.696 125.869 168.208C126.349 168.709 127.016 168.96 127.869 168.96C128.413 168.96 128.893 168.912 129.309 168.816C129.736 168.709 130.173 168.56 130.621 168.368V169.6C130.184 169.792 129.752 169.931 129.325 170.016C128.898 170.112 128.392 170.16 127.805 170.16C126.994 170.16 126.274 169.995 125.645 169.664C125.026 169.333 124.541 168.843 124.189 168.192C123.848 167.531 123.677 166.725 123.677 165.776C123.677 164.837 123.832 164.032 124.141 163.36C124.461 162.688 124.904 162.171 125.469 161.808C126.045 161.445 126.712 161.264 127.469 161.264ZM127.453 162.416C126.781 162.416 126.248 162.635 125.853 163.072C125.469 163.499 125.24 164.096 125.165 164.864H129.533C129.533 164.373 129.458 163.947 129.309 163.584C129.16 163.221 128.93 162.939 128.621 162.736C128.322 162.523 127.933 162.416 127.453 162.416ZM125.101 159.104C125.101 158.827 125.176 158.629 125.325 158.512C125.474 158.384 125.65 158.32 125.853 158.32C126.056 158.32 126.232 158.384 126.381 158.512C126.53 158.629 126.605 158.827 126.605 159.104C126.605 159.371 126.53 159.573 126.381 159.712C126.232 159.84 126.056 159.904 125.853 159.904C125.65 159.904 125.474 159.84 125.325 159.712C125.176 159.573 125.101 159.371 125.101 159.104ZM128.109 159.104C128.109 158.827 128.178 158.629 128.317 158.512C128.466 158.384 128.642 158.32 128.845 158.32C129.048 158.32 129.224 158.384 129.373 158.512C129.522 158.629 129.597 158.827 129.597 159.104C129.597 159.371 129.522 159.573 129.373 159.712C129.224 159.84 129.048 159.904 128.845 159.904C128.642 159.904 128.466 159.84 128.317 159.712C128.178 159.573 128.109 159.371 128.109 159.104ZM139.108 162.608H136.308V170H134.916V162.608H132.148V161.424H139.108V162.608Z" fill="#1E1D24"/>
<path d="M255.917 159.417H253.755L252.87 157.958C252.661 157.594 252.245 157.333 251.802 157.333H249.172C248.729 157.333 248.312 157.594 248.104 157.958L247.219 159.417H245.083C244.849 159.417 244.667 159.625 244.667 159.833V160.25C244.667 160.484 244.849 160.667 245.083 160.667H245.5L246.047 169.495C246.073 170.172 246.62 170.667 247.297 170.667H253.677C254.354 170.667 254.901 170.172 254.927 169.495L255.5 160.667H255.917C256.125 160.667 256.333 160.484 256.333 160.25V159.833C256.333 159.625 256.125 159.417 255.917 159.417ZM249.172 158.583H251.802L252.297 159.417H248.677L249.172 158.583ZM253.677 169.417H247.297L246.75 160.667H254.224L253.677 169.417Z" fill="#1E1D24"/>
<defs>
<linearGradient id="paint0_linear_1351_6207" x1="13.5215" y1="76.1377" x2="10.4609" y2="67.4077" gradientUnits="userSpaceOnUse">
<stop offset="0.14" stop-color="#F1E813"/>
<stop offset="0.3" stop-color="#E6E418"/>
<stop offset="0.58" stop-color="#C9DA26"/>
<stop offset="0.89" stop-color="#A2CC39"/>
</linearGradient>
<linearGradient id="paint1_linear_1351_6207" x1="13.7493" y1="60.0057" x2="21.4732" y2="57.1014" gradientUnits="userSpaceOnUse">
<stop offset="0.06" stop-color="#0FA7DF"/>
<stop offset="0.54" stop-color="#0098F8"/>
<stop offset="0.92" stop-color="#0290EA"/>
</linearGradient>
<linearGradient id="paint2_linear_1351_6207" x1="20.5687" y1="78.3267" x2="29.2849" y2="76.3838" gradientUnits="userSpaceOnUse">
<stop offset="0.12" stop-color="#A2CC39"/>
<stop offset="0.28" stop-color="#86C239"/>
<stop offset="0.87" stop-color="#219F38"/>
</linearGradient>
<linearGradient id="paint3_linear_1351_6207" x1="20.7689" y1="56.9282" x2="28.2283" y2="59.1996" gradientUnits="userSpaceOnUse">
<stop offset="0.06" stop-color="#0290EA"/>
<stop offset="0.79" stop-color="#0C89CA"/>
</linearGradient>
<linearGradient id="paint4_linear_1351_6207" x1="13.2472" y1="75.7129" x2="21.3742" y2="78.7099" gradientUnits="userSpaceOnUse">
<stop offset="0.13" stop-color="#F1E813"/>
<stop offset="0.3" stop-color="#EAE616"/>
<stop offset="0.53" stop-color="#D8DF1F"/>
<stop offset="0.8" stop-color="#BAD52D"/>
<stop offset="0.98" stop-color="#A2CC39"/>
</linearGradient>
<linearGradient id="paint5_linear_1351_6207" x1="10.5191" y1="68.335" x2="13.8472" y2="59.7923" gradientUnits="userSpaceOnUse">
<stop offset="0.07" stop-color="#A2CC39"/>
<stop offset="0.26" stop-color="#81C45E"/>
<stop offset="0.92" stop-color="#0FA7DF"/>
</linearGradient>
</defs>
</svg>
