<svg width="40" height="40" viewBox="0 0 40 40" fill="none" xmlns="http://www.w3.org/2000/svg">
<path d="M35.5 26.9824C34.25 26.9824 33.1875 27.4834 32.375 28.2348L27.5 25.4168C27.8125 24.6654 28 23.8513 28 22.9746C28 19.1546 24.8125 15.9609 21 15.9609C20.4375 15.9609 19.9375 16.0861 19.4375 16.1487L17.4375 11.8278C18.375 11.0137 19 9.82387 19 8.50881C19 6.00391 16.9375 4 14.5 4C12 4 10 6.00391 10 8.50881C10 10.9511 12 13.0176 14.5 13.0176C14.5 13.0176 14.5625 12.955 14.625 12.955L16.75 17.4638C15.0625 18.7162 14 20.7202 14 22.9746C14 26.8571 17.125 29.9883 21 29.9883C22.875 29.9883 24.625 29.2368 25.875 27.9843L31.0625 30.9276C31 31.1155 31 31.3033 31 31.4912C31 33.9961 33 36 35.5 36C37.9375 36 40 33.9961 40 31.4912C40 29.0489 37.9375 26.9824 35.5 26.9824ZM14.5 9.94912C13.625 9.94912 13 9.3229 13 8.44618C13 7.63209 13.625 6.94325 14.5 6.94325C15.3125 6.94325 16 7.63209 16 8.44618C16 9.3229 15.3125 9.94912 14.5 9.94912ZM21 26.9824C18.75 26.9824 17 25.229 17 22.9746C17 20.7828 18.75 18.9667 21 18.9667C23.1875 18.9667 25 20.7828 25 22.9746C25 25.229 23.1875 26.9824 21 26.9824ZM35.5 32.9941C34.625 32.9941 34 32.3679 34 31.4912C34 30.6771 34.625 29.9883 35.5 29.9883C36.3125 29.9883 37 30.6771 37 31.4912C37 32.3679 36.3125 32.9941 35.5 32.9941ZM32.0625 16.6497L30.875 15.0841L27.875 17.3386L29.0625 18.9041L32.0625 16.6497ZM36 15.9609C38.1875 15.9609 40 14.2074 40 11.953C40 9.76125 38.1875 7.94521 36 7.94521C33.75 7.94521 32 9.76125 32 11.953C32 14.2074 33.75 15.9609 36 15.9609ZM9.5 23.9765H12.5V21.9726H9.5V23.9765ZM4 18.9667C1.75 18.9667 0 20.7828 0 22.9746C0 25.229 1.75 26.9824 4 26.9824C6.1875 26.9824 8 25.229 8 22.9746C8 20.7828 6.1875 18.9667 4 18.9667Z" fill="#333333"/>
</svg>
