<svg width="20" height="20" viewBox="0 0 20 20" fill="none" xmlns="http://www.w3.org/2000/svg">
<path d="M8.95822 8.67183L9.14051 11.5885C9.14051 11.7708 9.27072 11.875 9.45301 11.875H10.5207C10.703 11.875 10.8332 11.7447 10.8332 11.5885L11.0155 8.67183C11.0155 8.48954 10.8853 8.33329 10.703 8.33329H9.27072C9.08843 8.33329 8.95822 8.48954 8.95822 8.67183ZM11.0936 13.3333C11.0936 12.7343 10.5988 12.2395 9.99989 12.2395C9.37489 12.2395 8.90614 12.7343 8.90614 13.3333C8.90614 13.9583 9.37489 14.427 9.99989 14.427C10.5988 14.427 11.0936 13.9583 11.0936 13.3333ZM11.0676 3.95829C10.5988 3.151 9.37489 3.12496 8.90614 3.95829L2.65614 14.8177C2.18739 15.625 2.78635 16.6666 3.74989 16.6666H16.2238C17.1874 16.6666 17.7863 15.651 17.3176 14.8177L11.0676 3.95829ZM3.8801 15.2083L9.84364 4.84371C9.92176 4.73954 10.052 4.73954 10.1301 4.84371L16.0936 15.2083C16.1718 15.3125 16.0936 15.4166 15.9634 15.4166H4.0103C3.8801 15.4166 3.80197 15.3125 3.8801 15.2083Z" fill="#F05A2B"/>
</svg>
