<svg width="80" height="80" viewBox="0 0 80 80" fill="none" xmlns="http://www.w3.org/2000/svg">
<circle cx="40" cy="40" r="40" fill="#A6A6A6"/>
<path fill-rule="evenodd" clip-rule="evenodd" d="M40 29.3332C37.7909 29.3332 36 31.124 36 33.3332C36 35.5423 37.7909 37.3332 40 37.3332C42.2091 37.3332 44 35.5423 44 33.3332C44 31.124 42.2091 29.3332 40 29.3332ZM33.3333 33.3332C33.3333 29.6513 36.3181 26.6665 40 26.6665C43.6819 26.6665 46.6667 29.6513 46.6667 33.3332C46.6667 37.0151 43.6819 39.9998 40 39.9998C36.3181 39.9998 33.3333 37.0151 33.3333 33.3332ZM29.9526 44.6191C31.2029 43.3689 32.8986 42.6665 34.6667 42.6665H45.3333C47.1014 42.6665 48.7971 43.3689 50.0474 44.6191C51.2976 45.8694 52 47.5651 52 49.3332V51.9998C52 52.7362 51.403 53.3332 50.6667 53.3332C49.9303 53.3332 49.3333 52.7362 49.3333 51.9998V49.3332C49.3333 48.2723 48.9119 47.2549 48.1618 46.5047C47.4116 45.7546 46.3942 45.3332 45.3333 45.3332H34.6667C33.6058 45.3332 32.5884 45.7546 31.8382 46.5047C31.0881 47.2549 30.6667 48.2723 30.6667 49.3332V51.9998C30.6667 52.7362 30.0697 53.3332 29.3333 53.3332C28.597 53.3332 28 52.7362 28 51.9998V49.3332C28 47.5651 28.7024 45.8694 29.9526 44.6191Z" fill="white"/>
</svg>
