<svg width="50" height="50" viewBox="0 0 50 50" fill="none" xmlns="http://www.w3.org/2000/svg">
<rect width="50" height="50" rx="25" fill="#EAEBF5"/>
<path d="M30.4165 20.4168H28.255L27.3696 18.9585C27.1613 18.5939 26.7446 18.3335 26.3019 18.3335H23.6717C23.229 18.3335 22.8123 18.5939 22.604 18.9585L21.7186 20.4168H19.5832C19.3488 20.4168 19.1665 20.6252 19.1665 20.8335V21.2502C19.1665 21.4845 19.3488 21.6668 19.5832 21.6668H19.9998L20.5467 30.495C20.5728 31.172 21.1196 31.6668 21.7967 31.6668H28.1769C28.854 31.6668 29.4009 31.172 29.4269 30.495L29.9998 21.6668H30.4165C30.6248 21.6668 30.8332 21.4845 30.8332 21.2502V20.8335C30.8332 20.6252 30.6248 20.4168 30.4165 20.4168ZM23.6717 19.5835H26.3019L26.7967 20.4168H23.1769L23.6717 19.5835ZM28.1769 30.4168H21.7967L21.2498 21.6668H28.7238L28.1769 30.4168Z" fill="#1E1D24"/>
</svg>
