<svg width="50" height="50" viewBox="0 0 50 50" fill="none" xmlns="http://www.w3.org/2000/svg">
<rect width="50" height="50" rx="25" fill="#EAEBF5"/>
<path d="M27.6875 21.5H31.5V30.5H18.5V21.5H22.2812L23.0312 19.5H26.9375L27.6875 21.5ZM27.125 18H23.0312C22.4062 18 21.8438 18.4062 21.625 19L21.25 20H18.5C17.6562 20 17 20.6875 17 21.5V30.5C17 31.3438 17.6562 32 18.5 32H31.5C32.3125 32 33 31.3438 33 30.5V21.5C33 20.6875 32.3125 20 31.5 20H28.75L28.2812 18.8125C28.0938 18.3438 27.6562 18 27.125 18ZM25 29.75C27.0625 29.75 28.75 28.0938 28.75 26C28.75 23.9375 27.0625 22.25 25 22.25C22.9062 22.25 21.25 23.9375 21.25 26C21.25 28.0938 22.9062 29.75 25 29.75ZM25 23.75C26.2188 23.75 27.25 24.7812 27.25 26C27.25 27.25 26.2188 28.25 25 28.25C23.75 28.25 22.75 27.25 22.75 26C22.75 24.7812 23.75 23.75 25 23.75Z" fill="#333333"/>
</svg>
