<svg width="80" height="80" viewBox="0 0 80 80" fill="none" xmlns="http://www.w3.org/2000/svg">
<g clip-path="url(#clip0_443_1782)">
<path d="M0 40C0 17.9086 17.9086 0 40 0C62.0914 0 80 17.9086 80 40C80 62.0914 62.0914 80 40 80C17.9086 80 0 62.0914 0 40Z" fill="url(#paint0_linear_443_1782)"/>
<mask id="mask0_443_1782" style="mask-type:luminance" maskUnits="userSpaceOnUse" x="0" y="0" width="80" height="80">
<path d="M0 40C0 17.9086 17.9086 0 40 0C62.0914 0 80 17.9086 80 40C80 62.0914 62.0914 80 40 80C17.9086 80 0 62.0914 0 40Z" fill="white"/>
</mask>
<g mask="url(#mask0_443_1782)">
<path d="M6.13623 44.974C6.13623 25.5905 21.3874 9.8772 40.2007 9.8772C59.0142 9.8772 74.2653 25.5905 74.2653 44.974C74.2653 64.3572 59.0142 80.0707 40.2007 80.0707C21.3874 80.0707 6.13623 64.3572 6.13623 44.974Z" fill="url(#paint1_linear_443_1782)"/>
<path d="M30.0237 25.4618C32.6157 27.2176 33.2577 31.6102 31.0163 33.4406C28.7257 35.3113 23.5257 35.6017 21.8158 32.4099C20.6705 30.272 22.0067 27.1415 23.801 25.7672C25.5953 24.3929 27.6568 23.8584 30.0237 25.4618Z" fill="#303360"/>
<path d="M47.6688 34.1647C48.7036 36.718 54.0332 37.3281 55.9589 35.7703C58.5333 33.6882 58.1927 30.2055 56.7919 28.1992C55.3911 26.1929 52.1756 25.1742 49.7953 27.0726C47.4381 28.9524 46.4461 31.1488 47.6688 34.1647Z" fill="#303360"/>
<path d="M27.7313 29.3729C28.7131 28.9705 30.0102 29.6969 30.05 30.6125C30.0898 31.5281 29.6372 32.8179 28.0932 32.9586C27.0111 33.0572 26.1886 32.3242 26.2284 31.2893C26.2682 30.2543 26.7495 29.7753 27.7313 29.3729Z" fill="white"/>
<path d="M27.6618 26.5519C28.2229 26.0043 28.8697 26.6374 28.9369 27.0742C29.0041 27.5111 28.5841 28.1663 28.0801 28.0487C27.576 27.9311 26.9747 27.2225 27.6618 26.5519Z" fill="white"/>
<path d="M24.3165 27.595C24.8868 26.9761 25.8622 27.2926 26.0638 27.9815C26.2654 28.6703 26.0134 29.1407 25.2574 29.2583C24.5013 29.3759 23.5268 28.4519 24.3165 27.595Z" fill="white"/>
<path d="M49.781 32.3775C49.9028 31.0204 51.0873 30.3301 52.2842 30.6974C53.7629 31.1511 53.9967 32.1071 53.6452 33.3856C53.4605 34.0576 52.3348 34.6121 51.3939 34.3097C50.5448 34.0367 49.6803 33.5032 49.781 32.3775Z" fill="white"/>
<path d="M54.3508 28.7149C55.0399 28.4729 55.8461 28.9165 55.8631 29.5717C55.8796 30.227 55.1405 31.4534 54.452 30.815C53.763 30.1766 53.7294 28.9333 54.3508 28.7149Z" fill="white"/>
<path d="M51.1587 28.4797C51.6547 28.0459 52.671 28.3453 52.5197 29.0005C52.3685 29.6558 51.8648 30.1262 51.3099 29.8238C50.7556 29.5214 50.7556 28.8325 51.1587 28.4797Z" fill="white"/>
<path d="M29.9565 16.22C30.4819 15.6946 31.1051 15.2689 31.7398 14.8826C34.5871 13.1494 31.3766 17.7596 32.6314 17.4459C33.4225 17.2481 35.7609 14.5527 36.6436 14.994C37.1051 15.2248 35.8927 19.5225 36.4207 19.7864C36.9195 20.0359 38.0593 18.0729 38.3154 17.7803C39.4899 16.438 40.8191 15.0238 42.439 14.2139" stroke="#303360" stroke-width="1.5" stroke-miterlimit="10" stroke-linecap="round" stroke-linejoin="round"/>
<path d="M46.6567 14.912C48.4349 14.5968 50.4867 15.0147 52 16.0002C53 16.5002 54.4826 18.3126 54.8415 18.2014C55.2828 18.0649 54.5742 16.6576 54.489 16.4193C54.1055 15.3472 53.8345 13.9524 54.2211 12.8194C54.7718 11.2031 58.5 12.5001 59.5703 13.7018" stroke="#303360" stroke-width="1.5" stroke-miterlimit="10" stroke-linecap="round" stroke-linejoin="round"/>
<path d="M32.0679 7.33395C32.9949 5.57565 36.7475 4.66541 38.741 5.41767C39.1019 5.55387 39.6994 5.8476 40.0354 6.06216C40.2761 6.21591 40.5327 6.83413 40.7004 6.6028C40.9894 6.20414 39.7948 4.51361 39.5952 4.15785C39.5564 4.08874 39.4547 3.96734 39.5249 3.93075C40.186 3.58659 44.1412 6.19939 44.7554 6.84063" stroke="#303360" stroke-width="1.5" stroke-miterlimit="10" stroke-linecap="round" stroke-linejoin="round"/>
<path d="M49.643 8.90085C51.0743 7.94356 52.8061 7.33307 54.5316 7.61811" stroke="#303360" stroke-width="1.5" stroke-miterlimit="10" stroke-linecap="round" stroke-linejoin="round"/>
<path d="M41.9691 42.0253C40.6593 42.4377 39.5639 42.6767 37.6356 42.4795C37.0999 42.4243 36.9834 43.2047 37.2185 43.696C37.8241 44.9611 40.2744 44.5497 41.6775 43.6475C42.5203 43.1056 43.0674 41.6795 41.9691 42.0253Z" stroke="#303360" stroke-width="1.2" stroke-miterlimit="10" stroke-linecap="round" stroke-linejoin="round"/>
<path d="M25.7554 64.3576C25.7554 64.3576 38.5418 54.9202 42.804 50.7339C47.0662 46.5481 48.6647 44.7974 48.6647 44.7974C48.6647 44.7974 57.4931 49.2882 59.6242 62.9878C61.7553 76.6874 41.3578 74.3282 41.3578 74.3282L25.7554 64.3576Z" fill="#AED6AD"/>
<path d="M-7.27588 38.5125C-7.27588 38.5125 3.99253 44.8749 16.1041 46.1781C36.55 48.3778 46.8432 67.7182 46.8432 67.7182L44.39 84.6591L2.8427 78.9869L-7.27588 38.5125Z" fill="#B8E3B7"/>
<path d="M35.8045 87.4953C35.8045 87.4953 33.2422 64.3459 46.153 55.8365C59.0913 47.3095 69.5187 50.43 77.0485 37.1365C85.8821 44.3412 84.1406 50.7324 85.5445 57.2408C86.9479 63.7492 76.3554 83.4328 76.3554 83.4328L35.8045 87.4953Z" fill="#C6F0C5"/>
<path d="M53.6118 67.8209C53.6118 61.4947 58.7571 56.3665 65.1045 56.3665C71.4513 56.3665 76.5971 61.4947 76.5971 67.8209C76.5971 74.1471 71.4513 79.2754 65.1045 79.2754C58.7571 79.2754 53.6118 74.1471 53.6118 67.8209Z" fill="#A6D6B3"/>
<path d="M0.867188 61.504C0.867188 56.1022 5.34817 51.7234 10.8757 51.7234C16.4032 51.7234 20.8842 56.1022 20.8842 61.504C20.8842 66.9053 16.4032 71.2842 10.8757 71.2842C5.34817 71.2842 0.867188 66.9053 0.867188 61.504Z" fill="#A6D6B3"/>
<path d="M39.8123 78.0863C38.9541 68.8832 42.6167 62.7933 46.8474 58.9146C50.2972 55.7513 53.6056 54.0997 56.7462 52.9673" stroke="#A6D6B3" stroke-width="1.85289" stroke-miterlimit="10" stroke-linecap="round" stroke-linejoin="round"/>
<path d="M70.519 47.6631C72.5867 46.7129 73.4899 46.1065 74.7621 45.0649C75.7836 44.2288 77.6623 42.0394 77.7113 42.0796C79.0058 43.1439 79.5699 44.3382 80.247 45.5537C80.9242 46.7692 81.35 47.7932 81.7294 49.2797" stroke="#A6D6B3" stroke-width="1.85289" stroke-miterlimit="10" stroke-linecap="round" stroke-linejoin="round"/>
<path d="M-3.79834 42.9065C-2.60794 43.7395 3.68739 46.9101 8.107 47.8835C13.6441 49.1031 19.0277 49.3751 24.3897 51.2977C28.0056 52.5947 31.2228 55.642 34.1557 58.0229C35.1063 58.7945 35.824 59.914 36.8177 60.6092" stroke="#A6D6B3" stroke-width="1.85289" stroke-miterlimit="10" stroke-linecap="round" stroke-linejoin="round"/>
<path d="M13.3149 45.0938C11.7491 47.0216 13.5461 49.0211 16.0019 51.0902C17.464 52.3222 20.4071 53.3514 23.0129 51.5331C24.9272 50.1968 26.3938 49.7024 25.8317 47.6172C25.2535 45.4722 22.5914 44.1142 19.811 43.7055C17.3581 43.3452 14.8807 43.1661 13.3149 45.0938Z" fill="#FBCF60"/>
<path d="M56.2469 48.9947C55.9486 51.1991 57.8221 51.7802 60.8177 52.9364C62.6015 53.6249 65.3581 53.6646 67.2967 51.5464C69.0051 49.6796 69.4165 48.0982 68.2056 46.3093C66.9607 44.4698 65.0005 44.6891 62.2386 45.2084C59.802 45.6657 56.5457 46.7898 56.2469 48.9947Z" fill="#FBCF60"/>
</g>
</g>
<defs>
<linearGradient id="paint0_linear_443_1782" x1="73.5484" y1="48" x2="9.80645" y2="12.9032" gradientUnits="userSpaceOnUse">
<stop stop-color="#FDF0C4"/>
<stop offset="1" stop-color="#FDDAC6"/>
</linearGradient>
<linearGradient id="paint1_linear_443_1782" x1="40.258" y1="56.7743" x2="40.258" y2="9.80651" gradientUnits="userSpaceOnUse">
<stop stop-color="#F0B216"/>
<stop offset="1" stop-color="#FBCF60"/>
</linearGradient>
<clipPath id="clip0_443_1782">
<rect width="80" height="80" fill="white"/>
</clipPath>
</defs>
</svg>
