<svg width="24" height="24" viewBox="0 0 24 24" fill="none" xmlns="http://www.w3.org/2000/svg">
<path d="M17.5 6H16V4.375C16 4.1875 15.8125 4 15.625 4H14.375C14.1562 4 14 4.1875 14 4.375V6H10V4.375C10 4.1875 9.8125 4 9.625 4H8.375C8.15625 4 8 4.1875 8 4.375V6H6.5C5.65625 6 5 6.6875 5 7.5V18.5C5 19.3438 5.65625 20 6.5 20H17.5C18.3125 20 19 19.3438 19 18.5V7.5C19 6.6875 18.3125 6 17.5 6ZM17.3125 18.5H6.6875C6.5625 18.5 6.5 18.4375 6.5 18.3125V9H17.5V18.3125C17.5 18.4375 17.4062 18.5 17.3125 18.5Z" fill="#13164A"/>
</svg>
