<svg width="20" height="20" viewBox="0 0 20 20" fill="none" xmlns="http://www.w3.org/2000/svg">
<path d="M13.3333 6.66671C13.099 6.66671 12.9167 6.87504 12.9167 7.08337C12.9167 7.31775 13.099 7.50004 13.3333 7.50004C13.5417 7.50004 13.75 7.31775 13.75 7.08337C13.75 6.87504 13.5417 6.66671 13.3333 6.66671ZM16.7448 3.46358C16.5885 3.38546 16.4062 3.33337 16.25 3.33337C15.9375 3.33337 15.625 3.46358 15.3906 3.67192L14.375 4.58337H13.9323L12.9167 3.67192C12.6823 3.46358 12.3958 3.35942 12.0833 3.35942C11.901 3.35942 11.7187 3.38546 11.5625 3.46358C11.1198 3.64587 10.8333 4.11462 10.8333 4.58337V7.50004C10.8333 7.63025 10.8333 7.73442 10.8594 7.83858L9.63542 8.02087C7.86458 8.28129 6.38021 9.21879 5.41667 10.573V8.12504C5.41667 6.87504 4.375 5.83337 3.125 5.83337C2.76042 5.83337 2.5 6.11983 2.5 6.45837C2.5 6.82296 2.78646 7.10942 3.125 7.08337C3.72396 7.08337 4.16667 7.63025 4.16667 8.20317V13.75C4.16667 15.6511 5.18229 16.6667 6.45833 16.6667H11.25C11.4583 16.6667 11.6667 16.4844 11.6667 16.25C11.6667 15.8073 11.276 15.4167 10.8333 15.4167H10.3906C10.3906 15.2344 10.3906 15.0521 10.3646 14.8698L12.5 13.5938V15.8334C12.5 16.3021 12.8646 16.6667 13.3333 16.6667H15C15.4427 16.6667 15.8333 16.3021 15.8333 15.8334V10.3907C16.8229 9.79171 17.5 8.75004 17.5 7.52608V4.58337C17.5 4.11462 17.1875 3.64587 16.7448 3.46358ZM14.5833 15.4167H13.75V12.8646C13.75 12.5782 13.5677 12.2917 13.3073 12.1615C13.0729 12.0052 12.7344 12.0052 12.474 12.1615L9.97396 13.6459C9.66146 12.9948 9.19271 12.4219 8.56771 11.9792C8.38542 11.849 8.09896 11.9271 7.99479 12.1355L7.8125 12.5C7.70833 12.6823 7.73437 12.9167 7.91667 13.0469C8.67187 13.5938 9.11458 14.4792 9.14062 15.4167H6.45833C5.85937 15.4167 5.41667 14.974 5.41667 14.375C5.41667 11.7969 7.26562 9.63546 9.81771 9.24483L11.224 9.0365C11.7708 10.1042 12.8646 10.8334 14.1667 10.8334C14.2969 10.8334 14.4271 10.8334 14.5833 10.8073V15.4167ZM16.25 7.50004C16.25 8.67192 15.3125 9.58337 14.1667 9.58337C12.9948 9.58337 12.0833 8.67192 12.0833 7.50004V4.58337L13.4635 5.83337H14.8437L16.25 4.58337V7.50004ZM14.5833 7.08337C14.5833 7.31775 14.7656 7.50004 15 7.50004C15.2083 7.50004 15.4167 7.31775 15.4167 7.08337C15.4167 6.87504 15.2083 6.66671 15 6.66671C14.7656 6.66671 14.5833 6.87504 14.5833 7.08337Z" fill="#F0B216"/>
</svg>
