<svg width="24" height="24" viewBox="0 0 24 24" fill="none" xmlns="http://www.w3.org/2000/svg">
<path d="M5.963 13.0776C6.21751 13.3321 6.68412 13.3321 6.93863 13.0776L9.1444 10.8718L12.7076 14.4774C12.9621 14.7319 13.4287 14.7319 13.6832 14.4774L18.3493 9.81137L19.6218 11.0415C20.2581 11.7202 21.361 11.2536 21.361 10.3204V6.0361C21.361 5.69675 21.0217 5.3574 20.6823 5.3574H16.398C15.4648 5.3574 14.9982 6.46029 15.6769 7.09657L16.907 8.36913L13.2166 12.102L9.61101 8.49639C9.3565 8.24188 8.88989 8.24188 8.63538 8.49639L5.49639 11.6354C5.24188 11.8899 5.24188 12.3565 5.49639 12.611L5.963 13.0776ZM22.0397 18.2527H3.0361V4.6787C3.0361 4.33935 2.69675 4 2.3574 4H1.6787C1.29693 4 1 4.33935 1 4.6787V18.9314C1 19.6949 1.59386 20.2888 2.3574 20.2888H22.0397C22.3791 20.2888 22.7184 19.9919 22.7184 19.6101V18.9314C22.7184 18.5921 22.3791 18.2527 22.0397 18.2527Z" fill="#1E1D24"/>
</svg>
