<svg width="20" height="20" viewBox="0 0 20 20" fill="none" xmlns="http://www.w3.org/2000/svg">
<path d="M15.4168 3.33337H7.0835C6.38037 3.33337 5.8335 3.90629 5.8335 4.58337V5.83337H4.5835C3.88037 5.83337 3.3335 6.40629 3.3335 7.08337V15.4167C3.3335 16.1198 3.88037 16.6667 4.5835 16.6667H12.9168C13.5939 16.6667 14.1668 16.1198 14.1668 15.4167V14.1667H15.4168C16.0939 14.1667 16.6668 13.6198 16.6668 12.9167V4.58337C16.6668 3.90629 16.0939 3.33337 15.4168 3.33337ZM12.7606 15.4167H4.73975C4.63558 15.4167 4.5835 15.3646 4.5835 15.2605V7.23962C4.5835 7.1615 4.63558 7.08337 4.73975 7.08337H5.8335V12.9167C5.8335 13.6198 6.38037 14.1667 7.0835 14.1667H12.9168V15.2605C12.9168 15.3646 12.8387 15.4167 12.7606 15.4167ZM15.2606 12.9167H7.23975C7.13558 12.9167 7.0835 12.8646 7.0835 12.7605V4.73962C7.0835 4.6615 7.13558 4.58337 7.23975 4.58337H15.2606C15.3387 4.58337 15.4168 4.6615 15.4168 4.73962V12.7605C15.4168 12.8646 15.3387 12.9167 15.2606 12.9167Z" fill="#1E1D24"/>
</svg>
