<svg width="20" height="20" viewBox="0 0 20 20" fill="none" xmlns="http://www.w3.org/2000/svg">
<path d="M15.4165 5.41671H13.255L12.3696 3.95837C12.1613 3.59379 11.7446 3.33337 11.3019 3.33337H8.67171C8.229 3.33337 7.81234 3.59379 7.604 3.95837L6.71859 5.41671H4.58317C4.3488 5.41671 4.1665 5.62504 4.1665 5.83337V6.25004C4.1665 6.48442 4.3488 6.66671 4.58317 6.66671H4.99984L5.54671 15.4948C5.57275 16.1719 6.11963 16.6667 6.79671 16.6667H13.1769C13.854 16.6667 14.4009 16.1719 14.4269 15.4948L14.9998 6.66671H15.4165C15.6248 6.66671 15.8332 6.48442 15.8332 6.25004V5.83337C15.8332 5.62504 15.6248 5.41671 15.4165 5.41671ZM8.67171 4.58337H11.3019L11.7967 5.41671H8.17692L8.67171 4.58337ZM13.1769 15.4167H6.79671L6.24984 6.66671H13.7238L13.1769 15.4167Z" fill="#1E1D24"/>
</svg>
