<svg width="38" height="38" viewBox="0 0 38 38" fill="none" xmlns="http://www.w3.org/2000/svg">
<path d="M21.8747 18.1048L16.5037 16.5383C15.8323 16.3145 15.3101 15.5685 15.3101 14.8226C15.3101 13.8528 16.0561 13.0323 16.8767 13.0323H20.2335C20.7557 13.0323 21.2779 13.1815 21.7255 13.4798C22.173 13.7782 22.7698 13.7036 23.1428 13.3306L24.038 12.5101C24.6347 11.9879 24.5601 11.0927 23.8888 10.6452C22.8444 9.89919 21.6509 9.52621 20.4573 9.52621V8.25806C20.4573 7.66129 19.9351 7.06452 19.2638 7.06452H18.0702C17.3988 7.06452 16.8767 7.66129 16.8767 8.25806V9.45161C14.042 9.52621 11.8041 11.9133 11.8041 14.8226C11.8041 17.1351 13.296 19.2984 15.4593 19.8952L20.8303 21.5363C21.5017 21.7601 21.9493 22.4315 21.9493 23.252C21.9493 24.2218 21.2779 24.9677 20.3827 24.9677H17.0259C16.5037 24.9677 16.0561 24.8931 15.6085 24.5948C15.0863 24.2964 14.4896 24.371 14.1166 24.744L13.2214 25.5645C12.6247 26.0867 12.7738 26.9819 13.3706 27.4294C14.415 28.1008 15.6085 28.5484 16.8767 28.5484V29.7419C16.8767 30.4133 17.3988 30.9355 18.0702 30.9355H19.2638C19.8605 30.9355 20.4573 30.4133 20.4573 29.7419V28.5484C23.2174 28.5484 25.5299 26.1613 25.5299 23.252C25.5299 20.9395 24.038 18.7762 21.8747 18.1048ZM18.667 0.5C8.44723 0.5 0.166992 8.78024 0.166992 19C0.166992 29.2198 8.44723 37.5 18.667 37.5C28.8868 37.5 37.167 29.2198 37.167 19C37.167 8.78024 28.8868 0.5 18.667 0.5ZM18.667 33.9194C10.3868 33.9194 3.74764 27.2802 3.74764 19C3.74764 10.7944 10.3868 4.08065 18.667 4.08065C26.8726 4.08065 33.5863 10.7944 33.5863 19C33.5863 27.2802 26.8726 33.9194 18.667 33.9194Z" fill="#828282"/>
</svg>
