<svg width="20" height="20" viewBox="0 0 20 20" fill="none" xmlns="http://www.w3.org/2000/svg">
<path fill-rule="evenodd" clip-rule="evenodd" d="M17.7399 9.37143C18.087 9.71857 18.087 10.2814 17.7399 10.6285L10.6288 17.7396C10.2816 18.0868 9.71881 18.0868 9.37168 17.7396C9.02454 17.3925 9.02454 16.8297 9.37168 16.4825L16.4828 9.37143C16.8299 9.0243 17.3927 9.0243 17.7399 9.37143Z" fill="#BDBDBD"/>
<path fill-rule="evenodd" clip-rule="evenodd" d="M17.7397 2.26035C18.0868 2.60748 18.0868 3.1703 17.7397 3.51743L3.51743 17.7397C3.1703 18.0868 2.60748 18.0868 2.26035 17.7397C1.91322 17.3925 1.91322 16.8297 2.26035 16.4826L16.4826 2.26035C16.8297 1.91322 17.3925 1.91322 17.7397 2.26035Z" fill="#BDBDBD"/>
</svg>
