<svg width="432" height="184" viewBox="0 0 432 184" fill="none" xmlns="http://www.w3.org/2000/svg">
<path d="M23.683 19.2237L24 18.2282L22.9689 18.2607C22.4859 18.243 22.0207 18.08 21.6296 17.7926H21.7689C22.397 17.7896 22.9718 17.4311 23.2504 16.8681L23.7037 15.8993C23.3482 15.9023 22.9926 15.8815 22.64 15.837C22.3022 15.7571 22 15.5733 21.7718 15.3126C21.4637 14.9837 21.037 14.7971 20.5867 14.7941C20.4119 14.7941 20.237 14.8237 20.0681 14.877C20.0918 14.7971 20.1126 14.7171 20.1274 14.6341C20.1985 14.0563 20.0356 13.4726 19.6771 13.0133L18.8948 12.0504L18.4148 13.1763C18.3378 13.3363 18.2222 13.4756 18.0741 13.5763C17.9911 13.1733 17.7956 12.8059 17.5052 12.5156C17.0192 12.0178 16.3526 11.7393 15.6563 11.7452C15.5348 11.7452 15.4133 11.7541 15.2948 11.7719L14.3585 11.9556C14.4385 11.6415 14.5659 11.3422 14.7378 11.0667L15.2533 10.2637L13.9556 10.3852L13.5407 9.49631L12.7408 9.93186L12 9.20001L11.2592 9.93186L10.4593 9.51705L10.0444 10.3852L8.74668 10.237L9.2622 11.043C9.4341 11.3185 9.56148 11.6178 9.64146 11.9319L8.75262 11.7571H8.72298C8.59854 11.7393 8.4741 11.7304 8.3496 11.7304C7.65336 11.7245 6.98664 12.003 6.50076 12.5007C6.20742 12.7941 6.00594 13.1674 5.92592 13.5763C5.78371 13.4785 5.66815 13.3452 5.59111 13.1882L5.10815 12.0533L4.32 13.0193C3.96741 13.4785 3.81037 14.0593 3.87852 14.6341C3.89333 14.7171 3.91408 14.7971 3.93778 14.877C3.76889 14.8237 3.59407 14.7941 3.41926 14.7941C2.96889 14.7971 2.54222 14.9837 2.23408 15.3126C2.00889 15.5704 1.70963 15.7541 1.37482 15.837C1.01926 15.8904 0.65778 15.9111 0.296296 15.8993L0.737778 16.883C1.0163 17.4459 1.59111 17.8044 2.21926 17.8074H2.35852C1.97333 18.0889 1.51408 18.2519 1.03704 18.2726L0 18.2282L0.317037 19.2237C0.554074 20.003 1.22666 20.5748 2.03555 20.6786C1.95259 21.203 1.62074 21.6563 1.14667 21.8934L0.352592 22.2163L0.779262 22.96C1.13185 23.5082 1.73926 23.8341 2.38815 23.8281C2.55704 23.8281 2.72593 23.8104 2.89185 23.7749C2.93333 23.9556 2.98667 24.1363 3.04592 24.3111C3.19408 24.7022 3.20296 25.1289 3.07556 25.526L2.69037 26.3348L3.55259 26.563C3.74519 26.6133 3.94667 26.637 4.14518 26.637C4.28741 26.637 4.42667 26.6222 4.56593 26.5896C4.66667 26.5659 4.76741 26.5363 4.86222 26.4978C4.97185 26.6963 5.11111 26.88 5.26815 27.043C5.81926 27.6089 6.6015 27.8963 7.59408 27.8963H8.3022L6.8415 28.5037L7.94964 29.0519C8.39706 29.2712 8.85336 29.4696 9.31854 29.6445L9.18516 30.0296L9.56742 30.2045C10.2015 30.4533 10.8741 30.5926 11.5556 30.6163H12.4652C13.1437 30.5926 13.8133 30.4504 14.4445 30.2015L14.8148 30.0296L14.6845 29.6445C15.1556 29.4637 15.6178 29.2593 16.0681 29.0311L17.1556 28.5037L15.6978 27.9111H16.4089C17.4015 27.9111 18.1867 27.6149 18.7348 27.0578C18.8948 26.8949 19.0311 26.7111 19.1407 26.5126C19.2356 26.5511 19.3363 26.5808 19.4371 26.6045C19.5763 26.637 19.7156 26.6518 19.8578 26.6518C20.0563 26.6518 20.2578 26.6252 20.4504 26.5778L21.3155 26.3496L20.9393 25.5556C20.797 25.1526 20.803 24.7112 20.9541 24.3111C21.0163 24.1304 21.0667 23.9467 21.1081 23.763C21.2741 23.7986 21.4459 23.8163 21.6148 23.8163C22.2696 23.8223 22.88 23.4845 23.2267 22.9274L23.6474 22.1926L22.8652 21.8726C22.3911 21.6356 22.0592 21.1823 21.9763 20.6578C22.7852 20.5511 23.4578 19.9823 23.6948 19.2L23.683 19.2237Z" fill="white"/>
<path d="M15.5617 22.3704H8.45058V25.037C8.45058 26.1333 9.24168 26.8148 10.412 26.8148C11.3899 26.8148 11.6476 26.8533 12.0091 27.2148C12.2372 26.9689 12.5602 26.8296 12.898 26.8355V26.794L13.1232 26.1007L12.7409 25.6829C12.5869 25.7304 12.4269 25.7481 12.2669 25.7392C12.0269 25.7362 11.7898 25.7125 11.5558 25.6651H11.4817C11.4491 25.6651 11.4491 25.6651 11.4402 25.6829L11.3958 25.757L11.3158 25.8903L11.1617 25.8548L10.4773 25.6948L10.3825 25.8489V25.8666L10.4654 25.9585L10.4299 26.077C10.3676 26.2222 10.2787 26.3526 10.1662 26.4652L9.99432 26.6488L9.83724 26.4533L9.72168 26.3081C9.59724 26.1451 9.5676 25.9318 9.63876 25.7392L9.44616 25.8192L9.36024 25.6296L9.31284 25.4962C9.19134 25.2148 9.2832 24.8889 9.52908 24.7111L10.0802 24.4148L10.6046 24.5185C10.6046 24.4681 10.6373 24.2874 10.6521 24.2429H10.6225L10.3261 24.3555L10.0298 24.154C9.97056 24.0948 9.96762 23.997 10.0298 23.9348L10.3113 23.5081L9.59724 22.6192L10.6669 23.04L10.741 22.9511L10.8891 22.7733L11.058 22.9333C11.1025 22.9777 11.132 23.0311 11.1469 23.0933C11.4432 23.2118 11.9913 23.5585 12.0358 24.1215L11.8669 24.1896C11.8876 24.2192 11.9143 24.2429 11.9469 24.2577L12.7291 24.3348L12.8002 24.3141C12.9335 24.2637 13.0758 24.237 13.218 24.234C13.3602 24.234 13.4995 24.2667 13.6269 24.3289C13.6832 24.3081 13.7454 24.2962 13.8047 24.2933H13.8432C14.261 24.2933 14.4713 24.6074 14.6372 24.8563L14.7232 24.9807C14.8684 25.1881 15.061 25.4904 15.0698 25.5022L15.1558 25.6355L15.0491 25.7599C14.9513 25.8903 14.7973 25.9644 14.6343 25.9644C14.5869 25.9674 14.5395 25.9674 14.492 25.9644C14.4506 25.9555 14.4091 25.9437 14.3676 25.9259C14.3676 25.9674 14.3676 26.0178 14.3439 26.0592L14.2225 26.7585C15.0284 26.5955 15.5972 25.8726 15.5647 25.0489L15.5617 22.3704ZM8.4417 22.1541H13.9795C13.7543 21.9171 13.6772 21.5763 13.778 21.2652C13.7039 21.2296 13.6328 21.1822 13.5706 21.1289C13.3543 21.2889 12.6817 21.7689 12.5217 21.8904L12.4861 21.9141L10.3113 21.5289H10.2669C10.1957 21.5319 10.1246 21.5319 10.0535 21.5289C10.0328 21.6267 9.94686 21.6948 9.84912 21.6948H9.81354C9.69798 21.6741 9.618 21.5644 9.63576 21.4489V21.4015C9.3543 21.2 9.22098 20.8504 9.29502 20.5126V20.4741L9.3276 20.4504C9.3276 20.4504 9.36912 20.4207 9.4254 20.3881L9.26838 20.3644C9.2091 20.3526 9.17058 20.2993 9.17946 20.24C9.18834 20.1807 9.24168 20.1422 9.30096 20.1511H9.3039L9.68022 20.2104L9.71574 18.8859L10.2758 18.2933L10.6254 19.0281L10.258 20.3022L10.5898 20.3556C10.6491 20.3674 10.6876 20.4207 10.6787 20.48C10.6699 20.5333 10.6254 20.5689 10.5721 20.5689H10.5543L10.2847 20.5245V20.5452C10.3143 20.5985 10.3588 20.64 10.415 20.6667L12.0713 20.6933L12.495 20.2756C12.1721 20.163 11.941 19.8785 11.9024 19.5378C11.695 19.4578 11.5261 19.3037 11.4313 19.1052C11.3513 18.9185 11.3365 18.7081 11.3928 18.5126C11.132 18.4089 10.895 18.2518 10.7024 18.0504H8.24316C8.36172 18.3408 8.42982 18.6489 8.4417 18.96V22.1541Z" fill="#FCE527"/>
<path d="M10.7139 23.5349C10.6784 23.5349 10.6458 23.5615 10.6428 23.5971V23.6C10.6398 23.6385 10.6695 23.6741 10.708 23.6771H10.7109C10.7524 23.6771 10.782 23.6445 10.782 23.606C10.782 23.5644 10.7524 23.5349 10.7139 23.5349Z" fill="#222220"/>
<path d="M10.7112 23.5319C10.7141 23.5319 10.7141 23.5348 10.7141 23.5348C10.7171 23.5348 10.7171 23.5319 10.72 23.5319H10.7112ZM15.5526 28.3911L15.1437 28.2341L15.2563 27.8104L15.3807 27.3481C14.8207 27.6356 14.2341 27.8666 13.6296 28.0385C13.3333 28.1215 13.12 28.16 13.12 28.16V28.4593C12.7555 28.5185 12.3882 28.5511 12.0178 28.5541H11.9852C11.6148 28.5511 11.2474 28.5185 10.8829 28.4593V28.163C10.8829 28.163 10.6666 28.1215 10.3704 28.0385C9.76592 27.8666 9.17924 27.6356 8.61926 27.3481L8.74076 27.8104L8.85626 28.2341L8.44442 28.3911L8 28.56C8.61038 28.877 9.2474 29.1407 9.90518 29.3482L9.74816 29.7748C10.4622 30.0474 11.2267 30.1807 11.9911 30.163H12.0089C12.7733 30.1807 13.5378 30.0474 14.2518 29.7748L14.0977 29.3482C14.7526 29.1407 15.3896 28.877 16 28.56L15.5526 28.3911ZM8.49482 28.5866L9.15848 28.3645L8.96 27.7126C9.39554 27.9289 9.8459 28.1096 10.3111 28.2518L9.98516 29.1407C9.47258 29.0044 8.97182 28.8178 8.49482 28.5866ZM12.0178 29.9526L12.003 29.9407C11.3511 29.9378 10.7022 29.8489 10.0741 29.677L10.474 28.5926C10.9719 28.717 11.4844 28.7852 12 28.7881H12.0326C12.5481 28.7822 13.0607 28.717 13.5585 28.5926L13.9585 29.677C13.3274 29.8548 12.6726 29.9467 12.0178 29.9526ZM14.0385 29.1585V29.1496L13.7126 28.2607C14.1778 28.1185 14.6281 27.9378 15.0637 27.7215L14.8652 28.3733L15.5377 28.5985C15.0577 28.8326 14.554 29.0222 14.0385 29.1585ZM12 11.4785C12.6696 11.4607 13.3274 11.6622 13.8726 12.0504C13.9585 11.6118 14.1215 11.1911 14.3556 10.8089L13.683 10.8859L13.3333 10.1363L12.6548 10.4859L12 9.83704L11.3452 10.4859L10.6666 10.1363L10.317 10.8859L9.64442 10.8089C9.87854 11.1911 10.0415 11.6118 10.1274 12.0504C10.6726 11.6622 11.3304 11.4607 12 11.4785ZM10.2874 11.1467L10.4741 11.1674L10.5541 10.9985L10.7881 10.4948L11.2237 10.72L11.3926 10.8059L11.5289 10.6815L12 10.2044L12.4711 10.6815L12.6074 10.8148L12.7763 10.7289L13.2089 10.5037L13.4459 11.0074L13.5259 11.1763L13.7126 11.1556L13.8904 11.1348C13.8193 11.2978 13.7571 11.4667 13.7067 11.6385C12.637 11.0904 11.3659 11.0904 10.2963 11.6385C10.2459 11.4667 10.1837 11.2978 10.1126 11.1348L10.2874 11.1467ZM20.7882 17.594L20.7082 17.4963C20.1571 16.7941 19.6326 16.1274 18.6964 15.8222C18.7349 15.7896 18.7734 15.76 18.8149 15.7333C19.2593 15.4814 19.5734 15.0489 19.6741 14.5481C19.7245 14.0948 19.5971 13.6415 19.3186 13.28L19.0223 12.9096L18.8356 13.3511C18.8356 13.3778 18.5067 14.0859 17.843 14.0859H17.6475C17.683 13.6207 17.5141 13.1615 17.1852 12.8296C16.7853 12.4207 16.2342 12.1926 15.6623 12.1955C15.5556 12.1955 15.4489 12.2044 15.3453 12.2192L14.8919 12.3081L15.1734 12.6785C15.3927 12.9748 15.5911 13.4874 15.3571 13.7629C15.2445 13.8607 15.1171 13.9378 14.9778 13.9911C14.6815 14.1304 14.2549 14.3289 14.2549 14.8267C14.2549 15.1496 14.5067 15.4874 14.9601 15.7748C16.2964 16.6222 17.123 17.4963 17.4816 18.48C18.0356 19.9792 17.3127 20.8326 16.6104 21.283L16.2964 21.4844L16.5719 21.7363C16.8178 21.9467 17.1201 22.077 17.443 22.1096H17.7126C17.9882 22.1096 18.2608 22.0711 18.5245 21.9911C18.4593 22.1066 18.3793 22.2163 18.2934 22.317C17.8934 22.7822 17.3008 23.037 16.6875 23.0044H16.4238L16.403 23.2681C16.4001 23.6385 16.563 23.9881 16.8445 24.2281C16.9186 24.2933 17.0016 24.3467 17.0904 24.3881C16.6519 24.8148 16.403 25.3985 16.3941 26.0119C16.3941 26.3467 16.3171 26.6785 16.1719 26.9807L15.8756 27.4252H16.403C17.2741 27.4252 17.9408 27.1852 18.403 26.7082C18.643 26.4563 18.8208 26.1511 18.9245 25.8193C19.0963 25.9644 19.2978 26.0652 19.5171 26.1155C19.6208 26.1392 19.7275 26.1511 19.8342 26.1511C19.9941 26.1511 20.1541 26.1304 20.3082 26.0948L20.646 26.0059L20.4978 25.6918C20.3112 25.1911 20.3112 24.637 20.4978 24.1363C20.6074 23.8103 20.6845 23.4726 20.726 23.1289C20.9926 23.2652 21.2889 23.3333 21.5882 23.3303C22.0801 23.3363 22.5393 23.0933 22.806 22.6814L22.9689 22.3852L22.6726 22.2607C21.6801 21.8489 21.4608 20.7407 21.4164 20.1422C21.5142 20.1629 21.6119 20.1748 21.7126 20.1778L21.7956 20.234C22.8741 20.234 23.2356 19.1348 23.2504 19.0874L23.3719 18.6992H22.966C22.1127 18.6696 21.3156 18.2666 20.7882 17.594ZM21.7986 19.9348H21.7571C21.5408 19.9378 21.3274 19.8785 21.1438 19.7659C21.1438 19.7659 20.9867 21.9082 22.5838 22.5718V22.5807C22.3734 22.9007 22.0119 23.0903 21.6297 23.0844C21.1971 23.1111 20.7793 22.9274 20.5067 22.5926C20.5156 23.0963 20.4327 23.6 20.2638 24.074C20.0475 24.6459 20.0475 25.28 20.2638 25.8518C20.1304 25.8844 19.9971 25.9022 19.8608 25.9022C19.7778 25.9022 19.6919 25.8933 19.6119 25.8726C19.2178 25.7777 18.9037 25.4874 18.7764 25.1051C18.7764 25.1051 18.8386 27.1615 16.4415 27.1615H16.4238C16.6045 26.8178 16.6993 26.4355 16.6963 26.0474C16.8001 24.5274 17.8312 24.3111 17.8312 24.3111C17.5467 24.2755 17.2771 24.1748 17.0401 24.0148C16.8238 23.834 16.6993 23.5674 16.6934 23.2859C17.3867 23.3155 18.0564 23.0281 18.5097 22.5007C18.7823 22.1896 18.963 21.8104 19.0401 21.4044C18.6579 21.6919 18.1867 21.837 17.7097 21.8163H17.4667C17.2089 21.7896 16.963 21.6889 16.7645 21.52C17.6771 20.9274 18.3171 19.9141 17.7511 18.3763C17.2949 17.1437 16.2015 16.2222 15.1023 15.5289C14.7378 15.3037 14.5186 15.0489 14.5186 14.8296C14.5186 14.3141 15.2504 14.2993 15.5527 13.9407C15.8993 13.5378 15.683 12.8859 15.3808 12.4948C15.4667 12.48 15.5556 12.4741 15.6415 12.4741C16.1364 12.4681 16.6134 12.6666 16.9571 13.0222C17.3067 13.3541 17.44 13.8548 17.3067 14.317L17.4667 14.3496C17.5645 14.3674 17.6623 14.3763 17.763 14.3792H17.8282C18.6964 14.3792 19.0875 13.4696 19.0875 13.4696C19.0875 13.4696 20.0119 14.6074 18.6519 15.4963C18.4179 15.6474 18.3141 15.7926 18.3556 15.9407L18.3763 16.0385L18.4741 16.0563C19.4608 16.3229 19.9556 17.0044 20.5689 17.7778C21.1497 18.5155 22.0267 18.96 22.966 18.9926H22.9837C22.9837 18.9926 22.6875 19.9348 21.7986 19.9348Z" fill="#222220"/>
<path d="M19.896 15.9556C20.2279 16.1452 20.5153 16.403 20.7405 16.7111C20.9093 16.9719 21.1493 17.1793 21.4338 17.3037C21.5405 17.3393 21.656 17.3571 21.7686 17.3571C22.222 17.3571 22.6367 17.0993 22.8442 16.6963L23.016 16.3112L22.5982 16.2875C22.1479 16.2045 21.742 15.9734 21.4427 15.6267C21.2205 15.3867 20.9093 15.2474 20.5805 15.2445C20.3257 15.2474 20.0797 15.3245 19.8664 15.4608L19.4812 15.7304L19.896 15.9556ZM20.5894 15.5319L20.5805 15.5348C20.8323 15.5348 21.0694 15.6445 21.2383 15.8312C21.5849 16.2282 22.059 16.4919 22.5805 16.5778C22.4205 16.8771 22.1093 17.0637 21.7686 17.0667C21.6857 17.0667 21.6027 17.0519 21.5227 17.0252C21.0427 16.8623 20.8738 16.1363 20.0412 15.6978C20.2042 15.5912 20.3938 15.5348 20.5894 15.5319ZM20.0916 19.7748L20.0857 19.7689C19.8427 17.8133 18.4235 16.4 16.8442 15.5437C16.699 15.4637 16.5628 15.3986 16.4324 15.3363C17.0842 15.4697 17.7628 15.3096 18.2872 14.9007C18.2872 14.9007 17.3716 15.5733 15.499 14.963C16.0175 15.3008 17.0249 15.7748 17.9464 16.5452C20.2457 18.566 18.6013 20.5393 18.6013 20.5393C19.2887 19.8874 19.5287 18.8919 19.2205 17.997C19.7065 18.806 19.9405 19.7423 19.8901 20.6844C19.825 22.2371 18.9628 23.5941 18.0739 24.6756C17.8072 25.0163 17.6235 25.4163 17.5465 25.843C17.6975 25.4193 17.9257 25.0281 18.222 24.6904C19.1849 23.5615 19.9998 22.3911 20.1153 20.7052C20.2161 21.0015 20.6249 21.8637 21.2768 22.1867C21.2768 22.1867 20.459 21.6948 20.0916 19.7748ZM7.82497 27.0015C7.68277 26.6993 7.60573 26.3675 7.60273 26.0327C7.59385 25.4193 7.34203 24.8356 6.90349 24.4089C6.99235 24.3675 7.07533 24.3141 7.14943 24.249C7.43089 24.009 7.59385 23.6593 7.59091 23.289L7.57309 23.0252H7.30645C6.69607 23.0549 6.10351 22.803 5.70349 22.3379C5.61756 22.2371 5.54052 22.1275 5.47237 22.0119C5.73608 22.0919 6.00865 22.1304 6.28423 22.1304H6.55387C6.87685 22.0979 7.18201 21.9675 7.42795 21.7571L7.70347 21.5052L7.38943 21.3038C6.68425 20.8534 5.96422 20.0001 6.51829 18.5008C6.87685 17.526 7.70347 16.646 9.05161 15.7986C9.50497 15.5023 9.75385 15.1734 9.75385 14.8505C9.75385 14.3526 9.33607 14.1542 9.03091 14.0149C8.89165 13.9615 8.76421 13.8845 8.65165 13.7867C8.41459 13.5112 8.61313 12.9867 8.83531 12.7023L9.13165 12.3319L8.67535 12.243C8.57161 12.2252 8.46499 12.2193 8.35831 12.2193C7.78051 12.2015 7.22347 12.4238 6.81457 12.8297C6.47977 13.1586 6.30499 13.6208 6.33757 14.0889H6.15979C5.49311 14.0889 5.17904 13.3838 5.16719 13.3541L4.98052 12.9126L4.68422 13.283C4.40867 13.6445 4.28126 14.0978 4.33163 14.5512C4.43237 15.0519 4.74349 15.4845 5.18793 15.7364C5.22941 15.763 5.27089 15.7926 5.30645 15.8252C4.37015 16.1216 3.84571 16.7971 3.29459 17.4993L3.2146 17.6001C2.68719 18.2727 1.88719 18.6756 1.03385 18.7052H0.62793L0.75237 19.0934C0.75237 19.1408 1.12571 20.2401 2.20718 20.2401H2.26052C2.36126 20.2371 2.45904 20.2253 2.55682 20.2045C2.51237 20.7971 2.29311 21.9112 1.29756 22.323L1.00126 22.4475L1.16422 22.7438C1.43089 23.1556 1.89015 23.3986 2.382 23.3927C2.68126 23.3956 2.9746 23.3274 3.24126 23.1912C3.28274 23.5349 3.35978 23.8727 3.46941 24.1986C3.65608 24.6993 3.65608 25.2534 3.46941 25.7541L3.32126 26.0682L3.65904 26.1571C3.81311 26.1927 3.97311 26.2134 4.13311 26.2134C4.23978 26.2134 4.34645 26.2016 4.45015 26.1779C4.66941 26.1275 4.87089 26.0267 5.04274 25.8815C5.14645 26.2134 5.32423 26.5186 5.56423 26.7704C6.02941 27.2475 6.69607 27.4845 7.56421 27.4875H8.09161L7.82497 27.0015ZM7.57015 27.1674C5.17311 27.1674 5.23237 25.1112 5.23237 25.1112C5.10496 25.4934 4.79089 25.7838 4.39682 25.8786C4.31681 25.8993 4.23089 25.9082 4.14793 25.9082C4.01163 25.9082 3.8783 25.8905 3.74793 25.8578C3.96422 25.286 3.96422 24.6519 3.74793 24.0801C3.57904 23.606 3.49904 23.1023 3.50793 22.5986C3.23534 22.9334 2.81756 23.1171 2.38496 23.0904H2.37015C1.98496 23.0964 1.62349 22.9038 1.41311 22.5837C3.01015 21.9201 2.85311 19.7778 2.85311 19.7778C2.66941 19.8905 2.45608 19.9497 2.23978 19.9467H2.20718C1.3183 19.9467 1.022 19.0045 1.022 19.0045H1.03978C1.97904 18.9749 2.85904 18.5304 3.43978 17.7927C4.05015 17.0193 4.54793 16.3379 5.53459 16.0712L5.63237 16.0534L5.65311 15.9556C5.67978 15.8045 5.57608 15.6593 5.35682 15.5112C3.99682 14.6223 4.92126 13.4845 4.92126 13.4845C4.92126 13.4845 5.30645 14.3942 6.18055 14.3942H6.22201C6.32275 14.3912 6.42055 14.3823 6.51829 14.3645L6.67831 14.3319C6.54199 13.8697 6.67831 13.3689 7.02793 13.0371C7.37161 12.6815 7.84867 12.483 8.34349 12.4889C8.42941 12.4889 8.51833 12.4949 8.60425 12.5097C8.30791 12.9038 8.08867 13.5556 8.43535 13.9556C8.73163 14.3023 9.46645 14.3171 9.46645 14.8445C9.46645 15.0638 9.26203 15.3186 8.89759 15.5467C7.79533 16.2401 6.70201 17.1615 6.24865 18.3941C5.68274 19.9319 6.32275 20.9541 7.23535 21.5378C7.03681 21.7038 6.79087 21.8075 6.53311 21.8342H6.28717C5.81015 21.8549 5.33904 21.7097 4.95682 21.4223C5.03386 21.8282 5.21459 22.2075 5.48422 22.5186C5.93756 23.043 6.61015 23.3334 7.30351 23.3037C7.29757 23.5853 7.17313 23.8519 6.95683 24.0327C6.71977 24.1926 6.45013 24.2934 6.16573 24.329C6.16573 24.329 7.19977 24.5393 7.31239 26.0652C7.30939 26.4534 7.40425 26.8356 7.58497 27.1793L7.57015 27.1674Z" fill="#222220"/>
<path d="M2.2283 17.3541H2.23126C2.34385 17.3541 2.45941 17.3363 2.56608 17.3008C2.85052 17.1763 3.09052 16.9689 3.25941 16.7082C3.48163 16.4 3.76904 16.1422 4.10089 15.9526L4.5157 15.7304L4.13052 15.4608C3.91719 15.3244 3.67126 15.2474 3.41941 15.2445C3.09052 15.2474 2.77941 15.3867 2.55718 15.6297C2.26089 15.9733 1.852 16.2074 1.4046 16.2904L0.986816 16.3111L1.1557 16.6963C1.36311 17.0993 1.77496 17.3511 2.2283 17.3541ZM2.76163 15.8311C2.92756 15.6445 3.16459 15.5348 3.41644 15.5348C3.60904 15.5378 3.79867 15.5971 3.96163 15.7008C3.12311 16.1482 2.9483 16.8652 2.48015 17.0281C2.40311 17.0548 2.32015 17.0697 2.23719 17.0697C1.89348 17.0697 1.57941 16.88 1.41941 16.5778C1.94089 16.4919 2.41497 16.2282 2.76163 15.8311ZM4.11573 20.6963C4.06536 19.7541 4.29647 18.8178 4.78536 18.0089C4.47721 18.9037 4.71721 19.8993 5.40462 20.5511C5.40462 20.5511 3.75721 18.5778 6.05943 16.557C6.98091 15.7867 7.98537 15.3126 8.50389 14.9748C6.63129 15.5852 5.71573 14.9126 5.71573 14.9126C6.24015 15.3215 6.91575 15.4815 7.56759 15.3481C7.43721 15.4104 7.30089 15.4785 7.15575 15.5556C5.57647 16.4148 4.14832 17.8282 3.91425 19.7837V19.7689C3.54684 21.6889 2.72907 22.1808 2.72907 22.1808C3.37795 21.8607 3.78981 20.9956 3.88758 20.6992C3.99721 22.3882 4.82092 23.5585 5.78388 24.6844C6.07719 25.0222 6.30831 25.4133 6.45945 25.837C6.37941 25.4133 6.19575 25.0134 5.9261 24.6756C5.03721 23.5941 4.17795 22.237 4.11573 20.6963ZM11.4579 17.1289C11.5616 17.0281 11.7068 16.9807 11.852 16.9985V17.5585C11.8491 17.6977 11.8135 17.8311 11.7453 17.9526H12.3053C12.2372 17.8311 12.2016 17.6977 12.1987 17.5585V16.9985C12.3409 16.9807 12.4861 17.0281 12.5898 17.1289V16.7407H11.4579V17.1289ZM11.2239 14.4415H11.2179C11.3039 14.5156 11.4046 14.5748 11.5143 14.6104L11.5854 14.643V14.2756L10.9276 14C10.9602 14.1837 11.0669 14.3437 11.2239 14.4415ZM12.7854 14.4385L12.7824 14.4415C12.9395 14.3437 13.0461 14.1837 13.0787 14L12.4209 14.2756V14.64L12.489 14.6074C12.5987 14.5719 12.6995 14.5126 12.7854 14.4385Z" fill="#222220"/>
<path d="M13.9645 12.9541C13.9645 12.4 13.0311 11.9022 12.003 11.9022C10.9748 11.9022 10.0415 12.4 10.0415 12.9541L10.0622 13.0904L10.4741 15.4607L10.0622 15.7007L8.98671 16.3111C8.98671 16.3111 8.74671 16.4355 8.63409 16.5096C8.22819 16.8059 8.14221 17.2029 8.37633 17.3748C8.43555 16.9718 8.78817 16.6755 9.19707 16.6874C9.53781 16.6963 9.85485 16.8681 10.0475 17.1496C10.1067 17.2208 10.16 17.2978 10.2074 17.3748C10.2696 17.4756 10.3319 17.5644 10.3941 17.6504H7.65039C7.88151 18.0474 8.01483 18.4948 8.04447 18.954V25.0489C8.04447 26.5304 9.17925 27.2267 10.4148 27.2267C11.363 27.2267 11.4904 27.1822 12.0119 27.7037C12.5334 27.1822 12.6608 27.2267 13.6089 27.2267C14.8356 27.2267 15.9793 26.5244 15.9793 25.0489V18.96C16.0089 18.5007 16.1423 18.0533 16.3734 17.6563H13.6C13.6622 17.5704 13.7245 17.4815 13.7867 17.3807C13.8371 17.3037 13.8904 17.2266 13.9467 17.1555C14.1422 16.8741 14.4593 16.7022 14.8 16.6933C15.2089 16.6815 15.5615 16.9778 15.6207 17.3807C15.8578 17.2118 15.7719 16.7882 15.363 16.5156C15.2534 16.4385 15.0134 16.317 15.0134 16.317L13.9467 15.6889L13.5348 15.4489L13.9467 13.0785L13.9645 12.9541ZM10.4385 13.2267L11.8845 13.7156V15.9852L10.8207 15.4222L10.4385 13.2267ZM8.24295 18.0504H10.7348C10.9274 18.2519 11.1645 18.4118 11.4252 18.5126C11.3689 18.7082 11.3837 18.9185 11.4638 19.1052C11.5586 19.3037 11.7275 19.4578 11.9348 19.5378C11.9733 19.8785 12.2045 20.163 12.5274 20.2755C12.3497 20.4563 12.1748 20.6252 12.1037 20.6933L10.4474 20.6667C10.3911 20.64 10.3467 20.5985 10.317 20.5452V20.5244L10.5867 20.5689H10.6045C10.6578 20.5689 10.7022 20.5333 10.7111 20.48C10.72 20.4207 10.6815 20.3674 10.6223 20.3556L10.2904 20.3022L10.6578 19.0281L10.3082 18.2933L9.74817 18.8859L9.71259 20.2104L9.33633 20.1511C9.27705 20.1393 9.22371 20.1778 9.21189 20.237V20.24C9.20295 20.2992 9.24147 20.3526 9.30075 20.3645L9.45777 20.3882C9.40149 20.4207 9.36297 20.4444 9.36003 20.4504L9.32745 20.4741V20.5126C9.25335 20.8503 9.38967 21.2 9.66819 21.4015V21.4489C9.65037 21.5645 9.73041 21.6741 9.84597 21.6948H9.88149C9.97929 21.6948 10.0652 21.6267 10.086 21.5289C10.1571 21.5318 10.2252 21.5318 10.2963 21.5289H10.3407L12.5126 21.923L12.5482 21.8993C12.72 21.7778 13.3808 21.3066 13.5971 21.1378C13.6593 21.1911 13.7304 21.2385 13.8045 21.2741C13.7037 21.5852 13.7808 21.9259 14.006 22.163H8.44149V18.96C8.42967 18.6489 8.36151 18.3407 8.24295 18.0504ZM13.4104 20.9807C13.1852 21.1467 12.6311 21.5496 12.4296 21.6918L10.4593 21.3482V21.2948C10.4919 21.1615 10.5096 21.0252 10.5126 20.8889L12.1719 20.9156L12.2045 20.883C12.2312 20.8563 12.7556 20.3496 13.0223 20.0563C13.0934 20.1452 13.1763 20.2193 13.2711 20.2785C13.2237 20.5215 13.2741 20.7733 13.4104 20.9807ZM10.1186 20.6252V20.634C10.163 20.717 10.2282 20.7881 10.3082 20.8356C10.3052 20.957 10.2933 21.0756 10.2726 21.1941C10.2726 21.2207 10.2726 21.2474 10.2519 21.2741V21.3156C10.1156 21.3156 9.98223 21.2948 9.85185 21.2533C9.61485 21.1259 9.48147 20.8652 9.51999 20.5985C9.62667 20.5244 9.74817 20.477 9.87555 20.4593C9.98523 20.4563 10.083 20.5215 10.1186 20.6252ZM9.91407 20.2311L9.94671 18.9778L10.243 18.6815L10.4237 19.0578L10.0712 20.2785L9.91407 20.2311ZM13.3956 26.8326H13.1111L13.3334 26.1066C13.3689 26.0059 13.1852 25.8755 13.1082 25.76C13.2889 25.8696 13.4756 25.9674 13.6682 26.0563C13.6682 26.08 13.3956 26.8326 13.3956 26.8326ZM14.157 26.0207L14.1333 26L13.9793 26.8C13.8815 26.8 13.7778 26.8208 13.683 26.8266L13.8459 26.0563C13.8933 25.8281 13.28 25.76 12.9778 25.3067C12.7793 25.4726 12.5245 25.5496 12.2697 25.523C12.0445 25.52 11.8223 25.4963 11.603 25.4519C11.5645 25.4489 11.526 25.4489 11.4875 25.4519C11.3956 25.4459 11.3067 25.4933 11.2593 25.5733L11.2148 25.6474L10.3704 25.443L10.1689 25.7926C10.1363 25.84 10.1423 25.9052 10.1837 25.9467L10.24 26.0089C10.1837 26.1185 10.1126 26.2193 10.0267 26.3052L9.90225 26.1511C9.80745 25.997 9.81633 25.7985 9.92301 25.6533L10.2548 25.0933L10.963 25.2L10.8534 24.9482C10.7052 24.6163 10.9304 24.1926 10.9541 23.9496C10.9541 24.0237 10.8771 24.0385 10.8 24.0385H10.5956C10.5807 24.0356 10.563 24.0356 10.5482 24.0385L10.3556 24.1541L10.2045 24.0148C10.1808 23.9703 10.1897 23.9171 10.2252 23.8844L10.5749 23.4903L10.16 23.0074L10.7526 23.3037L10.9304 23.0904C10.9778 23.1378 10.9571 23.2622 10.9571 23.2622C11.3867 23.3689 11.6859 23.76 11.6741 24.2045V24.2904C11.7333 24.3852 11.8282 24.4503 11.9348 24.477L12.7378 24.557C12.8978 24.5067 13.0608 24.474 13.2267 24.4533C13.3689 24.4533 13.5111 24.4978 13.6296 24.5748C13.686 24.5363 13.7541 24.5126 13.8222 24.5096H13.8489C14.2074 24.5096 14.3585 24.8355 14.5511 25.1022C14.6963 25.3067 14.8919 25.6148 14.8919 25.6148C14.8356 25.6978 14.7437 25.7481 14.643 25.7481C14.6075 25.7511 14.5748 25.7511 14.5393 25.7481C14.1541 25.677 14.0978 24.8829 13.8785 24.8207H13.843C13.8015 24.8207 13.763 24.8444 13.7423 24.8829C13.843 25.1526 13.7837 25.2622 13.8933 25.4756C13.9734 25.6029 14.0741 25.7185 14.1897 25.8163C14.1897 25.8163 14.1749 25.9348 14.157 26.0207ZM9.84003 25.2444H9.83409L9.86967 25.3363C9.84597 25.4163 9.57333 25.5318 9.57333 25.5318L9.51411 25.4015C9.43707 25.2148 9.49335 25.0015 9.65631 24.88L10.1037 24.6074L10.5807 24.7082C10.5778 24.803 10.6074 24.8948 10.6637 24.9719L10.163 24.8771L9.86667 25.0844C9.81927 25.1259 9.81039 25.1911 9.84003 25.2444ZM15.5704 25.0518C15.603 25.8756 15.0311 26.5985 14.2223 26.7585L14.3585 26.0415C14.3585 26 14.3733 25.9496 14.3793 25.9082C14.4207 25.9259 14.4623 25.9378 14.5037 25.9467C14.5511 25.9496 14.5985 25.9496 14.646 25.9467C14.8089 25.9467 14.963 25.8726 15.0608 25.7422L15.1674 25.6178L15.0785 25.4963C15.0785 25.4963 14.88 25.1822 14.7319 24.9748L14.6489 24.8504C14.483 24.6015 14.2726 24.2874 13.8548 24.2874H13.8163C13.7571 24.2904 13.6949 24.3022 13.6385 24.323C13.5111 24.2607 13.3719 24.2282 13.2297 24.2282C13.0874 24.2311 12.9452 24.2578 12.8119 24.3081L12.7407 24.3289L11.9585 24.2519C11.9259 24.237 11.8993 24.2133 11.8785 24.1837L12.0474 24.1155C12 23.5496 11.4548 23.2029 11.1585 23.0874C11.1437 23.0252 11.1141 22.9718 11.0697 22.9274L10.9008 22.7674L10.7526 22.9452L10.6785 23.034L9.58221 22.5837L10.2963 23.4726L10.0148 23.8992C9.95559 23.9585 9.95259 24.0563 10.0148 24.1185L10.3112 24.32L10.6074 24.2074H10.6371C10.6371 24.2519 10.6045 24.4326 10.5897 24.483L10.0741 24.3941L9.52299 24.6903C9.26817 24.8741 9.17925 25.2119 9.31263 25.4963L9.37485 25.6296L9.46077 25.8192L9.65337 25.7393C9.58221 25.9319 9.61185 26.1452 9.73629 26.3081L9.85185 26.4563L10.0059 26.6519L10.1778 26.4681C10.2904 26.3556 10.3793 26.2252 10.4415 26.08L10.4771 25.9615L10.3941 25.8696V25.8518L10.4889 25.6978L11.1734 25.8578L11.3274 25.8933L11.4104 25.757L11.4548 25.683C11.4548 25.6682 11.4548 25.6652 11.4963 25.6652H11.5704C11.8045 25.7126 12.0415 25.7363 12.2786 25.7393C12.4385 25.7481 12.5985 25.7304 12.7526 25.683L13.1319 26.1156L12.9067 26.8089V26.8503C12.5689 26.8445 12.246 26.9837 12.0178 27.2296C11.6534 26.8682 11.3956 26.8296 10.4208 26.8296C9.25041 26.8296 8.45925 26.1452 8.45925 25.0518V22.3852H15.5704V25.0518ZM15.763 18.0504C15.6415 18.3378 15.5763 18.6459 15.5645 18.96V20.957C15.3067 20.9007 15.1141 20.6815 15.0963 20.4178V20.3259H15.0074C14.8533 20.3141 14.7111 20.243 14.6045 20.1333C14.4741 19.9822 14.403 19.7926 14.4 19.5941C14.2726 19.8015 14.2845 20.0681 14.4326 20.2637C14.5482 20.4089 14.7171 20.5067 14.9007 20.5304C14.9541 20.874 15.2297 21.1407 15.5733 21.1852V22.163H14.3289C14.003 21.9971 13.8667 21.6089 14.0119 21.2741L14.0593 21.1674L13.9497 21.1259C13.5941 21.0015 13.3985 20.6193 13.5111 20.2578L13.5348 20.1689L13.4519 20.1303C13.1408 19.9496 12.9689 19.5971 13.0193 19.2415C12.8563 19.4074 12.8148 19.6593 12.9185 19.8666C12.8593 19.9348 12.7823 20.0148 12.6963 20.1037C12.3852 20.0385 12.16 19.7689 12.1482 19.4519V19.3778L12.08 19.3511C11.8993 19.2978 11.7512 19.1733 11.6652 19.0074C11.6089 18.8711 11.5971 18.717 11.6356 18.5748C11.6948 18.5867 11.7541 18.5955 11.8134 18.6015C11.8726 18.6044 11.9348 18.6044 11.9941 18.6015C12.4741 18.6015 12.9304 18.3941 13.2504 18.0385L15.763 18.0504ZM13.843 16.0296L14.3289 16.3259L14.4504 16.397C14.1986 16.4652 13.9704 16.6015 13.7897 16.7911L13.7689 16.8089C13.7274 16.8533 13.6889 16.8978 13.6504 16.9452L13.6267 16.9748C13.5882 17.0222 13.5526 17.0726 13.52 17.1259L13.5023 17.1526C13.4607 17.2118 13.4222 17.277 13.3838 17.3422C13.1141 17.8785 12.5897 18.237 11.9941 18.2963C11.3985 18.237 10.8741 17.8785 10.6045 17.3422C10.566 17.277 10.5275 17.2148 10.4889 17.1526L10.4652 17.12L10.3704 16.9659L10.3437 16.9333C10.3052 16.8859 10.2667 16.8415 10.2282 16.8L10.2074 16.7793C10.0267 16.5896 9.79851 16.4533 9.54669 16.3852L9.67113 16.314L10.16 16.0178L10.6608 15.7215L11.997 16.4474L13.3334 15.7452L13.843 16.0296ZM13.1852 15.437L12.1215 15.9971V13.7185L13.5645 13.2296L13.1852 15.437ZM12 13.4785L10.4178 12.8444C10.5512 12.5244 11.1734 12.2519 12 12.2519C12.8267 12.2519 13.4489 12.5244 13.5822 12.8444L12 13.4785Z" fill="#222220"/>
<path d="M41.168 26H39.728V15.84H36.16V14.576H44.72V15.84H41.168V26ZM46.7818 22.656C46.7818 22.752 46.7764 22.8907 46.7658 23.072C46.7658 23.2427 46.7604 23.4293 46.7498 23.632C46.7391 23.824 46.7284 24.0107 46.7178 24.192C46.7071 24.3627 46.6964 24.5013 46.6858 24.608L51.2778 17.424H53.0058V26H51.6938V20.944C51.6938 20.7733 51.6938 20.5493 51.6938 20.272C51.7044 19.9947 51.7151 19.7227 51.7258 19.456C51.7364 19.1787 51.7471 18.9707 51.7578 18.832L47.1978 26H45.4538V17.424H46.7818V22.656ZM57.143 17.424V20.992H61.799V17.424H63.207V26H61.799V22.176H57.143V26H55.735V17.424H57.143ZM69.8745 20.944C70.6212 20.944 71.2398 21.0347 71.7305 21.216C72.2212 21.3973 72.5892 21.6693 72.8345 22.032C73.0905 22.384 73.2185 22.832 73.2185 23.376C73.2185 23.9093 73.0958 24.3733 72.8505 24.768C72.6158 25.1627 72.2478 25.4667 71.7465 25.68C71.2452 25.8933 70.5998 26 69.8105 26H65.9225V17.424H67.3305V20.944H69.8745ZM71.8105 23.456C71.8105 22.9333 71.6238 22.5813 71.2505 22.4C70.8878 22.208 70.3758 22.112 69.7145 22.112H67.3305V24.864H69.7465C70.3438 24.864 70.8345 24.7573 71.2185 24.544C71.6132 24.3307 71.8105 23.968 71.8105 23.456ZM80.4945 17.424H82.0305L78.3665 21.552L82.3345 26H80.7025L76.8305 21.648V26H75.4225V17.424H76.8305V21.584L80.4945 17.424ZM91.0347 21.696C91.0347 22.4107 90.9388 23.0453 90.7468 23.6C90.5654 24.144 90.2988 24.608 89.9468 24.992C89.6054 25.376 89.1841 25.6693 88.6828 25.872C88.1921 26.064 87.6428 26.16 87.0348 26.16C86.4694 26.16 85.9468 26.064 85.4668 25.872C84.9868 25.6693 84.5708 25.376 84.2188 24.992C83.8668 24.608 83.5894 24.144 83.3868 23.6C83.1948 23.0453 83.0988 22.4107 83.0988 21.696C83.0988 20.7467 83.2588 19.9467 83.5788 19.296C83.8988 18.6347 84.3574 18.1333 84.9548 17.792C85.5521 17.44 86.2614 17.264 87.0828 17.264C87.8614 17.264 88.5441 17.44 89.1308 17.792C89.7281 18.1333 90.1921 18.6347 90.5228 19.296C90.8641 19.9467 91.0347 20.7467 91.0347 21.696ZM84.5548 21.696C84.5548 22.368 84.6401 22.9547 84.8108 23.456C84.9921 23.9467 85.2694 24.3253 85.6428 24.592C86.0161 24.8587 86.4908 24.992 87.0668 24.992C87.6428 24.992 88.1174 24.8587 88.4908 24.592C88.8641 24.3253 89.1361 23.9467 89.3068 23.456C89.4881 22.9547 89.5788 22.368 89.5788 21.696C89.5788 21.0133 89.4881 20.432 89.3068 19.952C89.1254 19.472 88.8481 19.104 88.4748 18.848C88.1121 18.5813 87.6374 18.448 87.0508 18.448C86.1761 18.448 85.5414 18.736 85.1468 19.312C84.7521 19.888 84.5548 20.6827 84.5548 21.696ZM98.3863 17.296C99.2396 17.3707 99.9809 17.5947 100.61 17.968C101.25 18.3413 101.746 18.8427 102.098 19.472C102.45 20.1013 102.626 20.848 102.626 21.712C102.626 22.576 102.456 23.328 102.114 23.968C101.773 24.5973 101.288 25.0987 100.658 25.472C100.029 25.8347 99.2716 26.0533 98.3863 26.128V29.84H97.0103V26.128C96.1676 26.0533 95.4263 25.8347 94.7863 25.472C94.1463 25.0987 93.6503 24.5973 93.2983 23.968C92.9463 23.328 92.7703 22.576 92.7703 21.712C92.7703 20.8373 92.9409 20.0853 93.2823 19.456C93.6236 18.816 94.1143 18.3147 94.7543 17.952C95.3943 17.5787 96.1623 17.36 97.0583 17.296V13.84H98.3863V17.296ZM97.0583 18.464C96.4076 18.528 95.8743 18.6933 95.4583 18.96C95.0423 19.2267 94.7329 19.5893 94.5303 20.048C94.3383 20.5067 94.2423 21.0613 94.2423 21.712C94.2423 22.352 94.3383 22.9067 94.5303 23.376C94.7329 23.8347 95.0423 24.2027 95.4583 24.48C95.8743 24.7467 96.4076 24.912 97.0583 24.976V18.464ZM98.3863 24.976C99.0263 24.9013 99.5489 24.7307 99.9543 24.464C100.37 24.1973 100.674 23.8347 100.866 23.376C101.069 22.9067 101.17 22.352 101.17 21.712C101.17 21.072 101.069 20.5227 100.866 20.064C100.664 19.6053 100.354 19.2427 99.9383 18.976C99.5329 18.7093 99.0156 18.544 98.3863 18.48V24.976ZM109.98 17.296C110.833 17.3707 111.575 17.5947 112.204 17.968C112.844 18.3413 113.34 18.8427 113.692 19.472C114.044 20.1013 114.22 20.848 114.22 21.712C114.22 22.576 114.049 23.328 113.708 23.968C113.367 24.5973 112.881 25.0987 112.252 25.472C111.623 25.8347 110.865 26.0533 109.98 26.128V29.84H108.604V26.128C107.761 26.0533 107.02 25.8347 106.38 25.472C105.74 25.0987 105.244 24.5973 104.892 23.968C104.54 23.328 104.364 22.576 104.364 21.712C104.364 20.8373 104.535 20.0853 104.876 19.456C105.217 18.816 105.708 18.3147 106.348 17.952C106.988 17.5787 107.756 17.36 108.652 17.296V13.84H109.98V17.296ZM108.652 18.464C108.001 18.528 107.468 18.6933 107.052 18.96C106.636 19.2267 106.327 19.5893 106.124 20.048C105.932 20.5067 105.836 21.0613 105.836 21.712C105.836 22.352 105.932 22.9067 106.124 23.376C106.327 23.8347 106.636 24.2027 107.052 24.48C107.468 24.7467 108.001 24.912 108.652 24.976V18.464ZM109.98 24.976C110.62 24.9013 111.143 24.7307 111.548 24.464C111.964 24.1973 112.268 23.8347 112.46 23.376C112.663 22.9067 112.764 22.352 112.764 21.712C112.764 21.072 112.663 20.5227 112.46 20.064C112.257 19.6053 111.948 19.2427 111.532 18.976C111.127 18.7093 110.609 18.544 109.98 18.48V24.976Z" fill="#1E1D24"/>
<path d="M417.417 15.4166H415.255L414.37 13.9583C414.161 13.5937 413.745 13.3333 413.302 13.3333H410.672C410.229 13.3333 409.812 13.5937 409.604 13.9583L408.719 15.4166H406.583C406.349 15.4166 406.167 15.625 406.167 15.8333V16.25C406.167 16.4844 406.349 16.6666 406.583 16.6666H407L407.547 25.4948C407.573 26.1719 408.12 26.6666 408.797 26.6666H415.177C415.854 26.6666 416.401 26.1719 416.427 25.4948L417 16.6666H417.417C417.625 16.6666 417.833 16.4844 417.833 16.25V15.8333C417.833 15.625 417.625 15.4166 417.417 15.4166ZM410.672 14.5833H413.302L413.797 15.4166H410.177L410.672 14.5833ZM415.177 25.4166H408.797L408.25 16.6666H415.724L415.177 25.4166Z" fill="#1E1D24"/>
<path d="M21.2109 60.6621C21.7733 61.3991 22.2495 62.1998 22.6298 63.0481L11.8437 71.1061L7.33594 68.2424V64.7971L11.8437 67.6609L21.2109 60.6621Z" fill="#21A038"/>
<path d="M2.73556 67.9997C2.73556 67.8451 2.73928 67.6915 2.74672 67.5388L0.0148781 67.4031C0.00557979 67.601 3.3013e-06 67.8008 3.3013e-06 68.0025C-0.00115902 69.5779 0.304613 71.1381 0.899786 72.5934C1.49495 74.0489 2.36781 75.3708 3.46827 76.4835L5.40603 74.5207C4.55894 73.6656 3.88693 72.6493 3.42864 71.5302C2.97035 70.4112 2.73481 69.2113 2.73556 67.9997Z" fill="url(#paint0_linear_866_3829)"/>
<path d="M11.8414 58.7722C11.9939 58.7722 12.1454 58.7779 12.296 58.7854L12.4327 56.0159C12.2369 56.0064 12.0397 56.0017 11.8414 56.0017C10.2861 55.9998 8.74586 56.3092 7.30896 56.9123C5.87205 57.5153 4.56684 58.4001 3.46826 59.5157L5.40603 61.4796C6.24974 60.6208 7.25264 59.9395 8.35705 59.4749C9.46147 59.0102 10.6456 58.7714 11.8414 58.7722Z" fill="url(#paint1_linear_866_3829)"/>
<path d="M11.8413 77.2279C11.6888 77.2279 11.5372 77.2279 11.3857 77.2157L11.249 79.9843C11.4455 79.9943 11.643 79.9994 11.8413 79.9994C13.3959 80.001 14.9355 79.6914 16.3716 79.0882C17.8077 78.485 19.1121 77.6001 20.2098 76.4844L18.2758 74.5215C17.4319 75.3799 16.4291 76.0608 15.3249 76.5252C14.2207 76.9897 13.0368 77.2285 11.8413 77.2279Z" fill="url(#paint2_linear_866_3829)"/>
<path d="M16.9743 60.3819L19.2766 58.6621C17.1723 56.9353 14.5456 55.9952 11.8379 56V58.7714C13.6714 58.7691 15.4624 59.3307 16.9743 60.3819Z" fill="url(#paint3_linear_866_3829)"/>
<path d="M23.682 68.0001C23.6835 67.2791 23.6213 66.5594 23.496 65.8497L20.9474 67.7532C20.9474 67.8352 20.9474 67.9172 20.9474 68.0001C20.9481 69.2895 20.6814 70.5646 20.1647 71.7429C19.6479 72.9211 18.8926 73.9761 17.9478 74.8396L19.7861 76.8987C21.0144 75.7748 21.996 74.4019 22.6671 72.869C23.3384 71.336 23.6841 69.6772 23.682 68.0001Z" fill="#21A038"/>
<path d="M11.8414 77.2282C10.5691 77.2286 9.31078 76.9582 8.14803 76.4346C6.98534 75.9109 5.94411 75.1455 5.09178 74.1882L3.06104 76.0502C4.16982 77.2953 5.52444 78.2903 7.03706 78.9707C8.54968 79.651 10.1865 80.0016 11.8414 79.9996V77.2282Z" fill="url(#paint4_linear_866_3829)"/>
<path d="M5.7352 61.16L3.89785 59.101C2.66915 60.2246 1.68721 61.5975 1.01571 63.1304C0.344218 64.6634 -0.00183072 66.3223 7.2835e-06 67.9995H2.73557C2.735 66.7102 3.00174 65.4351 3.51847 64.2568C4.03521 63.0786 4.79043 62.0236 5.7352 61.16Z" fill="url(#paint5_linear_866_3829)"/>
<path d="M42.448 63.68C41.84 63.68 41.2907 63.7867 40.8 64C40.3093 64.2027 39.8933 64.5067 39.552 64.912C39.2107 65.3067 38.9493 65.792 38.768 66.368C38.5867 66.9333 38.496 67.5733 38.496 68.288C38.496 69.2267 38.64 70.0427 38.928 70.736C39.2267 71.4293 39.664 71.9627 40.24 72.336C40.8267 72.7093 41.5573 72.896 42.432 72.896C42.9333 72.896 43.408 72.8533 43.856 72.768C44.304 72.6827 44.7413 72.576 45.168 72.448V73.696C44.7413 73.856 44.2987 73.9733 43.84 74.048C43.392 74.1227 42.8533 74.16 42.224 74.16C41.0613 74.16 40.0907 73.92 39.312 73.44C38.5333 72.96 37.9467 72.2773 37.552 71.392C37.168 70.5067 36.976 69.4667 36.976 68.272C36.976 67.408 37.0933 66.6187 37.328 65.904C37.5733 65.1893 37.9253 64.5707 38.384 64.048C38.8533 63.5253 39.4293 63.1253 40.112 62.848C40.7947 62.56 41.5787 62.416 42.464 62.416C43.0507 62.416 43.616 62.4747 44.16 62.592C44.704 62.7093 45.1893 62.8747 45.616 63.088L45.04 64.304C44.688 64.144 44.2933 64 43.856 63.872C43.4293 63.744 42.96 63.68 42.448 63.68ZM47.0214 68.848C47.0214 67.6 47.144 66.5387 47.3894 65.664C47.6454 64.7787 48.0347 64.0747 48.5574 63.552C49.0907 63.0187 49.7734 62.6613 50.6054 62.48C51.2987 62.3307 51.976 62.1973 52.6374 62.08C53.2987 61.9627 53.9174 61.856 54.4934 61.76L54.7334 62.992C54.456 63.0347 54.1467 63.088 53.8054 63.152C53.464 63.2053 53.1174 63.264 52.7654 63.328C52.4134 63.3813 52.072 63.44 51.7414 63.504C51.4214 63.5573 51.1387 63.6107 50.8934 63.664C50.5414 63.7387 50.2267 63.8667 49.9494 64.048C49.672 64.2187 49.432 64.4533 49.2294 64.752C49.0374 65.0507 48.8827 65.4187 48.7654 65.856C48.648 66.2933 48.5787 66.8107 48.5574 67.408H48.6534C48.8027 67.2053 49.0054 66.9973 49.2614 66.784C49.528 66.5707 49.8427 66.3893 50.2054 66.24C50.5787 66.0907 51 66.016 51.4694 66.016C52.216 66.016 52.8347 66.1813 53.3254 66.512C53.8267 66.832 54.2 67.28 54.4454 67.856C54.7014 68.432 54.8294 69.104 54.8294 69.872C54.8294 70.8213 54.664 71.616 54.3334 72.256C54.0027 72.896 53.544 73.376 52.9574 73.696C52.3707 74.0053 51.688 74.16 50.9094 74.16C50.3227 74.16 49.7894 74.048 49.3094 73.824C48.8294 73.5893 48.4187 73.248 48.0774 72.8C47.736 72.352 47.4747 71.7973 47.2934 71.136C47.112 70.4747 47.0214 69.712 47.0214 68.848ZM51.0214 72.992C51.4907 72.992 51.896 72.896 52.2374 72.704C52.5894 72.512 52.8614 72.1973 53.0534 71.76C53.2454 71.3227 53.3414 70.7413 53.3414 70.016C53.3414 69.1413 53.176 68.4533 52.8454 67.952C52.5254 67.44 51.992 67.184 51.2454 67.184C50.776 67.184 50.3494 67.2907 49.9654 67.504C49.5814 67.7067 49.2614 67.9413 49.0054 68.208C48.7494 68.4747 48.568 68.6987 48.4614 68.88C48.4614 69.4027 48.4987 69.9093 48.5734 70.4C48.648 70.8907 48.776 71.3333 48.9574 71.728C49.1494 72.112 49.4107 72.4213 49.7414 72.656C50.0827 72.88 50.5094 72.992 51.0214 72.992ZM60.3595 65.264C61.0955 65.264 61.7248 65.424 62.2475 65.744C62.7808 66.064 63.1862 66.5173 63.4635 67.104C63.7515 67.68 63.8955 68.3573 63.8955 69.136V69.984H58.0235C58.0448 70.9547 58.2902 71.696 58.7595 72.208C59.2395 72.7093 59.9062 72.96 60.7595 72.96C61.3035 72.96 61.7835 72.912 62.1995 72.816C62.6262 72.7093 63.0635 72.56 63.5115 72.368V73.6C63.0742 73.792 62.6422 73.9307 62.2155 74.016C61.7888 74.112 61.2822 74.16 60.6955 74.16C59.8848 74.16 59.1648 73.9947 58.5355 73.664C57.9168 73.3333 57.4315 72.8427 57.0795 72.192C56.7382 71.5307 56.5675 70.7253 56.5675 69.776C56.5675 68.8373 56.7222 68.032 57.0315 67.36C57.3515 66.688 57.7942 66.1707 58.3595 65.808C58.9355 65.4453 59.6022 65.264 60.3595 65.264ZM60.3435 66.416C59.6715 66.416 59.1382 66.6347 58.7435 67.072C58.3595 67.4987 58.1302 68.096 58.0555 68.864H62.4235C62.4235 68.3733 62.3488 67.9467 62.1995 67.584C62.0502 67.2213 61.8208 66.9387 61.5115 66.736C61.2128 66.5227 60.8235 66.416 60.3435 66.416ZM70.1588 65.264C71.2148 65.264 72.0628 65.632 72.7028 66.368C73.3534 67.104 73.6788 68.2133 73.6788 69.696C73.6788 70.6667 73.5294 71.488 73.2308 72.16C72.9427 72.8213 72.5321 73.3227 71.9988 73.664C71.4761 73.9947 70.8574 74.16 70.1428 74.16C69.7054 74.16 69.3161 74.1013 68.9748 73.984C68.6334 73.8667 68.3401 73.7173 68.0948 73.536C67.8601 73.344 67.6574 73.136 67.4868 72.912H67.3908C67.4121 73.0933 67.4334 73.3227 67.4548 73.6C67.4761 73.8773 67.4868 74.1173 67.4868 74.32V77.84H66.0788V65.424H67.2308L67.4228 66.592H67.4868C67.6574 66.3467 67.8601 66.1227 68.0948 65.92C68.3401 65.7173 68.6281 65.5573 68.9588 65.44C69.3001 65.3227 69.7001 65.264 70.1588 65.264ZM69.9028 66.448C69.3268 66.448 68.8628 66.56 68.5108 66.784C68.1588 66.9973 67.9028 67.3227 67.7428 67.76C67.5828 68.1973 67.4974 68.752 67.4868 69.424V69.696C67.4868 70.4 67.5614 70.9973 67.7108 71.488C67.8601 71.9787 68.1108 72.352 68.4628 72.608C68.8254 72.864 69.3161 72.992 69.9348 72.992C70.4574 72.992 70.8841 72.848 71.2148 72.56C71.5561 72.272 71.8068 71.8827 71.9668 71.392C72.1374 70.8907 72.2228 70.32 72.2228 69.68C72.2228 68.6987 72.0308 67.9147 71.6468 67.328C71.2734 66.7413 70.6921 66.448 69.9028 66.448Z" fill="#1E1D24"/>
<path d="M417.417 63.4166H415.255L414.37 61.9583C414.161 61.5937 413.745 61.3333 413.302 61.3333H410.672C410.229 61.3333 409.812 61.5937 409.604 61.9583L408.719 63.4166H406.583C406.349 63.4166 406.167 63.625 406.167 63.8333V64.25C406.167 64.4844 406.349 64.6666 406.583 64.6666H407L407.547 73.4948C407.573 74.1719 408.12 74.6666 408.797 74.6666H415.177C415.854 74.6666 416.401 74.1719 416.427 73.4948L417 64.6666H417.417C417.625 64.6666 417.833 64.4844 417.833 64.25V63.8333C417.833 63.625 417.625 63.4166 417.417 63.4166ZM410.672 62.5833H413.302L413.797 63.4166H410.177L410.672 62.5833ZM415.177 73.4166H408.797L408.25 64.6666H415.724L415.177 73.4166Z" fill="#1E1D24"/>
<path d="M12 113.031C10.5938 113.031 9.5 114.375 9.5 116.031C9.5 117.719 10.5938 119.062 12 119.062C13.375 119.062 14.5 117.719 14.5 116.031C14.5 114.375 13.375 113.031 12 113.031ZM21.4062 109.719C20.1875 109.219 18.9688 109 17.75 109C13.9062 109 10.0625 110.969 6.21875 110.969C5.25 110.969 4.28125 110.844 3.3125 110.531C3.21875 110.5 3.09375 110.469 3 110.469C2.46875 110.469 2 110.906 2 111.469V121.406C2 121.781 2.21875 122.156 2.5625 122.312C3.78125 122.812 5 123 6.21875 123C10.0625 123 13.9062 121.062 17.75 121.062C18.7188 121.062 19.6875 121.188 20.6562 121.5C20.75 121.531 20.875 121.531 20.9688 121.531C21.5 121.531 22 121.125 22 120.562V110.625C22 110.25 21.75 109.875 21.4062 109.719ZM20.5 118.094C19.6562 118.188 18.9688 118.812 18.7812 119.625C18.4375 119.594 18.125 119.562 17.75 119.562C15.6562 119.562 13.5938 120.094 11.625 120.594C9.71875 121.062 7.9375 121.5 6.21875 121.5C5.96875 121.5 5.71875 121.5 5.46875 121.5C5.4375 120.406 4.5625 119.562 3.5 119.562V114.031C4.46875 114.031 5.25 113.344 5.4375 112.406C5.6875 112.438 5.9375 112.469 6.21875 112.469C8.3125 112.469 10.375 111.938 12.3438 111.438C14.25 110.969 16.0312 110.5 17.75 110.5C18.0938 110.5 18.4062 110.531 18.75 110.562C18.7812 111.562 19.5312 112.375 20.5 112.5V118.094Z" fill="#1E1D24"/>
<path d="M46.288 122H44.848V116.672H38.992V122H37.552V110.576H38.992V115.408H44.848V110.576H46.288V122ZM52.4674 113.28C53.5127 113.28 54.286 113.509 54.7874 113.968C55.2887 114.427 55.5394 115.157 55.5394 116.16V122H54.5154L54.2434 120.784H54.1794C53.934 121.093 53.678 121.355 53.4114 121.568C53.1554 121.771 52.8567 121.92 52.5154 122.016C52.1847 122.112 51.7794 122.16 51.2994 122.16C50.7874 122.16 50.3234 122.069 49.9074 121.888C49.502 121.707 49.182 121.429 48.9474 121.056C48.7127 120.672 48.5954 120.192 48.5954 119.616C48.5954 118.763 48.9314 118.107 49.6034 117.648C50.2754 117.179 51.31 116.923 52.7074 116.88L54.1634 116.832V116.32C54.1634 115.605 54.0087 115.109 53.6994 114.832C53.39 114.555 52.9527 114.416 52.3874 114.416C51.9394 114.416 51.5127 114.485 51.1074 114.624C50.702 114.752 50.3234 114.901 49.9714 115.072L49.5394 114.016C49.9127 113.813 50.3554 113.643 50.8674 113.504C51.3794 113.355 51.9127 113.28 52.4674 113.28ZM52.8834 117.856C51.8167 117.899 51.0754 118.069 50.6594 118.368C50.254 118.667 50.0514 119.088 50.0514 119.632C50.0514 120.112 50.1954 120.464 50.4834 120.688C50.782 120.912 51.1607 121.024 51.6194 121.024C52.3447 121.024 52.9474 120.827 53.4274 120.432C53.9074 120.027 54.1474 119.408 54.1474 118.576V117.808L52.8834 117.856ZM64.7161 122H63.2921V114.592H60.7641C60.6575 115.947 60.5241 117.104 60.3641 118.064C60.2041 119.013 60.0015 119.787 59.7561 120.384C59.5108 120.981 59.2175 121.419 58.8761 121.696C58.5348 121.973 58.1348 122.112 57.6761 122.112C57.5375 122.112 57.3988 122.101 57.2601 122.08C57.1321 122.069 57.0255 122.043 56.9401 122V120.944C57.0041 120.965 57.0735 120.981 57.1481 120.992C57.2228 121.003 57.2975 121.008 57.3721 121.008C57.6068 121.008 57.8201 120.912 58.0121 120.72C58.2041 120.528 58.3748 120.235 58.5241 119.84C58.6841 119.445 58.8281 118.949 58.9561 118.352C59.0841 117.744 59.1961 117.029 59.2921 116.208C59.3881 115.387 59.4735 114.459 59.5481 113.424H64.7161V122ZM68.7661 118.656C68.7661 118.752 68.7608 118.891 68.7501 119.072C68.7501 119.243 68.7448 119.429 68.7341 119.632C68.7235 119.824 68.7128 120.011 68.7021 120.192C68.6915 120.363 68.6808 120.501 68.6701 120.608L73.2621 113.424H74.9901V122H73.6781V116.944C73.6781 116.773 73.6781 116.549 73.6781 116.272C73.6888 115.995 73.6995 115.723 73.7101 115.456C73.7208 115.179 73.7315 114.971 73.7421 114.832L69.1821 122H67.4381V113.424H68.7661V118.656ZM78.9514 116.544C78.9514 117.045 79.09 117.419 79.3674 117.664C79.6554 117.899 80.066 118.016 80.5994 118.016C81.1327 118.016 81.618 117.936 82.0554 117.776C82.4927 117.605 82.9407 117.381 83.3994 117.104V113.424H84.8074V122H83.3994V118.176C82.9194 118.485 82.4447 118.731 81.9754 118.912C81.5167 119.083 80.962 119.168 80.3114 119.168C79.4367 119.168 78.754 118.939 78.2634 118.48C77.7834 118.021 77.5434 117.408 77.5434 116.64V113.424H78.9514V116.544ZM88.9399 113.424V116.992H93.5959V113.424H95.0039V122H93.5959V118.176H88.9399V122H87.5319V113.424H88.9399ZM97.7194 122V113.424H99.1274V116.944H101.351C102.098 116.944 102.711 117.035 103.191 117.216C103.671 117.397 104.029 117.669 104.263 118.032C104.498 118.384 104.615 118.832 104.615 119.376C104.615 119.909 104.498 120.373 104.263 120.768C104.039 121.163 103.682 121.467 103.191 121.68C102.711 121.893 102.077 122 101.287 122H97.7194ZM101.159 120.864C101.767 120.864 102.263 120.763 102.647 120.56C103.031 120.347 103.223 119.979 103.223 119.456C103.223 118.933 103.047 118.581 102.695 118.4C102.343 118.208 101.837 118.112 101.175 118.112H99.1274V120.864H101.159ZM106.039 122V113.424H107.447V122H106.039ZM113.485 113.264C114.221 113.264 114.85 113.424 115.373 113.744C115.906 114.064 116.311 114.517 116.589 115.104C116.877 115.68 117.021 116.357 117.021 117.136V117.984H111.149C111.17 118.955 111.415 119.696 111.885 120.208C112.365 120.709 113.031 120.96 113.885 120.96C114.429 120.96 114.909 120.912 115.325 120.816C115.751 120.709 116.189 120.56 116.637 120.368V121.6C116.199 121.792 115.767 121.931 115.341 122.016C114.914 122.112 114.407 122.16 113.821 122.16C113.01 122.16 112.29 121.995 111.661 121.664C111.042 121.333 110.557 120.843 110.205 120.192C109.863 119.531 109.693 118.725 109.693 117.776C109.693 116.837 109.847 116.032 110.157 115.36C110.477 114.688 110.919 114.171 111.485 113.808C112.061 113.445 112.727 113.264 113.485 113.264ZM113.469 114.416C112.797 114.416 112.263 114.635 111.869 115.072C111.485 115.499 111.255 116.096 111.181 116.864H115.549C115.549 116.373 115.474 115.947 115.325 115.584C115.175 115.221 114.946 114.939 114.637 114.736C114.338 114.523 113.949 114.416 113.469 114.416Z" fill="#1E1D24"/>
<path d="M417.417 111.417H415.255L414.37 109.958C414.161 109.594 413.745 109.333 413.302 109.333H410.672C410.229 109.333 409.812 109.594 409.604 109.958L408.719 111.417H406.583C406.349 111.417 406.167 111.625 406.167 111.833V112.25C406.167 112.484 406.349 112.667 406.583 112.667H407L407.547 121.495C407.573 122.172 408.12 122.667 408.797 122.667H415.177C415.854 122.667 416.401 122.172 416.427 121.495L417 112.667H417.417C417.625 112.667 417.833 112.484 417.833 112.25V111.833C417.833 111.625 417.625 111.417 417.417 111.417ZM410.672 110.583H413.302L413.797 111.417H410.177L410.672 110.583ZM415.177 121.417H408.797L408.25 112.667H415.724L415.177 121.417Z" fill="#1E1D24"/>
<path d="M19.4688 157H4.5C3.65625 157 3 157.688 3 158.5V169.5C3 170.344 3.65625 171 4.5 171H19.4688C20.3125 171 21 170.344 21 169.5V158.5C21 157.688 20.3125 157 19.4688 157ZM19.2812 169.5H4.6875C4.5625 169.5 4.5 169.438 4.5 169.312V158.688C4.5 158.594 4.5625 158.5 4.6875 158.5H19.2812C19.4062 158.5 19.4688 158.594 19.4688 158.688V169.312C19.4688 169.438 19.4062 169.5 19.2812 169.5ZM9 167.375C9 167.188 8.8125 167 8.625 167H6.375C6.15625 167 6 167.188 6 167.375V167.625C6 167.844 6.15625 168 6.375 168H8.625C8.8125 168 9 167.844 9 167.625V167.375ZM15 167.375C15 167.188 14.8125 167 14.625 167H10.375C10.1562 167 10 167.188 10 167.375V167.625C10 167.844 10.1562 168 10.375 168H14.625C14.8125 168 15 167.844 15 167.625V167.375ZM11.125 166C11.3125 166 11.5 165.844 11.5 165.625V164.375C11.5 164.188 11.3125 164 11.125 164H9.375C9.15625 164 9 164.188 9 164.375V165.625C9 165.844 9.15625 166 9.375 166H11.125ZM12 165.625C12 165.844 12.1562 166 12.375 166H14.125C14.3125 166 14.5 165.844 14.5 165.625V164.375C14.5 164.188 14.3125 164 14.125 164H12.375C12.1562 164 12 164.188 12 164.375V165.625ZM6 165.625C6 165.844 6.15625 166 6.375 166H8.125C8.3125 166 8.5 165.844 8.5 165.625V164.375C8.5 164.188 8.3125 164 8.125 164H6.375C6.15625 164 6 164.188 6 164.375V165.625ZM18 164.375C18 164.188 17.8125 164 17.625 164H15.375C15.1562 164 15 164.188 15 164.375V165.625C15 165.844 15.1562 166 15.375 166H17.625C17.8125 166 18 165.844 18 165.625V164.375ZM18 160.25C18 159.844 17.6562 159.5 17.25 159.5H14.75C14.3125 159.5 14 159.844 14 160.25V161.75C14 162.188 14.3125 162.5 14.75 162.5H17.25C17.6562 162.5 18 162.188 18 161.75V160.25Z" fill="#1E1D24"/>
<path d="M45.248 158.576V168.72H46.704V173.008H45.328V170H37.472V173.008H36.096V168.72H36.976C37.36 168.059 37.7227 167.317 38.064 166.496C38.416 165.675 38.7253 164.816 38.992 163.92C39.2587 163.013 39.4773 162.107 39.648 161.2C39.8187 160.293 39.9253 159.419 39.968 158.576H45.248ZM41.232 159.872C41.1893 160.491 41.0827 161.189 40.912 161.968C40.752 162.747 40.544 163.547 40.288 164.368C40.0427 165.179 39.7653 165.963 39.456 166.72C39.1573 167.477 38.8373 168.144 38.496 168.72H43.824V159.872H41.232ZM52.5025 161.264C53.5585 161.264 54.4065 161.632 55.0465 162.368C55.6972 163.104 56.0225 164.213 56.0225 165.696C56.0225 166.667 55.8732 167.488 55.5745 168.16C55.2865 168.821 54.8758 169.323 54.3425 169.664C53.8198 169.995 53.2012 170.16 52.4865 170.16C52.0492 170.16 51.6598 170.101 51.3185 169.984C50.9772 169.867 50.6838 169.717 50.4385 169.536C50.2038 169.344 50.0012 169.136 49.8305 168.912H49.7345C49.7558 169.093 49.7772 169.323 49.7985 169.6C49.8198 169.877 49.8305 170.117 49.8305 170.32V173.84H48.4225V161.424H49.5745L49.7665 162.592H49.8305C50.0012 162.347 50.2038 162.123 50.4385 161.92C50.6838 161.717 50.9718 161.557 51.3025 161.44C51.6438 161.323 52.0438 161.264 52.5025 161.264ZM52.2465 162.448C51.6705 162.448 51.2065 162.56 50.8545 162.784C50.5025 162.997 50.2465 163.323 50.0865 163.76C49.9265 164.197 49.8412 164.752 49.8305 165.424V165.696C49.8305 166.4 49.9052 166.997 50.0545 167.488C50.2038 167.979 50.4545 168.352 50.8065 168.608C51.1692 168.864 51.6598 168.992 52.2785 168.992C52.8012 168.992 53.2278 168.848 53.5585 168.56C53.8998 168.272 54.1505 167.883 54.3105 167.392C54.4812 166.891 54.5665 166.32 54.5665 165.68C54.5665 164.699 54.3745 163.915 53.9905 163.328C53.6172 162.741 53.0358 162.448 52.2465 162.448ZM56.766 161.424H58.27L60.126 166.304C60.2327 166.592 60.3287 166.869 60.414 167.136C60.51 167.403 60.5953 167.664 60.67 167.92C60.7447 168.165 60.8033 168.405 60.846 168.64H60.91C60.974 168.373 61.0753 168.027 61.214 167.6C61.3527 167.163 61.4967 166.725 61.646 166.288L63.39 161.424H64.91L61.214 171.184C61.0113 171.717 60.7713 172.181 60.494 172.576C60.2273 172.981 59.8967 173.291 59.502 173.504C59.118 173.728 58.6487 173.84 58.094 173.84C57.838 173.84 57.614 173.824 57.422 173.792C57.23 173.771 57.0647 173.744 56.926 173.712V172.592C57.0433 172.613 57.182 172.635 57.342 172.656C57.5127 172.677 57.6887 172.688 57.87 172.688C58.2007 172.688 58.4833 172.624 58.718 172.496C58.9633 172.379 59.1713 172.203 59.342 171.968C59.5127 171.744 59.6567 171.477 59.774 171.168L60.222 170.032L56.766 161.424ZM71.4983 161.424V162.608H67.6743V170H66.2663V161.424H71.4983ZM80.4879 165.696C80.4879 166.411 80.3919 167.045 80.1999 167.6C80.0185 168.144 79.7519 168.608 79.3999 168.992C79.0585 169.376 78.6372 169.669 78.1359 169.872C77.6452 170.064 77.0959 170.16 76.4879 170.16C75.9225 170.16 75.3999 170.064 74.9199 169.872C74.4399 169.669 74.0239 169.376 73.6719 168.992C73.3199 168.608 73.0425 168.144 72.8399 167.6C72.6479 167.045 72.5519 166.411 72.5519 165.696C72.5519 164.747 72.7119 163.947 73.0319 163.296C73.3519 162.635 73.8105 162.133 74.4079 161.792C75.0052 161.44 75.7145 161.264 76.5359 161.264C77.3145 161.264 77.9972 161.44 78.5839 161.792C79.1812 162.133 79.6452 162.635 79.9759 163.296C80.3172 163.947 80.4879 164.747 80.4879 165.696ZM74.0079 165.696C74.0079 166.368 74.0932 166.955 74.2639 167.456C74.4452 167.947 74.7225 168.325 75.0959 168.592C75.4692 168.859 75.9439 168.992 76.5199 168.992C77.0959 168.992 77.5705 168.859 77.9439 168.592C78.3172 168.325 78.5892 167.947 78.7599 167.456C78.9412 166.955 79.0319 166.368 79.0319 165.696C79.0319 165.013 78.9412 164.432 78.7599 163.952C78.5785 163.472 78.3012 163.104 77.9279 162.848C77.5652 162.581 77.0905 162.448 76.5039 162.448C75.6292 162.448 74.9945 162.736 74.5999 163.312C74.2052 163.888 74.0079 164.683 74.0079 165.696ZM89.6634 157.872C89.6207 158.405 89.4874 158.853 89.2634 159.216C89.05 159.579 88.73 159.851 88.3034 160.032C87.8767 160.213 87.322 160.304 86.6394 160.304C85.946 160.304 85.386 160.213 84.9594 160.032C84.5434 159.851 84.2394 159.584 84.0474 159.232C83.8554 158.869 83.738 158.416 83.6954 157.872H85.0074C85.0607 158.448 85.21 158.837 85.4554 159.04C85.7114 159.232 86.1167 159.328 86.6714 159.328C87.162 159.328 87.546 159.227 87.8234 159.024C88.1114 158.811 88.282 158.427 88.3354 157.872H89.6634ZM84.0474 166.656C84.0474 166.752 84.042 166.891 84.0314 167.072C84.0314 167.243 84.026 167.429 84.0154 167.632C84.0047 167.824 83.994 168.011 83.9834 168.192C83.9727 168.363 83.962 168.501 83.9514 168.608L88.5434 161.424H90.2714V170H88.9594V164.944C88.9594 164.773 88.9594 164.549 88.9594 164.272C88.97 163.995 88.9807 163.723 88.9914 163.456C89.002 163.179 89.0127 162.971 89.0234 162.832L84.4634 170H82.7194V161.424H84.0474V166.656ZM100.597 170.16C99.8395 170.16 99.1622 170.005 98.5649 169.696C97.9782 169.387 97.5142 168.907 97.1729 168.256C96.8422 167.605 96.6769 166.773 96.6769 165.76C96.6769 164.704 96.8529 163.845 97.2049 163.184C97.5569 162.523 98.0315 162.037 98.6289 161.728C99.2369 161.419 99.9249 161.264 100.693 161.264C101.13 161.264 101.552 161.312 101.957 161.408C102.362 161.493 102.693 161.6 102.949 161.728L102.517 162.896C102.261 162.8 101.962 162.709 101.621 162.624C101.28 162.539 100.96 162.496 100.661 162.496C100.085 162.496 99.6102 162.619 99.2369 162.864C98.8635 163.109 98.5862 163.472 98.4049 163.952C98.2235 164.432 98.1329 165.029 98.1329 165.744C98.1329 166.427 98.2235 167.008 98.4049 167.488C98.5862 167.968 98.8582 168.331 99.2209 168.576C99.5835 168.821 100.037 168.944 100.581 168.944C101.05 168.944 101.461 168.896 101.813 168.8C102.176 168.704 102.506 168.587 102.805 168.448V169.696C102.517 169.845 102.197 169.957 101.845 170.032C101.504 170.117 101.088 170.16 100.597 170.16ZM106.076 164.544C106.076 165.045 106.215 165.419 106.492 165.664C106.78 165.899 107.191 166.016 107.724 166.016C108.258 166.016 108.743 165.936 109.18 165.776C109.618 165.605 110.066 165.381 110.524 165.104V161.424H111.932V170H110.524V166.176C110.044 166.485 109.57 166.731 109.1 166.912C108.642 167.083 108.087 167.168 107.436 167.168C106.562 167.168 105.879 166.939 105.388 166.48C104.908 166.021 104.668 165.408 104.668 164.64V161.424H106.076V164.544ZM117.969 161.264C118.705 161.264 119.334 161.424 119.857 161.744C120.39 162.064 120.796 162.517 121.073 163.104C121.361 163.68 121.505 164.357 121.505 165.136V165.984H115.633C115.654 166.955 115.9 167.696 116.369 168.208C116.849 168.709 117.516 168.96 118.369 168.96C118.913 168.96 119.393 168.912 119.809 168.816C120.236 168.709 120.673 168.56 121.121 168.368V169.6C120.684 169.792 120.252 169.931 119.825 170.016C119.398 170.112 118.892 170.16 118.305 170.16C117.494 170.16 116.774 169.995 116.145 169.664C115.526 169.333 115.041 168.843 114.689 168.192C114.348 167.531 114.177 166.725 114.177 165.776C114.177 164.837 114.332 164.032 114.641 163.36C114.961 162.688 115.404 162.171 115.969 161.808C116.545 161.445 117.212 161.264 117.969 161.264ZM117.953 162.416C117.281 162.416 116.748 162.635 116.353 163.072C115.969 163.499 115.74 164.096 115.665 164.864H120.033C120.033 164.373 119.958 163.947 119.809 163.584C119.66 163.221 119.43 162.939 119.121 162.736C118.822 162.523 118.433 162.416 117.953 162.416ZM115.601 159.104C115.601 158.827 115.676 158.629 115.825 158.512C115.974 158.384 116.15 158.32 116.353 158.32C116.556 158.32 116.732 158.384 116.881 158.512C117.03 158.629 117.105 158.827 117.105 159.104C117.105 159.371 117.03 159.573 116.881 159.712C116.732 159.84 116.556 159.904 116.353 159.904C116.15 159.904 115.974 159.84 115.825 159.712C115.676 159.573 115.601 159.371 115.601 159.104ZM118.609 159.104C118.609 158.827 118.678 158.629 118.817 158.512C118.966 158.384 119.142 158.32 119.345 158.32C119.548 158.32 119.724 158.384 119.873 158.512C120.022 158.629 120.097 158.827 120.097 159.104C120.097 159.371 120.022 159.573 119.873 159.712C119.724 159.84 119.548 159.904 119.345 159.904C119.142 159.904 118.966 159.84 118.817 159.712C118.678 159.573 118.609 159.371 118.609 159.104ZM129.608 162.608H126.808V170H125.416V162.608H122.648V161.424H129.608V162.608Z" fill="#1E1D24"/>
<path d="M417.417 159.417H415.255L414.37 157.958C414.161 157.594 413.745 157.333 413.302 157.333H410.672C410.229 157.333 409.812 157.594 409.604 157.958L408.719 159.417H406.583C406.349 159.417 406.167 159.625 406.167 159.833V160.25C406.167 160.484 406.349 160.667 406.583 160.667H407L407.547 169.495C407.573 170.172 408.12 170.667 408.797 170.667H415.177C415.854 170.667 416.401 170.172 416.427 169.495L417 160.667H417.417C417.625 160.667 417.833 160.484 417.833 160.25V159.833C417.833 159.625 417.625 159.417 417.417 159.417ZM410.672 158.583H413.302L413.797 159.417H410.177L410.672 158.583ZM415.177 169.417H408.797L408.25 160.667H415.724L415.177 169.417Z" fill="#1E1D24"/>
<defs>
<linearGradient id="paint0_linear_866_3829" x1="4.02152" y1="76.1377" x2="0.960927" y2="67.4077" gradientUnits="userSpaceOnUse">
<stop offset="0.14" stop-color="#F1E813"/>
<stop offset="0.3" stop-color="#E6E418"/>
<stop offset="0.58" stop-color="#C9DA26"/>
<stop offset="0.89" stop-color="#A2CC39"/>
</linearGradient>
<linearGradient id="paint1_linear_866_3829" x1="4.24931" y1="60.0057" x2="11.9732" y2="57.1014" gradientUnits="userSpaceOnUse">
<stop offset="0.06" stop-color="#0FA7DF"/>
<stop offset="0.54" stop-color="#0098F8"/>
<stop offset="0.92" stop-color="#0290EA"/>
</linearGradient>
<linearGradient id="paint2_linear_866_3829" x1="11.0687" y1="78.3267" x2="19.7849" y2="76.3838" gradientUnits="userSpaceOnUse">
<stop offset="0.12" stop-color="#A2CC39"/>
<stop offset="0.28" stop-color="#86C239"/>
<stop offset="0.87" stop-color="#219F38"/>
</linearGradient>
<linearGradient id="paint3_linear_866_3829" x1="11.2689" y1="56.9282" x2="18.7283" y2="59.1996" gradientUnits="userSpaceOnUse">
<stop offset="0.06" stop-color="#0290EA"/>
<stop offset="0.79" stop-color="#0C89CA"/>
</linearGradient>
<linearGradient id="paint4_linear_866_3829" x1="3.74725" y1="75.7129" x2="11.8742" y2="78.7099" gradientUnits="userSpaceOnUse">
<stop offset="0.13" stop-color="#F1E813"/>
<stop offset="0.3" stop-color="#EAE616"/>
<stop offset="0.53" stop-color="#D8DF1F"/>
<stop offset="0.8" stop-color="#BAD52D"/>
<stop offset="0.98" stop-color="#A2CC39"/>
</linearGradient>
<linearGradient id="paint5_linear_866_3829" x1="1.0191" y1="68.335" x2="4.34722" y2="59.7923" gradientUnits="userSpaceOnUse">
<stop offset="0.07" stop-color="#A2CC39"/>
<stop offset="0.26" stop-color="#81C45E"/>
<stop offset="0.92" stop-color="#0FA7DF"/>
</linearGradient>
</defs>
</svg>
