<svg width="20" height="20" viewBox="0 0 20 20" fill="none" xmlns="http://www.w3.org/2000/svg">
<path d="M12.9687 12.2982C12.9167 12.3503 12.9167 12.4024 12.9167 12.4545V15.3972H3.75V6.23051H10.026C10.0781 6.23051 10.1302 6.23051 10.1823 6.17843L11.0156 5.34509C11.1458 5.21488 11.0417 4.98051 10.8594 4.98051H3.75C3.04687 4.98051 2.5 5.55343 2.5 6.23051V15.3972C2.5 16.1003 3.04687 16.6472 3.75 16.6472H12.9167C13.5937 16.6472 14.1667 16.1003 14.1667 15.3972V11.6211C14.1667 11.4388 13.9323 11.3347 13.8021 11.4649L12.9687 12.2982ZM17.0312 7.06384C17.6302 6.46488 17.6302 5.50134 17.0312 4.90238L15.9115 3.78259C15.3125 3.18363 14.349 3.18363 13.75 3.78259L6.92708 10.6055L6.66667 12.9753C6.58854 13.6524 7.16146 14.2253 7.83854 14.1472L10.2083 13.8868L17.0312 7.06384ZM14.4792 7.84509L9.63542 12.6888L7.91667 12.8972L8.125 11.1784L12.9687 6.33468L14.4792 7.84509ZM16.1458 5.7878C16.276 5.89197 16.276 6.04822 16.1719 6.17843L15.3646 6.98572L13.8542 5.44926L14.6354 4.66801C14.7396 4.5378 14.9219 4.5378 15.026 4.66801L16.1458 5.7878Z" fill="#1E1D24"/>
</svg>
