<svg width="40" height="41" viewBox="0 0 40 41" fill="none" xmlns="http://www.w3.org/2000/svg">
<path d="M18.375 19.125L21 19.875C21.3125 19.9375 21.5 20.125 21.5 20.375C21.5 20.6875 21.1875 20.9375 20.8125 20.9375H19.1875C18.9375 20.9375 18.6875 20.875 18.4375 20.75C18.25 20.625 18 20.625 17.875 20.8125L17.125 21.625C16.9375 21.8125 16.9375 22.125 17.1875 22.3125C17.6875 22.625 18.3125 22.875 19 22.875V23.5C19 23.8125 19.1875 24 19.5 24H20.5C20.75 24 21 23.8125 21 23.5V22.875C22.375 22.8125 23.5 21.75 23.5 20.375C23.5 19.25 22.6875 18.25 21.5625 17.9375L18.9375 17.1875C18.625 17.125 18.5 16.9375 18.5 16.6875C18.5 16.375 18.75 16.125 19.125 16.125H20.75C21 16.125 21.25 16.1875 21.5 16.3125C21.6875 16.4375 21.9375 16.4375 22.0625 16.25L22.8125 15.4375C23 15.25 23 14.9375 22.75 14.75C22.25 14.4375 21.625 14.1875 21 14.1875V13.5C21 13.25 20.75 13 20.5 13H19.5C19.1875 13 19 13.25 19 13.5V14.1875C17.5625 14.25 16.5 15.3125 16.5 16.6875C16.5 17.8125 17.25 18.8125 18.375 19.125ZM34.875 14.8125C34.8125 14.75 34 14.125 33 13.25V10.5C33 8.875 31.625 7.5 30 7.5H25.8125C24.4375 6.3125 22.3125 4.5 20 4.5C17.625 4.5 15.5625 6.3125 14.125 7.5H10C8.3125 7.5 7 8.875 7 10.5V13.25C5.9375 14.125 5.125 14.75 5.0625 14.8125C4.375 15.375 4 16.1875 4 17.125V33.5C4 35.1875 5.3125 36.5 7 36.5H33C34.625 36.5 36 35.1875 36 33.5V17.125C36 16.25 35.5625 15.375 34.875 14.8125ZM10 10.5H30V20.3125C27.6875 22.125 25.0625 24.3125 24.5625 24.6875C23.4375 25.625 21.4375 27.5 20 27.5C18.5 27.5 16.5 25.5625 15.375 24.6875C14.875 24.3125 12.25 22.125 10 20.3125V10.5ZM33 33.125C33 33.375 32.8125 33.5 32.625 33.5H7.375C7.125 33.5 7 33.375 7 33.125V21.75C9.375 23.75 12.9375 26.625 13.5 27.0625C14.875 28.125 17.25 30.5 20 30.5C22.6875 30.5 25 28.1875 26.4375 27.0625C27 26.5625 30.5625 23.6875 33 21.75V33.125Z" fill="#828282"/>
</svg>