<svg width="40" height="40" viewBox="0 0 40 40" fill="none" xmlns="http://www.w3.org/2000/svg">
<path d="M26.5 14H13.5C12.6562 14 12 14.6875 12 15.5V24.5C12 25.3438 12.6562 26 13.5 26H26.5C27.3125 26 28 25.3438 28 24.5V15.5C28 14.6875 27.3125 14 26.5 14ZM26.5 15.5V16.7812C25.7812 17.375 24.6562 18.25 22.2812 20.125C21.75 20.5312 20.7188 21.5312 20 21.5C19.25 21.5312 18.2188 20.5312 17.6875 20.125C15.3125 18.25 14.1875 17.375 13.5 16.7812V15.5H26.5ZM13.5 24.5V18.7188C14.1875 19.2812 15.2188 20.0938 16.75 21.3125C17.4375 21.8438 18.6562 23.0312 20 23C21.3125 23.0312 22.5 21.8438 23.2188 21.3125C24.75 20.0938 25.7812 19.2812 26.5 18.7188V24.5H13.5Z" fill="#333333"/>
</svg>
