<svg width="44" height="44" viewBox="0 0 44 44" fill="none" xmlns="http://www.w3.org/2000/svg">
<path d="M23.4688 22L26.8438 18.6562C27.0312 18.4688 27.0312 18.125 26.8438 17.9375L26.0625 17.1562C25.875 16.9688 25.5312 16.9688 25.3438 17.1562L22 20.5312L18.625 17.1562C18.4375 16.9688 18.0938 16.9688 17.9062 17.1562L17.125 17.9375C16.9375 18.125 16.9375 18.4688 17.125 18.6562L20.5 22L17.125 25.375C16.9375 25.5625 16.9375 25.9062 17.125 26.0938L17.9062 26.875C18.0938 27.0625 18.4375 27.0625 18.625 26.875L22 23.5L25.3438 26.875C25.5312 27.0625 25.875 27.0625 26.0625 26.875L26.8438 26.0938C27.0312 25.9062 27.0312 25.5625 26.8438 25.375L23.4688 22Z" fill="#F05A2B"/>
<rect x="1" y="1" width="42" height="42" rx="21" stroke="#F05A2B" stroke-width="2"/>
</svg>
