<svg width="1920" height="1089" viewBox="0 0 1920 1089" fill="none" xmlns="http://www.w3.org/2000/svg">
<path d="M1648.57 846.598L1968.57 858.098L1916.57 1237.1H-61.4305C-105.764 1044.93 -296.928 622.8 -243.728 620C-177.228 616.5 -87.7285 755 56.7715 760C201.271 765 351.264 697.631 433.771 679C588.771 644 706.771 666 767.771 679C828.771 692 1127.27 770 1160.77 773.5C1194.27 777 1287.07 763.598 1384.57 750.098C1462.57 739.298 1593.07 809.932 1648.57 846.598Z" fill="#EAEBF5" stroke="#4A4E92" stroke-width="7"/>
<g clip-path="url(#clip0_1812_11630)">
<path d="M1097.93 734.635C1027.15 470.472 1183.92 198.945 1448.08 128.163C1712.24 57.3803 1983.77 214.146 2054.55 478.309C2125.34 742.472 1968.57 1014 1704.41 1084.78C1440.24 1155.56 1168.72 998.797 1097.93 734.635Z" fill="white"/>
<mask id="mask0_1812_11630" style="mask-type:luminance" maskUnits="userSpaceOnUse" x="1080" y="111" width="992" height="991">
<path d="M1097.93 734.635C1027.15 470.472 1183.92 198.945 1448.08 128.163C1712.24 57.3803 1983.77 214.146 2054.55 478.309C2125.34 742.472 1968.57 1014 1704.41 1084.78C1440.24 1155.56 1168.72 998.797 1097.93 734.635Z" fill="white"/>
</mask>
<g mask="url(#mask0_1812_11630)">
<path d="M1191.11 773.416C1129.55 543.658 1260.44 309.17 1483.16 249.492C1705.89 189.813 1936.49 327.439 1998.05 557.196C2059.61 786.952 1928.72 1021.44 1706 1081.12C1483.28 1140.8 1252.67 1003.17 1191.11 773.416Z" fill="white" stroke="#4A4E92" stroke-width="8"/>
<path d="M1410.37 464.591C1446.99 477.282 1468.74 527.75 1447.81 556.82C1426.41 586.528 1365.16 606.661 1334.49 573.973C1313.94 552.079 1319.89 510.364 1336.94 488.181C1353.99 465.998 1376.93 453.002 1410.37 464.591Z" fill="#4A4E92"/>
<path d="M1649.26 512.12C1669.82 539.336 1735.5 529.554 1753.54 504.757C1777.65 471.611 1762.42 431.058 1739.24 411.555C1716.06 392.052 1674.35 390.173 1651.97 420.5C1629.8 450.532 1624.98 479.974 1649.26 512.12Z" fill="#4A4E92"/>
<path d="M1395.49 518.702C1405.94 510.745 1423.78 515.276 1427.19 526.096C1430.6 536.918 1429.32 553.792 1411.31 560.421C1398.69 565.067 1386.5 558.938 1383.66 546.434C1380.82 533.93 1385.04 526.66 1395.49 518.702Z" fill="white"/>
<path d="M1385.62 485.195C1390.57 476.848 1400.34 482.347 1402.54 487.355C1404.74 492.364 1401.82 501.545 1395.42 501.754C1389.01 501.962 1379.55 495.416 1385.62 485.195Z" fill="white"/>
<path d="M1348.96 508.387C1353.8 499.159 1366.48 499.818 1371.09 507.41C1375.71 515.001 1374.21 521.433 1365.54 525.262C1356.88 529.091 1342.26 521.163 1348.96 508.387Z" fill="white"/>
<path d="M1668.78 483.985C1665.89 467.367 1677.84 455.317 1693.33 455.874C1712.47 456.56 1718.33 467.244 1718.22 483.658C1718.16 492.287 1706.48 502.523 1694.26 501.922C1683.23 501.379 1671.19 497.769 1668.78 483.985Z" fill="white"/>
<path d="M1711.69 425.546C1719.15 420.444 1730.22 423.166 1732.52 430.947C1734.82 438.729 1729.91 455.764 1719.63 450.336C1709.34 444.909 1704.96 430.149 1711.69 425.546Z" fill="white"/>
<path d="M1672.76 432.962C1677.31 426.185 1690.42 426.509 1690.71 434.829C1691 443.149 1686.48 450.388 1678.88 448.55C1671.28 446.71 1669.07 438.472 1672.76 432.962Z" fill="white"/>
<path d="M1379.96 354.297C1384.55 346.331 1390.64 339.244 1396.99 332.59C1425.49 302.743 1401.87 368.157 1415.87 360.386C1424.7 355.486 1444.02 315.762 1455.99 318.211C1462.25 319.491 1461.52 374.767 1468.68 376.231C1475.44 377.616 1482.78 350.492 1484.91 346.172C1494.65 326.358 1506.02 305.189 1522.79 290.313" stroke="#4A4E92" stroke-width="8" stroke-miterlimit="10" stroke-linecap="round" stroke-linejoin="round"/>
<path d="M1575.46 285.146C1595.72 275.679 1621.59 274.102 1642.84 281.038C1656.4 283.813 1679.94 300.734 1683.87 298.255C1688.71 295.209 1675.73 280.651 1673.95 278.074C1665.93 266.483 1658.22 250.672 1659.21 235.886C1660.62 214.794 1709.35 218.358 1726 229.298" stroke="#4A4E92" stroke-width="8" stroke-miterlimit="10" stroke-linecap="round" stroke-linejoin="round"/>
<path d="M1376.73 241.274C1382.18 217.278 1424.14 194.37 1450.39 196.978C1455.14 197.45 1463.23 199.048 1467.93 200.537C1471.3 201.605 1476.35 208.175 1477.62 204.871C1479.79 199.179 1460.09 182.791 1456.57 179.177C1455.88 178.474 1454.27 177.349 1455 176.686C1461.8 170.453 1517.47 189.023 1526.87 194.723" stroke="#4A4E92" stroke-width="8" stroke-miterlimit="10" stroke-linecap="round" stroke-linejoin="round"/>
<path d="M1591.91 203.699C1605.96 187.665 1624.71 174.817 1646.26 172.697" stroke="#4A4E92" stroke-width="8" stroke-miterlimit="10" stroke-linecap="round" stroke-linejoin="round"/>
<path d="M1606.28 624.381C1591.94 633.509 1579.6 639.876 1555.92 643.697C1549.33 644.753 1550.44 654.458 1554.83 659.58C1566.12 672.767 1594.1 659.997 1607.99 644.713C1616.33 635.533 1618.3 616.727 1606.28 624.381Z" stroke="#4A4E92" stroke-width="8" stroke-miterlimit="10" stroke-linecap="round" stroke-linejoin="round"/>
<path d="M1704.61 1008.21C1703.84 1008.34 1703.23 1008.44 1702.78 1008.51L1490.7 941.316C1491.22 940.653 1491.8 939.921 1492.43 939.124C1495.87 934.789 1500.81 928.527 1506.85 920.814C1518.95 905.388 1535.47 884.154 1553.16 860.925C1588.49 814.545 1628.69 759.971 1647.61 727.872C1666.4 695.993 1679.19 673.524 1687.27 659.015C1691.32 651.761 1694.19 646.496 1696.05 643.04C1696.53 642.147 1696.95 641.374 1697.3 640.72C1697.9 640.886 1698.6 641.082 1699.39 641.313C1702.7 642.284 1707.55 643.852 1713.59 646.224C1725.69 650.967 1742.59 658.921 1761.65 671.726C1799.74 697.319 1846.54 742.351 1880.9 820.095C1897.81 858.349 1895.02 888.795 1881.86 913.138C1868.57 937.71 1844.43 956.602 1817.65 970.885C1790.93 985.14 1761.99 994.593 1739.66 1000.49C1728.51 1003.43 1719.04 1005.47 1712.37 1006.78C1709.04 1007.44 1706.4 1007.91 1704.61 1008.21Z" fill="#EAEBF5" stroke="#4A4E92" stroke-width="8"/>
<path d="M1741.89 916.578C1742.36 917.06 1742.76 917.465 1743.07 917.788L1767.39 1122.96L1259.03 1187.41L1014.07 746.152C1018.52 747.164 1024.55 748.48 1031.95 749.964C1048.9 753.365 1073.05 757.654 1101.87 761.213C1159.47 768.328 1235.91 772.554 1310.92 760.864L1310.3 756.912L1310.92 760.864C1435.48 741.448 1543.69 780.818 1620.92 825.218C1659.53 847.409 1690.32 870.821 1711.46 888.678C1722.03 897.605 1730.17 905.139 1735.67 910.43C1738.42 913.076 1740.5 915.161 1741.89 916.578Z" fill="#EAEBF5" stroke="#4A4E92" stroke-width="8"/>
<path d="M1680.6 1182.69C1679.89 1180.75 1678.93 1178.07 1677.78 1174.73C1675.19 1167.16 1671.61 1156.18 1667.71 1142.54C1659.91 1115.27 1650.84 1077.43 1645.71 1035.18C1635.43 950.433 1641.18 849.008 1703.55 778.78C1751.96 724.289 1801.24 691.344 1846.78 660.903C1860.8 651.533 1874.46 642.4 1887.64 632.949C1942.71 593.435 1988.38 548.776 2012.74 459.131C2073.46 487.317 2103.94 520.952 2123.76 556.267C2133.95 574.438 2141.37 593.127 2148.65 612.031C2149.23 613.552 2149.81 615.074 2150.4 616.598C2157.06 633.946 2163.78 651.465 2172.54 668.531C2181.45 685.887 2184.59 715.554 2183.92 751.102C2183.25 786.422 2178.86 826.774 2173.27 864.944C2167.69 903.095 2160.93 938.974 2155.57 965.321C2152.88 978.492 2150.55 989.275 2148.89 996.763C2148.06 1000.51 2147.4 1003.43 2146.94 1005.41C2146.86 1005.75 2146.79 1006.07 2146.72 1006.36L1680.6 1182.69Z" fill="#EAEBF5" stroke="#4A4E92" stroke-width="8"/>
</g>
<path d="M1282.69 777.145L1282.7 777.174C1284.03 781.007 1284.2 785.549 1290.7 793.674C1297.76 802.5 1339.2 829.674 1371.7 825.174C1404.2 820.674 1423.2 794.174 1426.7 788.674C1430.2 783.174 1438.67 768.969 1439.2 764.5C1440.2 756 1438.7 752.674 1434.7 747.674C1430.7 742.674 1417.7 719.674 1343.2 727.674C1268.85 735.657 1281.14 772.519 1282.69 777.145Z" fill="white" stroke="#4A4E92" stroke-width="8"/>
<path d="M1834.73 623.196C1810.33 640.396 1804.73 656.5 1806.23 667.196C1806.9 672 1810.23 680.195 1822.73 688.195C1835.23 696.195 1862.23 696.195 1874.73 697.195C1887.23 698.195 1904.73 693.195 1913.73 688.195C1922.73 683.195 1934.73 670.195 1943.23 655.195C1951.73 640.195 1950.73 622.195 1945.73 613.195C1940.73 604.195 1928.23 592.196 1913.73 590.196C1899.23 588.196 1865.23 601.696 1834.73 623.196Z" fill="white" stroke="#4A4E92" stroke-width="8"/>
</g>
<defs>
<clipPath id="clip0_1812_11630">
<rect width="990.365" height="990.365" fill="white" transform="translate(969.771 256.325) rotate(-15)"/>
</clipPath>
</defs>
</svg>
