<svg width="378" height="84" viewBox="0 0 378 84" fill="none" xmlns="http://www.w3.org/2000/svg">
<g clip-path="url(#clip0_1717_10056)">
<path d="M2 42C2 19.9086 19.9086 2 42 2C64.0914 2 82 19.9086 82 42C82 64.0914 64.0914 82 42 82C19.9086 82 2 64.0914 2 42Z" fill="white"/>
<mask id="mask0_1717_10056" style="mask-type:luminance" maskUnits="userSpaceOnUse" x="2" y="2" width="80" height="80">
<path d="M2 42C2 19.9086 19.9086 2 42 2C64.0914 2 82 19.9086 82 42C82 64.0914 64.0914 82 42 82C19.9086 82 2 64.0914 2 42Z" fill="white"/>
</mask>
<g mask="url(#mask0_1717_10056)">
<path d="M8.63623 46.974C8.63623 27.8525 23.6775 12.3772 42.2007 12.3772C60.7241 12.3772 75.7653 27.8525 75.7653 46.974C75.7653 66.0952 60.7241 81.5707 42.2007 81.5707C23.6775 81.5707 8.63623 66.0952 8.63623 46.974Z" fill="white" stroke="#4A4E92"/>
<path d="M32.0237 27.4618C34.6157 29.2176 35.2577 33.6102 33.0163 35.4406C30.7257 37.3113 25.5257 37.6017 23.8158 34.4099C22.6705 32.272 24.0067 29.1415 25.801 27.7672C27.5953 26.3929 29.6568 25.8584 32.0237 27.4618Z" fill="#4A4E92"/>
<path d="M49.6698 36.1647C50.7046 38.718 56.0342 39.3281 57.9598 37.7703C60.5343 35.6882 60.1937 32.2055 58.7929 30.1992C57.3921 28.1929 54.1766 27.1742 51.7962 29.0726C49.4391 30.9524 48.4471 33.1488 49.6698 36.1647Z" fill="#4A4E92"/>
<path d="M29.7313 31.3727C30.7131 30.9704 32.0103 31.6968 32.0501 32.6124C32.0899 33.5281 31.6372 34.8179 30.0933 34.9586C29.0111 35.0572 28.1886 34.3242 28.2284 33.2892C28.2682 32.2542 28.7495 31.7752 29.7313 31.3727Z" fill="white"/>
<path d="M29.6618 28.5519C30.2229 28.0043 30.8698 28.6374 30.937 29.0742C31.0042 29.5111 30.5841 30.1663 30.0801 30.0487C29.576 29.9311 28.9747 29.2226 29.6618 28.5519Z" fill="white"/>
<path d="M26.3165 29.5952C26.8868 28.9763 27.8622 29.2927 28.0639 29.9816C28.2655 30.6704 28.0134 31.1408 27.2574 31.2585C26.5013 31.3761 25.5268 30.452 26.3165 29.5952Z" fill="white"/>
<path d="M51.781 34.3776C51.9028 33.0204 53.0873 32.3301 54.2843 32.6974C55.763 33.1511 55.9968 34.1071 55.6453 35.3856C55.4605 36.0577 54.3348 36.6121 53.3939 36.3097C52.5449 36.0368 51.6803 35.5033 51.781 34.3776Z" fill="white"/>
<path d="M56.3508 30.7149C57.0399 30.4728 57.8461 30.9165 57.8631 31.5718C57.8796 32.227 57.1405 33.4535 56.452 32.8151C55.763 32.1766 55.7294 30.9333 56.3508 30.7149Z" fill="white"/>
<path d="M53.1587 30.4797C53.6547 30.0459 54.671 30.3453 54.5198 31.0005C54.3686 31.6558 53.8648 32.1262 53.31 31.8238C52.7556 31.5214 52.7556 30.8325 53.1587 30.4797Z" fill="white"/>
<path d="M31.9565 18.2201C32.4819 17.6947 33.1051 17.269 33.7398 16.8827C36.5871 15.1495 33.3766 19.7597 34.6314 19.446C35.4225 19.2483 37.7609 16.5528 38.6436 16.9942C39.1051 17.2249 37.8927 21.5226 38.4207 21.7865C38.9195 22.036 40.0593 20.073 40.3154 19.7804C41.4899 18.4381 42.8191 17.024 44.439 16.214" stroke="#4A4E92" stroke-miterlimit="10" stroke-linecap="round" stroke-linejoin="round"/>
<path d="M48.6567 16.912C50.4349 16.5968 52.4867 17.0147 54 18.0002C55 18.5002 56.4826 20.3126 56.8415 20.2014C57.2828 20.0649 56.5742 18.6576 56.489 18.4193C56.1055 17.3472 55.8345 15.9524 56.2211 14.8194C56.7718 13.2031 60.5 14.5001 61.5703 15.7018" stroke="#4A4E92" stroke-miterlimit="10" stroke-linecap="round" stroke-linejoin="round"/>
<path d="M34.0679 9.33395C34.9949 7.57565 38.7475 6.66541 40.741 7.41767C41.1019 7.55387 41.6994 7.8476 42.0354 8.06216C42.2761 8.21591 42.5327 8.83413 42.7004 8.6028C42.9894 8.20414 41.7948 6.51361 41.5952 6.15785C41.5564 6.08874 41.4547 5.96734 41.5249 5.93075C42.186 5.58659 46.1412 8.19939 46.7554 8.84063" stroke="#4A4E92" stroke-miterlimit="10" stroke-linecap="round" stroke-linejoin="round"/>
<path d="M51.643 10.901C53.0743 9.94368 54.8061 9.33319 56.5316 9.61823" stroke="#4A4E92" stroke-miterlimit="10" stroke-linecap="round" stroke-linejoin="round"/>
<path d="M43.9691 44.0253C42.6593 44.4377 41.5639 44.6767 39.6356 44.4795C39.0999 44.4243 38.9834 45.2047 39.2185 45.696C39.8241 46.9611 42.2744 46.5497 43.6775 45.6475C44.5203 45.1056 45.0674 43.6795 43.9691 44.0253Z" stroke="#4A4E92" stroke-miterlimit="10" stroke-linecap="round" stroke-linejoin="round"/>
<path d="M43.633 75.8536C43.5924 75.8498 43.5572 75.8464 43.5277 75.8435L28.6359 66.3271C28.9933 66.0612 29.501 65.6825 30.1201 65.2176C31.3867 64.2664 33.1201 62.9545 34.9872 61.5113C38.7117 58.6324 42.9984 55.2084 45.1544 53.0907C47.288 50.9953 48.756 49.5083 49.6915 48.5443C50.1593 48.0622 50.4939 47.7108 50.7121 47.4795C50.7291 47.4615 50.7453 47.4442 50.7609 47.4277C50.7698 47.4331 50.7789 47.4386 50.7881 47.4442C51.022 47.5867 51.3629 47.8075 51.7806 48.1156C52.6162 48.732 53.7587 49.6973 54.9685 51.0841C57.3854 53.8544 60.0803 58.3163 61.1301 65.0648C61.642 68.3557 60.7997 70.6161 59.3058 72.1959C57.7896 73.7993 55.5492 74.7574 53.177 75.3084C50.8123 75.8578 48.3714 75.9899 46.5135 75.9829C45.5865 75.9794 44.8089 75.9412 44.2642 75.9041C43.9919 75.8855 43.778 75.8672 43.633 75.8536Z" fill="#EAEBF5" stroke="#4A4E92"/>
<path d="M48.2874 69.7466C48.3009 69.7705 48.3132 69.7924 48.3244 69.8124L45.9663 86.0966L5.24568 80.5373L-4.51751 41.4844C-4.24493 41.6255 -3.92028 41.7906 -3.54783 41.975C-2.29299 42.5964 -0.494421 43.4378 1.68463 44.32C6.03833 46.0827 11.9311 48.0168 18.0506 48.6752L18.1041 48.1781L18.0506 48.6752C28.1221 49.7588 35.7072 55.0653 40.788 60.1273C43.3269 62.6568 45.2336 65.1188 46.5049 66.9473C47.1403 67.8613 47.6164 68.6162 47.9328 69.141C48.091 69.4034 48.2092 69.6082 48.2874 69.7466Z" fill="#EAEBF5" stroke="#4A4E92"/>
<path d="M78.3643 84.3434C78.226 84.609 78.1161 84.8176 78.0396 84.962L38.2561 88.9475C38.2446 88.8087 38.2318 88.642 38.2185 88.4495C38.1741 87.8075 38.1249 86.8787 38.1058 85.7369C38.0676 83.4519 38.1503 80.3198 38.6322 76.9272C39.6002 70.1135 42.1588 62.386 48.4282 58.2539C53.3233 55.0278 57.8295 53.4971 62.0157 52.0751C63.3088 51.6359 64.5713 51.207 65.8054 50.7418C70.9053 48.819 75.405 46.2972 79.1846 39.8998C83.1884 43.2947 84.8098 46.4809 85.5981 49.5733C86.0105 51.1906 86.1976 52.7925 86.3698 54.4196C86.3836 54.5508 86.3974 54.6821 86.4112 54.8137C86.5677 56.3049 86.7269 57.8217 87.0558 59.3463C87.3777 60.8393 87.0156 63.1814 86.2203 65.9406C85.4329 68.6723 84.2496 71.7212 83.0171 74.5795C81.7855 77.4357 80.5095 80.0907 79.5411 82.0324C79.057 83.003 78.65 83.7947 78.3643 84.3434Z" fill="#EAEBF5" stroke="#4A4E92"/>
</g>
<path d="M15.5267 49.1795L15.5268 49.1819C15.5507 49.5089 15.4687 49.8667 15.806 50.6366C16.1724 51.4729 18.8376 54.4595 21.4676 54.7879C24.0975 55.1162 26.134 53.4458 26.5221 53.0898C26.9102 52.7338 27.8683 51.8027 28.0028 51.465C28.2585 50.8226 28.211 50.5318 28.0035 50.058C27.7959 49.5843 27.2624 47.5179 21.2823 46.5845C15.3146 45.6531 15.503 48.7863 15.5267 49.1795Z" fill="white" stroke="#4A4E92"/>
<path d="M61.8188 48.709C59.5554 49.5409 58.7817 50.6804 58.6751 51.5463C58.6273 51.9352 58.7155 52.6442 59.5235 53.5298C60.3316 54.4153 62.4383 54.9798 63.3927 55.3192C64.3471 55.6585 65.8171 55.6343 66.6239 55.4323C67.4306 55.2303 68.6387 54.4669 69.6156 53.4742C70.5924 52.4815 70.8907 51.0561 70.6887 50.2494C70.4868 49.4426 69.7623 48.245 68.6728 47.7858C67.5832 47.3266 64.6481 47.6691 61.8188 48.709Z" fill="white" stroke="#4A4E92"/>
</g>
<circle cx="42" cy="42" r="41" stroke="#4A4E92" stroke-width="2"/>
<path d="M97.2 22.28H103.44V50H97.2V22.28ZM109.456 29.68C110.47 29.3867 111.776 29.12 113.376 28.88C114.976 28.6133 116.656 28.48 118.416 28.48C120.203 28.48 121.683 28.72 122.856 29.2C124.056 29.6533 125.003 30.3067 125.696 31.16C126.39 32.0133 126.883 33.0267 127.176 34.2C127.47 35.3733 127.616 36.68 127.616 38.12V50H121.656V38.84C121.656 36.92 121.403 35.56 120.896 34.76C120.39 33.96 119.443 33.56 118.056 33.56C117.63 33.56 117.176 33.5867 116.696 33.64C116.216 33.6667 115.79 33.7067 115.416 33.76V50H109.456V29.68ZM146.051 50.56C141.544 50.56 138.104 49.3067 135.731 46.8C133.384 44.2933 132.211 40.7333 132.211 36.12C132.211 33.8267 132.571 31.7867 133.291 30C134.011 28.1867 134.998 26.6667 136.251 25.44C137.504 24.1867 138.998 23.24 140.731 22.6C142.464 21.96 144.344 21.64 146.371 21.64C147.544 21.64 148.611 21.7333 149.571 21.92C150.531 22.08 151.371 22.28 152.091 22.52C152.811 22.7333 153.411 22.96 153.891 23.2C154.371 23.44 154.718 23.6267 154.931 23.76L153.131 28.8C152.278 28.3467 151.278 27.96 150.131 27.64C149.011 27.32 147.731 27.16 146.291 27.16C145.331 27.16 144.384 27.32 143.451 27.64C142.544 27.96 141.731 28.48 141.011 29.2C140.318 29.8933 139.758 30.8 139.331 31.92C138.904 33.04 138.691 34.4 138.691 36C138.691 37.28 138.824 38.48 139.091 39.6C139.384 40.6933 139.838 41.64 140.451 42.44C141.091 43.24 141.918 43.88 142.931 44.36C143.944 44.8133 145.171 45.04 146.611 45.04C147.518 45.04 148.331 44.9867 149.051 44.88C149.771 44.7733 150.411 44.6533 150.971 44.52C151.531 44.36 152.024 44.1867 152.451 44C152.878 43.8133 153.264 43.64 153.611 43.48L155.331 48.48C154.451 49.0133 153.211 49.4933 151.611 49.92C150.011 50.3467 148.158 50.56 146.051 50.56ZM178.16 39.44C178.16 41.0933 177.92 42.6133 177.44 44C176.96 45.36 176.266 46.5333 175.36 47.52C174.453 48.48 173.36 49.2267 172.08 49.76C170.826 50.2933 169.413 50.56 167.84 50.56C166.293 50.56 164.88 50.2933 163.6 49.76C162.346 49.2267 161.266 48.48 160.36 47.52C159.453 46.5333 158.746 45.36 158.24 44C157.733 42.6133 157.48 41.0933 157.48 39.44C157.48 37.7867 157.733 36.28 158.24 34.92C158.773 33.56 159.493 32.4 160.4 31.44C161.333 30.48 162.426 29.7333 163.68 29.2C164.96 28.6667 166.346 28.4 167.84 28.4C169.36 28.4 170.746 28.6667 172 29.2C173.28 29.7333 174.373 30.48 175.28 31.44C176.186 32.4 176.893 33.56 177.4 34.92C177.906 36.28 178.16 37.7867 178.16 39.44ZM172.08 39.44C172.08 37.6 171.706 36.16 170.96 35.12C170.24 34.0533 169.2 33.52 167.84 33.52C166.48 33.52 165.426 34.0533 164.68 35.12C163.933 36.16 163.56 37.6 163.56 39.44C163.56 41.28 163.933 42.7467 164.68 43.84C165.426 44.9067 166.48 45.44 167.84 45.44C169.2 45.44 170.24 44.9067 170.96 43.84C171.706 42.7467 172.08 41.28 172.08 39.44ZM188.737 50H182.777V28.96H188.737V50ZM189.297 22.88C189.297 23.9733 188.937 24.84 188.217 25.48C187.523 26.0933 186.697 26.4 185.737 26.4C184.777 26.4 183.937 26.0933 183.217 25.48C182.523 24.84 182.177 23.9733 182.177 22.88C182.177 21.7867 182.523 20.9333 183.217 20.32C183.937 19.68 184.777 19.36 185.737 19.36C186.697 19.36 187.523 19.68 188.217 20.32C188.937 20.9333 189.297 21.7867 189.297 22.88ZM194.339 29.68C195.352 29.3867 196.659 29.12 198.259 28.88C199.859 28.6133 201.539 28.48 203.299 28.48C205.086 28.48 206.566 28.72 207.739 29.2C208.939 29.6533 209.886 30.3067 210.579 31.16C211.272 32.0133 211.766 33.0267 212.059 34.2C212.352 35.3733 212.499 36.68 212.499 38.12V50H206.539V38.84C206.539 36.92 206.286 35.56 205.779 34.76C205.272 33.96 204.326 33.56 202.939 33.56C202.512 33.56 202.059 33.5867 201.579 33.64C201.099 33.6667 200.672 33.7067 200.299 33.76V50H194.339V29.68Z" fill="#13164A"/>
<path d="M94.812 70.142C94.812 69.3113 94.9333 68.5787 95.176 67.944C95.428 67.3093 95.764 66.782 96.184 66.362C96.6133 65.9327 97.108 65.6107 97.668 65.396C98.2373 65.1813 98.8393 65.074 99.474 65.074C100.099 65.074 100.687 65.1813 101.238 65.396C101.798 65.6107 102.288 65.9327 102.708 66.362C103.128 66.782 103.459 67.3093 103.702 67.944C103.954 68.5787 104.08 69.3113 104.08 70.142C104.08 70.9727 103.954 71.7053 103.702 72.34C103.459 72.9747 103.128 73.5067 102.708 73.936C102.288 74.356 101.798 74.6733 101.238 74.888C100.687 75.1027 100.099 75.21 99.474 75.21C98.8393 75.21 98.2373 75.1027 97.668 74.888C97.108 74.6733 96.6133 74.356 96.184 73.936C95.764 73.5067 95.428 72.9747 95.176 72.34C94.9333 71.7053 94.812 70.9727 94.812 70.142ZM96.24 70.142C96.24 70.73 96.3147 71.2667 96.464 71.752C96.6133 72.228 96.8233 72.634 97.094 72.97C97.374 73.306 97.71 73.5673 98.102 73.754C98.5033 73.9313 98.9513 74.02 99.446 74.02C99.9407 74.02 100.384 73.9313 100.776 73.754C101.168 73.5673 101.499 73.306 101.77 72.97C102.05 72.634 102.265 72.228 102.414 71.752C102.563 71.2667 102.638 70.73 102.638 70.142C102.638 69.554 102.563 69.022 102.414 68.546C102.265 68.0607 102.05 67.65 101.77 67.314C101.499 66.978 101.168 66.7213 100.776 66.544C100.384 66.3573 99.9407 66.264 99.446 66.264C98.9513 66.264 98.5033 66.3573 98.102 66.544C97.71 66.7213 97.374 66.978 97.094 67.314C96.8233 67.65 96.6133 68.0607 96.464 68.546C96.3147 69.022 96.24 69.554 96.24 70.142ZM111.434 67.72V68.812H109.068V75H107.766V68.812H105.4V67.72H111.434ZM116.221 75.168C115.633 75.168 115.115 75.0747 114.667 74.888C114.228 74.7013 113.855 74.44 113.547 74.104C113.248 73.768 113.024 73.3713 112.875 72.914C112.726 72.4473 112.651 71.934 112.651 71.374C112.651 70.814 112.73 70.3007 112.889 69.834C113.057 69.3673 113.29 68.966 113.589 68.63C113.888 68.2847 114.252 68.0187 114.681 67.832C115.12 67.636 115.605 67.538 116.137 67.538C116.464 67.538 116.79 67.566 117.117 67.622C117.444 67.678 117.756 67.7667 118.055 67.888L117.761 68.994C117.565 68.9007 117.336 68.826 117.075 68.77C116.823 68.714 116.552 68.686 116.263 68.686C115.535 68.686 114.975 68.9147 114.583 69.372C114.2 69.8293 114.009 70.4967 114.009 71.374C114.009 71.766 114.051 72.1253 114.135 72.452C114.228 72.7787 114.368 73.0587 114.555 73.292C114.751 73.5253 114.998 73.7073 115.297 73.838C115.596 73.9593 115.96 74.02 116.389 74.02C116.734 74.02 117.047 73.9873 117.327 73.922C117.607 73.8567 117.826 73.7867 117.985 73.712L118.167 74.804C118.092 74.8507 117.985 74.8973 117.845 74.944C117.705 74.9813 117.546 75.014 117.369 75.042C117.192 75.0793 117 75.1073 116.795 75.126C116.599 75.154 116.408 75.168 116.221 75.168ZM122.639 68.812C122.639 69.12 122.629 69.4513 122.611 69.806C122.601 70.1513 122.578 70.5013 122.541 70.856C122.503 71.2013 122.452 71.5467 122.387 71.892C122.321 72.228 122.237 72.5453 122.135 72.844C122.032 73.1427 121.901 73.4227 121.743 73.684C121.593 73.9453 121.407 74.1787 121.183 74.384C120.959 74.58 120.697 74.748 120.399 74.888C120.1 75.0187 119.75 75.1027 119.349 75.14L119.167 74.048C119.624 73.9547 119.983 73.782 120.245 73.53C120.515 73.278 120.73 72.97 120.889 72.606C121.029 72.2887 121.131 71.9293 121.197 71.528C121.262 71.1267 121.309 70.7113 121.337 70.282C121.365 69.8433 121.379 69.4047 121.379 68.966C121.388 68.5273 121.393 68.112 121.393 67.72H126.237V75H124.935V68.812H122.639ZM128.346 71.374C128.346 70.73 128.439 70.17 128.626 69.694C128.812 69.2087 129.06 68.8073 129.368 68.49C129.676 68.1727 130.03 67.9347 130.432 67.776C130.833 67.6173 131.244 67.538 131.664 67.538C132.644 67.538 133.395 67.846 133.918 68.462C134.44 69.0687 134.702 69.9973 134.702 71.248C134.702 71.304 134.702 71.3787 134.702 71.472C134.702 71.556 134.697 71.6353 134.688 71.71H129.704C129.76 72.466 129.979 73.04 130.362 73.432C130.744 73.824 131.342 74.02 132.154 74.02C132.611 74.02 132.994 73.9827 133.302 73.908C133.619 73.824 133.857 73.7447 134.016 73.67L134.198 74.762C134.039 74.846 133.759 74.9347 133.358 75.028C132.966 75.1213 132.518 75.168 132.014 75.168C131.379 75.168 130.828 75.0747 130.362 74.888C129.904 74.692 129.526 74.426 129.228 74.09C128.929 73.754 128.705 73.3573 128.556 72.9C128.416 72.4333 128.346 71.9247 128.346 71.374ZM133.344 70.66C133.353 70.072 133.204 69.5913 132.896 69.218C132.597 68.8353 132.182 68.644 131.65 68.644C131.351 68.644 131.085 68.7047 130.852 68.826C130.628 68.938 130.436 69.0873 130.278 69.274C130.119 69.4607 129.993 69.6753 129.9 69.918C129.816 70.1607 129.76 70.408 129.732 70.66H133.344ZM145.826 67.72C145.639 67.9533 145.429 68.21 145.196 68.49C144.963 68.7607 144.72 69.0453 144.468 69.344C144.216 69.6333 143.959 69.9227 143.698 70.212C143.446 70.5013 143.203 70.7767 142.97 71.038C143.25 71.3087 143.539 71.6027 143.838 71.92C144.137 72.2373 144.426 72.5687 144.706 72.914C144.995 73.25 145.271 73.6 145.532 73.964C145.793 74.3187 146.022 74.664 146.218 75H144.762C144.566 74.692 144.337 74.37 144.076 74.034C143.824 73.6887 143.558 73.3573 143.278 73.04C143.007 72.7227 142.732 72.4287 142.452 72.158C142.181 71.878 141.929 71.6493 141.696 71.472V75H140.45V71.472C140.217 71.6493 139.96 71.878 139.68 72.158C139.409 72.4287 139.134 72.7227 138.854 73.04C138.583 73.3573 138.317 73.6887 138.056 74.034C137.804 74.37 137.58 74.692 137.384 75H135.942C136.138 74.664 136.362 74.3187 136.614 73.964C136.875 73.6093 137.146 73.264 137.426 72.928C137.715 72.5827 138.009 72.2513 138.308 71.934C138.607 71.6167 138.896 71.3227 139.176 71.052C138.943 70.7907 138.695 70.5153 138.434 70.226C138.182 69.9367 137.93 69.6473 137.678 69.358C137.426 69.0593 137.183 68.7747 136.95 68.504C136.717 68.224 136.502 67.9627 136.306 67.72H137.748C138.084 68.14 138.471 68.6067 138.91 69.12C139.349 69.6333 139.862 70.226 140.45 70.898V67.72H141.696V70.898C142.284 70.226 142.797 69.6333 143.236 69.12C143.675 68.6067 144.062 68.14 144.398 67.72H145.826ZM153.928 67.72V75H152.668V69.456C152.388 69.8107 152.08 70.226 151.744 70.702C151.408 71.178 151.072 71.6727 150.736 72.186C150.4 72.69 150.078 73.1893 149.77 73.684C149.462 74.1787 149.196 74.6173 148.972 75H147.81V67.72H149.07V72.956C149.312 72.5547 149.588 72.116 149.896 71.64C150.204 71.1547 150.521 70.6787 150.848 70.212C151.184 69.736 151.515 69.2833 151.842 68.854C152.178 68.4153 152.49 68.0373 152.78 67.72H153.928ZM157.717 74.02C157.773 74.0293 157.853 74.0387 157.955 74.048C158.058 74.0573 158.175 74.0667 158.305 74.076C158.436 74.076 158.571 74.0807 158.711 74.09C158.861 74.09 159.001 74.09 159.131 74.09C159.402 74.09 159.659 74.0713 159.901 74.034C160.153 73.9967 160.368 73.9313 160.545 73.838C160.732 73.7447 160.877 73.6233 160.979 73.474C161.091 73.3153 161.147 73.1147 161.147 72.872C161.147 72.6387 161.096 72.4473 160.993 72.298C160.9 72.1393 160.769 72.0133 160.601 71.92C160.433 71.8267 160.233 71.7613 159.999 71.724C159.775 71.6867 159.533 71.668 159.271 71.668H157.717V74.02ZM159.103 70.702C159.355 70.702 159.584 70.688 159.789 70.66C160.004 70.6227 160.186 70.562 160.335 70.478C160.494 70.394 160.615 70.282 160.699 70.142C160.793 70.002 160.839 69.8247 160.839 69.61C160.839 69.386 160.783 69.2087 160.671 69.078C160.559 68.9473 160.41 68.8493 160.223 68.784C160.046 68.7093 159.841 68.6627 159.607 68.644C159.383 68.616 159.155 68.602 158.921 68.602C158.707 68.602 158.487 68.6067 158.263 68.616C158.049 68.6253 157.867 68.6347 157.717 68.644V70.702H159.103ZM159.075 75.126C158.525 75.126 158.016 75.098 157.549 75.042C157.083 74.9953 156.714 74.9393 156.443 74.874V67.79C156.714 67.7247 157.083 67.6687 157.549 67.622C158.016 67.566 158.525 67.538 159.075 67.538C159.458 67.538 159.831 67.5707 160.195 67.636C160.559 67.7013 160.881 67.8133 161.161 67.972C161.441 68.1213 161.665 68.3313 161.833 68.602C162.011 68.8633 162.099 69.19 162.099 69.582C162.099 69.9367 162.011 70.24 161.833 70.492C161.656 70.744 161.418 70.94 161.119 71.08C161.521 71.22 161.838 71.43 162.071 71.71C162.314 71.9807 162.435 72.3633 162.435 72.858C162.435 73.2967 162.347 73.6607 162.169 73.95C162.001 74.2393 161.763 74.4727 161.455 74.65C161.157 74.8273 160.802 74.9487 160.391 75.014C159.981 75.0887 159.542 75.126 159.075 75.126ZM166.857 74.062C167.165 74.062 167.436 74.0573 167.669 74.048C167.912 74.0293 168.113 74.0013 168.271 73.964V71.794C168.178 71.7473 168.024 71.71 167.809 71.682C167.604 71.6447 167.352 71.626 167.053 71.626C166.857 71.626 166.647 71.64 166.423 71.668C166.209 71.696 166.008 71.7567 165.821 71.85C165.644 71.934 165.495 72.0553 165.373 72.214C165.252 72.3633 165.191 72.564 165.191 72.816C165.191 73.2827 165.341 73.6093 165.639 73.796C165.938 73.9733 166.344 74.062 166.857 74.062ZM166.745 67.538C167.268 67.538 167.707 67.608 168.061 67.748C168.425 67.8787 168.715 68.07 168.929 68.322C169.153 68.5647 169.312 68.8587 169.405 69.204C169.499 69.54 169.545 69.9133 169.545 70.324V74.874C169.433 74.8927 169.275 74.9207 169.069 74.958C168.873 74.986 168.649 75.014 168.397 75.042C168.145 75.07 167.87 75.0933 167.571 75.112C167.282 75.14 166.993 75.154 166.703 75.154C166.293 75.154 165.915 75.112 165.569 75.028C165.224 74.944 164.925 74.8133 164.673 74.636C164.421 74.4493 164.225 74.2067 164.085 73.908C163.945 73.6093 163.875 73.25 163.875 72.83C163.875 72.4287 163.955 72.0833 164.113 71.794C164.281 71.5047 164.505 71.2713 164.785 71.094C165.065 70.9167 165.392 70.786 165.765 70.702C166.139 70.618 166.531 70.576 166.941 70.576C167.072 70.576 167.207 70.5853 167.347 70.604C167.487 70.6133 167.618 70.632 167.739 70.66C167.87 70.6787 167.982 70.6973 168.075 70.716C168.169 70.7347 168.234 70.7487 168.271 70.758V70.394C168.271 70.1793 168.248 69.9693 168.201 69.764C168.155 69.5493 168.071 69.3627 167.949 69.204C167.828 69.036 167.66 68.9053 167.445 68.812C167.24 68.7093 166.969 68.658 166.633 68.658C166.204 68.658 165.826 68.6907 165.499 68.756C165.182 68.812 164.944 68.8727 164.785 68.938L164.631 67.86C164.799 67.7853 165.079 67.7153 165.471 67.65C165.863 67.5753 166.288 67.538 166.745 67.538ZM177.952 75H176.65V71.78H173.29V75H171.988V67.72H173.29V70.688H176.65V67.72H177.952V75ZM186.589 67.72V75H185.329V69.456C185.049 69.8107 184.741 70.226 184.405 70.702C184.069 71.178 183.733 71.6727 183.397 72.186C183.061 72.69 182.739 73.1893 182.431 73.684C182.123 74.1787 181.857 74.6173 181.633 75H180.471V67.72H181.731V72.956C181.973 72.5547 182.249 72.116 182.557 71.64C182.865 71.1547 183.182 70.6787 183.509 70.212C183.845 69.736 184.176 69.2833 184.503 68.854C184.839 68.4153 185.151 68.0373 185.441 67.72H186.589ZM188.698 71.374C188.698 70.73 188.792 70.17 188.978 69.694C189.165 69.2087 189.412 68.8073 189.72 68.49C190.028 68.1727 190.383 67.9347 190.784 67.776C191.186 67.6173 191.596 67.538 192.016 67.538C192.996 67.538 193.748 67.846 194.27 68.462C194.793 69.0687 195.054 69.9973 195.054 71.248C195.054 71.304 195.054 71.3787 195.054 71.472C195.054 71.556 195.05 71.6353 195.04 71.71H190.056C190.112 72.466 190.332 73.04 190.714 73.432C191.097 73.824 191.694 74.02 192.506 74.02C192.964 74.02 193.346 73.9827 193.654 73.908C193.972 73.824 194.21 73.7447 194.368 73.67L194.55 74.762C194.392 74.846 194.112 74.9347 193.71 75.028C193.318 75.1213 192.87 75.168 192.366 75.168C191.732 75.168 191.181 75.0747 190.714 74.888C190.257 74.692 189.879 74.426 189.58 74.09C189.282 73.754 189.058 73.3573 188.908 72.9C188.768 72.4333 188.698 71.9247 188.698 71.374ZM193.696 70.66C193.706 70.072 193.556 69.5913 193.248 69.218C192.95 68.8353 192.534 68.644 192.002 68.644C191.704 68.644 191.438 68.7047 191.204 68.826C190.98 68.938 190.789 69.0873 190.63 69.274C190.472 69.4607 190.346 69.6753 190.252 69.918C190.168 70.1607 190.112 70.408 190.084 70.66H193.696ZM201.901 68.56C202.19 68.3267 202.526 68.1493 202.909 68.028C203.301 67.8973 203.674 67.832 204.029 67.832C205.074 67.832 205.863 68.154 206.395 68.798C206.936 69.4327 207.207 70.3193 207.207 71.458C207.207 71.9433 207.142 72.41 207.011 72.858C206.88 73.306 206.675 73.7027 206.395 74.048C206.124 74.3933 205.779 74.6687 205.359 74.874C204.939 75.0793 204.44 75.182 203.861 75.182C203.198 75.182 202.648 75.0607 202.209 74.818C201.77 74.5753 201.42 74.244 201.159 73.824C200.907 73.404 200.73 72.914 200.627 72.354C200.524 71.794 200.473 71.2013 200.473 70.576C200.473 69.764 200.529 69.008 200.641 68.308C200.762 67.608 200.977 66.992 201.285 66.46C201.593 65.928 202.018 65.4893 202.559 65.144C203.11 64.7893 203.814 64.5513 204.673 64.43C204.925 64.3927 205.144 64.3647 205.331 64.346C205.527 64.318 205.695 64.2947 205.835 64.276C205.984 64.2573 206.12 64.2387 206.241 64.22C206.362 64.192 206.488 64.164 206.619 64.136L206.759 65.312C206.694 65.3307 206.624 65.3447 206.549 65.354C206.484 65.3633 206.386 65.3773 206.255 65.396C206.134 65.4147 205.966 65.438 205.751 65.466C205.546 65.494 205.275 65.5267 204.939 65.564C204.015 65.6667 203.306 65.9467 202.811 66.404C202.316 66.8613 202.013 67.58 201.901 68.56ZM201.817 70.786C201.817 71.2247 201.845 71.64 201.901 72.032C201.966 72.424 202.074 72.7693 202.223 73.068C202.382 73.3667 202.592 73.6047 202.853 73.782C203.114 73.95 203.45 74.034 203.861 74.034C204.216 74.034 204.519 73.9687 204.771 73.838C205.023 73.698 205.228 73.5113 205.387 73.278C205.546 73.0447 205.662 72.774 205.737 72.466C205.812 72.1487 205.849 71.8127 205.849 71.458C205.849 71.1407 205.816 70.8327 205.751 70.534C205.695 70.2353 205.588 69.9693 205.429 69.736C205.27 69.5027 205.056 69.316 204.785 69.176C204.524 69.036 204.192 68.966 203.791 68.966C203.399 68.966 203.021 69.05 202.657 69.218C202.302 69.386 202.027 69.5913 201.831 69.834C201.822 69.9367 201.817 70.0813 201.817 70.268C201.817 70.4547 201.817 70.6273 201.817 70.786ZM210.633 70.73H212.229C212.285 70.2447 212.406 69.806 212.593 69.414C212.789 69.022 213.032 68.686 213.321 68.406C213.61 68.126 213.942 67.9113 214.315 67.762C214.688 67.6127 215.09 67.538 215.519 67.538C215.995 67.538 216.434 67.6313 216.835 67.818C217.246 67.9953 217.6 68.252 217.899 68.588C218.198 68.924 218.431 69.33 218.599 69.806C218.767 70.2727 218.851 70.7907 218.851 71.36C218.851 71.9387 218.767 72.4613 218.599 72.928C218.431 73.3947 218.198 73.796 217.899 74.132C217.6 74.468 217.246 74.7293 216.835 74.916C216.434 75.0933 215.995 75.182 215.519 75.182C215.071 75.182 214.651 75.1027 214.259 74.944C213.876 74.776 213.54 74.5473 213.251 74.258C212.962 73.9593 212.724 73.6 212.537 73.18C212.36 72.76 212.252 72.2933 212.215 71.78H210.633V75H209.331V67.72H210.633V70.73ZM217.507 71.36C217.507 70.5387 217.325 69.89 216.961 69.414C216.606 68.9287 216.126 68.686 215.519 68.686C214.912 68.686 214.427 68.9287 214.063 69.414C213.708 69.89 213.531 70.5387 213.531 71.36C213.531 72.1813 213.708 72.8347 214.063 73.32C214.427 73.796 214.912 74.034 215.519 74.034C216.126 74.034 216.606 73.796 216.961 73.32C217.325 72.8347 217.507 72.1813 217.507 71.36ZM220.063 73.936H220.847C221.155 73.488 221.397 73.026 221.575 72.55C221.761 72.074 221.901 71.584 221.995 71.08C222.088 70.5667 222.149 70.0347 222.177 69.484C222.205 68.924 222.223 68.336 222.233 67.72H227.007V73.936H227.987V77.03H226.755V75H221.295V77.03H220.063V73.936ZM225.705 73.936V68.812H223.423C223.413 69.2507 223.39 69.694 223.353 70.142C223.315 70.5807 223.255 71.0193 223.171 71.458C223.087 71.8873 222.965 72.312 222.807 72.732C222.657 73.1427 222.466 73.544 222.233 73.936H225.705ZM238.922 67.72C238.735 67.9533 238.525 68.21 238.292 68.49C238.058 68.7607 237.816 69.0453 237.564 69.344C237.312 69.6333 237.055 69.9227 236.794 70.212C236.542 70.5013 236.299 70.7767 236.066 71.038C236.346 71.3087 236.635 71.6027 236.934 71.92C237.232 72.2373 237.522 72.5687 237.802 72.914C238.091 73.25 238.366 73.6 238.628 73.964C238.889 74.3187 239.118 74.664 239.314 75H237.858C237.662 74.692 237.433 74.37 237.172 74.034C236.92 73.6887 236.654 73.3573 236.374 73.04C236.103 72.7227 235.828 72.4287 235.548 72.158C235.277 71.878 235.025 71.6493 234.792 71.472V75H233.546V71.472C233.312 71.6493 233.056 71.878 232.776 72.158C232.505 72.4287 232.23 72.7227 231.95 73.04C231.679 73.3573 231.413 73.6887 231.152 74.034C230.9 74.37 230.676 74.692 230.48 75H229.038C229.234 74.664 229.458 74.3187 229.71 73.964C229.971 73.6093 230.242 73.264 230.522 72.928C230.811 72.5827 231.105 72.2513 231.404 71.934C231.702 71.6167 231.992 71.3227 232.272 71.052C232.038 70.7907 231.791 70.5153 231.53 70.226C231.278 69.9367 231.026 69.6473 230.774 69.358C230.522 69.0593 230.279 68.7747 230.046 68.504C229.812 68.224 229.598 67.9627 229.402 67.72H230.844C231.18 68.14 231.567 68.6067 232.006 69.12C232.444 69.6333 232.958 70.226 233.546 70.898V67.72H234.792V70.898C235.38 70.226 235.893 69.6333 236.332 69.12C236.77 68.6067 237.158 68.14 237.494 67.72H238.922ZM240.13 71.374C240.13 70.73 240.224 70.17 240.41 69.694C240.597 69.2087 240.844 68.8073 241.152 68.49C241.46 68.1727 241.815 67.9347 242.216 67.776C242.618 67.6173 243.028 67.538 243.448 67.538C244.428 67.538 245.18 67.846 245.702 68.462C246.225 69.0687 246.486 69.9973 246.486 71.248C246.486 71.304 246.486 71.3787 246.486 71.472C246.486 71.556 246.482 71.6353 246.472 71.71H241.488C241.544 72.466 241.764 73.04 242.146 73.432C242.529 73.824 243.126 74.02 243.938 74.02C244.396 74.02 244.778 73.9827 245.086 73.908C245.404 73.824 245.642 73.7447 245.8 73.67L245.982 74.762C245.824 74.846 245.544 74.9347 245.142 75.028C244.75 75.1213 244.302 75.168 243.798 75.168C243.164 75.168 242.613 75.0747 242.146 74.888C241.689 74.692 241.311 74.426 241.012 74.09C240.714 73.754 240.49 73.3573 240.34 72.9C240.2 72.4333 240.13 71.9247 240.13 71.374ZM245.128 70.66C245.138 70.072 244.988 69.5913 244.68 69.218C244.382 68.8353 243.966 68.644 243.434 68.644C243.136 68.644 242.87 68.7047 242.636 68.826C242.412 68.938 242.221 69.0873 242.062 69.274C241.904 69.4607 241.778 69.6753 241.684 69.918C241.6 70.1607 241.544 70.408 241.516 70.66H245.128ZM253.775 67.72V68.812H251.409V75H250.107V68.812H247.741V67.72H253.775ZM257.861 74.062C258.169 74.062 258.44 74.0573 258.673 74.048C258.916 74.0293 259.116 74.0013 259.275 73.964V71.794C259.182 71.7473 259.028 71.71 258.813 71.682C258.608 71.6447 258.356 71.626 258.057 71.626C257.861 71.626 257.651 71.64 257.427 71.668C257.212 71.696 257.012 71.7567 256.825 71.85C256.648 71.934 256.498 72.0553 256.377 72.214C256.256 72.3633 256.195 72.564 256.195 72.816C256.195 73.2827 256.344 73.6093 256.643 73.796C256.942 73.9733 257.348 74.062 257.861 74.062ZM257.749 67.538C258.272 67.538 258.71 67.608 259.065 67.748C259.429 67.8787 259.718 68.07 259.933 68.322C260.157 68.5647 260.316 68.8587 260.409 69.204C260.502 69.54 260.549 69.9133 260.549 70.324V74.874C260.437 74.8927 260.278 74.9207 260.073 74.958C259.877 74.986 259.653 75.014 259.401 75.042C259.149 75.07 258.874 75.0933 258.575 75.112C258.286 75.14 257.996 75.154 257.707 75.154C257.296 75.154 256.918 75.112 256.573 75.028C256.228 74.944 255.929 74.8133 255.677 74.636C255.425 74.4493 255.229 74.2067 255.089 73.908C254.949 73.6093 254.879 73.25 254.879 72.83C254.879 72.4287 254.958 72.0833 255.117 71.794C255.285 71.5047 255.509 71.2713 255.789 71.094C256.069 70.9167 256.396 70.786 256.769 70.702C257.142 70.618 257.534 70.576 257.945 70.576C258.076 70.576 258.211 70.5853 258.351 70.604C258.491 70.6133 258.622 70.632 258.743 70.66C258.874 70.6787 258.986 70.6973 259.079 70.716C259.172 70.7347 259.238 70.7487 259.275 70.758V70.394C259.275 70.1793 259.252 69.9693 259.205 69.764C259.158 69.5493 259.074 69.3627 258.953 69.204C258.832 69.036 258.664 68.9053 258.449 68.812C258.244 68.7093 257.973 68.658 257.637 68.658C257.208 68.658 256.83 68.6907 256.503 68.756C256.186 68.812 255.948 68.8727 255.789 68.938L255.635 67.86C255.803 67.7853 256.083 67.7153 256.475 67.65C256.867 67.5753 257.292 67.538 257.749 67.538Z" fill="#13164A"/>
<defs>
<clipPath id="clip0_1717_10056">
<rect width="80" height="80" fill="white" transform="translate(2 2)"/>
</clipPath>
</defs>
</svg>
