<svg width="377" height="82" viewBox="0 0 377 82" fill="none" xmlns="http://www.w3.org/2000/svg">
<g clip-path="url(#clip0_1717_10088)">
<path d="M1 41C1 18.9086 18.9086 1 41 1C63.0914 1 81 18.9086 81 41C81 63.0914 63.0914 81 41 81C18.9086 81 1 63.0914 1 41Z" fill="#DCF0DB"/>
<mask id="mask0_1717_10088" style="mask-type:luminance" maskUnits="userSpaceOnUse" x="1" y="1" width="80" height="80">
<path d="M1 41C1 18.9086 18.9086 1 41 1C63.0914 1 81 18.9086 81 41C81 63.0914 63.0914 81 41 81C18.9086 81 1 63.0914 1 41Z" fill="white"/>
</mask>
<g mask="url(#mask0_1717_10088)">
<path d="M7.63623 45.9739C7.63623 26.8525 22.6775 11.3772 41.2007 11.3772C59.7241 11.3772 74.7653 26.8525 74.7653 45.9739C74.7653 65.0952 59.7241 80.5707 41.2007 80.5707C22.6775 80.5707 7.63623 65.0952 7.63623 45.9739Z" fill="#FBCD5B" stroke="#13164A"/>
<path d="M31.0237 26.4617C33.6157 28.2176 34.2577 32.6101 32.0163 34.4406C29.7257 36.3112 24.5257 36.6016 22.8158 33.4098C21.6705 31.2719 23.0067 28.1415 24.801 26.7671C26.5953 25.3928 28.6568 24.8583 31.0237 26.4617Z" fill="#13164A"/>
<path d="M48.6698 35.1647C49.7046 37.718 55.0342 38.328 56.9598 36.7702C59.5343 34.6881 59.1937 31.2055 57.7929 29.1992C56.3921 27.1928 53.1766 26.1741 50.7962 28.0725C48.4391 29.9524 47.4471 32.1487 48.6698 35.1647Z" fill="#13164A"/>
<path d="M28.7313 30.3727C29.7131 29.9703 31.0103 30.6968 31.0501 31.6124C31.0899 32.528 30.6372 33.8178 29.0933 33.9585C28.0111 34.0571 27.1886 33.3242 27.2284 32.2891C27.2682 31.2541 27.7495 30.7751 28.7313 30.3727Z" fill="white"/>
<path d="M28.6618 27.5519C29.2229 27.0042 29.8698 27.6374 29.937 28.0742C30.0042 28.5111 29.5841 29.1663 29.0801 29.0487C28.576 28.9311 27.9747 28.2225 28.6618 27.5519Z" fill="white"/>
<path d="M25.3165 28.5951C25.8868 27.9762 26.8622 28.2926 27.0639 28.9815C27.2655 29.6703 27.0134 30.1408 26.2574 30.2584C25.5013 30.376 24.5268 29.4519 25.3165 28.5951Z" fill="white"/>
<path d="M50.781 33.3775C50.9028 32.0204 52.0873 31.3301 53.2843 31.6974C54.763 32.151 54.9968 33.1071 54.6453 34.3856C54.4605 35.0577 53.3348 35.6121 52.3939 35.3097C51.5449 35.0368 50.6803 34.5032 50.781 33.3775Z" fill="white"/>
<path d="M55.3508 29.7149C56.0399 29.4728 56.8461 29.9165 56.8631 30.5717C56.8796 31.227 56.1405 32.4535 55.452 31.8151C54.763 31.1766 54.7294 29.9333 55.3508 29.7149Z" fill="white"/>
<path d="M52.1587 29.4796C52.6547 29.0459 53.671 29.3452 53.5198 30.0005C53.3686 30.6558 52.8648 31.1262 52.31 30.8238C51.7556 30.5214 51.7556 29.8325 52.1587 29.4796Z" fill="white"/>
<path d="M30.9565 17.22C31.4819 16.6946 32.1051 16.2689 32.7398 15.8826C35.5871 14.1494 32.3766 18.7596 33.6314 18.4459C34.4225 18.2482 36.7609 15.5527 37.6436 15.9941C38.1051 16.2248 36.8927 20.5225 37.4207 20.7864C37.9195 21.0359 39.0593 19.0729 39.3154 18.7803C40.4899 17.438 41.8191 16.0238 43.439 15.2139" stroke="#13164A" stroke-miterlimit="10" stroke-linecap="round" stroke-linejoin="round"/>
<path d="M47.6567 15.9119C49.4349 15.5967 51.4867 16.0146 53 17.0001C54 17.5001 55.4826 19.3124 55.8415 19.2013C56.2828 19.0648 55.5742 17.6575 55.489 17.4192C55.1055 16.347 54.8345 14.9523 55.2211 13.8193C55.7718 12.2029 59.5 13.5 60.5703 14.7016" stroke="#13164A" stroke-miterlimit="10" stroke-linecap="round" stroke-linejoin="round"/>
<path d="M33.0679 8.33389C33.9949 6.57559 37.7475 5.66535 39.741 6.4176C40.1019 6.55381 40.6994 6.84754 41.0354 7.06209C41.2761 7.21585 41.5327 7.83407 41.7004 7.60274C41.9894 7.20408 40.7948 5.51355 40.5952 5.15778C40.5564 5.08867 40.4547 4.96728 40.5249 4.93069C41.186 4.58653 45.1412 7.19933 45.7554 7.84057" stroke="#13164A" stroke-miterlimit="10" stroke-linecap="round" stroke-linejoin="round"/>
<path d="M50.643 9.90085C52.0743 8.94356 53.8061 8.33307 55.5316 8.61811" stroke="#13164A" stroke-miterlimit="10" stroke-linecap="round" stroke-linejoin="round"/>
<path d="M42.9691 43.0253C41.6593 43.4377 40.5639 43.6767 38.6356 43.4795C38.0999 43.4243 37.9834 44.2047 38.2185 44.696C38.8241 45.961 41.2744 45.5497 42.6775 44.6475C43.5203 44.1056 44.0674 42.6795 42.9691 43.0253Z" stroke="#13164A" stroke-miterlimit="10" stroke-linecap="round" stroke-linejoin="round"/>
<path d="M42.633 74.8536C42.5924 74.8498 42.5572 74.8464 42.5277 74.8434L27.6359 65.327C27.9933 65.0612 28.501 64.6824 29.1201 64.2175C30.3867 63.2664 32.1201 61.9544 33.9872 60.5113C37.7117 57.6324 41.9984 54.2083 44.1544 52.0907C46.288 49.9953 47.756 48.5083 48.6915 47.5442C49.1593 47.0621 49.4939 46.7108 49.7121 46.4794C49.7291 46.4614 49.7453 46.4442 49.7609 46.4276C49.7698 46.433 49.7789 46.4385 49.7881 46.4442C50.022 46.5866 50.3629 46.8074 50.7806 47.1155C51.6162 47.7319 52.7587 48.6972 53.9685 50.084C56.3854 52.8543 59.0803 57.3162 60.1301 64.0647C60.642 67.3556 59.7997 69.616 58.3058 71.1958C56.7896 72.7992 54.5492 73.7574 52.177 74.3084C49.8123 74.8577 47.3714 74.9899 45.5135 74.9828C44.5865 74.9793 43.8089 74.9412 43.2642 74.904C42.9919 74.8855 42.778 74.8672 42.633 74.8536Z" fill="#AED6AD" stroke="#13164A"/>
<path d="M47.2874 68.7465C47.3009 68.7705 47.3132 68.7924 47.3244 68.8123L44.9663 85.0966L4.24568 79.5372L-5.51751 40.4844C-5.24493 40.6254 -4.92028 40.7905 -4.54783 40.975C-3.29299 41.5964 -1.49442 42.4378 0.684634 43.32C5.03833 45.0827 10.9311 47.0167 17.0506 47.6752L17.1041 47.1781L17.0506 47.6752C27.1221 48.7588 34.7072 54.0653 39.788 59.1272C42.3269 61.6568 44.2336 64.1187 45.5049 65.9473C46.1403 66.8613 46.6164 67.6162 46.9328 68.141C47.091 68.4034 47.2092 68.6082 47.2874 68.7465Z" fill="#B8E3B7" stroke="#13164A"/>
<path d="M77.3643 83.3433C77.226 83.6089 77.1161 83.8175 77.0396 83.9619L37.2561 87.9475C37.2446 87.8086 37.2318 87.6419 37.2185 87.4495C37.1741 86.8074 37.1249 85.8787 37.1058 84.7368C37.0676 82.4519 37.1503 79.3197 37.6322 75.9272C38.6002 69.1134 41.1588 61.386 47.4282 57.2539C52.3233 54.0278 56.8295 52.4971 61.0157 51.0751C62.3088 50.6358 63.5713 50.207 64.8054 49.7417C69.9053 47.8189 74.405 45.2972 78.1846 38.8998C82.1884 42.2946 83.8098 45.4808 84.5981 48.5732C85.0105 50.1906 85.1976 51.7925 85.3698 53.4195C85.3836 53.5507 85.3974 53.682 85.4112 53.8136C85.5677 55.3048 85.7269 56.8216 86.0558 58.3462C86.3777 59.8393 86.0156 62.1813 85.2203 64.9405C84.4329 67.6723 83.2496 70.7212 82.0171 73.5794C80.7855 76.4356 79.5095 79.0907 78.5411 81.0324C78.057 82.0029 77.65 82.7946 77.3643 83.3433Z" fill="#C6F0C5" stroke="#13164A"/>
</g>
<path d="M14.5267 48.1796L14.5268 48.182C14.5507 48.509 14.4687 48.8668 14.806 49.6366C15.1724 50.4729 17.8376 53.4596 20.4676 53.7879C23.0975 54.1163 25.134 52.4458 25.5221 52.0899C25.9102 51.7339 26.8683 50.8027 27.0028 50.465C27.2585 49.8227 27.211 49.5318 27.0035 49.0581C26.7959 48.5843 26.2624 46.5179 20.2823 45.5846C14.3146 44.6532 14.503 47.7863 14.5267 48.1796Z" fill="#F7C23F" stroke="#13164A"/>
<path d="M60.8188 47.7089C58.5554 48.5408 57.7817 49.6803 57.6751 50.5462C57.6273 50.9352 57.7155 51.6442 58.5235 52.5297C59.3316 53.4152 61.4383 53.9797 62.3927 54.3191C63.3471 54.6585 64.8171 54.6342 65.6239 54.4322C66.4306 54.2303 67.6387 53.4668 68.6156 52.4741C69.5924 51.4815 69.8907 50.0561 69.6887 49.2493C69.4868 48.4425 68.7623 47.2449 67.6728 46.7857C66.5832 46.3265 63.6481 46.669 60.8188 47.7089Z" fill="#F7C23F" stroke="#13164A"/>
</g>
<circle cx="41" cy="41" r="40.5" stroke="#13164A"/>
<path d="M96.2 21.28H102.44V49H96.2V21.28ZM108.456 28.68C109.47 28.3867 110.776 28.12 112.376 27.88C113.976 27.6133 115.656 27.48 117.416 27.48C119.203 27.48 120.683 27.72 121.856 28.2C123.056 28.6533 124.003 29.3067 124.696 30.16C125.39 31.0133 125.883 32.0267 126.176 33.2C126.47 34.3733 126.616 35.68 126.616 37.12V49H120.656V37.84C120.656 35.92 120.403 34.56 119.896 33.76C119.39 32.96 118.443 32.56 117.056 32.56C116.63 32.56 116.176 32.5867 115.696 32.64C115.216 32.6667 114.79 32.7067 114.416 32.76V49H108.456V28.68ZM145.051 49.56C140.544 49.56 137.104 48.3067 134.731 45.8C132.384 43.2933 131.211 39.7333 131.211 35.12C131.211 32.8267 131.571 30.7867 132.291 29C133.011 27.1867 133.998 25.6667 135.251 24.44C136.504 23.1867 137.998 22.24 139.731 21.6C141.464 20.96 143.344 20.64 145.371 20.64C146.544 20.64 147.611 20.7333 148.571 20.92C149.531 21.08 150.371 21.28 151.091 21.52C151.811 21.7333 152.411 21.96 152.891 22.2C153.371 22.44 153.718 22.6267 153.931 22.76L152.131 27.8C151.278 27.3467 150.278 26.96 149.131 26.64C148.011 26.32 146.731 26.16 145.291 26.16C144.331 26.16 143.384 26.32 142.451 26.64C141.544 26.96 140.731 27.48 140.011 28.2C139.318 28.8933 138.758 29.8 138.331 30.92C137.904 32.04 137.691 33.4 137.691 35C137.691 36.28 137.824 37.48 138.091 38.6C138.384 39.6933 138.838 40.64 139.451 41.44C140.091 42.24 140.918 42.88 141.931 43.36C142.944 43.8133 144.171 44.04 145.611 44.04C146.518 44.04 147.331 43.9867 148.051 43.88C148.771 43.7733 149.411 43.6533 149.971 43.52C150.531 43.36 151.024 43.1867 151.451 43C151.878 42.8133 152.264 42.64 152.611 42.48L154.331 47.48C153.451 48.0133 152.211 48.4933 150.611 48.92C149.011 49.3467 147.158 49.56 145.051 49.56ZM177.16 38.44C177.16 40.0933 176.92 41.6133 176.44 43C175.96 44.36 175.266 45.5333 174.36 46.52C173.453 47.48 172.36 48.2267 171.08 48.76C169.826 49.2933 168.413 49.56 166.84 49.56C165.293 49.56 163.88 49.2933 162.6 48.76C161.346 48.2267 160.266 47.48 159.36 46.52C158.453 45.5333 157.746 44.36 157.24 43C156.733 41.6133 156.48 40.0933 156.48 38.44C156.48 36.7867 156.733 35.28 157.24 33.92C157.773 32.56 158.493 31.4 159.4 30.44C160.333 29.48 161.426 28.7333 162.68 28.2C163.96 27.6667 165.346 27.4 166.84 27.4C168.36 27.4 169.746 27.6667 171 28.2C172.28 28.7333 173.373 29.48 174.28 30.44C175.186 31.4 175.893 32.56 176.4 33.92C176.906 35.28 177.16 36.7867 177.16 38.44ZM171.08 38.44C171.08 36.6 170.706 35.16 169.96 34.12C169.24 33.0533 168.2 32.52 166.84 32.52C165.48 32.52 164.426 33.0533 163.68 34.12C162.933 35.16 162.56 36.6 162.56 38.44C162.56 40.28 162.933 41.7467 163.68 42.84C164.426 43.9067 165.48 44.44 166.84 44.44C168.2 44.44 169.24 43.9067 169.96 42.84C170.706 41.7467 171.08 40.28 171.08 38.44ZM187.737 49H181.777V27.96H187.737V49ZM188.297 21.88C188.297 22.9733 187.937 23.84 187.217 24.48C186.523 25.0933 185.697 25.4 184.737 25.4C183.777 25.4 182.937 25.0933 182.217 24.48C181.523 23.84 181.177 22.9733 181.177 21.88C181.177 20.7867 181.523 19.9333 182.217 19.32C182.937 18.68 183.777 18.36 184.737 18.36C185.697 18.36 186.523 18.68 187.217 19.32C187.937 19.9333 188.297 20.7867 188.297 21.88ZM193.339 28.68C194.352 28.3867 195.659 28.12 197.259 27.88C198.859 27.6133 200.539 27.48 202.299 27.48C204.086 27.48 205.566 27.72 206.739 28.2C207.939 28.6533 208.886 29.3067 209.579 30.16C210.272 31.0133 210.766 32.0267 211.059 33.2C211.352 34.3733 211.499 35.68 211.499 37.12V49H205.539V37.84C205.539 35.92 205.286 34.56 204.779 33.76C204.272 32.96 203.326 32.56 201.939 32.56C201.512 32.56 201.059 32.5867 200.579 32.64C200.099 32.6667 199.672 32.7067 199.299 32.76V49H193.339V28.68Z" fill="#13164A"/>
<path d="M93.812 69.142C93.812 68.3113 93.9333 67.5787 94.176 66.944C94.428 66.3093 94.764 65.782 95.184 65.362C95.6133 64.9327 96.108 64.6107 96.668 64.396C97.2373 64.1813 97.8393 64.074 98.474 64.074C99.0993 64.074 99.6873 64.1813 100.238 64.396C100.798 64.6107 101.288 64.9327 101.708 65.362C102.128 65.782 102.459 66.3093 102.702 66.944C102.954 67.5787 103.08 68.3113 103.08 69.142C103.08 69.9727 102.954 70.7053 102.702 71.34C102.459 71.9747 102.128 72.5067 101.708 72.936C101.288 73.356 100.798 73.6733 100.238 73.888C99.6873 74.1027 99.0993 74.21 98.474 74.21C97.8393 74.21 97.2373 74.1027 96.668 73.888C96.108 73.6733 95.6133 73.356 95.184 72.936C94.764 72.5067 94.428 71.9747 94.176 71.34C93.9333 70.7053 93.812 69.9727 93.812 69.142ZM95.24 69.142C95.24 69.73 95.3147 70.2667 95.464 70.752C95.6133 71.228 95.8233 71.634 96.094 71.97C96.374 72.306 96.71 72.5673 97.102 72.754C97.5033 72.9313 97.9513 73.02 98.446 73.02C98.9407 73.02 99.384 72.9313 99.776 72.754C100.168 72.5673 100.499 72.306 100.77 71.97C101.05 71.634 101.265 71.228 101.414 70.752C101.563 70.2667 101.638 69.73 101.638 69.142C101.638 68.554 101.563 68.022 101.414 67.546C101.265 67.0607 101.05 66.65 100.77 66.314C100.499 65.978 100.168 65.7213 99.776 65.544C99.384 65.3573 98.9407 65.264 98.446 65.264C97.9513 65.264 97.5033 65.3573 97.102 65.544C96.71 65.7213 96.374 65.978 96.094 66.314C95.8233 66.65 95.6133 67.0607 95.464 67.546C95.3147 68.022 95.24 68.554 95.24 69.142ZM110.434 66.72V67.812H108.068V74H106.766V67.812H104.4V66.72H110.434ZM115.221 74.168C114.633 74.168 114.115 74.0747 113.667 73.888C113.228 73.7013 112.855 73.44 112.547 73.104C112.248 72.768 112.024 72.3713 111.875 71.914C111.726 71.4473 111.651 70.934 111.651 70.374C111.651 69.814 111.73 69.3007 111.889 68.834C112.057 68.3673 112.29 67.966 112.589 67.63C112.888 67.2847 113.252 67.0187 113.681 66.832C114.12 66.636 114.605 66.538 115.137 66.538C115.464 66.538 115.79 66.566 116.117 66.622C116.444 66.678 116.756 66.7667 117.055 66.888L116.761 67.994C116.565 67.9007 116.336 67.826 116.075 67.77C115.823 67.714 115.552 67.686 115.263 67.686C114.535 67.686 113.975 67.9147 113.583 68.372C113.2 68.8293 113.009 69.4967 113.009 70.374C113.009 70.766 113.051 71.1253 113.135 71.452C113.228 71.7787 113.368 72.0587 113.555 72.292C113.751 72.5253 113.998 72.7073 114.297 72.838C114.596 72.9593 114.96 73.02 115.389 73.02C115.734 73.02 116.047 72.9873 116.327 72.922C116.607 72.8567 116.826 72.7867 116.985 72.712L117.167 73.804C117.092 73.8507 116.985 73.8973 116.845 73.944C116.705 73.9813 116.546 74.014 116.369 74.042C116.192 74.0793 116 74.1073 115.795 74.126C115.599 74.154 115.408 74.168 115.221 74.168ZM121.639 67.812C121.639 68.12 121.629 68.4513 121.611 68.806C121.601 69.1513 121.578 69.5013 121.541 69.856C121.503 70.2013 121.452 70.5467 121.387 70.892C121.321 71.228 121.237 71.5453 121.135 71.844C121.032 72.1427 120.901 72.4227 120.743 72.684C120.593 72.9453 120.407 73.1787 120.183 73.384C119.959 73.58 119.697 73.748 119.399 73.888C119.1 74.0187 118.75 74.1027 118.349 74.14L118.167 73.048C118.624 72.9547 118.983 72.782 119.245 72.53C119.515 72.278 119.73 71.97 119.889 71.606C120.029 71.2887 120.131 70.9293 120.197 70.528C120.262 70.1267 120.309 69.7113 120.337 69.282C120.365 68.8433 120.379 68.4047 120.379 67.966C120.388 67.5273 120.393 67.112 120.393 66.72H125.237V74H123.935V67.812H121.639ZM127.346 70.374C127.346 69.73 127.439 69.17 127.626 68.694C127.812 68.2087 128.06 67.8073 128.368 67.49C128.676 67.1727 129.03 66.9347 129.432 66.776C129.833 66.6173 130.244 66.538 130.664 66.538C131.644 66.538 132.395 66.846 132.918 67.462C133.44 68.0687 133.702 68.9973 133.702 70.248C133.702 70.304 133.702 70.3787 133.702 70.472C133.702 70.556 133.697 70.6353 133.688 70.71H128.704C128.76 71.466 128.979 72.04 129.362 72.432C129.744 72.824 130.342 73.02 131.154 73.02C131.611 73.02 131.994 72.9827 132.302 72.908C132.619 72.824 132.857 72.7447 133.016 72.67L133.198 73.762C133.039 73.846 132.759 73.9347 132.358 74.028C131.966 74.1213 131.518 74.168 131.014 74.168C130.379 74.168 129.828 74.0747 129.362 73.888C128.904 73.692 128.526 73.426 128.228 73.09C127.929 72.754 127.705 72.3573 127.556 71.9C127.416 71.4333 127.346 70.9247 127.346 70.374ZM132.344 69.66C132.353 69.072 132.204 68.5913 131.896 68.218C131.597 67.8353 131.182 67.644 130.65 67.644C130.351 67.644 130.085 67.7047 129.852 67.826C129.628 67.938 129.436 68.0873 129.278 68.274C129.119 68.4607 128.993 68.6753 128.9 68.918C128.816 69.1607 128.76 69.408 128.732 69.66H132.344ZM144.826 66.72C144.639 66.9533 144.429 67.21 144.196 67.49C143.963 67.7607 143.72 68.0453 143.468 68.344C143.216 68.6333 142.959 68.9227 142.698 69.212C142.446 69.5013 142.203 69.7767 141.97 70.038C142.25 70.3087 142.539 70.6027 142.838 70.92C143.137 71.2373 143.426 71.5687 143.706 71.914C143.995 72.25 144.271 72.6 144.532 72.964C144.793 73.3187 145.022 73.664 145.218 74H143.762C143.566 73.692 143.337 73.37 143.076 73.034C142.824 72.6887 142.558 72.3573 142.278 72.04C142.007 71.7227 141.732 71.4287 141.452 71.158C141.181 70.878 140.929 70.6493 140.696 70.472V74H139.45V70.472C139.217 70.6493 138.96 70.878 138.68 71.158C138.409 71.4287 138.134 71.7227 137.854 72.04C137.583 72.3573 137.317 72.6887 137.056 73.034C136.804 73.37 136.58 73.692 136.384 74H134.942C135.138 73.664 135.362 73.3187 135.614 72.964C135.875 72.6093 136.146 72.264 136.426 71.928C136.715 71.5827 137.009 71.2513 137.308 70.934C137.607 70.6167 137.896 70.3227 138.176 70.052C137.943 69.7907 137.695 69.5153 137.434 69.226C137.182 68.9367 136.93 68.6473 136.678 68.358C136.426 68.0593 136.183 67.7747 135.95 67.504C135.717 67.224 135.502 66.9627 135.306 66.72H136.748C137.084 67.14 137.471 67.6067 137.91 68.12C138.349 68.6333 138.862 69.226 139.45 69.898V66.72H140.696V69.898C141.284 69.226 141.797 68.6333 142.236 68.12C142.675 67.6067 143.062 67.14 143.398 66.72H144.826ZM152.928 66.72V74H151.668V68.456C151.388 68.8107 151.08 69.226 150.744 69.702C150.408 70.178 150.072 70.6727 149.736 71.186C149.4 71.69 149.078 72.1893 148.77 72.684C148.462 73.1787 148.196 73.6173 147.972 74H146.81V66.72H148.07V71.956C148.312 71.5547 148.588 71.116 148.896 70.64C149.204 70.1547 149.521 69.6787 149.848 69.212C150.184 68.736 150.515 68.2833 150.842 67.854C151.178 67.4153 151.49 67.0373 151.78 66.72H152.928ZM156.717 73.02C156.773 73.0293 156.853 73.0387 156.955 73.048C157.058 73.0573 157.175 73.0667 157.305 73.076C157.436 73.076 157.571 73.0807 157.711 73.09C157.861 73.09 158.001 73.09 158.131 73.09C158.402 73.09 158.659 73.0713 158.901 73.034C159.153 72.9967 159.368 72.9313 159.545 72.838C159.732 72.7447 159.877 72.6233 159.979 72.474C160.091 72.3153 160.147 72.1147 160.147 71.872C160.147 71.6387 160.096 71.4473 159.993 71.298C159.9 71.1393 159.769 71.0133 159.601 70.92C159.433 70.8267 159.233 70.7613 158.999 70.724C158.775 70.6867 158.533 70.668 158.271 70.668H156.717V73.02ZM158.103 69.702C158.355 69.702 158.584 69.688 158.789 69.66C159.004 69.6227 159.186 69.562 159.335 69.478C159.494 69.394 159.615 69.282 159.699 69.142C159.793 69.002 159.839 68.8247 159.839 68.61C159.839 68.386 159.783 68.2087 159.671 68.078C159.559 67.9473 159.41 67.8493 159.223 67.784C159.046 67.7093 158.841 67.6627 158.607 67.644C158.383 67.616 158.155 67.602 157.921 67.602C157.707 67.602 157.487 67.6067 157.263 67.616C157.049 67.6253 156.867 67.6347 156.717 67.644V69.702H158.103ZM158.075 74.126C157.525 74.126 157.016 74.098 156.549 74.042C156.083 73.9953 155.714 73.9393 155.443 73.874V66.79C155.714 66.7247 156.083 66.6687 156.549 66.622C157.016 66.566 157.525 66.538 158.075 66.538C158.458 66.538 158.831 66.5707 159.195 66.636C159.559 66.7013 159.881 66.8133 160.161 66.972C160.441 67.1213 160.665 67.3313 160.833 67.602C161.011 67.8633 161.099 68.19 161.099 68.582C161.099 68.9367 161.011 69.24 160.833 69.492C160.656 69.744 160.418 69.94 160.119 70.08C160.521 70.22 160.838 70.43 161.071 70.71C161.314 70.9807 161.435 71.3633 161.435 71.858C161.435 72.2967 161.347 72.6607 161.169 72.95C161.001 73.2393 160.763 73.4727 160.455 73.65C160.157 73.8273 159.802 73.9487 159.391 74.014C158.981 74.0887 158.542 74.126 158.075 74.126ZM165.857 73.062C166.165 73.062 166.436 73.0573 166.669 73.048C166.912 73.0293 167.113 73.0013 167.271 72.964V70.794C167.178 70.7473 167.024 70.71 166.809 70.682C166.604 70.6447 166.352 70.626 166.053 70.626C165.857 70.626 165.647 70.64 165.423 70.668C165.209 70.696 165.008 70.7567 164.821 70.85C164.644 70.934 164.495 71.0553 164.373 71.214C164.252 71.3633 164.191 71.564 164.191 71.816C164.191 72.2827 164.341 72.6093 164.639 72.796C164.938 72.9733 165.344 73.062 165.857 73.062ZM165.745 66.538C166.268 66.538 166.707 66.608 167.061 66.748C167.425 66.8787 167.715 67.07 167.929 67.322C168.153 67.5647 168.312 67.8587 168.405 68.204C168.499 68.54 168.545 68.9133 168.545 69.324V73.874C168.433 73.8927 168.275 73.9207 168.069 73.958C167.873 73.986 167.649 74.014 167.397 74.042C167.145 74.07 166.87 74.0933 166.571 74.112C166.282 74.14 165.993 74.154 165.703 74.154C165.293 74.154 164.915 74.112 164.569 74.028C164.224 73.944 163.925 73.8133 163.673 73.636C163.421 73.4493 163.225 73.2067 163.085 72.908C162.945 72.6093 162.875 72.25 162.875 71.83C162.875 71.4287 162.955 71.0833 163.113 70.794C163.281 70.5047 163.505 70.2713 163.785 70.094C164.065 69.9167 164.392 69.786 164.765 69.702C165.139 69.618 165.531 69.576 165.941 69.576C166.072 69.576 166.207 69.5853 166.347 69.604C166.487 69.6133 166.618 69.632 166.739 69.66C166.87 69.6787 166.982 69.6973 167.075 69.716C167.169 69.7347 167.234 69.7487 167.271 69.758V69.394C167.271 69.1793 167.248 68.9693 167.201 68.764C167.155 68.5493 167.071 68.3627 166.949 68.204C166.828 68.036 166.66 67.9053 166.445 67.812C166.24 67.7093 165.969 67.658 165.633 67.658C165.204 67.658 164.826 67.6907 164.499 67.756C164.182 67.812 163.944 67.8727 163.785 67.938L163.631 66.86C163.799 66.7853 164.079 66.7153 164.471 66.65C164.863 66.5753 165.288 66.538 165.745 66.538ZM176.952 74H175.65V70.78H172.29V74H170.988V66.72H172.29V69.688H175.65V66.72H176.952V74ZM185.589 66.72V74H184.329V68.456C184.049 68.8107 183.741 69.226 183.405 69.702C183.069 70.178 182.733 70.6727 182.397 71.186C182.061 71.69 181.739 72.1893 181.431 72.684C181.123 73.1787 180.857 73.6173 180.633 74H179.471V66.72H180.731V71.956C180.973 71.5547 181.249 71.116 181.557 70.64C181.865 70.1547 182.182 69.6787 182.509 69.212C182.845 68.736 183.176 68.2833 183.503 67.854C183.839 67.4153 184.151 67.0373 184.441 66.72H185.589ZM187.698 70.374C187.698 69.73 187.792 69.17 187.978 68.694C188.165 68.2087 188.412 67.8073 188.72 67.49C189.028 67.1727 189.383 66.9347 189.784 66.776C190.186 66.6173 190.596 66.538 191.016 66.538C191.996 66.538 192.748 66.846 193.27 67.462C193.793 68.0687 194.054 68.9973 194.054 70.248C194.054 70.304 194.054 70.3787 194.054 70.472C194.054 70.556 194.05 70.6353 194.04 70.71H189.056C189.112 71.466 189.332 72.04 189.714 72.432C190.097 72.824 190.694 73.02 191.506 73.02C191.964 73.02 192.346 72.9827 192.654 72.908C192.972 72.824 193.21 72.7447 193.368 72.67L193.55 73.762C193.392 73.846 193.112 73.9347 192.71 74.028C192.318 74.1213 191.87 74.168 191.366 74.168C190.732 74.168 190.181 74.0747 189.714 73.888C189.257 73.692 188.879 73.426 188.58 73.09C188.282 72.754 188.058 72.3573 187.908 71.9C187.768 71.4333 187.698 70.9247 187.698 70.374ZM192.696 69.66C192.706 69.072 192.556 68.5913 192.248 68.218C191.95 67.8353 191.534 67.644 191.002 67.644C190.704 67.644 190.438 67.7047 190.204 67.826C189.98 67.938 189.789 68.0873 189.63 68.274C189.472 68.4607 189.346 68.6753 189.252 68.918C189.168 69.1607 189.112 69.408 189.084 69.66H192.696ZM200.901 67.56C201.19 67.3267 201.526 67.1493 201.909 67.028C202.301 66.8973 202.674 66.832 203.029 66.832C204.074 66.832 204.863 67.154 205.395 67.798C205.936 68.4327 206.207 69.3193 206.207 70.458C206.207 70.9433 206.142 71.41 206.011 71.858C205.88 72.306 205.675 72.7027 205.395 73.048C205.124 73.3933 204.779 73.6687 204.359 73.874C203.939 74.0793 203.44 74.182 202.861 74.182C202.198 74.182 201.648 74.0607 201.209 73.818C200.77 73.5753 200.42 73.244 200.159 72.824C199.907 72.404 199.73 71.914 199.627 71.354C199.524 70.794 199.473 70.2013 199.473 69.576C199.473 68.764 199.529 68.008 199.641 67.308C199.762 66.608 199.977 65.992 200.285 65.46C200.593 64.928 201.018 64.4893 201.559 64.144C202.11 63.7893 202.814 63.5513 203.673 63.43C203.925 63.3927 204.144 63.3647 204.331 63.346C204.527 63.318 204.695 63.2947 204.835 63.276C204.984 63.2573 205.12 63.2387 205.241 63.22C205.362 63.192 205.488 63.164 205.619 63.136L205.759 64.312C205.694 64.3307 205.624 64.3447 205.549 64.354C205.484 64.3633 205.386 64.3773 205.255 64.396C205.134 64.4147 204.966 64.438 204.751 64.466C204.546 64.494 204.275 64.5267 203.939 64.564C203.015 64.6667 202.306 64.9467 201.811 65.404C201.316 65.8613 201.013 66.58 200.901 67.56ZM200.817 69.786C200.817 70.2247 200.845 70.64 200.901 71.032C200.966 71.424 201.074 71.7693 201.223 72.068C201.382 72.3667 201.592 72.6047 201.853 72.782C202.114 72.95 202.45 73.034 202.861 73.034C203.216 73.034 203.519 72.9687 203.771 72.838C204.023 72.698 204.228 72.5113 204.387 72.278C204.546 72.0447 204.662 71.774 204.737 71.466C204.812 71.1487 204.849 70.8127 204.849 70.458C204.849 70.1407 204.816 69.8327 204.751 69.534C204.695 69.2353 204.588 68.9693 204.429 68.736C204.27 68.5027 204.056 68.316 203.785 68.176C203.524 68.036 203.192 67.966 202.791 67.966C202.399 67.966 202.021 68.05 201.657 68.218C201.302 68.386 201.027 68.5913 200.831 68.834C200.822 68.9367 200.817 69.0813 200.817 69.268C200.817 69.4547 200.817 69.6273 200.817 69.786ZM209.633 69.73H211.229C211.285 69.2447 211.406 68.806 211.593 68.414C211.789 68.022 212.032 67.686 212.321 67.406C212.61 67.126 212.942 66.9113 213.315 66.762C213.688 66.6127 214.09 66.538 214.519 66.538C214.995 66.538 215.434 66.6313 215.835 66.818C216.246 66.9953 216.6 67.252 216.899 67.588C217.198 67.924 217.431 68.33 217.599 68.806C217.767 69.2727 217.851 69.7907 217.851 70.36C217.851 70.9387 217.767 71.4613 217.599 71.928C217.431 72.3947 217.198 72.796 216.899 73.132C216.6 73.468 216.246 73.7293 215.835 73.916C215.434 74.0933 214.995 74.182 214.519 74.182C214.071 74.182 213.651 74.1027 213.259 73.944C212.876 73.776 212.54 73.5473 212.251 73.258C211.962 72.9593 211.724 72.6 211.537 72.18C211.36 71.76 211.252 71.2933 211.215 70.78H209.633V74H208.331V66.72H209.633V69.73ZM216.507 70.36C216.507 69.5387 216.325 68.89 215.961 68.414C215.606 67.9287 215.126 67.686 214.519 67.686C213.912 67.686 213.427 67.9287 213.063 68.414C212.708 68.89 212.531 69.5387 212.531 70.36C212.531 71.1813 212.708 71.8347 213.063 72.32C213.427 72.796 213.912 73.034 214.519 73.034C215.126 73.034 215.606 72.796 215.961 72.32C216.325 71.8347 216.507 71.1813 216.507 70.36ZM219.063 72.936H219.847C220.155 72.488 220.397 72.026 220.575 71.55C220.761 71.074 220.901 70.584 220.995 70.08C221.088 69.5667 221.149 69.0347 221.177 68.484C221.205 67.924 221.223 67.336 221.233 66.72H226.007V72.936H226.987V76.03H225.755V74H220.295V76.03H219.063V72.936ZM224.705 72.936V67.812H222.423C222.413 68.2507 222.39 68.694 222.353 69.142C222.315 69.5807 222.255 70.0193 222.171 70.458C222.087 70.8873 221.965 71.312 221.807 71.732C221.657 72.1427 221.466 72.544 221.233 72.936H224.705ZM237.922 66.72C237.735 66.9533 237.525 67.21 237.292 67.49C237.058 67.7607 236.816 68.0453 236.564 68.344C236.312 68.6333 236.055 68.9227 235.794 69.212C235.542 69.5013 235.299 69.7767 235.066 70.038C235.346 70.3087 235.635 70.6027 235.934 70.92C236.232 71.2373 236.522 71.5687 236.802 71.914C237.091 72.25 237.366 72.6 237.628 72.964C237.889 73.3187 238.118 73.664 238.314 74H236.858C236.662 73.692 236.433 73.37 236.172 73.034C235.92 72.6887 235.654 72.3573 235.374 72.04C235.103 71.7227 234.828 71.4287 234.548 71.158C234.277 70.878 234.025 70.6493 233.792 70.472V74H232.546V70.472C232.312 70.6493 232.056 70.878 231.776 71.158C231.505 71.4287 231.23 71.7227 230.95 72.04C230.679 72.3573 230.413 72.6887 230.152 73.034C229.9 73.37 229.676 73.692 229.48 74H228.038C228.234 73.664 228.458 73.3187 228.71 72.964C228.971 72.6093 229.242 72.264 229.522 71.928C229.811 71.5827 230.105 71.2513 230.404 70.934C230.702 70.6167 230.992 70.3227 231.272 70.052C231.038 69.7907 230.791 69.5153 230.53 69.226C230.278 68.9367 230.026 68.6473 229.774 68.358C229.522 68.0593 229.279 67.7747 229.046 67.504C228.812 67.224 228.598 66.9627 228.402 66.72H229.844C230.18 67.14 230.567 67.6067 231.006 68.12C231.444 68.6333 231.958 69.226 232.546 69.898V66.72H233.792V69.898C234.38 69.226 234.893 68.6333 235.332 68.12C235.77 67.6067 236.158 67.14 236.494 66.72H237.922ZM239.13 70.374C239.13 69.73 239.224 69.17 239.41 68.694C239.597 68.2087 239.844 67.8073 240.152 67.49C240.46 67.1727 240.815 66.9347 241.216 66.776C241.618 66.6173 242.028 66.538 242.448 66.538C243.428 66.538 244.18 66.846 244.702 67.462C245.225 68.0687 245.486 68.9973 245.486 70.248C245.486 70.304 245.486 70.3787 245.486 70.472C245.486 70.556 245.482 70.6353 245.472 70.71H240.488C240.544 71.466 240.764 72.04 241.146 72.432C241.529 72.824 242.126 73.02 242.938 73.02C243.396 73.02 243.778 72.9827 244.086 72.908C244.404 72.824 244.642 72.7447 244.8 72.67L244.982 73.762C244.824 73.846 244.544 73.9347 244.142 74.028C243.75 74.1213 243.302 74.168 242.798 74.168C242.164 74.168 241.613 74.0747 241.146 73.888C240.689 73.692 240.311 73.426 240.012 73.09C239.714 72.754 239.49 72.3573 239.34 71.9C239.2 71.4333 239.13 70.9247 239.13 70.374ZM244.128 69.66C244.138 69.072 243.988 68.5913 243.68 68.218C243.382 67.8353 242.966 67.644 242.434 67.644C242.136 67.644 241.87 67.7047 241.636 67.826C241.412 67.938 241.221 68.0873 241.062 68.274C240.904 68.4607 240.778 68.6753 240.684 68.918C240.6 69.1607 240.544 69.408 240.516 69.66H244.128ZM252.775 66.72V67.812H250.409V74H249.107V67.812H246.741V66.72H252.775ZM256.861 73.062C257.169 73.062 257.44 73.0573 257.673 73.048C257.916 73.0293 258.116 73.0013 258.275 72.964V70.794C258.182 70.7473 258.028 70.71 257.813 70.682C257.608 70.6447 257.356 70.626 257.057 70.626C256.861 70.626 256.651 70.64 256.427 70.668C256.212 70.696 256.012 70.7567 255.825 70.85C255.648 70.934 255.498 71.0553 255.377 71.214C255.256 71.3633 255.195 71.564 255.195 71.816C255.195 72.2827 255.344 72.6093 255.643 72.796C255.942 72.9733 256.348 73.062 256.861 73.062ZM256.749 66.538C257.272 66.538 257.71 66.608 258.065 66.748C258.429 66.8787 258.718 67.07 258.933 67.322C259.157 67.5647 259.316 67.8587 259.409 68.204C259.502 68.54 259.549 68.9133 259.549 69.324V73.874C259.437 73.8927 259.278 73.9207 259.073 73.958C258.877 73.986 258.653 74.014 258.401 74.042C258.149 74.07 257.874 74.0933 257.575 74.112C257.286 74.14 256.996 74.154 256.707 74.154C256.296 74.154 255.918 74.112 255.573 74.028C255.228 73.944 254.929 73.8133 254.677 73.636C254.425 73.4493 254.229 73.2067 254.089 72.908C253.949 72.6093 253.879 72.25 253.879 71.83C253.879 71.4287 253.958 71.0833 254.117 70.794C254.285 70.5047 254.509 70.2713 254.789 70.094C255.069 69.9167 255.396 69.786 255.769 69.702C256.142 69.618 256.534 69.576 256.945 69.576C257.076 69.576 257.211 69.5853 257.351 69.604C257.491 69.6133 257.622 69.632 257.743 69.66C257.874 69.6787 257.986 69.6973 258.079 69.716C258.172 69.7347 258.238 69.7487 258.275 69.758V69.394C258.275 69.1793 258.252 68.9693 258.205 68.764C258.158 68.5493 258.074 68.3627 257.953 68.204C257.832 68.036 257.664 67.9053 257.449 67.812C257.244 67.7093 256.973 67.658 256.637 67.658C256.208 67.658 255.83 67.6907 255.503 67.756C255.186 67.812 254.948 67.8727 254.789 67.938L254.635 66.86C254.803 66.7853 255.083 66.7153 255.475 66.65C255.867 66.5753 256.292 66.538 256.749 66.538Z" fill="#13164A"/>
<defs>
<clipPath id="clip0_1717_10088">
<rect width="80" height="80" fill="white" transform="translate(1 1)"/>
</clipPath>
</defs>
</svg>
