<svg width="377" height="56" viewBox="0 0 377 56" fill="none" xmlns="http://www.w3.org/2000/svg">
<g clip-path="url(#clip0_1717_11789)">
<path d="M1 28C1 14.1929 12.1929 3 26 3C39.8071 3 51 14.1929 51 28C51 41.8071 39.8071 53 26 53C12.1929 53 1 41.8071 1 28Z" fill="#DCF0DB"/>
<mask id="mask0_1717_11789" style="mask-type:luminance" maskUnits="userSpaceOnUse" x="1" y="3" width="50" height="50">
<path d="M1 28C1 14.1929 12.1929 3 26 3C39.8071 3 51 14.1929 51 28C51 41.8071 39.8071 53 26 53C12.1929 53 1 41.8071 1 28Z" fill="white"/>
</mask>
<g mask="url(#mask0_1717_11789)">
<path d="M5.33496 31.1087C5.33496 19.2561 14.6571 9.67325 26.1253 9.67325C37.5936 9.67325 46.9156 19.2561 46.9156 31.1087C46.9156 42.9613 37.5936 52.5442 26.1253 52.5442C14.6571 52.5442 5.33496 42.9613 5.33496 31.1087Z" fill="#FBCD5B" stroke="#13164A"/>
<path d="M19.7651 18.9136C21.3851 20.011 21.7863 22.7563 20.3855 23.9004C18.9539 25.0695 15.7039 25.251 14.6352 23.2561C13.9194 21.92 14.7545 19.9634 15.8759 19.1045C16.9973 18.2455 18.2858 17.9115 19.7651 18.9136Z" fill="#13164A"/>
<path d="M30.7934 24.3529C31.4402 25.9487 34.7712 26.33 35.9747 25.3564C37.5838 24.0551 37.3709 21.8784 36.4954 20.6245C35.6199 19.3705 33.6102 18.7338 32.1225 19.9203C30.6492 21.0952 30.0292 22.468 30.7934 24.3529Z" fill="#13164A"/>
<path d="M18.3323 21.358C18.9459 21.1065 19.7566 21.5605 19.7815 22.1327C19.8064 22.705 19.5235 23.5112 18.5585 23.5991C17.8821 23.6607 17.3681 23.2026 17.393 22.5557C17.4178 21.9088 17.7186 21.6095 18.3323 21.358Z" fill="white"/>
<path d="M18.2885 19.595C18.6392 19.2527 19.0435 19.6484 19.0855 19.9214C19.1275 20.1944 18.865 20.604 18.5499 20.5305C18.2349 20.4569 17.859 20.0141 18.2885 19.595Z" fill="white"/>
<path d="M16.1978 20.2469C16.5543 19.8601 17.1639 20.0579 17.2899 20.4884C17.4159 20.919 17.2584 21.213 16.7859 21.2865C16.3133 21.36 15.7043 20.7825 16.1978 20.2469Z" fill="white"/>
<path d="M32.1134 23.236C32.1895 22.3878 32.9299 21.9563 33.678 22.1859C34.6022 22.4694 34.7483 23.0669 34.5286 23.866C34.4131 24.2861 33.7096 24.6326 33.1215 24.4436C32.5908 24.273 32.0505 23.9395 32.1134 23.236Z" fill="white"/>
<path d="M34.9692 20.9468C35.3999 20.7955 35.9037 21.0728 35.9144 21.4824C35.9247 21.8919 35.4628 22.6584 35.0324 22.2594C34.6018 21.8604 34.5808 21.0833 34.9692 20.9468Z" fill="white"/>
<path d="M32.974 20.7998C33.284 20.5287 33.9191 20.7158 33.8246 21.1253C33.7301 21.5349 33.4153 21.8289 33.0685 21.6399C32.722 21.4509 32.722 21.0203 32.974 20.7998Z" fill="white"/>
<path d="M19.7231 13.1375C20.0515 12.8091 20.441 12.5431 20.8377 12.3016C22.6172 11.2184 20.6107 14.0998 21.3949 13.9037C21.8894 13.7801 23.3509 12.0955 23.9025 12.3713C24.191 12.5155 23.4333 15.2016 23.7632 15.3665C24.075 15.5224 24.7873 14.2956 24.9474 14.1127C25.6815 13.2738 26.5123 12.3899 27.5247 11.8837" stroke="#13164A" stroke-miterlimit="10" stroke-linecap="round" stroke-linejoin="round"/>
<path d="M30.1606 12.32C31.272 12.123 32.5544 12.3841 33.5002 13.0001C34.1252 13.3126 35.0518 14.4453 35.2761 14.3758C35.5519 14.2905 35.109 13.411 35.0558 13.262C34.8161 12.5919 34.6468 11.7202 34.8884 11.0121C35.2326 10.0019 37.5627 10.8125 38.2316 11.5635" stroke="#13164A" stroke-miterlimit="10" stroke-linecap="round" stroke-linejoin="round"/>
<path d="M21.0425 7.58369C21.6219 6.48475 23.9673 5.91585 25.2132 6.38601C25.4387 6.47114 25.8122 6.65472 26.0222 6.78882C26.1726 6.88491 26.333 7.2713 26.4378 7.12672C26.6184 6.87756 25.8718 5.82098 25.7471 5.59862C25.7228 5.55543 25.6592 5.47956 25.7031 5.45669C26.1163 5.24159 28.5883 6.87459 28.9722 7.27537" stroke="#13164A" stroke-miterlimit="10" stroke-linecap="round" stroke-linejoin="round"/>
<path d="M32.0269 8.56303C32.9215 7.96472 34.0038 7.58317 35.0822 7.76132" stroke="#13164A" stroke-miterlimit="10" stroke-linecap="round" stroke-linejoin="round"/>
<path d="M27.2308 29.2658C26.4121 29.5236 25.7275 29.6729 24.5223 29.5497C24.1875 29.5152 24.1147 30.0029 24.2616 30.31C24.6401 31.1007 26.1716 30.8436 27.0485 30.2797C27.5753 29.941 27.9172 29.0497 27.2308 29.2658Z" stroke="#13164A" stroke-miterlimit="10" stroke-linecap="round" stroke-linejoin="round"/>
<path d="M17.9773 43.1926C18.1732 43.0465 18.4129 42.8672 18.6877 42.6609C19.4798 42.066 20.5639 41.2455 21.7317 40.3429C24.0577 38.545 26.7461 36.3981 28.103 35.0654C29.4374 33.7549 30.356 32.8244 30.9418 32.2207C31.1859 31.9692 31.3722 31.7744 31.5068 31.6323C31.6383 31.716 31.806 31.8288 32.0016 31.9731C32.5144 32.3513 33.218 32.9456 33.9641 33.8008C35.4534 35.5079 37.1209 38.2644 37.7711 42.4443C38.0833 44.4509 37.5691 45.8032 36.68 46.7435C35.7685 47.7075 34.4093 48.2946 32.9433 48.6351C31.4847 48.9739 29.975 49.0561 28.8217 49.0518C28.247 49.0496 27.7651 49.0259 27.4279 49.0029C27.2594 48.9915 27.1273 48.9801 27.0382 48.9718C27.0311 48.9711 27.0244 48.9705 27.0179 48.9699L17.9773 43.1926Z" fill="#AED6AD" stroke="#13164A"/>
<path d="M29.5475 45.0599C29.6399 45.2132 29.7101 45.3344 29.7581 45.4191L28.3201 55.3494L3.17973 51.9171L-2.79152 28.0321C-2.71516 28.0705 -2.63479 28.1107 -2.55054 28.1524C-1.76282 28.5425 -0.634391 29.0703 0.732593 29.6238C3.46214 30.7289 7.16309 31.9443 11.0116 32.3584C17.2495 33.0295 21.9529 36.3167 25.1102 39.4623C26.6874 41.0337 27.8721 42.5633 28.6617 43.6991C29.0563 44.2667 29.3516 44.735 29.5475 45.0599Z" fill="#B8E3B7" stroke="#13164A"/>
<path d="M48.5614 54.378C48.5003 54.4953 48.4481 54.5947 48.406 54.6747L23.8321 57.1365C23.8293 57.099 23.8265 57.0595 23.8236 57.018C23.7961 56.6196 23.7655 56.0424 23.7536 55.3324C23.7299 53.9111 23.7813 51.9638 24.0808 49.8559C24.6838 45.6113 26.2722 40.8518 30.1208 38.3152C33.1582 36.3134 35.9448 35.3667 38.5574 34.4791C39.3691 34.2033 40.164 33.9333 40.9445 33.639C44.1064 32.4469 46.92 30.8801 49.287 26.9745C51.6375 29.0172 52.5953 30.9287 53.0672 32.7796C53.3211 33.7759 53.437 34.765 53.5446 35.7819C53.5533 35.8642 53.562 35.9467 53.5707 36.0294C53.6683 36.9597 53.7688 37.9176 53.9766 38.8809C54.1669 39.7638 53.9545 41.1869 53.4575 42.9109C52.9685 44.6074 52.2324 46.5048 51.4635 48.2879C50.6955 50.0689 49.8997 51.725 49.2954 52.9365C48.9934 53.5421 48.7395 54.0359 48.5614 54.378Z" fill="#C6F0C5" stroke="#13164A"/>
</g>
<path d="M9.45397 32.4872L9.45407 32.4887C9.469 32.6931 9.41777 32.9167 9.62859 33.3979C9.8576 33.9206 11.5233 35.7872 13.167 35.9924C14.8107 36.1977 16.0836 35.1536 16.3261 34.9312C16.5687 34.7087 17.1675 34.1267 17.2516 33.9156C17.4114 33.5142 17.3817 33.3324 17.252 33.0363C17.1223 32.7402 16.7888 31.4487 13.0512 30.8654C9.32143 30.2832 9.43919 32.2414 9.45397 32.4872Z" fill="#F7C23F" stroke="#13164A"/>
<path d="M38.3865 32.1931C36.9719 32.713 36.4883 33.4252 36.4217 33.9664C36.3918 34.2095 36.4469 34.6526 36.952 35.2061C37.457 35.7595 38.7737 36.1123 39.3702 36.3244C39.9667 36.5365 40.8855 36.5214 41.3897 36.3952C41.8939 36.2689 42.649 35.7918 43.2595 35.1713C43.87 34.5509 44.0564 33.6601 43.9302 33.1558C43.804 32.6516 43.3512 31.9031 42.6702 31.6161C41.9893 31.3291 40.1548 31.5432 38.3865 32.1931Z" fill="#F7C23F" stroke="#13164A"/>
</g>
<circle cx="26" cy="28" r="25.5" stroke="#13164A"/>
<path d="M65.56 17.824H70.552V40H65.56V17.824ZM75.365 23.744C76.1757 23.5093 77.221 23.296 78.501 23.104C79.781 22.8907 81.125 22.784 82.533 22.784C83.9623 22.784 85.1463 22.976 86.085 23.36C87.045 23.7227 87.8023 24.2453 88.357 24.928C88.9117 25.6107 89.3063 26.4213 89.541 27.36C89.7757 28.2987 89.893 29.344 89.893 30.496V40H85.125V31.072C85.125 29.536 84.9223 28.448 84.517 27.808C84.1117 27.168 83.3543 26.848 82.245 26.848C81.9037 26.848 81.541 26.8693 81.157 26.912C80.773 26.9333 80.4317 26.9653 80.133 27.008V40H75.365V23.744ZM104.641 40.448C101.035 40.448 98.2834 39.4453 96.3848 37.44C94.5074 35.4347 93.5688 32.5867 93.5688 28.896C93.5688 27.0613 93.8568 25.4293 94.4328 24C95.0088 22.5493 95.7981 21.3333 96.8008 20.352C97.8034 19.3493 98.9981 18.592 100.385 18.08C101.771 17.568 103.275 17.312 104.897 17.312C105.835 17.312 106.689 17.3867 107.457 17.536C108.225 17.664 108.897 17.824 109.473 18.016C110.049 18.1867 110.529 18.368 110.913 18.56C111.297 18.752 111.574 18.9013 111.745 19.008L110.305 23.04C109.622 22.6773 108.822 22.368 107.905 22.112C107.009 21.856 105.985 21.728 104.833 21.728C104.065 21.728 103.307 21.856 102.561 22.112C101.835 22.368 101.185 22.784 100.609 23.36C100.054 23.9147 99.6061 24.64 99.2648 25.536C98.9234 26.432 98.7528 27.52 98.7528 28.8C98.7528 29.824 98.8594 30.784 99.0728 31.68C99.3074 32.5547 99.6701 33.312 100.161 33.952C100.673 34.592 101.334 35.104 102.145 35.488C102.955 35.8507 103.937 36.032 105.089 36.032C105.814 36.032 106.465 35.9893 107.041 35.904C107.617 35.8187 108.129 35.7227 108.577 35.616C109.025 35.488 109.419 35.3493 109.761 35.2C110.102 35.0507 110.411 34.912 110.689 34.784L112.065 38.784C111.361 39.2107 110.369 39.5947 109.089 39.936C107.809 40.2773 106.326 40.448 104.641 40.448ZM130.328 31.552C130.328 32.8747 130.136 34.0907 129.752 35.2C129.368 36.288 128.813 37.2267 128.088 38.016C127.362 38.784 126.488 39.3813 125.464 39.808C124.461 40.2347 123.33 40.448 122.072 40.448C120.834 40.448 119.704 40.2347 118.68 39.808C117.677 39.3813 116.813 38.784 116.088 38.016C115.362 37.2267 114.797 36.288 114.392 35.2C113.986 34.0907 113.784 32.8747 113.784 31.552C113.784 30.2293 113.986 29.024 114.392 27.936C114.818 26.848 115.394 25.92 116.12 25.152C116.866 24.384 117.741 23.7867 118.744 23.36C119.768 22.9333 120.877 22.72 122.072 22.72C123.288 22.72 124.397 22.9333 125.4 23.36C126.424 23.7867 127.298 24.384 128.024 25.152C128.749 25.92 129.314 26.848 129.72 27.936C130.125 29.024 130.328 30.2293 130.328 31.552ZM125.464 31.552C125.464 30.08 125.165 28.928 124.568 28.096C123.992 27.2427 123.16 26.816 122.072 26.816C120.984 26.816 120.141 27.2427 119.544 28.096C118.946 28.928 118.648 30.08 118.648 31.552C118.648 33.024 118.946 34.1973 119.544 35.072C120.141 35.9253 120.984 36.352 122.072 36.352C123.16 36.352 123.992 35.9253 124.568 35.072C125.165 34.1973 125.464 33.024 125.464 31.552ZM138.789 40H134.021V23.168H138.789V40ZM139.237 18.304C139.237 19.1787 138.949 19.872 138.373 20.384C137.819 20.8747 137.157 21.12 136.389 21.12C135.621 21.12 134.949 20.8747 134.373 20.384C133.819 19.872 133.541 19.1787 133.541 18.304C133.541 17.4293 133.819 16.7467 134.373 16.256C134.949 15.744 135.621 15.488 136.389 15.488C137.157 15.488 137.819 15.744 138.373 16.256C138.949 16.7467 139.237 17.4293 139.237 18.304ZM143.271 23.744C144.082 23.5093 145.127 23.296 146.407 23.104C147.687 22.8907 149.031 22.784 150.439 22.784C151.869 22.784 153.053 22.976 153.991 23.36C154.951 23.7227 155.709 24.2453 156.263 24.928C156.818 25.6107 157.213 26.4213 157.447 27.36C157.682 28.2987 157.799 29.344 157.799 30.496V40H153.031V31.072C153.031 29.536 152.829 28.448 152.423 27.808C152.018 27.168 151.261 26.848 150.151 26.848C149.81 26.848 149.447 26.8693 149.063 26.912C148.679 26.9333 148.338 26.9653 148.039 27.008V40H143.271V23.744Z" fill="#13164A"/>
<defs>
<clipPath id="clip0_1717_11789">
<rect width="50" height="50" fill="white" transform="translate(1 3)"/>
</clipPath>
</defs>
</svg>
