<svg width="50" height="50" viewBox="0 0 50 50" fill="none" xmlns="http://www.w3.org/2000/svg">
<g clip-path="url(#clip0_1670_8642)">
<path d="M0 25C0 11.1929 11.1929 0 25 0C38.8071 0 50 11.1929 50 25C50 38.8071 38.8071 50 25 50C11.1929 50 0 38.8071 0 25Z" fill="#DCF0DB"/>
<mask id="mask0_1670_8642" style="mask-type:luminance" maskUnits="userSpaceOnUse" x="0" y="0" width="50" height="50">
<path d="M0 25C0 11.1929 11.1929 0 25 0C38.8071 0 50 11.1929 50 25C50 38.8071 38.8071 50 25 50C11.1929 50 0 38.8071 0 25Z" fill="white"/>
</mask>
<g mask="url(#mask0_1670_8642)">
<path d="M4.33594 28.1087C4.33594 16.256 13.658 6.67322 25.1263 6.67322C36.5945 6.67322 45.9166 16.256 45.9166 28.1087C45.9166 39.9613 36.5945 49.5442 25.1263 49.5442C13.658 49.5442 4.33594 39.9613 4.33594 28.1087Z" fill="#FBCD5B" stroke="#13164A"/>
<path d="M18.7651 15.9136C20.3851 17.011 20.7863 19.7563 19.3855 20.9003C17.9539 22.0695 14.7039 22.251 13.6352 20.2561C12.9194 18.92 13.7545 16.9634 14.8759 16.1044C15.9973 15.2455 17.2858 14.9114 18.7651 15.9136Z" fill="#13164A"/>
<path d="M29.7944 21.3529C30.4412 22.9487 33.7721 23.33 34.9757 22.3564C36.5847 21.0551 36.3718 18.8784 35.4963 17.6245C34.6209 16.3705 32.6112 15.7338 31.1234 16.9203C29.6502 18.0952 29.0302 19.468 29.7944 21.3529Z" fill="#13164A"/>
<path d="M17.3327 18.3579C17.9464 18.1065 18.757 18.5605 18.7819 19.1327C18.8068 19.705 18.5239 20.5111 17.5589 20.599C16.8826 20.6606 16.3685 20.2025 16.3934 19.5557C16.4183 18.9088 16.7191 18.6095 17.3327 18.3579Z" fill="white"/>
<path d="M17.289 16.5949C17.6397 16.2526 18.0439 16.6483 18.0859 16.9213C18.1279 17.1944 17.8654 17.6039 17.5504 17.5304C17.2354 17.4569 16.8595 17.0141 17.289 16.5949Z" fill="white"/>
<path d="M15.1988 17.2469C15.5552 16.8601 16.1648 17.0579 16.2909 17.4884C16.4169 17.9189 16.2593 18.2129 15.7868 18.2864C15.3143 18.36 14.7052 17.7824 15.1988 17.2469Z" fill="white"/>
<path d="M31.1134 20.2359C31.1895 19.3877 31.9299 18.9563 32.6779 19.1859C33.6021 19.4694 33.7482 20.0669 33.5286 20.866C33.4131 21.286 32.7095 21.6325 32.1215 21.4435C31.5908 21.2729 31.0505 20.9395 31.1134 20.2359Z" fill="white"/>
<path d="M33.9697 17.9468C34.4003 17.7955 34.9042 18.0728 34.9149 18.4823C34.9252 18.8918 34.4632 19.6584 34.0329 19.2594C33.6023 18.8604 33.5813 18.0833 33.9697 17.9468Z" fill="white"/>
<path d="M31.9744 17.7998C32.2844 17.5287 32.9196 17.7158 32.8251 18.1253C32.7306 18.5348 32.4157 18.8288 32.069 18.6398C31.7225 18.4508 31.7225 18.0203 31.9744 17.7998Z" fill="white"/>
<path d="M18.7236 10.1375C19.052 9.80912 19.4415 9.54305 19.8381 9.3016C21.6177 8.21838 19.6111 11.0998 20.3954 10.9037C20.8899 10.7801 22.3513 9.09544 22.903 9.37128C23.1915 9.51547 22.4338 12.2015 22.7637 12.3665C23.0755 12.5224 23.7878 11.2956 23.9479 11.1127C24.682 10.2737 25.5128 9.38989 26.5252 8.88367" stroke="#13164A" stroke-width="1.5" stroke-miterlimit="10" stroke-linecap="round" stroke-linejoin="round"/>
<path d="M29.1611 9.31994C30.2725 9.12294 31.5549 9.38411 32.5007 10.0001C33.1257 10.3126 34.0523 11.4453 34.2766 11.3758C34.5524 11.2905 34.1095 10.4109 34.0563 10.262C33.8166 9.5919 33.6473 8.72016 33.8889 8.01207C34.2331 7.00184 36.5632 7.8125 37.2321 8.56352" stroke="#13164A" stroke-width="1.5" stroke-miterlimit="10" stroke-linecap="round" stroke-linejoin="round"/>
<path d="M20.043 4.58367C20.6224 3.48474 22.9677 2.91583 24.2136 3.386C24.4392 3.47112 24.8127 3.6547 25.0226 3.7888C25.1731 3.8849 25.3335 4.27129 25.4383 4.1267C25.6189 3.87754 24.8723 2.82096 24.7476 2.59861C24.7233 2.55541 24.6597 2.47954 24.7036 2.45667C25.1168 2.24158 27.5888 3.87458 27.9726 4.27535" stroke="#13164A" stroke-width="1.5" stroke-miterlimit="10" stroke-linecap="round" stroke-linejoin="round"/>
<path d="M31.0274 5.56303C31.922 4.96472 33.0043 4.58317 34.0827 4.76132" stroke="#13164A" stroke-width="1.5" stroke-miterlimit="10" stroke-linecap="round" stroke-linejoin="round"/>
<path d="M26.2308 26.2658C25.4121 26.5235 24.7275 26.6729 23.5223 26.5497C23.1875 26.5152 23.1147 27.0029 23.2616 27.31C23.6401 28.1006 25.1716 27.8435 26.0485 27.2797C26.5753 26.941 26.9172 26.0497 26.2308 26.2658Z" stroke="#13164A" stroke-width="1.2" stroke-miterlimit="10" stroke-linecap="round" stroke-linejoin="round"/>
<path d="M16.9777 40.1926C17.1737 40.0465 17.4134 39.8672 17.6882 39.6609C18.4803 39.066 19.5644 38.2455 20.7322 37.3429C23.0582 35.545 25.7466 33.3981 27.1034 32.0654C28.4379 30.7549 29.3565 29.8244 29.9423 29.2207C30.1863 28.9692 30.3727 28.7744 30.5073 28.6323C30.6388 28.716 30.8065 28.8288 31.0021 28.9731C31.5149 29.3513 32.2185 29.9456 32.9646 30.8008C34.4539 32.5079 36.1214 35.2644 36.7716 39.4443C37.0837 41.4509 36.5696 42.8032 35.6805 43.7435C34.7689 44.7075 33.4098 45.2946 31.9438 45.6351C30.4852 45.9739 28.9755 46.0561 27.8222 46.0518C27.2475 46.0496 26.7656 46.0259 26.4284 46.0029C26.2599 45.9915 26.1278 45.9801 26.0386 45.9718C26.0316 45.9711 26.0249 45.9705 26.0184 45.9699L16.9777 40.1926Z" fill="#AED6AD" stroke="#13164A"/>
<path d="M28.548 42.0599C28.6404 42.2132 28.7106 42.3344 28.7586 42.4191L27.3206 52.3494L2.18022 48.9171L-3.79104 25.0321C-3.71468 25.0705 -3.63431 25.1107 -3.55005 25.1524C-2.76233 25.5425 -1.6339 26.0703 -0.266919 26.6238C2.46263 27.7289 6.16358 28.9443 10.0121 29.3584C16.25 30.0295 20.9534 33.3167 24.1107 36.4623C25.6879 38.0337 26.8726 39.5633 27.6622 40.6991C28.0568 41.2667 28.3521 41.735 28.548 42.0599Z" fill="#B8E3B7" stroke="#13164A"/>
<path d="M47.5619 51.378C47.5008 51.4953 47.4486 51.5947 47.4065 51.6746L22.8325 54.1365C22.8298 54.099 22.8269 54.0595 22.8241 54.018C22.7966 53.6196 22.766 53.0424 22.7541 52.3324C22.7304 50.9111 22.7818 48.9638 23.0813 46.8558C23.6843 42.6112 25.2727 37.8518 29.1213 35.3152C32.1587 33.3134 34.9453 32.3667 37.5578 31.4791C38.3696 31.2033 39.1645 30.9333 39.945 30.639C43.1069 29.4469 45.9205 27.88 48.2875 23.9745C50.638 26.0171 51.5958 27.9286 52.0676 29.7796C52.3216 30.7759 52.4375 31.765 52.5451 32.7819C52.5538 32.8642 52.5625 32.9467 52.5712 33.0294C52.6688 33.9597 52.7693 34.9176 52.977 35.8809C53.1674 36.7638 52.9549 38.1869 52.458 39.9109C51.969 41.6074 51.2328 43.5048 50.464 45.2879C49.696 47.0688 48.9002 48.725 48.2959 49.9365C47.9939 50.542 47.74 51.0359 47.5619 51.378Z" fill="#C6F0C5" stroke="#13164A"/>
<path d="M8.71096 28.4988L8.71096 28.4988C8.52614 28.7263 8.46133 28.9268 8.45637 29.1092C8.45119 29.2995 8.51018 29.5195 8.65608 29.7797C8.95724 30.3167 9.55585 30.9014 10.3244 31.5489L10.3244 31.5489C11.1344 32.2315 12.7201 32.7595 14.0979 31.7981C14.0979 31.798 14.0979 31.798 14.098 31.798L14.3841 32.2081C14.5739 32.0755 14.7567 31.9563 14.9285 31.8442C15.8395 31.2498 16.4414 30.8571 16.1459 29.7606L8.71096 28.4988ZM8.71096 28.4988C9.48848 27.5415 10.7357 27.5792 12.3102 27.8105L8.71096 28.4988ZM8.32357 28.1841L8.32326 28.1839L8.32357 28.1841Z" fill="#F7C23F" stroke="#13164A"/>
<path d="M38.192 32.6187L38.192 32.6187C39.1831 33.0013 40.6634 33.0032 41.6924 31.8789C42.2 31.3243 42.461 30.8677 42.5386 30.4665C42.6116 30.09 42.5354 29.6965 42.2153 29.2235L42.2153 29.2235C41.9178 28.7839 41.5564 28.598 41.0649 28.5433C40.5313 28.484 39.8656 28.5824 38.9924 28.7466L38.9922 28.7466C38.2557 28.8848 37.4211 29.1199 36.761 29.4704C36.0836 29.8301 35.711 30.2436 35.6507 30.6887L38.192 32.6187ZM38.192 32.6187C38.0899 32.5793 37.991 32.5413 37.8953 32.5046M38.192 32.6187L37.8953 32.5046M37.8953 32.5046C37.0783 32.1909 36.4919 31.9657 36.0988 31.6898M37.8953 32.5046L36.0988 31.6898M36.0988 31.6898C35.8939 31.546 35.7767 31.4104 35.7118 31.2728M36.0988 31.6898L35.7118 31.2728M35.7118 31.2728C35.6484 31.1386 35.6141 30.9586 35.6506 30.6888L35.7118 31.2728Z" fill="#F7C23F" stroke="#13164A"/>
</g>
</g>
<defs>
<clipPath id="clip0_1670_8642">
<rect width="50" height="50" fill="white"/>
</clipPath>
</defs>
</svg>
