<svg width="377" height="56" viewBox="0 0 377 56" fill="none" xmlns="http://www.w3.org/2000/svg">
<circle cx="26" cy="28" r="25.5" fill="#D9D9D9" stroke="#13164A"/>
<g clip-path="url(#clip0_1805_4540)">
<path d="M1 28C1 14.1929 12.1929 3 26 3C39.8071 3 51 14.1929 51 28C51 41.8071 39.8071 53 26 53C12.1929 53 1 41.8071 1 28Z" fill="#DCF0DB"/>
<mask id="mask0_1805_4540" style="mask-type:luminance" maskUnits="userSpaceOnUse" x="1" y="3" width="50" height="50">
<path d="M1 28C1 14.1929 12.1929 3 26 3C39.8071 3 51 14.1929 51 28C51 41.8071 39.8071 53 26 53C12.1929 53 1 41.8071 1 28Z" fill="white"/>
</mask>
<g mask="url(#mask0_1805_4540)">
<path d="M5.33594 31.1087C5.33594 19.256 14.658 9.67322 26.1263 9.67322C37.5945 9.67322 46.9166 19.256 46.9166 31.1087C46.9166 42.9613 37.5945 52.5442 26.1263 52.5442C14.658 52.5442 5.33594 42.9613 5.33594 31.1087Z" fill="#FBCD5B" stroke="#13164A"/>
<path d="M19.7651 18.9136C21.3851 20.011 21.7863 22.7563 20.3855 23.9003C18.9539 25.0695 15.7039 25.251 14.6352 23.2561C13.9194 21.92 14.7545 19.9634 15.8759 19.1044C16.9973 18.2455 18.2858 17.9114 19.7651 18.9136Z" fill="#13164A"/>
<path d="M30.7944 24.3529C31.4412 25.9487 34.7721 26.33 35.9757 25.3564C37.5847 24.0551 37.3718 21.8784 36.4963 20.6245C35.6209 19.3705 33.6112 18.7338 32.1234 19.9203C30.6502 21.0952 30.0302 22.468 30.7944 24.3529Z" fill="#13164A"/>
<path d="M18.3327 21.3579C18.9464 21.1065 19.757 21.5605 19.7819 22.1327C19.8068 22.705 19.5239 23.5111 18.5589 23.599C17.8826 23.6606 17.3685 23.2025 17.3934 22.5557C17.4183 21.9088 17.7191 21.6095 18.3327 21.3579Z" fill="white"/>
<path d="M18.289 19.5949C18.6397 19.2526 19.0439 19.6483 19.0859 19.9213C19.1279 20.1944 18.8654 20.6039 18.5504 20.5304C18.2354 20.4569 17.8595 20.0141 18.289 19.5949Z" fill="white"/>
<path d="M16.1988 20.2469C16.5552 19.8601 17.1648 20.0579 17.2909 20.4884C17.4169 20.9189 17.2593 21.2129 16.7868 21.2864C16.3143 21.36 15.7052 20.7824 16.1988 20.2469Z" fill="white"/>
<path d="M32.1134 23.2359C32.1895 22.3877 32.9299 21.9563 33.6779 22.1859C34.6021 22.4694 34.7482 23.0669 34.5286 23.866C34.4131 24.286 33.7095 24.6325 33.1215 24.4435C32.5908 24.2729 32.0505 23.9395 32.1134 23.2359Z" fill="white"/>
<path d="M34.9697 20.9468C35.4003 20.7955 35.9042 21.0728 35.9149 21.4823C35.9252 21.8918 35.4632 22.6584 35.0329 22.2594C34.6023 21.8604 34.5813 21.0833 34.9697 20.9468Z" fill="white"/>
<path d="M32.9744 20.7998C33.2844 20.5287 33.9196 20.7158 33.8251 21.1253C33.7306 21.5348 33.4157 21.8288 33.069 21.6398C32.7225 21.4508 32.7225 21.0203 32.9744 20.7998Z" fill="white"/>
<path d="M19.7236 13.1375C20.052 12.8091 20.4415 12.5431 20.8381 12.3016C22.6177 11.2184 20.6111 14.0998 21.3954 13.9037C21.8899 13.7801 23.3513 12.0954 23.903 12.3713C24.1915 12.5155 23.4338 15.2015 23.7637 15.3665C24.0755 15.5224 24.7878 14.2956 24.9479 14.1127C25.682 13.2737 26.5128 12.3899 27.5252 11.8837" stroke="#13164A" stroke-width="1.5" stroke-miterlimit="10" stroke-linecap="round" stroke-linejoin="round"/>
<path d="M30.1611 12.3199C31.2725 12.1229 32.5549 12.3841 33.5007 13.0001C34.1257 13.3126 35.0523 14.4453 35.2766 14.3758C35.5524 14.2905 35.1095 13.4109 35.0563 13.262C34.8166 12.5919 34.6473 11.7202 34.8889 11.0121C35.2331 10.0018 37.5632 10.8125 38.2321 11.5635" stroke="#13164A" stroke-width="1.5" stroke-miterlimit="10" stroke-linecap="round" stroke-linejoin="round"/>
<path d="M21.043 7.58367C21.6224 6.48474 23.9677 5.91583 25.2136 6.386C25.4392 6.47112 25.8127 6.6547 26.0226 6.7888C26.1731 6.8849 26.3335 7.27129 26.4383 7.1267C26.6189 6.87754 25.8723 5.82096 25.7476 5.59861C25.7233 5.55541 25.6597 5.47954 25.7036 5.45667C26.1168 5.24158 28.5888 6.87458 28.9726 7.27535" stroke="#13164A" stroke-width="1.5" stroke-miterlimit="10" stroke-linecap="round" stroke-linejoin="round"/>
<path d="M32.0274 8.56303C32.922 7.96472 34.0043 7.58317 35.0827 7.76132" stroke="#13164A" stroke-width="1.5" stroke-miterlimit="10" stroke-linecap="round" stroke-linejoin="round"/>
<path d="M27.2308 29.2658C26.4121 29.5235 25.7275 29.6729 24.5223 29.5497C24.1875 29.5152 24.1147 30.0029 24.2616 30.31C24.6401 31.1006 26.1716 30.8435 27.0485 30.2797C27.5753 29.941 27.9172 29.0497 27.2308 29.2658Z" stroke="#13164A" stroke-width="1.2" stroke-miterlimit="10" stroke-linecap="round" stroke-linejoin="round"/>
<path d="M17.9777 43.1926C18.1737 43.0465 18.4134 42.8672 18.6882 42.6609C19.4803 42.066 20.5644 41.2455 21.7322 40.3429C24.0582 38.545 26.7466 36.3981 28.1034 35.0654C29.4379 33.7549 30.3565 32.8244 30.9423 32.2207C31.1863 31.9692 31.3727 31.7744 31.5073 31.6323C31.6388 31.716 31.8065 31.8288 32.0021 31.9731C32.5149 32.3513 33.2185 32.9456 33.9646 33.8008C35.4539 35.5079 37.1214 38.2644 37.7716 42.4443C38.0837 44.4509 37.5696 45.8032 36.6805 46.7435C35.7689 47.7075 34.4098 48.2946 32.9438 48.6351C31.4852 48.9739 29.9755 49.0561 28.8222 49.0518C28.2475 49.0496 27.7656 49.0259 27.4284 49.0029C27.2599 48.9915 27.1278 48.9801 27.0386 48.9718C27.0316 48.9711 27.0249 48.9705 27.0184 48.9699L17.9777 43.1926Z" fill="#AED6AD" stroke="#13164A"/>
<path d="M29.548 45.0599C29.6404 45.2132 29.7106 45.3344 29.7586 45.4191L28.3206 55.3494L3.18022 51.9171L-2.79104 28.0321C-2.71468 28.0705 -2.63431 28.1107 -2.55005 28.1524C-1.76233 28.5425 -0.633903 29.0703 0.733081 29.6238C3.46263 30.7289 7.16358 31.9443 11.0121 32.3584C17.25 33.0295 21.9534 36.3167 25.1107 39.4623C26.6879 41.0337 27.8726 42.5633 28.6622 43.6991C29.0568 44.2667 29.3521 44.735 29.548 45.0599Z" fill="#B8E3B7" stroke="#13164A"/>
<path d="M48.5619 54.378C48.5008 54.4953 48.4486 54.5947 48.4065 54.6746L23.8325 57.1365C23.8298 57.099 23.8269 57.0595 23.8241 57.018C23.7966 56.6196 23.766 56.0424 23.7541 55.3324C23.7304 53.9111 23.7818 51.9638 24.0813 49.8558C24.6843 45.6112 26.2727 40.8518 30.1213 38.3152C33.1587 36.3134 35.9453 35.3667 38.5578 34.4791C39.3696 34.2033 40.1645 33.9333 40.945 33.639C44.1069 32.4469 46.9205 30.88 49.2875 26.9745C51.638 29.0171 52.5958 30.9286 53.0676 32.7796C53.3216 33.7759 53.4375 34.765 53.5451 35.7819C53.5538 35.8642 53.5625 35.9467 53.5712 36.0294C53.6688 36.9597 53.7693 37.9176 53.977 38.8809C54.1674 39.7638 53.9549 41.1869 53.458 42.9109C52.969 44.6074 52.2328 46.5048 51.464 48.2879C50.696 50.0688 49.9002 51.725 49.2959 52.9365C48.9939 53.542 48.74 54.0359 48.5619 54.378Z" fill="#C6F0C5" stroke="#13164A"/>
<path d="M9.71096 31.4988L9.71096 31.4988C9.52614 31.7263 9.46133 31.9268 9.45637 32.1092C9.45119 32.2995 9.51018 32.5195 9.65608 32.7797C9.95724 33.3167 10.5559 33.9014 11.3244 34.5489L11.3244 34.5489C12.1344 35.2315 13.7201 35.7595 15.0979 34.7981C15.0979 34.798 15.0979 34.798 15.098 34.798L15.3841 35.2081C15.5739 35.0755 15.7567 34.9563 15.9285 34.8442C16.8395 34.2498 17.4414 33.8571 17.1459 32.7606L9.71096 31.4988ZM9.71096 31.4988C10.4885 30.5415 11.7357 30.5792 13.3102 30.8105L9.71096 31.4988ZM9.32357 31.1841L9.32326 31.1839L9.32357 31.1841Z" fill="#F7C23F" stroke="#13164A"/>
<path d="M39.192 35.6187L39.192 35.6187C40.1831 36.0013 41.6634 36.0032 42.6924 34.8789C43.2 34.3243 43.461 33.8677 43.5386 33.4665C43.6116 33.09 43.5354 32.6965 43.2153 32.2235L43.2153 32.2235C42.9178 31.7839 42.5564 31.598 42.0649 31.5433C41.5313 31.484 40.8656 31.5824 39.9924 31.7466L39.9922 31.7466C39.2557 31.8848 38.4211 32.1199 37.761 32.4704C37.0836 32.8301 36.711 33.2436 36.6507 33.6887L39.192 35.6187ZM39.192 35.6187C39.0899 35.5793 38.991 35.5413 38.8953 35.5046M39.192 35.6187L38.8953 35.5046M38.8953 35.5046C38.0783 35.1909 37.4919 34.9657 37.0988 34.6898M38.8953 35.5046L37.0988 34.6898M37.0988 34.6898C36.8939 34.546 36.7767 34.4104 36.7118 34.2728M37.0988 34.6898L36.7118 34.2728M36.7118 34.2728C36.6484 34.1386 36.6141 33.9586 36.6506 33.6888L36.7118 34.2728Z" fill="#F7C23F" stroke="#13164A"/>
</g>
</g>
<path d="M65.56 17.824H70.552V40H65.56V17.824ZM75.365 23.744C76.1757 23.5093 77.221 23.296 78.501 23.104C79.781 22.8907 81.125 22.784 82.533 22.784C83.9623 22.784 85.1463 22.976 86.085 23.36C87.045 23.7227 87.8023 24.2453 88.357 24.928C88.9117 25.6107 89.3063 26.4213 89.541 27.36C89.7757 28.2987 89.893 29.344 89.893 30.496V40H85.125V31.072C85.125 29.536 84.9223 28.448 84.517 27.808C84.1117 27.168 83.3543 26.848 82.245 26.848C81.9037 26.848 81.541 26.8693 81.157 26.912C80.773 26.9333 80.4317 26.9653 80.133 27.008V40H75.365V23.744ZM104.641 40.448C101.035 40.448 98.2834 39.4453 96.3848 37.44C94.5074 35.4347 93.5688 32.5867 93.5688 28.896C93.5688 27.0613 93.8568 25.4293 94.4328 24C95.0088 22.5493 95.7981 21.3333 96.8008 20.352C97.8034 19.3493 98.9981 18.592 100.385 18.08C101.771 17.568 103.275 17.312 104.897 17.312C105.835 17.312 106.689 17.3867 107.457 17.536C108.225 17.664 108.897 17.824 109.473 18.016C110.049 18.1867 110.529 18.368 110.913 18.56C111.297 18.752 111.574 18.9013 111.745 19.008L110.305 23.04C109.622 22.6773 108.822 22.368 107.905 22.112C107.009 21.856 105.985 21.728 104.833 21.728C104.065 21.728 103.307 21.856 102.561 22.112C101.835 22.368 101.185 22.784 100.609 23.36C100.054 23.9147 99.6061 24.64 99.2648 25.536C98.9234 26.432 98.7528 27.52 98.7528 28.8C98.7528 29.824 98.8594 30.784 99.0728 31.68C99.3074 32.5547 99.6701 33.312 100.161 33.952C100.673 34.592 101.334 35.104 102.145 35.488C102.955 35.8507 103.937 36.032 105.089 36.032C105.814 36.032 106.465 35.9893 107.041 35.904C107.617 35.8187 108.129 35.7227 108.577 35.616C109.025 35.488 109.419 35.3493 109.761 35.2C110.102 35.0507 110.411 34.912 110.689 34.784L112.065 38.784C111.361 39.2107 110.369 39.5947 109.089 39.936C107.809 40.2773 106.326 40.448 104.641 40.448ZM130.328 31.552C130.328 32.8747 130.136 34.0907 129.752 35.2C129.368 36.288 128.813 37.2267 128.088 38.016C127.362 38.784 126.488 39.3813 125.464 39.808C124.461 40.2347 123.33 40.448 122.072 40.448C120.834 40.448 119.704 40.2347 118.68 39.808C117.677 39.3813 116.813 38.784 116.088 38.016C115.362 37.2267 114.797 36.288 114.392 35.2C113.986 34.0907 113.784 32.8747 113.784 31.552C113.784 30.2293 113.986 29.024 114.392 27.936C114.818 26.848 115.394 25.92 116.12 25.152C116.866 24.384 117.741 23.7867 118.744 23.36C119.768 22.9333 120.877 22.72 122.072 22.72C123.288 22.72 124.397 22.9333 125.4 23.36C126.424 23.7867 127.298 24.384 128.024 25.152C128.749 25.92 129.314 26.848 129.72 27.936C130.125 29.024 130.328 30.2293 130.328 31.552ZM125.464 31.552C125.464 30.08 125.165 28.928 124.568 28.096C123.992 27.2427 123.16 26.816 122.072 26.816C120.984 26.816 120.141 27.2427 119.544 28.096C118.946 28.928 118.648 30.08 118.648 31.552C118.648 33.024 118.946 34.1973 119.544 35.072C120.141 35.9253 120.984 36.352 122.072 36.352C123.16 36.352 123.992 35.9253 124.568 35.072C125.165 34.1973 125.464 33.024 125.464 31.552ZM138.789 40H134.021V23.168H138.789V40ZM139.237 18.304C139.237 19.1787 138.949 19.872 138.373 20.384C137.819 20.8747 137.157 21.12 136.389 21.12C135.621 21.12 134.949 20.8747 134.373 20.384C133.819 19.872 133.541 19.1787 133.541 18.304C133.541 17.4293 133.819 16.7467 134.373 16.256C134.949 15.744 135.621 15.488 136.389 15.488C137.157 15.488 137.819 15.744 138.373 16.256C138.949 16.7467 139.237 17.4293 139.237 18.304ZM143.271 23.744C144.082 23.5093 145.127 23.296 146.407 23.104C147.687 22.8907 149.031 22.784 150.439 22.784C151.869 22.784 153.053 22.976 153.991 23.36C154.951 23.7227 155.709 24.2453 156.263 24.928C156.818 25.6107 157.213 26.4213 157.447 27.36C157.682 28.2987 157.799 29.344 157.799 30.496V40H153.031V31.072C153.031 29.536 152.829 28.448 152.423 27.808C152.018 27.168 151.261 26.848 150.151 26.848C149.81 26.848 149.447 26.8693 149.063 26.912C148.679 26.9333 148.338 26.9653 148.039 27.008V40H143.271V23.744Z" fill="#13164A"/>
<defs>
<clipPath id="clip0_1805_4540">
<rect width="50" height="50" fill="white" transform="translate(1 3)"/>
</clipPath>
</defs>
</svg>
