<svg width="380" height="88" viewBox="0 0 380 88" fill="none" xmlns="http://www.w3.org/2000/svg">
<circle cx="44" cy="44" r="42" fill="#D9D9D9" stroke="#13164A" stroke-width="4"/>
<g clip-path="url(#clip0_1752_9633)">
<path d="M4 44C4 21.9086 21.9086 4 44 4C66.0914 4 84 21.9086 84 44C84 66.0914 66.0914 84 44 84C21.9086 84 4 66.0914 4 44Z" fill="white"/>
<mask id="mask0_1752_9633" style="mask-type:luminance" maskUnits="userSpaceOnUse" x="4" y="4" width="80" height="80">
<path d="M4 44C4 21.9086 21.9086 4 44 4C66.0914 4 84 21.9086 84 44C84 66.0914 66.0914 84 44 84C21.9086 84 4 66.0914 4 44Z" fill="white"/>
</mask>
<g mask="url(#mask0_1752_9633)">
<path d="M11.1367 48.974C11.1367 30.1145 25.9681 14.8772 44.2012 14.8772C62.4344 14.8772 77.2658 30.1145 77.2658 48.974C77.2658 67.8333 62.4344 83.0707 44.2012 83.0707C25.9681 83.0707 11.1367 67.8333 11.1367 48.974Z" fill="white" stroke="#13164A" stroke-width="2"/>
<path d="M34.0242 29.4618C36.6162 31.2176 37.2582 35.6102 35.0168 37.4406C32.7262 39.3113 27.5262 39.6017 25.8163 36.4099C24.671 34.272 26.0072 31.1415 27.8015 29.7672C29.5958 28.3929 31.6573 27.8584 34.0242 29.4618Z" fill="#13164A"/>
<path d="M51.6703 38.1647C52.7051 40.718 58.0347 41.3281 59.9603 39.7703C62.5348 37.6882 62.1941 34.2055 60.7934 32.1992C59.3926 30.1929 56.1771 29.1742 53.7967 31.0726C51.4396 32.9524 50.4476 35.1488 51.6703 38.1647Z" fill="#13164A"/>
<path d="M31.7318 33.3729C32.7136 32.9705 34.0107 33.6969 34.0505 34.6125C34.0903 35.5281 33.6376 36.8179 32.0937 36.9586C31.0116 37.0572 30.1891 36.3242 30.2289 35.2893C30.2687 34.2543 30.75 33.7753 31.7318 33.3729Z" fill="white"/>
<path d="M31.6618 30.5519C32.2229 30.0043 32.8697 30.6374 32.9369 31.0742C33.0041 31.5111 32.5841 32.1663 32.0801 32.0487C31.576 31.9311 30.9747 31.2225 31.6618 30.5519Z" fill="white"/>
<path d="M28.3174 31.595C28.8878 30.9761 29.8631 31.2926 30.0648 31.9815C30.2664 32.6703 30.0144 33.1407 29.2583 33.2583C28.5023 33.3759 27.5278 32.4519 28.3174 31.595Z" fill="white"/>
<path d="M53.7815 36.3775C53.9033 35.0204 55.0878 34.3301 56.2847 34.6974C57.7634 35.1511 57.9972 36.1071 57.6457 37.3856C57.4609 38.0576 56.3353 38.6121 55.3944 38.3097C54.5453 38.0367 53.6808 37.5032 53.7815 36.3775Z" fill="white"/>
<path d="M58.3513 32.7149C59.0403 32.4729 59.8465 32.9165 59.8636 33.5717C59.8801 34.227 59.141 35.4534 58.4525 34.815C57.7634 34.1766 57.7299 32.9333 58.3513 32.7149Z" fill="white"/>
<path d="M55.1587 32.4797C55.6547 32.0459 56.671 32.3453 56.5197 33.0005C56.3685 33.6558 55.8648 34.1262 55.3099 33.8238C54.7556 33.5214 54.7556 32.8325 55.1587 32.4797Z" fill="white"/>
<path d="M33.957 20.22C34.4824 19.6946 35.1056 19.2689 35.7403 18.8826C38.5876 17.1494 35.3771 21.7596 36.6319 21.4459C37.423 21.2481 39.7614 18.5527 40.6441 18.994C41.1056 19.2248 39.8932 23.5225 40.4212 23.7864C40.92 24.0359 42.0597 22.0729 42.3158 21.7803C43.4903 20.438 44.8196 19.0238 46.4395 18.2139" stroke="#13164A" stroke-width="1.5" stroke-miterlimit="10" stroke-linecap="round" stroke-linejoin="round"/>
<path d="M50.6572 18.912C52.4354 18.5968 54.4872 19.0147 56.0005 20.0002C57.0005 20.5002 58.4831 22.3126 58.842 22.2014C59.2833 22.0649 58.5746 20.6576 58.4895 20.4193C58.106 19.3472 57.835 17.9524 58.2216 16.8194C58.7723 15.2031 62.5005 16.5001 63.5708 17.7018" stroke="#13164A" stroke-width="1.5" stroke-miterlimit="10" stroke-linecap="round" stroke-linejoin="round"/>
<path d="M36.0684 11.3339C36.9954 9.57565 40.748 8.66541 42.7414 9.41767C43.1024 9.55387 43.6999 9.8476 44.0358 10.0622C44.2766 10.2159 44.5332 10.8341 44.7009 10.6028C44.9899 10.2041 43.7953 8.51361 43.5957 8.15785C43.5569 8.08874 43.4551 7.96734 43.5254 7.93075C44.1865 7.58659 48.1416 10.1994 48.7558 10.8406" stroke="#13164A" stroke-width="1.5" stroke-miterlimit="10" stroke-linecap="round" stroke-linejoin="round"/>
<path d="M53.644 12.9009C55.0753 11.9436 56.8071 11.3331 58.5325 11.6181" stroke="#13164A" stroke-width="1.5" stroke-miterlimit="10" stroke-linecap="round" stroke-linejoin="round"/>
<path d="M45.9696 46.0253C44.6598 46.4377 43.5644 46.6767 41.6361 46.4795C41.1004 46.4243 40.9839 47.2047 41.219 47.696C41.8246 48.9611 44.2749 48.5497 45.678 47.6475C46.5208 47.1056 47.0679 45.6795 45.9696 46.0253Z" stroke="#13164A" stroke-width="1.2" stroke-miterlimit="10" stroke-linecap="round" stroke-linejoin="round"/>
<path d="M46.2987 77.4051C46.0407 77.3875 45.8367 77.3702 45.6959 77.3572L31.5155 68.2953C31.7802 68.0976 32.084 67.8702 32.4208 67.6173C33.6887 66.6652 35.4241 65.3518 37.2934 63.9068C41.0132 61.0316 45.3243 57.5894 47.5053 55.4473C49.6414 53.3494 51.1123 51.8596 52.0509 50.8923C52.3769 50.5563 52.6388 50.2833 52.842 50.0697C53.024 50.1891 53.2402 50.3378 53.4843 50.5179C54.2946 51.1156 55.4093 52.0567 56.5922 53.4126C58.9525 56.1181 61.6025 60.4943 62.6365 67.1415C63.1276 70.2985 62.3182 72.3979 60.943 73.8522C59.5231 75.3537 57.3923 76.2806 55.0644 76.8213C52.7513 77.3586 50.3527 77.4897 48.5159 77.4828C47.6013 77.4793 46.8346 77.4417 46.2987 77.4051Z" fill="white" stroke="#13164A" stroke-width="2"/>
<path d="M49.5051 71.3992C49.6315 71.6089 49.7316 71.7807 49.8055 71.9099L47.543 87.5342L7.64915 82.0876L-1.76664 44.4244C-0.502727 45.0502 1.30639 45.8964 3.49748 46.7835C7.87382 48.5553 13.8145 50.507 19.9976 51.1724C29.9177 52.2397 37.4031 57.4677 42.4356 62.4815C44.9488 64.9855 46.8368 67.4231 48.0948 69.2328C48.7235 70.137 49.1937 70.8827 49.5051 71.3992Z" fill="white" stroke="#13164A" stroke-width="2"/>
<path d="M79.9218 86.1125C79.8471 86.2558 79.7808 86.3825 79.7237 86.4912L40.7171 90.399C40.6736 89.7651 40.6255 88.8511 40.6067 87.7285C40.5689 85.4618 40.651 82.3571 41.1282 78.9976C42.0909 72.2211 44.621 64.6809 50.7043 60.6714C55.5407 57.484 59.9676 55.9799 64.1434 54.561C65.446 54.1184 66.7242 53.6841 67.9827 53.2096C73.0138 51.3128 77.5152 48.8165 81.307 42.6662C84.9078 45.8491 86.3818 48.8222 87.1146 51.6968C87.5171 53.2755 87.7013 54.8451 87.8735 56.4722C87.8875 56.6041 87.9014 56.7365 87.9153 56.8694C88.0713 58.3562 88.2331 59.8993 88.568 61.4516C88.861 62.8107 88.5358 65.0442 87.7408 67.8021C86.9618 70.505 85.7875 73.5322 84.5589 76.3815C83.3321 79.2266 82.0604 81.8729 81.0946 83.8092C80.612 84.7769 80.2064 85.566 79.9218 86.1125Z" fill="white" stroke="#13164A" stroke-width="2"/>
<path d="M18.0916 49.7243L18.0916 49.7243C17.8198 50.0589 17.7355 50.3382 17.7289 50.5803C17.7219 50.8382 17.8013 51.1545 18.023 51.5499C18.4852 52.3741 19.4166 53.289 20.6467 54.3255L20.6467 54.3255C21.9012 55.3826 24.3368 56.1813 26.441 54.7131L18.0916 49.7243ZM18.0916 49.7243C19.2552 48.2917 21.1303 48.3224 23.666 48.6948L18.0916 49.7243ZM28.8667 51.8775L28.8667 51.8774C28.6671 51.137 28.0819 50.4435 27.1288 49.8651C26.1814 49.2901 24.9546 48.8843 23.6661 48.6948L28.8667 51.8775ZM28.8667 51.8775C28.9765 52.285 28.9644 52.5294 28.9269 52.6827M28.8667 51.8775L28.9269 52.6827M28.9269 52.6827C28.891 52.8292 28.8115 52.9767 28.6343 53.1591M28.9269 52.6827L28.6343 53.1591M28.6343 53.1591C28.444 53.3549 28.1732 53.5588 27.7835 53.8202M28.6343 53.1591L27.7835 53.8202M27.7835 53.8202C27.6591 53.9036 27.5163 53.9968 27.3627 54.0971M27.7835 53.8202L27.3627 54.0971M27.3627 54.0971C27.0772 54.2835 26.7542 54.4945 26.4411 54.713L27.3627 54.0971Z" fill="white" stroke="#13164A" stroke-width="2"/>
<path d="M65.1788 56.0034L65.1788 56.0034C66.7151 56.5964 68.9866 56.5905 70.56 54.8713C71.3615 53.9954 71.751 53.2979 71.8651 52.7085C71.9696 52.1685 71.8674 51.5921 71.3785 50.8698L71.3784 50.8697C70.9391 50.2206 70.4165 49.9499 69.6814 49.8682C68.8618 49.777 67.8255 49.9277 66.4244 50.1911L66.4241 50.1912C65.2556 50.4105 63.9421 50.7819 62.911 51.3294C61.8451 51.8953 61.3222 52.5143 61.2388 53.1288L65.1788 56.0034ZM65.1788 56.0034C65.0172 55.9411 64.8611 55.8811 64.7103 55.8232M65.1788 56.0034L64.7103 55.8232M64.7103 55.8232C63.3929 55.3171 62.48 54.9664 61.8725 54.5401M64.7103 55.8232L61.8725 54.5401M61.8725 54.5401C61.5634 54.3231 61.404 54.1307 61.3193 53.9512M61.8725 54.5401L61.3193 53.9512M61.3193 53.9512C61.2378 53.7784 61.1845 53.5309 61.2388 53.129L61.3193 53.9512Z" fill="white" stroke="#13164A" stroke-width="2"/>
</g>
</g>
<path d="M99.2 24.28H105.44V52H99.2V24.28ZM111.456 31.68C112.47 31.3867 113.776 31.12 115.376 30.88C116.976 30.6133 118.656 30.48 120.416 30.48C122.203 30.48 123.683 30.72 124.856 31.2C126.056 31.6533 127.003 32.3067 127.696 33.16C128.39 34.0133 128.883 35.0267 129.176 36.2C129.47 37.3733 129.616 38.68 129.616 40.12V52H123.656V40.84C123.656 38.92 123.403 37.56 122.896 36.76C122.39 35.96 121.443 35.56 120.056 35.56C119.63 35.56 119.176 35.5867 118.696 35.64C118.216 35.6667 117.79 35.7067 117.416 35.76V52H111.456V31.68ZM148.051 52.56C143.544 52.56 140.104 51.3067 137.731 48.8C135.384 46.2933 134.211 42.7333 134.211 38.12C134.211 35.8267 134.571 33.7867 135.291 32C136.011 30.1867 136.998 28.6667 138.251 27.44C139.504 26.1867 140.998 25.24 142.731 24.6C144.464 23.96 146.344 23.64 148.371 23.64C149.544 23.64 150.611 23.7333 151.571 23.92C152.531 24.08 153.371 24.28 154.091 24.52C154.811 24.7333 155.411 24.96 155.891 25.2C156.371 25.44 156.718 25.6267 156.931 25.76L155.131 30.8C154.278 30.3467 153.278 29.96 152.131 29.64C151.011 29.32 149.731 29.16 148.291 29.16C147.331 29.16 146.384 29.32 145.451 29.64C144.544 29.96 143.731 30.48 143.011 31.2C142.318 31.8933 141.758 32.8 141.331 33.92C140.904 35.04 140.691 36.4 140.691 38C140.691 39.28 140.824 40.48 141.091 41.6C141.384 42.6933 141.838 43.64 142.451 44.44C143.091 45.24 143.918 45.88 144.931 46.36C145.944 46.8133 147.171 47.04 148.611 47.04C149.518 47.04 150.331 46.9867 151.051 46.88C151.771 46.7733 152.411 46.6533 152.971 46.52C153.531 46.36 154.024 46.1867 154.451 46C154.878 45.8133 155.264 45.64 155.611 45.48L157.331 50.48C156.451 51.0133 155.211 51.4933 153.611 51.92C152.011 52.3467 150.158 52.56 148.051 52.56ZM180.16 41.44C180.16 43.0933 179.92 44.6133 179.44 46C178.96 47.36 178.266 48.5333 177.36 49.52C176.453 50.48 175.36 51.2267 174.08 51.76C172.826 52.2933 171.413 52.56 169.84 52.56C168.293 52.56 166.88 52.2933 165.6 51.76C164.346 51.2267 163.266 50.48 162.36 49.52C161.453 48.5333 160.746 47.36 160.24 46C159.733 44.6133 159.48 43.0933 159.48 41.44C159.48 39.7867 159.733 38.28 160.24 36.92C160.773 35.56 161.493 34.4 162.4 33.44C163.333 32.48 164.426 31.7333 165.68 31.2C166.96 30.6667 168.346 30.4 169.84 30.4C171.36 30.4 172.746 30.6667 174 31.2C175.28 31.7333 176.373 32.48 177.28 33.44C178.186 34.4 178.893 35.56 179.4 36.92C179.906 38.28 180.16 39.7867 180.16 41.44ZM174.08 41.44C174.08 39.6 173.706 38.16 172.96 37.12C172.24 36.0533 171.2 35.52 169.84 35.52C168.48 35.52 167.426 36.0533 166.68 37.12C165.933 38.16 165.56 39.6 165.56 41.44C165.56 43.28 165.933 44.7467 166.68 45.84C167.426 46.9067 168.48 47.44 169.84 47.44C171.2 47.44 172.24 46.9067 172.96 45.84C173.706 44.7467 174.08 43.28 174.08 41.44ZM190.737 52H184.777V30.96H190.737V52ZM191.297 24.88C191.297 25.9733 190.937 26.84 190.217 27.48C189.523 28.0933 188.697 28.4 187.737 28.4C186.777 28.4 185.937 28.0933 185.217 27.48C184.523 26.84 184.177 25.9733 184.177 24.88C184.177 23.7867 184.523 22.9333 185.217 22.32C185.937 21.68 186.777 21.36 187.737 21.36C188.697 21.36 189.523 21.68 190.217 22.32C190.937 22.9333 191.297 23.7867 191.297 24.88ZM196.339 31.68C197.352 31.3867 198.659 31.12 200.259 30.88C201.859 30.6133 203.539 30.48 205.299 30.48C207.086 30.48 208.566 30.72 209.739 31.2C210.939 31.6533 211.886 32.3067 212.579 33.16C213.272 34.0133 213.766 35.0267 214.059 36.2C214.352 37.3733 214.499 38.68 214.499 40.12V52H208.539V40.84C208.539 38.92 208.286 37.56 207.779 36.76C207.272 35.96 206.326 35.56 204.939 35.56C204.512 35.56 204.059 35.5867 203.579 35.64C203.099 35.6667 202.672 35.7067 202.299 35.76V52H196.339V31.68Z" fill="#13164A"/>
<path d="M96.812 72.142C96.812 71.3113 96.9333 70.5787 97.176 69.944C97.428 69.3093 97.764 68.782 98.184 68.362C98.6133 67.9327 99.108 67.6107 99.668 67.396C100.237 67.1813 100.839 67.074 101.474 67.074C102.099 67.074 102.687 67.1813 103.238 67.396C103.798 67.6107 104.288 67.9327 104.708 68.362C105.128 68.782 105.459 69.3093 105.702 69.944C105.954 70.5787 106.08 71.3113 106.08 72.142C106.08 72.9727 105.954 73.7053 105.702 74.34C105.459 74.9747 105.128 75.5067 104.708 75.936C104.288 76.356 103.798 76.6733 103.238 76.888C102.687 77.1027 102.099 77.21 101.474 77.21C100.839 77.21 100.237 77.1027 99.668 76.888C99.108 76.6733 98.6133 76.356 98.184 75.936C97.764 75.5067 97.428 74.9747 97.176 74.34C96.9333 73.7053 96.812 72.9727 96.812 72.142ZM98.24 72.142C98.24 72.73 98.3147 73.2667 98.464 73.752C98.6133 74.228 98.8233 74.634 99.094 74.97C99.374 75.306 99.71 75.5673 100.102 75.754C100.503 75.9313 100.951 76.02 101.446 76.02C101.941 76.02 102.384 75.9313 102.776 75.754C103.168 75.5673 103.499 75.306 103.77 74.97C104.05 74.634 104.265 74.228 104.414 73.752C104.563 73.2667 104.638 72.73 104.638 72.142C104.638 71.554 104.563 71.022 104.414 70.546C104.265 70.0607 104.05 69.65 103.77 69.314C103.499 68.978 103.168 68.7213 102.776 68.544C102.384 68.3573 101.941 68.264 101.446 68.264C100.951 68.264 100.503 68.3573 100.102 68.544C99.71 68.7213 99.374 68.978 99.094 69.314C98.8233 69.65 98.6133 70.0607 98.464 70.546C98.3147 71.022 98.24 71.554 98.24 72.142ZM113.434 69.72V70.812H111.068V77H109.766V70.812H107.4V69.72H113.434ZM118.221 77.168C117.633 77.168 117.115 77.0747 116.667 76.888C116.228 76.7013 115.855 76.44 115.547 76.104C115.248 75.768 115.024 75.3713 114.875 74.914C114.726 74.4473 114.651 73.934 114.651 73.374C114.651 72.814 114.73 72.3007 114.889 71.834C115.057 71.3673 115.29 70.966 115.589 70.63C115.888 70.2847 116.252 70.0187 116.681 69.832C117.12 69.636 117.605 69.538 118.137 69.538C118.464 69.538 118.79 69.566 119.117 69.622C119.444 69.678 119.756 69.7667 120.055 69.888L119.761 70.994C119.565 70.9007 119.336 70.826 119.075 70.77C118.823 70.714 118.552 70.686 118.263 70.686C117.535 70.686 116.975 70.9147 116.583 71.372C116.2 71.8293 116.009 72.4967 116.009 73.374C116.009 73.766 116.051 74.1253 116.135 74.452C116.228 74.7787 116.368 75.0587 116.555 75.292C116.751 75.5253 116.998 75.7073 117.297 75.838C117.596 75.9593 117.96 76.02 118.389 76.02C118.734 76.02 119.047 75.9873 119.327 75.922C119.607 75.8567 119.826 75.7867 119.985 75.712L120.167 76.804C120.092 76.8507 119.985 76.8973 119.845 76.944C119.705 76.9813 119.546 77.014 119.369 77.042C119.192 77.0793 119 77.1073 118.795 77.126C118.599 77.154 118.408 77.168 118.221 77.168ZM124.639 70.812C124.639 71.12 124.629 71.4513 124.611 71.806C124.601 72.1513 124.578 72.5013 124.541 72.856C124.503 73.2013 124.452 73.5467 124.387 73.892C124.321 74.228 124.237 74.5453 124.135 74.844C124.032 75.1427 123.901 75.4227 123.743 75.684C123.593 75.9453 123.407 76.1787 123.183 76.384C122.959 76.58 122.697 76.748 122.399 76.888C122.1 77.0187 121.75 77.1027 121.349 77.14L121.167 76.048C121.624 75.9547 121.983 75.782 122.245 75.53C122.515 75.278 122.73 74.97 122.889 74.606C123.029 74.2887 123.131 73.9293 123.197 73.528C123.262 73.1267 123.309 72.7113 123.337 72.282C123.365 71.8433 123.379 71.4047 123.379 70.966C123.388 70.5273 123.393 70.112 123.393 69.72H128.237V77H126.935V70.812H124.639ZM130.346 73.374C130.346 72.73 130.439 72.17 130.626 71.694C130.812 71.2087 131.06 70.8073 131.368 70.49C131.676 70.1727 132.03 69.9347 132.432 69.776C132.833 69.6173 133.244 69.538 133.664 69.538C134.644 69.538 135.395 69.846 135.918 70.462C136.44 71.0687 136.702 71.9973 136.702 73.248C136.702 73.304 136.702 73.3787 136.702 73.472C136.702 73.556 136.697 73.6353 136.688 73.71H131.704C131.76 74.466 131.979 75.04 132.362 75.432C132.744 75.824 133.342 76.02 134.154 76.02C134.611 76.02 134.994 75.9827 135.302 75.908C135.619 75.824 135.857 75.7447 136.016 75.67L136.198 76.762C136.039 76.846 135.759 76.9347 135.358 77.028C134.966 77.1213 134.518 77.168 134.014 77.168C133.379 77.168 132.828 77.0747 132.362 76.888C131.904 76.692 131.526 76.426 131.228 76.09C130.929 75.754 130.705 75.3573 130.556 74.9C130.416 74.4333 130.346 73.9247 130.346 73.374ZM135.344 72.66C135.353 72.072 135.204 71.5913 134.896 71.218C134.597 70.8353 134.182 70.644 133.65 70.644C133.351 70.644 133.085 70.7047 132.852 70.826C132.628 70.938 132.436 71.0873 132.278 71.274C132.119 71.4607 131.993 71.6753 131.9 71.918C131.816 72.1607 131.76 72.408 131.732 72.66H135.344ZM147.826 69.72C147.639 69.9533 147.429 70.21 147.196 70.49C146.963 70.7607 146.72 71.0453 146.468 71.344C146.216 71.6333 145.959 71.9227 145.698 72.212C145.446 72.5013 145.203 72.7767 144.97 73.038C145.25 73.3087 145.539 73.6027 145.838 73.92C146.137 74.2373 146.426 74.5687 146.706 74.914C146.995 75.25 147.271 75.6 147.532 75.964C147.793 76.3187 148.022 76.664 148.218 77H146.762C146.566 76.692 146.337 76.37 146.076 76.034C145.824 75.6887 145.558 75.3573 145.278 75.04C145.007 74.7227 144.732 74.4287 144.452 74.158C144.181 73.878 143.929 73.6493 143.696 73.472V77H142.45V73.472C142.217 73.6493 141.96 73.878 141.68 74.158C141.409 74.4287 141.134 74.7227 140.854 75.04C140.583 75.3573 140.317 75.6887 140.056 76.034C139.804 76.37 139.58 76.692 139.384 77H137.942C138.138 76.664 138.362 76.3187 138.614 75.964C138.875 75.6093 139.146 75.264 139.426 74.928C139.715 74.5827 140.009 74.2513 140.308 73.934C140.607 73.6167 140.896 73.3227 141.176 73.052C140.943 72.7907 140.695 72.5153 140.434 72.226C140.182 71.9367 139.93 71.6473 139.678 71.358C139.426 71.0593 139.183 70.7747 138.95 70.504C138.717 70.224 138.502 69.9627 138.306 69.72H139.748C140.084 70.14 140.471 70.6067 140.91 71.12C141.349 71.6333 141.862 72.226 142.45 72.898V69.72H143.696V72.898C144.284 72.226 144.797 71.6333 145.236 71.12C145.675 70.6067 146.062 70.14 146.398 69.72H147.826ZM155.928 69.72V77H154.668V71.456C154.388 71.8107 154.08 72.226 153.744 72.702C153.408 73.178 153.072 73.6727 152.736 74.186C152.4 74.69 152.078 75.1893 151.77 75.684C151.462 76.1787 151.196 76.6173 150.972 77H149.81V69.72H151.07V74.956C151.312 74.5547 151.588 74.116 151.896 73.64C152.204 73.1547 152.521 72.6787 152.848 72.212C153.184 71.736 153.515 71.2833 153.842 70.854C154.178 70.4153 154.49 70.0373 154.78 69.72H155.928ZM159.717 76.02C159.773 76.0293 159.853 76.0387 159.955 76.048C160.058 76.0573 160.175 76.0667 160.305 76.076C160.436 76.076 160.571 76.0807 160.711 76.09C160.861 76.09 161.001 76.09 161.131 76.09C161.402 76.09 161.659 76.0713 161.901 76.034C162.153 75.9967 162.368 75.9313 162.545 75.838C162.732 75.7447 162.877 75.6233 162.979 75.474C163.091 75.3153 163.147 75.1147 163.147 74.872C163.147 74.6387 163.096 74.4473 162.993 74.298C162.9 74.1393 162.769 74.0133 162.601 73.92C162.433 73.8267 162.233 73.7613 161.999 73.724C161.775 73.6867 161.533 73.668 161.271 73.668H159.717V76.02ZM161.103 72.702C161.355 72.702 161.584 72.688 161.789 72.66C162.004 72.6227 162.186 72.562 162.335 72.478C162.494 72.394 162.615 72.282 162.699 72.142C162.793 72.002 162.839 71.8247 162.839 71.61C162.839 71.386 162.783 71.2087 162.671 71.078C162.559 70.9473 162.41 70.8493 162.223 70.784C162.046 70.7093 161.841 70.6627 161.607 70.644C161.383 70.616 161.155 70.602 160.921 70.602C160.707 70.602 160.487 70.6067 160.263 70.616C160.049 70.6253 159.867 70.6347 159.717 70.644V72.702H161.103ZM161.075 77.126C160.525 77.126 160.016 77.098 159.549 77.042C159.083 76.9953 158.714 76.9393 158.443 76.874V69.79C158.714 69.7247 159.083 69.6687 159.549 69.622C160.016 69.566 160.525 69.538 161.075 69.538C161.458 69.538 161.831 69.5707 162.195 69.636C162.559 69.7013 162.881 69.8133 163.161 69.972C163.441 70.1213 163.665 70.3313 163.833 70.602C164.011 70.8633 164.099 71.19 164.099 71.582C164.099 71.9367 164.011 72.24 163.833 72.492C163.656 72.744 163.418 72.94 163.119 73.08C163.521 73.22 163.838 73.43 164.071 73.71C164.314 73.9807 164.435 74.3633 164.435 74.858C164.435 75.2967 164.347 75.6607 164.169 75.95C164.001 76.2393 163.763 76.4727 163.455 76.65C163.157 76.8273 162.802 76.9487 162.391 77.014C161.981 77.0887 161.542 77.126 161.075 77.126ZM168.857 76.062C169.165 76.062 169.436 76.0573 169.669 76.048C169.912 76.0293 170.113 76.0013 170.271 75.964V73.794C170.178 73.7473 170.024 73.71 169.809 73.682C169.604 73.6447 169.352 73.626 169.053 73.626C168.857 73.626 168.647 73.64 168.423 73.668C168.209 73.696 168.008 73.7567 167.821 73.85C167.644 73.934 167.495 74.0553 167.373 74.214C167.252 74.3633 167.191 74.564 167.191 74.816C167.191 75.2827 167.341 75.6093 167.639 75.796C167.938 75.9733 168.344 76.062 168.857 76.062ZM168.745 69.538C169.268 69.538 169.707 69.608 170.061 69.748C170.425 69.8787 170.715 70.07 170.929 70.322C171.153 70.5647 171.312 70.8587 171.405 71.204C171.499 71.54 171.545 71.9133 171.545 72.324V76.874C171.433 76.8927 171.275 76.9207 171.069 76.958C170.873 76.986 170.649 77.014 170.397 77.042C170.145 77.07 169.87 77.0933 169.571 77.112C169.282 77.14 168.993 77.154 168.703 77.154C168.293 77.154 167.915 77.112 167.569 77.028C167.224 76.944 166.925 76.8133 166.673 76.636C166.421 76.4493 166.225 76.2067 166.085 75.908C165.945 75.6093 165.875 75.25 165.875 74.83C165.875 74.4287 165.955 74.0833 166.113 73.794C166.281 73.5047 166.505 73.2713 166.785 73.094C167.065 72.9167 167.392 72.786 167.765 72.702C168.139 72.618 168.531 72.576 168.941 72.576C169.072 72.576 169.207 72.5853 169.347 72.604C169.487 72.6133 169.618 72.632 169.739 72.66C169.87 72.6787 169.982 72.6973 170.075 72.716C170.169 72.7347 170.234 72.7487 170.271 72.758V72.394C170.271 72.1793 170.248 71.9693 170.201 71.764C170.155 71.5493 170.071 71.3627 169.949 71.204C169.828 71.036 169.66 70.9053 169.445 70.812C169.24 70.7093 168.969 70.658 168.633 70.658C168.204 70.658 167.826 70.6907 167.499 70.756C167.182 70.812 166.944 70.8727 166.785 70.938L166.631 69.86C166.799 69.7853 167.079 69.7153 167.471 69.65C167.863 69.5753 168.288 69.538 168.745 69.538ZM179.952 77H178.65V73.78H175.29V77H173.988V69.72H175.29V72.688H178.65V69.72H179.952V77ZM188.589 69.72V77H187.329V71.456C187.049 71.8107 186.741 72.226 186.405 72.702C186.069 73.178 185.733 73.6727 185.397 74.186C185.061 74.69 184.739 75.1893 184.431 75.684C184.123 76.1787 183.857 76.6173 183.633 77H182.471V69.72H183.731V74.956C183.973 74.5547 184.249 74.116 184.557 73.64C184.865 73.1547 185.182 72.6787 185.509 72.212C185.845 71.736 186.176 71.2833 186.503 70.854C186.839 70.4153 187.151 70.0373 187.441 69.72H188.589ZM190.698 73.374C190.698 72.73 190.792 72.17 190.978 71.694C191.165 71.2087 191.412 70.8073 191.72 70.49C192.028 70.1727 192.383 69.9347 192.784 69.776C193.186 69.6173 193.596 69.538 194.016 69.538C194.996 69.538 195.748 69.846 196.27 70.462C196.793 71.0687 197.054 71.9973 197.054 73.248C197.054 73.304 197.054 73.3787 197.054 73.472C197.054 73.556 197.05 73.6353 197.04 73.71H192.056C192.112 74.466 192.332 75.04 192.714 75.432C193.097 75.824 193.694 76.02 194.506 76.02C194.964 76.02 195.346 75.9827 195.654 75.908C195.972 75.824 196.21 75.7447 196.368 75.67L196.55 76.762C196.392 76.846 196.112 76.9347 195.71 77.028C195.318 77.1213 194.87 77.168 194.366 77.168C193.732 77.168 193.181 77.0747 192.714 76.888C192.257 76.692 191.879 76.426 191.58 76.09C191.282 75.754 191.058 75.3573 190.908 74.9C190.768 74.4333 190.698 73.9247 190.698 73.374ZM195.696 72.66C195.706 72.072 195.556 71.5913 195.248 71.218C194.95 70.8353 194.534 70.644 194.002 70.644C193.704 70.644 193.438 70.7047 193.204 70.826C192.98 70.938 192.789 71.0873 192.63 71.274C192.472 71.4607 192.346 71.6753 192.252 71.918C192.168 72.1607 192.112 72.408 192.084 72.66H195.696ZM203.901 70.56C204.19 70.3267 204.526 70.1493 204.909 70.028C205.301 69.8973 205.674 69.832 206.029 69.832C207.074 69.832 207.863 70.154 208.395 70.798C208.936 71.4327 209.207 72.3193 209.207 73.458C209.207 73.9433 209.142 74.41 209.011 74.858C208.88 75.306 208.675 75.7027 208.395 76.048C208.124 76.3933 207.779 76.6687 207.359 76.874C206.939 77.0793 206.44 77.182 205.861 77.182C205.198 77.182 204.648 77.0607 204.209 76.818C203.77 76.5753 203.42 76.244 203.159 75.824C202.907 75.404 202.73 74.914 202.627 74.354C202.524 73.794 202.473 73.2013 202.473 72.576C202.473 71.764 202.529 71.008 202.641 70.308C202.762 69.608 202.977 68.992 203.285 68.46C203.593 67.928 204.018 67.4893 204.559 67.144C205.11 66.7893 205.814 66.5513 206.673 66.43C206.925 66.3927 207.144 66.3647 207.331 66.346C207.527 66.318 207.695 66.2947 207.835 66.276C207.984 66.2573 208.12 66.2387 208.241 66.22C208.362 66.192 208.488 66.164 208.619 66.136L208.759 67.312C208.694 67.3307 208.624 67.3447 208.549 67.354C208.484 67.3633 208.386 67.3773 208.255 67.396C208.134 67.4147 207.966 67.438 207.751 67.466C207.546 67.494 207.275 67.5267 206.939 67.564C206.015 67.6667 205.306 67.9467 204.811 68.404C204.316 68.8613 204.013 69.58 203.901 70.56ZM203.817 72.786C203.817 73.2247 203.845 73.64 203.901 74.032C203.966 74.424 204.074 74.7693 204.223 75.068C204.382 75.3667 204.592 75.6047 204.853 75.782C205.114 75.95 205.45 76.034 205.861 76.034C206.216 76.034 206.519 75.9687 206.771 75.838C207.023 75.698 207.228 75.5113 207.387 75.278C207.546 75.0447 207.662 74.774 207.737 74.466C207.812 74.1487 207.849 73.8127 207.849 73.458C207.849 73.1407 207.816 72.8327 207.751 72.534C207.695 72.2353 207.588 71.9693 207.429 71.736C207.27 71.5027 207.056 71.316 206.785 71.176C206.524 71.036 206.192 70.966 205.791 70.966C205.399 70.966 205.021 71.05 204.657 71.218C204.302 71.386 204.027 71.5913 203.831 71.834C203.822 71.9367 203.817 72.0813 203.817 72.268C203.817 72.4547 203.817 72.6273 203.817 72.786ZM212.633 72.73H214.229C214.285 72.2447 214.406 71.806 214.593 71.414C214.789 71.022 215.032 70.686 215.321 70.406C215.61 70.126 215.942 69.9113 216.315 69.762C216.688 69.6127 217.09 69.538 217.519 69.538C217.995 69.538 218.434 69.6313 218.835 69.818C219.246 69.9953 219.6 70.252 219.899 70.588C220.198 70.924 220.431 71.33 220.599 71.806C220.767 72.2727 220.851 72.7907 220.851 73.36C220.851 73.9387 220.767 74.4613 220.599 74.928C220.431 75.3947 220.198 75.796 219.899 76.132C219.6 76.468 219.246 76.7293 218.835 76.916C218.434 77.0933 217.995 77.182 217.519 77.182C217.071 77.182 216.651 77.1027 216.259 76.944C215.876 76.776 215.54 76.5473 215.251 76.258C214.962 75.9593 214.724 75.6 214.537 75.18C214.36 74.76 214.252 74.2933 214.215 73.78H212.633V77H211.331V69.72H212.633V72.73ZM219.507 73.36C219.507 72.5387 219.325 71.89 218.961 71.414C218.606 70.9287 218.126 70.686 217.519 70.686C216.912 70.686 216.427 70.9287 216.063 71.414C215.708 71.89 215.531 72.5387 215.531 73.36C215.531 74.1813 215.708 74.8347 216.063 75.32C216.427 75.796 216.912 76.034 217.519 76.034C218.126 76.034 218.606 75.796 218.961 75.32C219.325 74.8347 219.507 74.1813 219.507 73.36ZM222.063 75.936H222.847C223.155 75.488 223.397 75.026 223.575 74.55C223.761 74.074 223.901 73.584 223.995 73.08C224.088 72.5667 224.149 72.0347 224.177 71.484C224.205 70.924 224.223 70.336 224.233 69.72H229.007V75.936H229.987V79.03H228.755V77H223.295V79.03H222.063V75.936ZM227.705 75.936V70.812H225.423C225.413 71.2507 225.39 71.694 225.353 72.142C225.315 72.5807 225.255 73.0193 225.171 73.458C225.087 73.8873 224.965 74.312 224.807 74.732C224.657 75.1427 224.466 75.544 224.233 75.936H227.705ZM240.922 69.72C240.735 69.9533 240.525 70.21 240.292 70.49C240.058 70.7607 239.816 71.0453 239.564 71.344C239.312 71.6333 239.055 71.9227 238.794 72.212C238.542 72.5013 238.299 72.7767 238.066 73.038C238.346 73.3087 238.635 73.6027 238.934 73.92C239.232 74.2373 239.522 74.5687 239.802 74.914C240.091 75.25 240.366 75.6 240.628 75.964C240.889 76.3187 241.118 76.664 241.314 77H239.858C239.662 76.692 239.433 76.37 239.172 76.034C238.92 75.6887 238.654 75.3573 238.374 75.04C238.103 74.7227 237.828 74.4287 237.548 74.158C237.277 73.878 237.025 73.6493 236.792 73.472V77H235.546V73.472C235.312 73.6493 235.056 73.878 234.776 74.158C234.505 74.4287 234.23 74.7227 233.95 75.04C233.679 75.3573 233.413 75.6887 233.152 76.034C232.9 76.37 232.676 76.692 232.48 77H231.038C231.234 76.664 231.458 76.3187 231.71 75.964C231.971 75.6093 232.242 75.264 232.522 74.928C232.811 74.5827 233.105 74.2513 233.404 73.934C233.702 73.6167 233.992 73.3227 234.272 73.052C234.038 72.7907 233.791 72.5153 233.53 72.226C233.278 71.9367 233.026 71.6473 232.774 71.358C232.522 71.0593 232.279 70.7747 232.046 70.504C231.812 70.224 231.598 69.9627 231.402 69.72H232.844C233.18 70.14 233.567 70.6067 234.006 71.12C234.444 71.6333 234.958 72.226 235.546 72.898V69.72H236.792V72.898C237.38 72.226 237.893 71.6333 238.332 71.12C238.77 70.6067 239.158 70.14 239.494 69.72H240.922ZM242.13 73.374C242.13 72.73 242.224 72.17 242.41 71.694C242.597 71.2087 242.844 70.8073 243.152 70.49C243.46 70.1727 243.815 69.9347 244.216 69.776C244.618 69.6173 245.028 69.538 245.448 69.538C246.428 69.538 247.18 69.846 247.702 70.462C248.225 71.0687 248.486 71.9973 248.486 73.248C248.486 73.304 248.486 73.3787 248.486 73.472C248.486 73.556 248.482 73.6353 248.472 73.71H243.488C243.544 74.466 243.764 75.04 244.146 75.432C244.529 75.824 245.126 76.02 245.938 76.02C246.396 76.02 246.778 75.9827 247.086 75.908C247.404 75.824 247.642 75.7447 247.8 75.67L247.982 76.762C247.824 76.846 247.544 76.9347 247.142 77.028C246.75 77.1213 246.302 77.168 245.798 77.168C245.164 77.168 244.613 77.0747 244.146 76.888C243.689 76.692 243.311 76.426 243.012 76.09C242.714 75.754 242.49 75.3573 242.34 74.9C242.2 74.4333 242.13 73.9247 242.13 73.374ZM247.128 72.66C247.138 72.072 246.988 71.5913 246.68 71.218C246.382 70.8353 245.966 70.644 245.434 70.644C245.136 70.644 244.87 70.7047 244.636 70.826C244.412 70.938 244.221 71.0873 244.062 71.274C243.904 71.4607 243.778 71.6753 243.684 71.918C243.6 72.1607 243.544 72.408 243.516 72.66H247.128ZM255.775 69.72V70.812H253.409V77H252.107V70.812H249.741V69.72H255.775ZM259.861 76.062C260.169 76.062 260.44 76.0573 260.673 76.048C260.916 76.0293 261.116 76.0013 261.275 75.964V73.794C261.182 73.7473 261.028 73.71 260.813 73.682C260.608 73.6447 260.356 73.626 260.057 73.626C259.861 73.626 259.651 73.64 259.427 73.668C259.212 73.696 259.012 73.7567 258.825 73.85C258.648 73.934 258.498 74.0553 258.377 74.214C258.256 74.3633 258.195 74.564 258.195 74.816C258.195 75.2827 258.344 75.6093 258.643 75.796C258.942 75.9733 259.348 76.062 259.861 76.062ZM259.749 69.538C260.272 69.538 260.71 69.608 261.065 69.748C261.429 69.8787 261.718 70.07 261.933 70.322C262.157 70.5647 262.316 70.8587 262.409 71.204C262.502 71.54 262.549 71.9133 262.549 72.324V76.874C262.437 76.8927 262.278 76.9207 262.073 76.958C261.877 76.986 261.653 77.014 261.401 77.042C261.149 77.07 260.874 77.0933 260.575 77.112C260.286 77.14 259.996 77.154 259.707 77.154C259.296 77.154 258.918 77.112 258.573 77.028C258.228 76.944 257.929 76.8133 257.677 76.636C257.425 76.4493 257.229 76.2067 257.089 75.908C256.949 75.6093 256.879 75.25 256.879 74.83C256.879 74.4287 256.958 74.0833 257.117 73.794C257.285 73.5047 257.509 73.2713 257.789 73.094C258.069 72.9167 258.396 72.786 258.769 72.702C259.142 72.618 259.534 72.576 259.945 72.576C260.076 72.576 260.211 72.5853 260.351 72.604C260.491 72.6133 260.622 72.632 260.743 72.66C260.874 72.6787 260.986 72.6973 261.079 72.716C261.172 72.7347 261.238 72.7487 261.275 72.758V72.394C261.275 72.1793 261.252 71.9693 261.205 71.764C261.158 71.5493 261.074 71.3627 260.953 71.204C260.832 71.036 260.664 70.9053 260.449 70.812C260.244 70.7093 259.973 70.658 259.637 70.658C259.208 70.658 258.83 70.6907 258.503 70.756C258.186 70.812 257.948 70.8727 257.789 70.938L257.635 69.86C257.803 69.7853 258.083 69.7153 258.475 69.65C258.867 69.5753 259.292 69.538 259.749 69.538Z" fill="#13164A"/>
<defs>
<clipPath id="clip0_1752_9633">
<rect width="80" height="80" fill="white" transform="translate(4 4)"/>
</clipPath>
</defs>
</svg>
