<svg width="41" height="40" viewBox="0 0 41 40" fill="none" xmlns="http://www.w3.org/2000/svg">
<path d="M23.8747 19.1048L18.5037 17.5383C17.8323 17.3145 17.3101 16.5685 17.3101 15.8226C17.3101 14.8528 18.0561 14.0323 18.8767 14.0323H22.2335C22.7557 14.0323 23.2779 14.1815 23.7255 14.4798C24.173 14.7782 24.7698 14.7036 25.1428 14.3306L26.038 13.5101C26.6347 12.9879 26.5601 12.0927 25.8888 11.6452C24.8444 10.8992 23.6509 10.5262 22.4573 10.5262V9.25806C22.4573 8.66129 21.9351 8.06452 21.2638 8.06452H20.0702C19.3988 8.06452 18.8767 8.66129 18.8767 9.25806V10.4516C16.042 10.5262 13.8041 12.9133 13.8041 15.8226C13.8041 18.1351 15.296 20.2984 17.4593 20.8952L22.8303 22.5363C23.5017 22.7601 23.9493 23.4315 23.9493 24.252C23.9493 25.2218 23.2779 25.9677 22.3827 25.9677H19.0259C18.5037 25.9677 18.0561 25.8931 17.6085 25.5948C17.0863 25.2964 16.4896 25.371 16.1166 25.744L15.2214 26.5645C14.6247 27.0867 14.7738 27.9819 15.3706 28.4294C16.415 29.1008 17.6085 29.5484 18.8767 29.5484V30.7419C18.8767 31.4133 19.3988 31.9355 20.0702 31.9355H21.2638C21.8605 31.9355 22.4573 31.4133 22.4573 30.7419V29.5484C25.2174 29.5484 27.5299 27.1613 27.5299 24.252C27.5299 21.9395 26.038 19.7762 23.8747 19.1048ZM20.667 1.5C10.4472 1.5 2.16699 9.78024 2.16699 20C2.16699 30.2198 10.4472 38.5 20.667 38.5C30.8868 38.5 39.167 30.2198 39.167 20C39.167 9.78024 30.8868 1.5 20.667 1.5ZM20.667 34.9194C12.3868 34.9194 5.74764 28.2802 5.74764 20C5.74764 11.7944 12.3868 5.08065 20.667 5.08065C28.8726 5.08065 35.5863 11.7944 35.5863 20C35.5863 28.2802 28.8726 34.9194 20.667 34.9194Z" fill="#8C8D91"/>
</svg>
