<svg width="40" height="40" viewBox="0 0 40 40" fill="none" xmlns="http://www.w3.org/2000/svg">
<path d="M17.9688 18.2812L21.25 19.2188C21.6406 19.2969 21.875 19.5312 21.875 19.8438C21.875 20.2344 21.4844 20.5469 21.0156 20.5469H18.9844C18.6719 20.5469 18.3594 20.4688 18.0469 20.3125C17.8125 20.1562 17.5 20.1562 17.3438 20.3906L16.4062 21.4062C16.1719 21.6406 16.1719 22.0312 16.4844 22.2656C17.1094 22.6562 17.8906 22.9688 18.75 22.9688V23.75C18.75 24.1406 18.9844 24.375 19.375 24.375H20.625C20.9375 24.375 21.25 24.1406 21.25 23.75V22.9688C22.9688 22.8906 24.375 21.5625 24.375 19.8438C24.375 18.4375 23.3594 17.1875 21.9531 16.7969L18.6719 15.8594C18.2812 15.7812 18.125 15.5469 18.125 15.2344C18.125 14.8438 18.4375 14.5312 18.9062 14.5312H20.9375C21.25 14.5312 21.5625 14.6094 21.875 14.7656C22.1094 14.9219 22.4219 14.9219 22.5781 14.6875L23.5156 13.6719C23.75 13.4375 23.75 13.0469 23.4375 12.8125C22.8125 12.4219 22.0312 12.1094 21.25 12.1094V11.25C21.25 10.9375 20.9375 10.625 20.625 10.625H19.375C18.9844 10.625 18.75 10.9375 18.75 11.25V12.1094C16.9531 12.1875 15.625 13.5156 15.625 15.2344C15.625 16.6406 16.5625 17.8906 17.9688 18.2812ZM38.5938 12.8906C38.5156 12.8125 37.5 12.0312 36.25 10.9375V7.5C36.25 5.46875 34.5312 3.75 32.5 3.75H27.2656C25.5469 2.26562 22.8906 0 20 0C17.0312 0 14.4531 2.26562 12.6562 3.75H7.5C5.39062 3.75 3.75 5.46875 3.75 7.5V10.9375C2.42188 12.0312 1.40625 12.8125 1.32812 12.8906C0.46875 13.5938 0 14.6094 0 15.7812V36.25C0 38.3594 1.64062 40 3.75 40H36.25C38.2812 40 40 38.3594 40 36.25V15.7812C40 14.6875 39.4531 13.5938 38.5938 12.8906ZM7.5 7.5H32.5V19.7656C29.6094 22.0312 26.3281 24.7656 25.7031 25.2344C24.2969 26.4062 21.7969 28.75 20 28.75C18.125 28.75 15.625 26.3281 14.2188 25.2344C13.5938 24.7656 10.3125 22.0312 7.5 19.7656V7.5ZM36.25 35.7812C36.25 36.0938 36.0156 36.25 35.7812 36.25H4.21875C3.90625 36.25 3.75 36.0938 3.75 35.7812V21.5625C6.71875 24.0625 11.1719 27.6562 11.875 28.2031C13.5938 29.5312 16.5625 32.5 20 32.5C23.3594 32.5 26.25 29.6094 28.0469 28.2031C28.75 27.5781 33.2031 23.9844 36.25 21.5625V35.7812Z" fill="#8C8D91"/>
</svg>
