<svg width="40" height="40" viewBox="0 0 40 40" fill="none" xmlns="http://www.w3.org/2000/svg">
<path d="M35.1117 18H33.4462C32.8356 16.4375 31.8363 15.125 30.6704 14.0625V10H29.7822C28.0612 10 26.5622 10.6875 25.2853 11.6875C25.2853 11.4375 25.3409 11.25 25.3409 11C25.3409 7.1875 22.5095 4 19.123 4C15.681 4 12.9052 7.1875 12.9052 11C12.9052 11.625 12.9607 12.1875 13.0717 12.75C10.3514 14 8.35286 16.75 7.74218 20H7.1315C6.29875 20 5.63256 19.1875 5.79911 18.25C5.91014 17.5 6.52082 17 7.18701 17H7.24253C7.40908 17 7.57563 16.875 7.57563 16.625V15.375C7.57563 15.1875 7.40908 15 7.24253 15C5.63256 15 4.24465 16.3125 4.02258 18.0625C3.80052 20.1875 5.24394 22 7.1315 22H7.57563C7.57563 25.3125 8.96354 28.1875 11.1287 30V35C11.1287 35.5625 11.5173 36 12.0169 36H18.2348C18.6789 36 19.123 35.5625 19.123 35V32H22.6761V35C22.6761 35.5625 23.0647 36 23.5643 36H29.7822C30.2263 36 30.6704 35.5625 30.6704 35V30C31.2811 29.4375 31.8918 28.75 32.3914 28H35.1117C35.5559 28 36 27.5625 36 27V19C36 18.5 35.5559 18 35.1117 18ZM19.123 7C21.0661 7 22.6761 8.8125 22.6761 11C22.6761 11.375 22.6206 11.6875 22.5095 12H16.4582C16.1807 12 15.9586 12.0625 15.681 12.125C15.6255 11.75 15.57 11.375 15.57 11C15.57 8.8125 17.1244 7 19.123 7ZM33.3352 25H31.059C29.7267 27 30.0042 26.75 28.0056 28.5V33H25.3409V29H16.4582V33H13.7935V28.5C12.9607 27.8125 10.2404 26 10.2404 22C10.2404 18.1875 13.0162 15 16.4582 15H25.7295C26.2291 14.5625 26.9508 13.8125 28.0056 13.375V15.5625C30.5039 17.6875 30.4484 17.75 31.7252 21H33.3352V25ZM28.0056 20C27.506 20 27.1174 20.5 27.1174 21C27.1174 21.5625 27.506 22 28.0056 22C28.4498 22 28.8939 21.5625 28.8939 21C28.8939 20.5 28.4498 20 28.0056 20Z" fill="#D2D5DB"/>
</svg>
