<svg width="40" height="40" viewBox="0 0 40 40" fill="none" xmlns="http://www.w3.org/2000/svg">
<path d="M24.4142 11.25L27.8574 6.1875C27.9826 6 27.9826 5.75 27.9826 5.5625C27.9826 4.6875 27.3566 4.0625 26.5428 4H13.5212C12.6447 4 12.0187 4.6875 12.0187 5.5C12.0187 5.75 12.0187 6 12.1439 6.1875L15.6497 11.25C3.37933 18.75 4.00537 28.5625 4.00537 29.75C4.00537 33.25 7.07296 36 10.8292 36H29.1721C32.9284 36 35.9959 33.25 35.9959 29.75C35.9959 28.5625 36.5594 18.6875 24.4142 11.25ZM23.663 7L21.284 10.5H18.7173L16.3383 7H23.663ZM32.991 29.75C32.991 31.5625 31.3006 33 29.1721 33H10.8292C8.70066 33 7.01035 31.5625 7.01035 29.75C6.94775 24.6875 9.01368 18.8125 17.7156 13.5H22.3483C30.925 18.8125 33.0536 24.6875 32.991 29.75ZM21.8475 23.4375L18.7799 22.5625C18.4043 22.4375 18.2164 22.0625 18.2164 21.6875C18.2164 21.1875 18.5295 20.8125 18.9677 20.8125H20.9084C21.2214 20.8125 21.5344 20.875 21.7849 21.0625C21.8475 21.125 21.9727 21.125 22.0979 21.125C22.2231 21.125 22.3483 21.0625 22.4735 21L23.2874 20.25C23.35 20.125 23.4126 20 23.4126 19.875C23.4126 19.6875 23.35 19.5 23.2248 19.4375C22.5987 19 21.9101 18.6875 21.0962 18.6875V17.5625C21.0962 17.25 20.8458 17.0625 20.5328 17.0625V17H19.4685C19.1555 17 18.9051 17.25 18.9051 17.5625V18.6875C17.2774 18.6875 16.0253 20.0625 16.0253 21.6875C16.0253 23.0625 16.9018 24.25 18.1538 24.625L21.2214 25.5C21.5971 25.625 21.7849 26 21.7849 26.375C21.7849 26.875 21.4718 27.25 21.0336 27.25H19.0929C18.7799 27.25 18.4669 27.1875 18.2164 27C18.1538 26.9375 18.0286 26.9375 17.9034 26.9375C17.7782 26.9375 17.653 27 17.5278 27.0625L16.714 27.8125C16.6513 27.9375 16.5887 28.0625 16.5887 28.1875C16.5887 28.375 16.6513 28.5625 16.7766 28.625C17.4026 29.0625 18.0912 29.375 18.9051 29.375V30.5C18.9051 30.8125 19.1555 31 19.4685 31H20.5328C20.8458 31 21.0962 30.8125 21.0962 30.5V29.375C22.7239 29.375 23.976 28 23.976 26.375C24.0386 25 23.0995 23.8125 21.8475 23.4375Z" fill="#D2D5DB"/>
</svg>
