<svg width="40" height="40" viewBox="0 0 40 40" fill="none" xmlns="http://www.w3.org/2000/svg">
<rect width="40" height="40" rx="20" fill="#303360"/>
<path d="M23.3333 22.0833C22.2655 22.0833 22.0833 22.0573 21.4322 22.2656C20.9895 22.4219 20.4947 22.5 19.9999 22.5C19.4791 22.5 18.9843 22.4219 18.5416 22.2656C17.8905 22.0573 17.7083 22.0833 16.6666 22.0833C14.8176 22.0833 13.3333 23.5938 13.3333 25.4167V25.8333C13.3333 26.3021 13.6978 26.6667 14.1666 26.6667H25.8333C26.276 26.6667 26.6666 26.3021 26.6666 25.8333V25.4167C26.6666 23.5938 25.1562 22.0833 23.3333 22.0833ZM25.4166 25.4167H14.5833C14.5833 24.8698 14.7916 24.349 15.1822 23.9583C15.5728 23.5677 16.0937 23.3333 16.6666 23.3333C17.7343 23.3333 17.7343 23.3073 18.1249 23.4636C18.7239 23.6458 19.3489 23.75 19.9999 23.75C20.6249 23.75 21.2499 23.6458 21.8489 23.4636C22.2655 23.3073 22.2395 23.3333 23.3333 23.3333C24.4791 23.3333 25.4166 24.2708 25.4166 25.4167ZM19.9999 21.6667C22.2916 21.6667 24.1666 19.8177 24.1666 17.5C24.1666 15.2083 22.2916 13.3333 19.9999 13.3333C17.6822 13.3333 15.8333 15.2083 15.8333 17.5C15.8333 19.8177 17.6822 21.6667 19.9999 21.6667ZM19.9999 14.5833C21.5885 14.5833 22.9166 15.9115 22.9166 17.5C22.9166 19.1146 21.5885 20.4167 19.9999 20.4167C18.3853 20.4167 17.0833 19.1146 17.0833 17.5C17.0833 15.9115 18.3853 14.5833 19.9999 14.5833Z" fill="white"/>
</svg>
