<svg width="12" height="16" viewBox="0 0 12 16" fill="none" xmlns="http://www.w3.org/2000/svg">
<path d="M5.72063 0C3.40813 0 1.65813 0.96875 0.34563 2.90625C-0.24812 3.78125 -0.0606202 4.96875 0.78313 5.625L1.93938 6.5C2.25188 6.75 2.68938 6.90625 3.09563 6.90625C2.75188 7.5 2.56438 8.15625 2.56438 8.90625V9.28125C2.56438 9.78125 2.75188 10.25 3.06438 10.5938C2.53313 11.1875 2.25188 11.9375 2.25188 12.75C2.25188 14.5625 3.68938 16 5.50188 16C7.28313 16 8.75188 14.5625 8.75188 12.75C8.75188 11.9375 8.43938 11.1875 7.90813 10.5938C8.18938 10.3125 8.37688 9.90625 8.40813 9.5C9.28313 8.96875 11.4081 7.96875 11.4081 5.1875C11.4081 2.25 8.56438 0 5.72063 0ZM5.50188 14.5C4.53313 14.5 3.75188 13.7188 3.75188 12.75C3.75188 11.8125 4.53313 11 5.50188 11C6.43938 11 7.25188 11.8125 7.25188 12.75C7.25188 13.7188 6.43938 14.5 5.50188 14.5ZM6.90813 9V9.28125C6.90813 9.53125 6.68938 9.75 6.43938 9.75H4.53313C4.28313 9.75 4.06438 9.53125 4.06438 9.28125V8.90625C4.06438 7.4375 5.15813 6.84375 6.00188 6.375C6.75188 5.96875 7.18938 5.6875 7.18938 5.15625C7.18938 4.4375 6.28313 3.96875 5.53313 3.96875C4.59563 3.96875 4.12688 4.4375 3.53313 5.21875C3.34563 5.40625 3.03313 5.46875 2.84563 5.28125L1.68938 4.4375C1.47063 4.28125 1.43938 3.96875 1.56438 3.75C2.56438 2.3125 3.78313 1.5 5.72063 1.5C7.75188 1.5 9.90813 3.09375 9.90813 5.1875C9.90813 7.9375 6.90813 8 6.90813 9Z" fill="#13164A"/>
</svg>
