<svg width="24" height="24" viewBox="0 0 24 24" fill="none" xmlns="http://www.w3.org/2000/svg">
<path d="M11.7206 4C9.40813 4 7.65813 4.96875 6.34563 6.90625C5.75188 7.78125 5.93938 8.96875 6.78313 9.625L7.93938 10.5C8.25188 10.75 8.68938 10.9062 9.09563 10.9062C8.75188 11.5 8.56438 12.1562 8.56438 12.9062V13.2812C8.56438 13.7812 8.75188 14.25 9.06438 14.5938C8.53313 15.1875 8.25188 15.9375 8.25188 16.75C8.25188 18.5625 9.68938 20 11.5019 20C13.2831 20 14.7519 18.5625 14.7519 16.75C14.7519 15.9375 14.4394 15.1875 13.9081 14.5938C14.1894 14.3125 14.3769 13.9062 14.4081 13.5C15.2831 12.9688 17.4081 11.9688 17.4081 9.1875C17.4081 6.25 14.5644 4 11.7206 4ZM11.5019 18.5C10.5331 18.5 9.75188 17.7188 9.75188 16.75C9.75188 15.8125 10.5331 15 11.5019 15C12.4394 15 13.2519 15.8125 13.2519 16.75C13.2519 17.7188 12.4394 18.5 11.5019 18.5ZM12.9081 13V13.2812C12.9081 13.5312 12.6894 13.75 12.4394 13.75H10.5331C10.2831 13.75 10.0644 13.5312 10.0644 13.2812V12.9062C10.0644 11.4375 11.1581 10.8438 12.0019 10.375C12.7519 9.96875 13.1894 9.6875 13.1894 9.15625C13.1894 8.4375 12.2831 7.96875 11.5331 7.96875C10.5956 7.96875 10.1269 8.4375 9.53313 9.21875C9.34563 9.40625 9.03313 9.46875 8.84563 9.28125L7.68938 8.4375C7.47063 8.28125 7.43938 7.96875 7.56438 7.75C8.56438 6.3125 9.78313 5.5 11.7206 5.5C13.7519 5.5 15.9081 7.09375 15.9081 9.1875C15.9081 11.9375 12.9081 12 12.9081 13Z" fill="#13164A"/>
</svg>
