<svg width="40" height="40" viewBox="0 0 40 40" fill="none" xmlns="http://www.w3.org/2000/svg">
<path d="M26.9611 10.5C25.5847 10.5 24.4585 11.625 24.4585 13C24.4585 14.4375 25.5847 15.5 26.9611 15.5C28.4001 15.5 29.4637 14.4375 29.4637 13C29.4637 11.625 28.4001 10.5625 26.9611 10.5ZM35.595 5.25C35.4699 4.875 35.157 4.5625 34.7817 4.4375C32.7796 4 31.1529 4 29.5888 4C23.0821 4 19.1406 7.5 16.2626 12H9.88105C8.88002 12.0625 7.6913 12.75 7.19078 13.6875L4.12513 19.875C4.06256 20.0625 4 20.3125 4 20.5C4 21.375 4.62564 22 5.50154 22H11.2575L10.6318 23.375C10.0062 24.5625 10.8821 25.5625 11.0072 25.6875L14.3231 29C15.3241 30 16.4503 29.5 16.638 29.375L17.9518 28.75V34.5C17.9518 35.375 18.6401 36 19.4534 36C19.7037 36 19.9539 35.9375 20.1416 35.875L26.3355 32.8125C27.2114 32.3125 27.9621 31.125 27.9621 30.125V23.75C32.5293 20.8125 35.9704 16.9375 35.9704 10.4375C36.0329 8.875 36.0329 7.25 35.595 5.25ZM26.398 21.1875C24.0832 22.375 18.8278 25 15.9498 26.375L13.6349 24.0625C15.0113 21.1875 17.639 15.9375 18.7652 13.625C21.7683 9 24.9591 7 29.5888 7C30.715 7 31.716 7 32.8422 7.1875C33.0299 8.375 33.0299 9.375 32.9673 10.4375C32.9673 15 31.0278 18.25 26.398 21.1875Z" fill="#13164A"/>
</svg>
