<svg width="40" height="40" viewBox="0 0 40 40" fill="none" xmlns="http://www.w3.org/2000/svg">
<path d="M29.5 26.9611C29.5 25.5847 28.375 24.4585 27 24.4585C25.5625 24.4585 24.5 25.5847 24.5 26.9611C24.5 28.4001 25.5625 29.4637 27 29.4637C28.375 29.4637 29.4375 28.4001 29.5 26.9611ZM34.75 35.595C35.125 35.4699 35.4375 35.157 35.5625 34.7817C36 32.7796 36 31.1529 36 29.5888C36 23.0821 32.5 19.1406 28 16.2626V9.88105C27.9375 8.88002 27.25 7.6913 26.3125 7.19078L20.125 4.12513C19.9375 4.06256 19.6875 4 19.5 4C18.625 4 18 4.62564 18 5.50154V11.2575L16.625 10.6318C15.4375 10.0062 14.4375 10.8821 14.3125 11.0072L11 14.3231C10 15.3241 10.5 16.4503 10.625 16.638L11.25 17.9519H5.5C4.625 17.9519 4 18.6401 4 19.4534C4 19.7037 4.0625 19.9539 4.125 20.1416L7.1875 26.3355C7.6875 27.2114 8.875 27.9621 9.875 27.9621H16.25C19.1875 32.5293 23.0625 35.9704 29.5625 35.9704C31.125 36.0329 32.75 36.0329 34.75 35.595ZM18.8125 26.398C17.625 24.0832 15 18.8278 13.625 15.9498L15.9375 13.6349C18.8125 15.0113 24.0625 17.639 26.375 18.7652C31 21.7683 33 24.9591 33 29.5888C33 30.715 33 31.716 32.8125 32.8422C31.625 33.0299 30.625 33.0299 29.5625 32.9673C25 32.9673 21.75 31.0278 18.8125 26.398Z" fill="#13164A"/>
</svg>
