<svg width="20" height="21" viewBox="0 0 20 21" fill="none" xmlns="http://www.w3.org/2000/svg">
<path d="M11.1094 11.8125H4V10.3086H11.1094C11.7656 10.3086 12.3079 10.1947 12.7363 9.9668C13.1647 9.73438 13.4837 9.41992 13.6934 9.02344C13.903 8.6224 14.0078 8.16667 14.0078 7.65625C14.0078 7.14583 13.903 6.69238 13.6934 6.2959C13.4837 5.89486 13.1647 5.5804 12.7363 5.35254C12.3079 5.12012 11.7656 5.00391 11.1094 5.00391H7.91016V17.5H6.21484V3.5H11.1094C12.1484 3.5 13.0052 3.68913 13.6797 4.06738C14.3542 4.44564 14.8555 4.94922 15.1836 5.57813C15.5117 6.20703 15.6758 6.89974 15.6758 7.65625C15.6758 8.41276 15.5117 9.10547 15.1836 9.73438C14.8555 10.3633 14.3542 10.8669 13.6797 11.2451C13.0052 11.6234 12.1484 11.8125 11.1094 11.8125ZM11 13.125V14.6289H4V13.125H11Z" fill="#1E1D24"/>
</svg>
