<svg width="50" height="50" viewBox="0 0 50 50" fill="none" xmlns="http://www.w3.org/2000/svg">
<g filter="url(#filter0_d_1160_4903)">
<path d="M24.4791 8.3335C15.5598 8.3335 8.33325 15.5601 8.33325 24.4793C8.33325 33.3986 15.5598 40.6252 24.4791 40.6252C33.3984 40.6252 40.6249 33.3986 40.6249 24.4793C40.6249 15.5601 33.3984 8.3335 24.4791 8.3335ZM24.4791 37.5002C17.2525 37.5002 11.4583 31.7059 11.4583 24.4793C11.4583 17.3179 17.2525 11.4585 24.4791 11.4585C31.6405 11.4585 37.4999 17.3179 37.4999 24.4793C37.4999 31.7059 31.6405 37.5002 24.4791 37.5002ZM19.2708 23.4377C20.3775 23.4377 21.3541 22.5262 21.3541 21.3543C21.3541 20.2476 20.3775 19.271 19.2708 19.271C18.0989 19.271 17.1874 20.2476 17.1874 21.3543C17.1874 22.5262 18.0989 23.4377 19.2708 23.4377ZM29.6874 23.4377C30.7942 23.4377 31.7708 22.5262 31.7708 21.3543C31.7708 20.2476 30.7942 19.271 29.6874 19.271C28.5155 19.271 27.6041 20.2476 27.6041 21.3543C27.6041 22.5262 28.5155 23.4377 29.6874 23.4377ZM29.9478 28.1903C28.5806 29.8179 26.5624 30.7293 24.4791 30.7293C22.3306 30.7293 20.3124 29.8179 19.0103 28.1903C18.4244 27.5392 17.4478 27.4741 16.7968 27.995C16.1458 28.5158 16.0155 29.5575 16.6015 30.2085C18.5546 32.5522 21.4192 33.8543 24.4791 33.8543C27.4739 33.8543 30.3385 32.5522 32.2916 30.2085C32.8775 29.5575 32.8124 28.5158 32.0963 27.995C31.4452 27.4741 30.4687 27.5392 29.9478 28.1903Z" fill="#1E1D24"/>
</g>
<defs>
<filter id="filter0_d_1160_4903" x="-4" y="0" width="58" height="58" filterUnits="userSpaceOnUse" color-interpolation-filters="sRGB">
<feFlood flood-opacity="0" result="BackgroundImageFix"/>
<feColorMatrix in="SourceAlpha" type="matrix" values="0 0 0 0 0 0 0 0 0 0 0 0 0 0 0 0 0 0 127 0" result="hardAlpha"/>
<feOffset dy="4"/>
<feGaussianBlur stdDeviation="2"/>
<feComposite in2="hardAlpha" operator="out"/>
<feColorMatrix type="matrix" values="0 0 0 0 0 0 0 0 0 0 0 0 0 0 0 0 0 0 0.25 0"/>
<feBlend mode="normal" in2="BackgroundImageFix" result="effect1_dropShadow_1160_4903"/>
<feBlend mode="normal" in="SourceGraphic" in2="effect1_dropShadow_1160_4903" result="shape"/>
</filter>
</defs>
</svg>
