<svg width="41" height="40" viewBox="0 0 41 40" fill="none" xmlns="http://www.w3.org/2000/svg">
<path d="M10.2717 21.7961C10.6958 22.2202 11.4735 22.2202 11.8977 21.7961L15.574 18.1198L21.5126 24.1291C21.9368 24.5533 22.7145 24.5533 23.1387 24.1291L30.9155 16.3523L33.0364 18.4025C34.0969 19.5337 35.935 18.756 35.935 17.2007V10.0602C35.935 9.49461 35.3694 8.92902 34.8039 8.92902H27.6634C26.108 8.92902 25.3303 10.7672 26.4615 11.8276L28.5117 13.9486L22.361 20.17L16.3517 14.1607C15.9275 13.7365 15.1498 13.7365 14.7256 14.1607L9.49398 19.3923C9.0698 19.8165 9.0698 20.5942 9.49398 21.0184L10.2717 21.7961ZM37.0662 30.4212H5.3935V7.79785C5.3935 7.23227 4.82792 6.66669 4.26233 6.66669H3.13117C2.49489 6.66669 2 7.23227 2 7.79785V31.5524C2 32.8249 2.98977 33.8147 4.26233 33.8147H37.0662C37.6318 33.8147 38.1974 33.3198 38.1974 32.6835V31.5524C38.1974 30.9868 37.6318 30.4212 37.0662 30.4212Z" fill="#8C8D91"/>
</svg>
