<svg width="20" height="20" viewBox="0 0 20 20" fill="none" xmlns="http://www.w3.org/2000/svg">
<path d="M13.3333 12.0833C12.2655 12.0833 12.0833 12.0573 11.4322 12.2656C10.9895 12.4219 10.4947 12.5 9.99992 12.5C9.47909 12.5 8.98429 12.4219 8.54159 12.2656C7.89054 12.0573 7.70825 12.0833 6.66659 12.0833C4.81763 12.0833 3.33325 13.5938 3.33325 15.4167V15.8333C3.33325 16.3021 3.69784 16.6667 4.16659 16.6667H15.8333C16.276 16.6667 16.6666 16.3021 16.6666 15.8333V15.4167C16.6666 13.5938 15.1562 12.0833 13.3333 12.0833ZM15.4166 15.4167H4.58325C4.58325 14.8698 4.79159 14.349 5.18221 13.9583C5.57284 13.5677 6.09367 13.3333 6.66659 13.3333C7.73429 13.3333 7.73429 13.3073 8.12492 13.4636C8.72388 13.6458 9.34888 13.75 9.99992 13.75C10.6249 13.75 11.2499 13.6458 11.8489 13.4636C12.2655 13.3073 12.2395 13.3333 13.3333 13.3333C14.4791 13.3333 15.4166 14.2708 15.4166 15.4167ZM9.99992 11.6667C12.2916 11.6667 14.1666 9.81772 14.1666 7.50001C14.1666 5.20834 12.2916 3.33334 9.99992 3.33334C7.68221 3.33334 5.83325 5.20834 5.83325 7.50001C5.83325 9.81772 7.68221 11.6667 9.99992 11.6667ZM9.99992 4.58334C11.5885 4.58334 12.9166 5.91147 12.9166 7.50001C12.9166 9.11459 11.5885 10.4167 9.99992 10.4167C8.38534 10.4167 7.08325 9.11459 7.08325 7.50001C7.08325 5.91147 8.38534 4.58334 9.99992 4.58334Z" fill="white"/>
</svg>
