<svg width="24" height="24" viewBox="0 0 24 24" fill="none" xmlns="http://www.w3.org/2000/svg">
<path d="M10.2554 1.19996L10.5991 0.457509L11.3837 0.834084L12.1094 0L12.8357 0.834084L13.6203 0.457509L13.964 1.19996L14.6897 1.28156L14.2091 2.07217C13.6594 1.73639 12.8279 1.54309 12.1118 1.54309C11.3957 1.54309 10.5696 1.74643 10.0199 2.0822L9.53934 1.29159L10.2554 1.19996ZM19.7983 13.8838L19.0233 14.8296C19.0155 14.8389 18.1714 15.8924 18.1071 17.2134C18.0224 18.9625 17.9203 19.7812 17.6235 20.4916C18.6196 20.3237 20.3359 19.5638 20.7114 16.364L20.7883 15.7058L21.3014 16.0442C21.3014 16.0442 21.493 16.1606 21.7712 16.1606C22.077 16.1606 22.3719 16.0262 22.6525 15.7593C21.8042 15.2543 20.7967 14.1079 20.9169 12.0731L20.9391 11.6999L21.2737 11.6665C21.2803 11.6658 22.0547 11.5742 22.456 11.0063C22.6158 10.7802 22.6969 10.508 22.7018 10.1802C19.7532 9.82372 18.3246 7.14222 17.856 6.03724C17.5694 6.24526 17.188 6.60578 17.0636 7.11078C16.9422 7.60441 17.0894 8.17094 17.5027 8.795C18.6875 10.5829 19.3958 12.025 17.6349 13.9079C17.9155 14.049 18.3156 14.1721 18.6652 14.1038L19.7983 13.8838ZM17.1098 21.4106C16.9651 21.4106 16.8816 21.4012 16.8816 21.4012L16.2261 21.3243L16.5962 20.7183C17.0762 19.9384 17.2102 19.4883 17.3225 17.1666C17.3664 16.2589 17.6926 15.475 17.981 14.9473C17.2859 14.7941 16.756 14.356 16.7296 14.3339L16.3313 13.9995L16.7157 13.647C18.5174 11.9942 18.0368 11.0745 16.8701 9.31404C16.3054 8.46056 16.1162 7.63986 16.3078 6.87266C16.6202 5.62053 17.8452 5.04196 17.8968 5.01788L18.2789 4.8413L18.4177 5.27473C18.4688 5.43191 19.71 9.14816 23.0898 9.33679L23.4137 9.35485L23.4587 9.71269C23.5512 10.4418 23.4197 11.0611 23.0694 11.5534C22.6663 12.1193 22.0697 12.3641 21.6937 12.4671C21.7273 14.6383 23.4113 15.168 23.4293 15.1734L24 15.3439L23.6377 15.8636C22.9625 16.8322 22.25 17.0355 21.7712 17.0355C21.6408 17.0355 21.5219 17.0208 21.4161 16.998C21.1302 18.6776 20.4579 19.9083 19.4126 20.6608C18.5066 21.3136 17.5808 21.4106 17.1098 21.4106ZM20.2212 6.00186C20.3155 5.93898 20.6003 5.74702 21.1037 5.81992C21.9688 5.94567 22.4236 6.96704 23.7915 6.79648C23.5206 7.72487 22.9288 7.7242 22.3876 7.61718C21.5717 7.45665 21.4402 6.48144 20.2212 6.00186ZM3.20928 15.7271L3.28918 16.3638C3.66405 19.5637 5.38043 20.3242 6.3771 20.4921C6.07972 19.7818 5.97759 18.9631 5.89288 17.214C5.8286 15.8822 4.98573 14.8401 4.97672 14.8294L4.20174 13.8836L5.33477 14.1037C5.68322 14.1719 6.08393 14.0489 6.36448 13.9077C4.60485 12.0248 5.31315 10.5828 6.49725 8.79487C6.91178 8.16947 7.05896 7.6016 6.93581 7.1073C6.81085 6.60632 6.42997 6.24646 6.144 6.03777C5.67481 7.14342 4.24619 9.82359 1.29825 10.1801C1.30305 10.5099 1.38536 10.7834 1.54696 11.0102C1.94767 11.5727 2.71905 11.6657 2.72686 11.6663L3.06089 11.7004L3.08312 12.073C3.20327 14.1077 2.19639 15.2542 1.34751 15.7592C1.62807 16.026 1.92364 16.1605 2.22883 16.1605C2.50939 16.1605 2.70163 16.0428 2.70343 16.0421L3.20928 15.7271ZM6.89015 21.4105C6.41915 21.4105 5.49398 21.3135 4.58743 20.6613C3.5427 19.9088 2.86984 18.6781 2.58448 16.9986C2.47875 17.0207 2.3592 17.0354 2.22883 17.0354C1.75002 17.0354 1.03752 16.832 0.36226 15.8635L0 15.3438L0.570725 15.1732C0.642216 15.1512 2.27509 14.6187 2.30693 12.4676C1.93085 12.3646 1.33369 12.1192 0.930582 11.5533C0.580337 11.061 0.449371 10.4416 0.541287 9.71256L0.586345 9.35471L0.910757 9.33732C4.30266 9.14736 5.57027 5.31339 5.58289 5.27459L5.72167 4.84116L6.10315 5.01774C6.15542 5.04182 7.38037 5.6204 7.69277 6.87253C7.88441 7.63972 7.69457 8.4611 7.12986 9.31391C5.96377 11.0744 5.48316 11.9941 7.28425 13.6469L7.66874 13.9994L7.27043 14.3338C7.244 14.3559 6.71413 14.794 6.01904 14.9472C6.30801 15.4749 6.63363 16.2588 6.67748 17.1665C6.79042 19.4881 6.92439 19.9389 7.4038 20.7188L7.77628 21.3242L7.11844 21.4011C7.11844 21.4011 7.03554 21.4105 6.89015 21.4105ZM3.7791 6.00186C2.56015 6.48144 2.42858 7.45665 1.61275 7.61718C1.07146 7.7242 0.479709 7.72487 0.208765 6.79648C1.5767 6.96704 2.03148 5.94567 2.89658 5.81992C3.40002 5.74702 3.68478 5.93898 3.7791 6.00186ZM14.8077 18.0581V11.6229H9.21282L9.21222 18.032C9.22423 18.4708 9.33658 18.7484 9.57748 18.9129L12.0106 20.2593L14.4443 18.9129C14.5933 18.8119 14.7927 18.6132 14.8077 18.0581ZM8.45766 10.7828H15.5623V18.0581C15.5431 18.8065 15.2907 19.3376 14.8053 19.6513L12.6726 20.8326L12.01 21.1978L11.3491 20.8326L9.21642 19.6513C8.73161 19.3376 8.47869 18.8065 8.45766 18.0581V10.7828ZM15.3046 22.5693L16.0213 22.7238C14.6708 23.6843 13.3227 24 12.135 24C10.0624 24 8.47935 23.0395 8.21982 22.8723L8.89748 22.7265L8.72025 21.9278C9.06449 22.1479 12.2684 24.0742 15.4728 21.8115L15.3046 22.5693ZM13.4824 8.451C13.7521 8.05101 13.9864 7.71256 14.2231 7.49719L13.0937 6.81494L13.5292 4.40298C12.2082 3.44248 10.7273 4.29128 10.7273 4.29128L11.1226 6.74872L10.0628 7.47846C10.3254 7.72661 10.5441 8.07041 10.8282 8.48779C11.2019 9.0376 11.6795 9.2202 12.1132 9.2202C12.5338 9.2202 13.1027 9.01419 13.4824 8.451ZM13.8326 6.34806L15.4144 7.35137C14.8275 7.83831 14.5079 8.20485 14.2472 8.5841L14.2454 8.58611C13.9444 8.98141 13.4992 10.0443 12.1421 10.0443C11.167 10.0443 10.5134 9.38408 10.189 8.95265C10.1199 8.83761 10.0412 8.7132 9.9523 8.58946L9.9505 8.58611C9.89943 8.51521 9.84596 8.44632 9.78829 8.3801C9.53237 8.04432 9.17131 7.62561 8.80004 7.36141L10.3776 6.34806L9.89643 4.30533C9.89643 3.62174 10.9436 3.00237 12.0952 3.00237C13.2751 3.00237 14.3229 3.62174 14.3229 4.30533L13.8326 6.34806ZM13.6111 14.3975H12.3832V17.8154H11.6214V14.3975H10.3916V13.5473H13.6111V14.3975Z" fill="#1E1D24"/>
</svg>
